<svg width="433" height="80" viewBox="0 0 433 80" fill="none" xmlns="http://www.w3.org/2000/svg">
<g clip-path="url(#clip0_944_5105)">
<path d="M72.32 0.303755C72.639 0.301764 72.9552 0.362964 73.2505 0.48383C73.5457 0.604697 73.8142 0.782841 74.0404 1.008C74.2666 1.23316 74.446 1.50089 74.5684 1.79576C74.6907 2.09063 74.7536 2.40682 74.7534 2.72611C74.7514 3.05081 74.6854 3.37192 74.5592 3.67105C74.433 3.97017 74.2491 4.24143 74.018 4.46927C73.7868 4.69711 73.513 4.87705 73.2123 4.99878C72.9115 5.12051 72.5897 5.18164 72.2653 5.17865C71.6244 5.154 71.0175 4.88371 70.5702 4.42369C70.1229 3.96367 69.8693 3.34914 69.8621 2.70724C69.8734 1.46022 70.9497 0.254704 72.32 0.303755Z" fill="#F5F5F6"/>
<path d="M73.5583 4.21273C73.515 3.96747 73.4905 3.71845 73.4622 3.46942C73.4535 3.24311 73.3568 3.02917 73.1927 2.87326C73.0871 2.78271 73.0871 2.70347 73.1927 2.63178C73.4999 2.40728 73.549 2.10543 73.4924 1.76396C73.4767 1.6525 73.4342 1.54653 73.3686 1.45516C73.3029 1.36379 73.216 1.28978 73.1154 1.23949C72.9634 1.15016 72.792 1.09903 72.6159 1.09045C72.4161 1.09045 72.2163 1.09045 72.0146 1.09045C71.8148 1.09045 71.615 1.09045 71.4152 1.09045C71.3661 1.09317 71.3197 1.11391 71.285 1.14872C71.2502 1.18353 71.2295 1.22996 71.2267 1.27911C71.2267 2.25635 71.2267 3.23297 71.2267 4.20895C71.2286 4.23381 71.2349 4.25812 71.2456 4.28064C71.259 4.31458 71.2821 4.34387 71.3118 4.36497C71.3416 4.38607 71.3769 4.39806 71.4133 4.3995C71.5095 4.3995 71.6433 4.32404 71.6452 4.25046C71.6546 3.92597 71.6602 3.59959 71.6697 3.2751C71.6697 3.04683 71.7639 2.95439 71.9864 2.9525C72.1614 2.94933 72.3364 2.95752 72.5103 2.97702C72.5798 2.97727 72.6486 2.99124 72.7126 3.01813C72.7767 3.04503 72.8348 3.08431 72.8837 3.13374C72.9325 3.18317 72.9712 3.24176 72.9973 3.30616C73.0235 3.37057 73.0367 3.43951 73.0362 3.50904C73.0513 3.6826 73.0513 3.85994 73.0758 4.0335C73.0946 4.13074 73.1257 4.22519 73.1682 4.3146C73.2002 4.39384 73.3981 4.441 73.5075 4.38629C73.5697 4.36365 73.5697 4.29574 73.5583 4.21273ZM73.0362 2.09222C73.0205 2.21536 72.9647 2.3299 72.8775 2.4182C72.7903 2.50649 72.6766 2.56364 72.5537 2.58084C72.4913 2.58964 72.4283 2.59405 72.3652 2.59405C72.09 2.59405 71.9883 2.59405 71.894 2.59405C71.8633 2.59646 71.8324 2.59206 71.8035 2.58114C71.7747 2.57022 71.7487 2.55306 71.7272 2.53089C71.7058 2.50872 71.6896 2.48209 71.6796 2.45289C71.6697 2.42369 71.6662 2.39266 71.6697 2.362C71.6697 2.11486 71.6697 1.86961 71.6697 1.62247C71.6708 1.59196 71.6782 1.562 71.6913 1.53443C71.7044 1.50686 71.723 1.48226 71.7459 1.46213C71.7689 1.442 71.7957 1.42676 71.8247 1.41735C71.8537 1.40794 71.8843 1.40455 71.9147 1.4074C72.0636 1.4074 72.2126 1.4074 72.3596 1.4074C72.4574 1.41539 72.554 1.43373 72.648 1.46211C72.7818 1.49611 72.8971 1.58088 72.9695 1.69848C73.042 1.81608 73.0659 1.95729 73.0362 2.09222V2.09222Z" fill="#EA2849"/>
<path d="M72.3087 0.00567692C71.7643 0.00530373 71.2321 0.166529 70.7793 0.468958C70.3265 0.771388 69.9734 1.20143 69.7648 1.7047C69.5563 2.20797 69.5015 2.76184 69.6075 3.29627C69.7134 3.83069 69.9754 4.32165 70.3602 4.70705C70.745 5.09245 71.2353 5.35497 71.7692 5.4614C72.3031 5.56783 72.8565 5.51339 73.3595 5.30498C73.8624 5.09656 74.2923 4.74352 74.5948 4.29052C74.8973 3.83753 75.0587 3.30492 75.0587 2.76007C75.0587 2.02989 74.769 1.32958 74.2534 0.813087C73.7377 0.296592 73.0382 0.00617704 72.3087 0.00567692V0.00567692ZM72.3087 5.04659C71.8568 5.04659 71.4151 4.91249 71.0394 4.66124C70.6638 4.41 70.371 4.05289 70.1981 3.63508C70.0251 3.21728 69.9799 2.75753 70.0681 2.31399C70.1562 1.87045 70.3738 1.46303 70.6933 1.14325C71.0127 0.823477 71.4198 0.605707 71.863 0.517481C72.3061 0.429255 72.7655 0.474536 73.1829 0.647597C73.6004 0.820659 73.9571 1.11373 74.2082 1.48975C74.4592 1.86576 74.5932 2.30784 74.5932 2.76007C74.5917 3.36584 74.3501 3.94626 73.9214 4.37389C73.4927 4.80153 72.912 5.04143 72.3068 5.04093L72.3087 5.04659Z" fill="#EA2D4E"/>
<path d="M10.6366 75.8609H9.515C9.46644 75.8567 9.42094 75.8354 9.38647 75.8009C9.352 75.7664 9.33076 75.7209 9.32651 75.6723C9.32651 75.4232 9.3152 75.1742 9.32651 74.9176C9.32133 74.8431 9.33296 74.7683 9.36047 74.6988C9.60174 74.1988 9.48109 73.6706 9.48486 73.1537C9.48505 73.1161 9.47125 73.0799 9.44616 73.052C9.42106 73.0241 9.38648 73.0065 9.34915 73.0028C9.22385 72.991 9.09801 72.9859 8.97217 72.9877C8.92379 72.9979 8.87895 73.0207 8.84222 73.0539C8.80548 73.087 8.77812 73.1292 8.76293 73.1763C8.76293 73.6725 8.69322 74.1668 8.89113 74.6535C9.02308 74.9799 8.96652 75.3402 8.92505 75.6874C8.92505 75.7458 8.84212 75.7987 8.79311 75.8477C8.77209 75.862 8.74679 75.8687 8.72146 75.8666C8.02405 75.8666 7.32478 75.8666 6.62736 75.8666C6.56502 75.8687 6.50421 75.8468 6.45755 75.8054C6.41089 75.764 6.38194 75.7062 6.37665 75.644C6.37665 75.4459 6.37664 75.2459 6.36345 75.0478C6.34906 74.8722 6.39065 74.6965 6.48222 74.546C6.58356 74.3752 6.63271 74.1784 6.62359 73.98C6.62359 72.9575 6.62359 71.935 6.62359 70.9143C6.63862 70.7655 6.61251 70.6154 6.54816 70.4804C6.34648 70.1861 6.35967 69.8673 6.35967 69.5371C6.35967 69.4371 6.35967 69.3372 6.35967 69.2391C6.35989 69.208 6.3664 69.1773 6.37877 69.1489C6.39114 69.1204 6.40911 69.0947 6.43165 69.0734C6.45419 69.0521 6.48083 69.0355 6.50992 69.0248C6.53902 69.014 6.56997 69.0092 6.60095 69.0108C7.30025 69.0108 7.99768 69.0108 8.69698 69.0108C8.75914 69.0118 8.81839 69.0373 8.86182 69.0818C8.90525 69.1264 8.92933 69.1863 8.92882 69.2485C8.94202 69.6711 8.97595 70.088 8.79877 70.4993C8.6706 70.8011 8.72711 71.1388 8.76104 71.4595C8.76983 71.4941 8.78697 71.5259 8.81097 71.5522C8.83497 71.5786 8.86508 71.5986 8.89863 71.6105C9.04551 71.6297 9.19405 71.6328 9.3416 71.6199C9.36529 71.6139 9.38712 71.6022 9.4052 71.5857C9.42328 71.5693 9.43706 71.5486 9.44528 71.5256C9.50719 71.1575 9.50399 70.7814 9.43585 70.4144C9.26432 70.1691 9.3058 69.8899 9.30392 69.6183C9.30392 69.4692 9.30389 69.3202 9.32462 69.1711C9.32462 69.0862 9.40191 69.0523 9.46976 69.024C9.49327 69.0154 9.51829 69.0115 9.5433 69.0127H11.7128C11.7438 69.0124 11.7745 69.0184 11.8032 69.0303C11.8318 69.0422 11.8577 69.0598 11.8794 69.082C11.901 69.1042 11.918 69.1306 11.9292 69.1595C11.9404 69.1885 11.9457 69.2194 11.9447 69.2504C11.9447 69.4258 11.9447 69.5994 11.9541 69.7748C11.9741 69.9996 11.9205 70.2247 11.8014 70.4163C11.7118 70.5676 11.6704 70.7426 11.6826 70.9181L11.694 73.9102C11.6794 74.16 11.7384 74.4086 11.8636 74.6252C11.9188 74.736 11.9478 74.858 11.9484 74.9818C11.9597 75.1799 11.9484 75.3817 11.9484 75.5798C11.9519 75.6169 11.9475 75.6543 11.9354 75.6895C11.9233 75.7248 11.9039 75.757 11.8784 75.7842C11.8529 75.8113 11.8219 75.8327 11.7875 75.8469C11.7531 75.8611 11.7161 75.8678 11.6789 75.8666H10.6309L10.6366 75.8609Z" fill="white" stroke="white" stroke-width="0.914986" stroke-miterlimit="10"/>
<path d="M15.8012 72.3782C15.8012 71.8751 15.8012 71.3758 15.8012 70.8803C15.8178 70.6804 15.7659 70.4808 15.6541 70.3143C15.6239 70.2754 15.6044 70.2292 15.5976 70.1804C15.5558 69.8336 15.5602 69.4827 15.6108 69.1371C15.6195 69.1145 15.6332 69.0941 15.6508 69.0774C15.6684 69.0608 15.6895 69.0483 15.7126 69.0409C15.8093 69.0211 15.9079 69.0116 16.0066 69.0126C16.5061 69.0126 17.0056 69.0126 17.5145 69.0126C17.6132 69.0066 17.7107 68.9882 17.8048 68.9579C17.9028 68.9333 17.7954 68.9805 17.8369 68.8918C17.8557 68.8522 17.8595 68.7768 17.8369 68.7579C17.7426 68.6805 17.6352 68.6202 17.5334 68.5523C17.391 68.4493 17.2873 68.3014 17.2391 68.1324C17.1909 67.9633 17.2009 67.7829 17.2676 67.6203C17.3235 67.4798 17.4242 67.3617 17.5541 67.2845C17.6797 67.2145 17.82 67.1752 17.9636 67.17C18.1072 67.1648 18.25 67.1938 18.3802 67.2546C18.5105 67.3153 18.6245 67.4062 18.7129 67.5196C18.8013 67.633 18.8615 67.7658 18.8886 67.9071C18.939 68.2568 18.857 68.6127 18.6587 68.905C18.5061 69.1649 18.3029 69.3914 18.0612 69.571C17.9901 69.6208 17.9337 69.6887 17.8976 69.7676C17.8614 69.8465 17.847 69.9337 17.8557 70.02C17.8557 70.669 17.8557 71.318 17.8557 71.967V73.7649C17.8566 74.0391 17.8262 74.3125 17.7652 74.5799C17.5975 75.2892 17.1244 75.6967 16.459 75.8835C15.7312 76.0851 14.9617 76.0799 14.2367 75.8684C13.9675 75.8051 13.7173 75.6785 13.5068 75.499C13.2964 75.3195 13.1317 75.0924 13.0266 74.8364C12.956 74.6766 12.9151 74.5053 12.9059 74.3308C12.9059 74.1063 12.8909 73.8818 12.8909 73.6573C12.8909 72.8084 12.8909 71.9594 12.8909 71.1104C12.8909 70.835 12.8909 70.5615 12.7024 70.3294C12.6572 70.2698 12.6333 70.1967 12.6345 70.1219C12.6345 69.7974 12.6345 69.4748 12.6553 69.1503C12.6553 69.1145 12.7118 69.0711 12.7514 69.0484C12.7971 69.0284 12.8467 69.0188 12.8965 69.0201C13.5958 69.0201 14.2951 69.0201 14.9944 69.0201C15.2187 69.0201 15.2866 69.1013 15.2904 69.3503C15.2904 69.5484 15.2904 69.7483 15.2904 69.9483C15.3038 70.0987 15.2637 70.249 15.1772 70.3728C15.0741 70.5156 15.0223 70.6892 15.0302 70.8652C15.0302 71.9141 15.0302 72.9624 15.0302 74.0101C15.0321 74.0601 15.0378 74.11 15.0472 74.1591C15.0606 74.2133 15.085 74.2641 15.1187 74.3086C15.1524 74.353 15.1947 74.3902 15.2432 74.4177C15.2917 74.4452 15.3453 74.4626 15.4007 74.4687C15.4561 74.4749 15.5122 74.4697 15.5655 74.4535C15.6579 74.4195 15.754 74.3686 15.7672 74.2554C15.7904 74.0827 15.8043 73.9089 15.8087 73.7347C15.8087 73.2857 15.8087 72.8348 15.8087 72.3858L15.8012 72.3782Z" fill="white" stroke="white" stroke-width="0.914986" stroke-miterlimit="10"/>
<path d="M59.3537 69.0183C60.7391 69.0409 60.3508 68.7824 60.871 70.037C61.0802 70.5426 61.2707 71.0558 61.4723 71.5651C61.4939 71.6042 61.5243 71.6378 61.5609 71.6632C61.6043 71.6991 61.6401 71.6349 61.642 71.501C61.642 71.252 61.6552 71.0011 61.642 70.7464C61.6351 70.5979 61.6072 70.4512 61.559 70.3106C61.4252 69.9201 61.4818 69.5239 61.5138 69.1296C61.5138 69.0937 61.576 69.0579 61.6137 69.0277C61.6358 69.0164 61.6607 69.0118 61.6853 69.0145C62.2828 69.0145 62.8803 69.0145 63.4779 69.0145C63.5266 69.0184 63.5723 69.0395 63.6068 69.0741C63.6414 69.1087 63.6625 69.1544 63.6663 69.2032C63.6663 69.4522 63.6833 69.7012 63.6777 69.9578C63.6797 70.0569 63.655 70.1546 63.606 70.2408C63.4576 70.4734 63.3912 70.749 63.4175 71.0237V74.8365C63.4175 75.11 63.4176 75.3854 63.4025 75.659C63.4 75.7092 63.3796 75.7567 63.345 75.7931C63.3104 75.8295 63.2639 75.8522 63.214 75.8571C62.6485 75.8571 62.0679 75.8571 61.4949 75.8571C61.4594 75.8523 61.4254 75.8398 61.3952 75.8206C61.3649 75.8014 61.3391 75.7759 61.3197 75.7458C61.2122 75.5571 61.118 75.3458 61.0275 75.1421C60.7466 74.5044 60.462 73.8649 60.1868 73.2291C60.1736 73.2027 60.1039 73.197 60.0568 73.1876C60.0474 73.1876 60.0191 73.2159 60.0191 73.2291C60.0191 73.4781 60.0021 73.729 60.0191 73.9837C60.0258 74.1328 60.0657 74.2785 60.1359 74.4101C60.2356 74.5813 60.2822 74.7783 60.2697 74.9761C60.2697 75.1987 60.2697 75.4232 60.2603 75.6477C60.2603 75.6789 60.2537 75.7097 60.2408 75.7381C60.228 75.7666 60.2093 75.792 60.186 75.8126C60.1627 75.8333 60.1352 75.8488 60.1055 75.8581C60.0757 75.8674 60.0444 75.8703 60.0134 75.8665C59.4655 75.8665 58.917 75.8665 58.3679 75.8665C58.3189 75.8648 58.272 75.8459 58.2355 75.8132C58.199 75.7804 58.1751 75.7359 58.1681 75.6873C58.1681 75.4873 58.153 75.2892 58.1511 75.0911C58.1242 74.867 58.1719 74.6402 58.2868 74.4459C58.3713 74.291 58.4062 74.1139 58.3867 73.9385V70.8709C58.3917 70.6729 58.3429 70.4773 58.2454 70.3049C58.1936 70.2212 58.1638 70.1259 58.1587 70.0276C58.1587 69.754 58.1587 69.4805 58.1681 69.2069C58.173 69.1595 58.1946 69.1153 58.2292 69.0824C58.2638 69.0496 58.309 69.0302 58.3566 69.0277L59.3537 69.0183Z" fill="white" stroke="white" stroke-width="0.914986" stroke-miterlimit="10"/>
<path d="M25.8684 69.0089H26.4659C27.0013 69.0089 26.9466 68.9749 27.152 69.4975C27.4235 70.1918 27.6873 70.8898 27.9588 71.5859C27.9862 71.6247 28.0273 71.6516 28.0737 71.6614C28.1322 71.6821 28.151 71.6463 28.1492 71.5765C28.1303 71.1067 28.2245 70.6332 28.0021 70.1785C27.9484 69.8338 27.9522 69.4825 28.0134 69.139C28.0134 69.1013 28.0719 69.0598 28.1115 69.0391C28.1573 69.0196 28.2069 69.0106 28.2566 69.0126C28.7806 69.0126 29.3046 69.0126 29.8267 69.0126C30.1038 69.0126 30.1566 69.073 30.1622 69.3749C30.1622 69.5503 30.1622 69.7239 30.1622 69.8993C30.1773 70.0489 30.1415 70.1991 30.0604 70.3257C29.9539 70.4948 29.9002 70.6918 29.9059 70.8917C29.9059 71.0652 29.9059 71.2407 29.9059 71.4142C29.9059 72.711 29.9059 74.007 29.9059 75.3025C29.9027 75.4511 29.8882 75.5993 29.8625 75.7458C29.8625 75.7835 29.7984 75.8156 29.7608 75.8439C29.7396 75.8561 29.7154 75.862 29.691 75.8609C29.1425 75.8609 28.594 75.8609 28.0455 75.8609C27.9837 75.8596 27.9239 75.8394 27.874 75.8029C27.8241 75.7665 27.7866 75.7156 27.7665 75.6571C27.4668 74.9723 27.1709 74.2875 26.8712 73.6027C26.8127 73.4649 26.7468 73.331 26.6827 73.1989C26.6827 73.1857 26.6337 73.1876 26.6111 73.1989C26.5885 73.2103 26.5715 73.2235 26.5715 73.2386C26.5715 73.5366 26.5583 73.8328 26.5602 74.1309C26.5562 74.2066 26.5738 74.2819 26.6111 74.3479C26.8976 74.7535 26.7769 75.21 26.775 75.6496C26.7738 75.6805 26.7665 75.7108 26.7535 75.7389C26.7405 75.7669 26.7221 75.7921 26.6993 75.813C26.6765 75.8339 26.6499 75.85 26.6208 75.8605C26.5917 75.871 26.5609 75.8756 26.53 75.8741H24.8845C24.8534 75.8736 24.8227 75.8669 24.7942 75.8543C24.7658 75.8417 24.7401 75.8235 24.7189 75.8008C24.6976 75.7781 24.6811 75.7514 24.6704 75.7221C24.6596 75.6929 24.6549 75.6618 24.6564 75.6307C24.6564 75.3817 24.6564 75.1327 24.6564 74.8761C24.6473 74.7518 24.6805 74.6281 24.7507 74.5252C24.8638 74.3593 24.9164 74.1594 24.8996 73.9592C24.8996 72.9116 24.8996 71.8651 24.8996 70.82C24.9205 70.6697 24.8863 70.5169 24.8034 70.3898C24.6686 70.2078 24.6092 69.9807 24.6376 69.756C24.6376 69.5824 24.6376 69.4088 24.6489 69.2334C24.6498 69.2025 24.657 69.172 24.6701 69.144C24.6832 69.116 24.7019 69.091 24.725 69.0705C24.7482 69.05 24.7753 69.0344 24.8046 69.0248C24.834 69.0152 24.865 69.0117 24.8958 69.0145C25.22 69.0145 25.5442 69.0145 25.8684 69.0145V69.0089Z" fill="white" stroke="white" stroke-width="0.914986" stroke-miterlimit="10"/>
<path d="M64.3544 72.3839V70.9614C64.3556 70.7366 64.3854 70.5128 64.443 70.2955C64.5021 70.0507 64.6183 69.8234 64.7821 69.6322C64.9459 69.441 65.1527 69.2914 65.3854 69.1956C65.633 69.0729 65.9031 69.0023 66.179 68.9881C66.5277 68.9881 66.8764 68.9636 67.227 68.9636C67.9547 68.9828 68.6619 69.2085 69.2664 69.6144C69.31 69.6391 69.3461 69.6751 69.371 69.7186C69.3958 69.7621 69.4085 69.8115 69.4078 69.8616C69.4078 70.2867 69.4078 70.7112 69.4078 71.135C69.4112 71.1659 69.4082 71.1971 69.3989 71.2267C69.3896 71.2563 69.3744 71.2837 69.354 71.3071C69.3336 71.3305 69.3086 71.3494 69.2805 71.3627C69.2525 71.3759 69.222 71.3832 69.191 71.384C68.6425 71.384 68.0921 71.384 67.5436 71.384C67.3985 71.384 67.3438 71.318 67.3268 71.1463C67.3136 71.0218 67.3137 70.8954 67.2929 70.769C67.2777 70.683 67.2388 70.6029 67.1805 70.5379C67.1222 70.4729 67.0469 70.4255 66.9631 70.4011C66.8028 70.3747 66.5974 70.569 66.5691 70.7784C66.5498 70.9033 66.5391 71.0294 66.5371 71.1558C66.5371 72.0563 66.5371 72.9549 66.5371 73.8517C66.5389 73.9514 66.5465 74.0509 66.5597 74.1497C66.566 74.2243 66.5942 74.2953 66.6408 74.3538C66.6875 74.4122 66.7504 74.4555 66.8217 74.478C66.9083 74.4923 66.9971 74.4784 67.0752 74.4384C67.1533 74.3983 67.2164 74.3341 67.2552 74.2554C67.3452 73.9956 67.3538 73.7146 67.2797 73.4498C67.2797 73.4121 67.2138 73.3744 67.1704 73.3555C67.1241 73.3377 67.0845 73.3056 67.0574 73.2639C67.0303 73.2223 67.0171 73.1731 67.0196 73.1235C67.0196 72.8254 67.0196 72.5254 67.0196 72.2273C67.0242 72.1789 67.0456 72.1335 67.08 72.0991C67.1144 72.0646 67.1597 72.0433 67.2081 72.0387C67.8584 72.0387 68.5068 72.0387 69.1552 72.0387C69.1862 72.0382 69.217 72.0439 69.2457 72.0556C69.2744 72.0673 69.3005 72.0847 69.3223 72.1067C69.3442 72.1287 69.3613 72.155 69.3728 72.1838C69.3842 72.2126 69.3897 72.2435 69.389 72.2745C69.389 72.9499 69.389 73.6234 69.389 74.2969C69.389 74.5723 69.389 74.8459 69.389 75.1213C69.3876 75.1842 69.3694 75.2456 69.3363 75.299C69.3031 75.3525 69.2562 75.396 69.2005 75.4251C69.0289 75.5265 68.8477 75.6105 68.6595 75.676C67.7828 75.9808 66.8435 76.0599 65.9283 75.9061C65.7813 75.8801 65.6364 75.8436 65.4947 75.7967C65.2431 75.7174 65.0167 75.5734 64.8381 75.379C64.6595 75.1847 64.5349 74.9469 64.4769 74.6893C64.3859 74.3773 64.3395 74.054 64.3393 73.729C64.3393 73.28 64.3393 72.8291 64.3393 72.3801L64.3544 72.3839Z" fill="white" stroke="white" stroke-width="0.914986" stroke-miterlimit="10"/>
<path d="M30.869 72.3877C30.869 71.9387 30.869 71.4897 30.869 71.0407C30.8672 70.8662 30.8747 70.6917 30.8917 70.5181C30.917 70.2432 31.0136 69.9797 31.172 69.7537C31.3303 69.5277 31.545 69.347 31.7946 69.2296C32.0368 69.0981 32.3039 69.0191 32.5787 68.9975C32.9274 68.9805 33.2761 68.9654 33.6248 68.9617C34.3776 68.9649 35.1124 69.1921 35.7359 69.6144C35.7667 69.6339 35.7932 69.6595 35.8136 69.6897C35.834 69.7199 35.848 69.754 35.8546 69.7899C35.864 70.2615 35.8546 70.7332 35.8546 71.2086C35.8486 71.2574 35.825 71.3024 35.7882 71.3351C35.7514 71.3677 35.704 71.3858 35.6548 71.3859C35.1063 71.3859 34.5578 71.3859 34.0093 71.3859C33.8755 71.3859 33.8019 71.2972 33.785 71.1425C33.768 70.9878 33.7605 70.8445 33.7397 70.6973C33.7274 70.6493 33.7077 70.6034 33.6813 70.5615C33.6598 70.5234 33.6301 70.4907 33.5943 70.4657C33.5584 70.4408 33.5174 70.4243 33.4743 70.4174C33.4312 70.4105 33.3871 70.4134 33.3452 70.4259C33.3034 70.4385 33.2649 70.4603 33.2327 70.4898C33.1461 70.5763 33.0781 70.6797 33.0329 70.7935C33.001 70.9166 32.989 71.044 32.9971 71.1708C32.9971 72.0688 32.9971 72.9662 32.9971 73.863C32.9993 73.9898 33.0131 74.1161 33.0386 74.2403C33.0655 74.31 33.1101 74.3715 33.1679 74.4187C33.2257 74.466 33.2948 74.4975 33.3684 74.5101C33.4551 74.5091 33.539 74.4795 33.6071 74.426C33.6753 74.3724 33.7239 74.2979 33.7454 74.2139C33.7605 73.9913 33.7605 73.7668 33.7586 73.5441C33.7577 73.5197 33.7514 73.4957 33.7404 73.4739C33.7293 73.4521 33.7137 73.433 33.6945 73.4177C33.4702 73.3178 33.457 73.1272 33.4646 72.9216C33.4721 72.7159 33.4646 72.4745 33.4815 72.25C33.4895 72.2009 33.5134 72.1559 33.5495 72.1218C33.5857 72.0877 33.6319 72.0664 33.6813 72.0613C34.3052 72.0613 34.9273 72.05 35.5512 72.05C35.7736 72.05 35.864 72.1405 35.864 72.365C35.864 73.263 35.864 74.1611 35.864 75.0591C35.8675 75.1588 35.84 75.2571 35.7853 75.3406C35.7306 75.424 35.6515 75.4885 35.5587 75.525C35.245 75.6791 34.9122 75.7907 34.5691 75.8571C33.8382 76.028 33.0802 76.0485 32.3412 75.9175C31.5401 75.7646 31.0519 75.2911 30.9048 74.495C30.8835 74.3702 30.871 74.2442 30.8672 74.1177C30.8577 73.9441 30.8539 73.7686 30.8539 73.5951C30.8671 73.1857 30.869 72.7876 30.869 72.3877Z" fill="white" stroke="white" stroke-width="0.914986" stroke-miterlimit="10"/>
<path d="M43.3678 72.3971V73.895C43.3524 74.0963 43.3963 74.2977 43.4941 74.4742C43.6002 74.6429 43.6491 74.8414 43.6336 75.0402C43.6336 75.2401 43.6336 75.4401 43.6336 75.6401C43.6337 75.6712 43.6273 75.7021 43.6149 75.7306C43.6025 75.7592 43.5842 75.7848 43.5614 75.8059C43.5385 75.827 43.5115 75.8431 43.4821 75.8532C43.4527 75.8634 43.4214 75.8672 43.3904 75.8646C42.6641 75.8646 41.9397 75.8646 41.2172 75.8646C41.1861 75.8659 41.1551 75.8608 41.1261 75.8497C41.0971 75.8386 41.0706 75.8216 41.0484 75.7999C41.0261 75.7781 41.0086 75.7521 40.9967 75.7233C40.9849 75.6945 40.9791 75.6637 40.9797 75.6326C40.9797 75.4081 40.9797 75.1835 40.9797 74.959C40.9755 74.8334 41.0133 74.7099 41.0871 74.6081C41.1907 74.4658 41.2456 74.2937 41.2435 74.1176C41.2435 72.9857 41.2435 71.8707 41.2435 70.7463C41.2435 70.6558 41.1757 70.5973 41.1135 70.6237C41.0513 70.6501 40.9815 70.6916 40.9721 70.7746C40.9627 70.8576 40.9495 70.9727 40.9457 71.0727C40.9457 71.2727 40.9457 71.4727 40.9457 71.6726C40.9457 71.7462 40.9457 71.8217 40.9325 71.8953C40.9254 71.9427 40.9032 71.9867 40.8693 72.0207C40.8354 72.0546 40.7915 72.0768 40.7441 72.0839C40.3935 72.0839 40.0447 72.099 39.696 72.0971C39.4736 72.0971 39.3794 72.0028 39.3794 71.7764C39.3794 70.9513 39.3794 70.1269 39.3794 69.3031C39.3745 69.2661 39.3776 69.2285 39.3886 69.1928C39.3996 69.1572 39.4182 69.1243 39.4431 69.0965C39.468 69.0687 39.4986 69.0467 39.5329 69.0319C39.5671 69.017 39.6041 69.0098 39.6414 69.0107C39.7413 69.0107 39.8412 69.0107 39.9411 69.0107H44.7382C44.8626 69.0107 44.987 69.022 45.1151 69.0296C45.1518 69.0346 45.1862 69.0503 45.2141 69.0748C45.2419 69.0993 45.2619 69.1315 45.2716 69.1673C45.2906 69.2392 45.2982 69.3137 45.2942 69.388C45.2942 70.164 45.2942 70.9381 45.2942 71.7104C45.2995 71.7851 45.2899 71.8601 45.2659 71.9311C45.2377 71.9896 45.1717 72.0669 45.1151 72.0726C44.6949 72.1301 44.2687 72.1301 43.8485 72.0726C43.8252 72.0644 43.804 72.0509 43.7867 72.0332C43.7694 72.0156 43.7564 71.9942 43.7486 71.9707C43.726 71.8993 43.7146 71.8249 43.7147 71.75C43.7147 71.5255 43.7147 71.301 43.7147 71.0765C43.7103 70.9766 43.7002 70.8771 43.6845 70.7784C43.6845 70.7143 43.5733 70.6407 43.5243 70.6709C43.4753 70.7011 43.4394 70.7256 43.4357 70.7614C43.4163 70.8863 43.4069 71.0124 43.4074 71.1387C43.4074 71.5632 43.4074 71.9877 43.4074 72.4122L43.3678 72.3971Z" fill="white" stroke="white" stroke-width="0.914986" stroke-miterlimit="10"/>
<path d="M23.5123 67.5072C23.3902 67.5298 23.2756 67.5823 23.1786 67.66C23.0933 67.7328 23.0252 67.8238 22.9794 67.9263C22.9336 68.0288 22.9113 68.1403 22.914 68.2525C22.9167 68.3648 22.9444 68.475 22.9951 68.5752C23.0458 68.6753 23.1181 68.7629 23.2069 68.8316C23.3114 68.8992 23.4211 68.9585 23.5349 69.0089C23.6028 69.0447 23.6141 69.1089 23.5745 69.1976C23.4878 69.3862 23.386 69.4353 23.2333 69.3353C22.9136 69.1417 22.5586 69.0134 22.1891 68.958C21.5003 68.8408 20.795 68.8646 20.1157 69.0278C19.9218 69.0751 19.7354 69.1487 19.5615 69.2466C19.3489 69.3541 19.1648 69.5106 19.0243 69.7031C18.8837 69.8955 18.7907 70.1186 18.7529 70.354C18.7073 70.6241 18.6815 70.8971 18.6756 71.1709C18.6643 71.569 18.6756 71.967 18.6756 72.367C18.6756 72.7669 18.6643 73.165 18.6756 73.5631C18.6799 73.8622 18.707 74.1605 18.7567 74.4554C18.8004 74.7278 18.9122 74.9847 19.0815 75.2024C19.2509 75.42 19.4724 75.5914 19.7255 75.7006C19.8828 75.777 20.0486 75.8346 20.2193 75.8722C20.9535 76.0309 21.7131 76.0309 22.4473 75.8722C22.6177 75.8336 22.7829 75.7747 22.9392 75.6968C23.1217 75.6142 23.2847 75.4938 23.4172 75.3436C23.5498 75.1933 23.649 75.0166 23.7083 74.8252C23.7905 74.5896 23.8356 74.3427 23.8421 74.0932C23.8421 72.9971 23.8421 71.8991 23.8421 70.803C23.8241 70.5308 23.7901 70.26 23.7403 69.9918C23.8723 69.7164 24.1494 69.5635 24.3058 69.3126C24.4649 69.0891 24.5672 68.8301 24.6036 68.558C24.6734 67.86 24.221 67.3902 23.5123 67.5072ZM21.6934 73.6027C21.6855 73.8015 21.6634 73.9994 21.6274 74.1951C21.614 74.269 21.5763 74.3363 21.5203 74.3862C21.4642 74.4361 21.3931 74.4658 21.3183 74.4705C21.2435 74.4703 21.1703 74.4496 21.1065 74.4107C21.0427 74.3718 20.9908 74.3161 20.9564 74.2498C20.9242 74.1828 20.9013 74.1117 20.8885 74.0385C20.8758 73.9131 20.8707 73.7871 20.8734 73.6612C20.8734 72.8361 20.8734 72.0117 20.8734 71.1879C20.8701 71.0386 20.8821 70.8894 20.9092 70.7427C20.9261 70.6692 20.9622 70.6017 21.0139 70.547C21.0656 70.4922 21.131 70.4523 21.2033 70.4314C21.2496 70.4137 21.2993 70.4062 21.3489 70.4095C21.3984 70.4127 21.4467 70.4267 21.4903 70.4503C21.534 70.4739 21.572 70.5067 21.6019 70.5464C21.6317 70.5862 21.6526 70.6318 21.6632 70.6804C21.6824 70.8287 21.6931 70.978 21.6952 71.1275C21.6952 71.5256 21.6952 71.9255 21.6952 72.3255C21.6952 72.7254 21.7047 73.1782 21.6934 73.6027V73.6027Z" fill="white" stroke="white" stroke-width="0.914986" stroke-miterlimit="10"/>
<path d="M51.4031 74.8252C51.3958 74.7503 51.3663 74.6794 51.3183 74.6214C51.1937 74.4326 51.136 74.2074 51.1544 73.9819C51.1544 73.7574 51.1543 73.5329 51.1393 73.3084C51.1358 73.1831 51.1042 73.0602 51.0468 72.9488C50.9893 72.8374 50.9076 72.7404 50.8075 72.665C50.7491 72.6198 50.6812 72.5839 50.619 72.5405C50.6035 72.5308 50.5904 72.5176 50.5808 72.502C50.5712 72.4863 50.5654 72.4687 50.5637 72.4504C50.5621 72.4321 50.5647 72.4137 50.5714 72.3966C50.578 72.3795 50.5885 72.3642 50.6021 72.3519C50.9036 72.1684 51.1209 71.8737 51.2071 71.5312C51.3044 71.142 51.3134 70.7359 51.2335 70.3427C51.1842 70.0698 51.0598 69.8162 50.8743 69.6102C50.6889 69.4042 50.4496 69.2541 50.1836 69.1768C49.8515 69.0643 49.5032 69.0075 49.1526 69.0089C48.6776 69.0089 48.2101 69.0089 47.7276 69.0089H47.4279H46.1537C45.9652 69.0089 45.8973 69.0957 45.8936 69.2937C45.8898 69.4918 45.8936 69.7427 45.8936 69.9672C45.8764 70.1425 45.9277 70.3177 46.0368 70.4559C46.1269 70.5774 46.1698 70.7276 46.1575 70.8785C46.1575 71.9035 46.1575 72.9273 46.1575 73.9498C46.1672 74.1476 46.1201 74.344 46.0218 74.5158C45.9282 74.6643 45.884 74.8386 45.8955 75.0138C45.8955 75.1893 45.8955 75.3628 45.8955 75.5383C45.8955 75.5628 45.8955 75.5892 45.8955 75.6138C45.8952 75.6446 45.9011 75.6753 45.9127 75.7039C45.9243 75.7325 45.9415 75.7585 45.9632 75.7804C45.985 75.8023 46.0108 75.8197 46.0393 75.8316C46.0678 75.8435 46.0983 75.8496 46.1292 75.8496H48.3119C48.3368 75.8529 48.3621 75.8476 48.3835 75.8345C48.4351 75.7866 48.483 75.7349 48.5268 75.6798C48.5409 75.6587 48.5476 75.6334 48.5456 75.6081C48.5456 75.2157 48.6455 74.8044 48.3572 74.4611C48.3429 74.4404 48.3345 74.4163 48.3327 74.3913C48.2713 74.0221 48.2713 73.6454 48.3327 73.2763C48.3447 73.2575 48.3611 73.2418 48.3804 73.2307C48.3998 73.2195 48.4215 73.2131 48.4438 73.2122C48.5702 73.2092 48.6929 73.2543 48.7873 73.3383C48.8818 73.4223 48.9409 73.539 48.9528 73.6649C48.9754 73.8875 48.9716 74.1139 48.983 74.3365C49.0018 74.7365 49.0168 75.1346 49.0432 75.5326C49.0602 75.7647 49.1526 75.8515 49.3694 75.8552C49.7463 75.8552 50.1233 75.8552 50.5003 75.8552C50.751 75.8552 50.9998 75.8552 51.2543 75.8307C51.3108 75.8307 51.405 75.7496 51.4069 75.7024C51.4031 75.4232 51.4069 75.1232 51.4031 74.8252ZM49.0659 71.4105C49.054 71.4832 49.0267 71.5525 48.9859 71.6139C48.9451 71.6753 48.8917 71.7272 48.8293 71.7663C48.7669 71.8054 48.6969 71.8307 48.6239 71.8406C48.551 71.8505 48.4767 71.8447 48.4062 71.8236C48.3845 71.8162 48.3649 71.8038 48.3488 71.7874C48.3328 71.771 48.3208 71.7511 48.3138 71.7293C48.2893 71.5406 48.278 71.3407 48.278 71.318C48.278 71.0237 48.278 70.9011 48.278 70.7785C48.278 70.4766 48.4024 70.4672 48.655 70.5087C48.7409 70.5188 48.8218 70.5547 48.887 70.6116C48.9523 70.6684 48.9988 70.7437 49.0206 70.8275C49.0771 71.0164 49.0925 71.2152 49.0659 71.4105Z" fill="white" stroke="white" stroke-width="0.914986" stroke-miterlimit="10"/>
<path d="M57.5895 74.7742C57.5861 74.7246 57.5692 74.677 57.5405 74.6365C57.2634 74.2874 57.2144 73.863 57.1352 73.4479C56.9065 72.2493 56.6772 71.0507 56.4472 69.8521C56.4057 69.6314 56.3624 69.4125 56.3153 69.1937C56.3022 69.1455 56.2741 69.1028 56.2352 69.0716C56.1962 69.0404 56.1484 69.0224 56.0985 69.0201C55.2013 69.0201 54.3035 69.0201 53.405 69.0201C53.3556 69.0263 53.3094 69.0478 53.2728 69.0816C53.2363 69.1155 53.2113 69.16 53.2014 69.2088C53.1637 69.3541 53.1279 69.4993 53.1015 69.6446C52.8546 70.9935 52.6077 72.3405 52.3702 73.6894C52.3429 73.9881 52.2523 74.2775 52.1044 74.5384C52.0628 74.5998 52.0392 74.6717 52.0366 74.7459C52.0366 75.0685 52.0366 75.393 52.0479 75.7156C52.0479 75.8042 52.1289 75.8325 52.193 75.8665C52.2164 75.8756 52.2416 75.8788 52.2665 75.8759C52.864 75.8759 53.4634 75.8759 54.0609 75.8759C54.11 75.8772 54.1586 75.8662 54.2023 75.8439C54.2419 75.8212 54.2947 75.7816 54.3003 75.7439C54.3211 75.5722 54.3343 75.3986 54.3418 75.2251C54.3819 74.951 54.3202 74.6718 54.1684 74.4403C54.142 74.4044 54.1476 74.3459 54.1363 74.2969C54.1285 74.2487 54.1397 74.1994 54.1675 74.1593C54.1952 74.1192 54.2374 74.0914 54.2852 74.0818C54.5077 74.0818 54.732 74.0818 54.9563 74.0818C54.9863 74.0839 55.0153 74.0932 55.041 74.1088C55.0667 74.1244 55.0883 74.1459 55.1039 74.1716C55.1196 74.1972 55.1289 74.2263 55.1311 74.2563C55.1333 74.2863 55.1283 74.3164 55.1165 74.344C55.0589 74.4538 55.0085 74.5672 54.9657 74.6836C54.879 75.0457 54.879 75.4233 54.9657 75.7854C55.2107 75.974 55.4954 75.8552 55.7611 75.8797C55.9345 75.8948 56.1098 75.8797 56.2833 75.8797C56.583 75.8797 56.8827 75.8797 57.1824 75.8797C57.2807 75.8804 57.3787 75.8697 57.4745 75.8476C57.4975 75.8397 57.5183 75.8266 57.5353 75.8092C57.5523 75.7919 57.565 75.7708 57.5725 75.7477C57.6231 75.4255 57.6289 75.0979 57.5895 74.7742V74.7742ZM54.5906 72.7367H54.5171C54.4862 72.736 54.4558 72.7287 54.4279 72.7152C54.4 72.7018 54.3754 72.6826 54.3556 72.6588C54.3357 72.635 54.3212 72.6073 54.313 72.5774C54.3048 72.5476 54.303 72.5163 54.3079 72.4858C54.372 72.0952 54.4361 71.7028 54.5058 71.3123C54.5058 71.2727 54.5661 71.2387 54.6019 71.2104C54.6377 71.1821 54.6924 71.184 54.7037 71.2576C54.7659 71.65 54.8337 72.0405 54.8922 72.4329C54.9223 72.6518 54.8262 72.7423 54.5906 72.7367Z" fill="white" stroke="white" stroke-width="0.914986" stroke-miterlimit="10"/>
<path d="M5.8583 70.7634C5.85426 70.6143 5.83014 70.4664 5.78665 70.3238C5.61135 69.7201 5.17594 69.3692 4.6067 69.1692C4.32579 69.0638 4.02834 69.0095 3.72835 69.0089C3.25524 69.0089 2.78589 69.0089 2.30712 69.0089H0.8859C0.787047 69.0075 0.688405 69.0176 0.59189 69.039C0.56871 69.047 0.547635 69.0601 0.530317 69.0774C0.512999 69.0947 0.499893 69.1158 0.491984 69.139C0.470279 69.2356 0.460753 69.3344 0.463683 69.4333C0.463683 69.8238 0.384528 70.2295 0.663494 70.5785C0.709265 70.668 0.727005 70.7692 0.71439 70.869C0.71439 71.9142 0.71439 72.9606 0.71439 74.0083C0.723033 74.2101 0.664733 74.4091 0.54854 74.5742C0.49443 74.6573 0.46558 74.7543 0.46557 74.8534C0.46557 75.127 0.46557 75.4005 0.46557 75.6741C0.469449 75.7228 0.490574 75.7686 0.525117 75.8032C0.559661 75.8378 0.605362 75.8589 0.65406 75.8628H2.89524C2.94316 75.8568 2.98773 75.835 3.02188 75.8009C3.05603 75.7667 3.07779 75.7221 3.08373 75.6741C3.08373 75.4005 3.1007 75.1251 3.09505 74.8516C3.08503 74.754 3.06022 74.6586 3.02151 74.5686C2.81606 74.0026 2.86697 73.9366 3.47203 73.929C3.59643 73.929 3.72083 73.929 3.84901 73.929C4.12334 73.9293 4.39603 73.8873 4.65759 73.8045C4.9148 73.7469 5.15148 73.6202 5.34211 73.4381C5.53275 73.2559 5.67014 73.0252 5.73953 72.7707C5.79139 72.6047 5.82304 72.433 5.83377 72.2594C5.86958 71.7595 5.86772 71.2614 5.8583 70.7634ZM3.62278 72.1198C3.60872 72.1804 3.58211 72.2374 3.54469 72.2871C3.50727 72.3368 3.45988 72.3781 3.40553 72.4083C3.35118 72.4385 3.29111 72.457 3.22919 72.4625C3.16727 72.4681 3.10489 72.4606 3.04604 72.4405C3.01079 72.4278 2.98012 72.4049 2.95796 72.3746C2.9358 72.3444 2.92313 72.3082 2.9216 72.2707C2.91218 72.0217 2.9216 71.7727 2.9216 71.5161C2.9216 71.2407 2.9216 70.9671 2.9216 70.6936C2.93055 70.6587 2.94822 70.6268 2.97296 70.6007C2.9977 70.5746 3.02868 70.5553 3.06297 70.5445C3.18642 70.5213 3.31406 70.548 3.41791 70.6187C3.52176 70.6894 3.59337 70.7984 3.61712 70.9218C3.66642 71.3195 3.66832 71.7217 3.62278 72.1198V72.1198Z" fill="white" stroke="white" stroke-width="0.914986" stroke-miterlimit="10"/>
<path d="M10.6366 75.9156H9.515C9.4663 75.9117 9.4206 75.8906 9.38606 75.856C9.35151 75.8214 9.33039 75.7757 9.32651 75.7269C9.32651 75.4779 9.3152 75.2289 9.32651 74.9723C9.32133 74.8977 9.33296 74.8229 9.36047 74.7534C9.60174 74.2535 9.48109 73.7253 9.48486 73.2083C9.48468 73.1707 9.47082 73.1344 9.44583 73.1063C9.42085 73.0782 9.38647 73.0601 9.34915 73.0555C9.22475 73.0461 9.10034 73.0404 8.97217 73.0423C8.92347 73.0518 8.87824 73.0744 8.84139 73.1076C8.80453 73.1408 8.77741 73.1835 8.76293 73.231C8.76293 73.7272 8.69322 74.2214 8.89113 74.7063C9.02308 75.0345 8.96652 75.3949 8.92505 75.7401C8.92505 75.7986 8.84212 75.8514 8.79311 75.9024C8.77192 75.9161 8.74658 75.9221 8.72146 75.9193H6.62736C6.56502 75.9215 6.50421 75.8996 6.45755 75.8582C6.41089 75.8167 6.38194 75.7589 6.37665 75.6967C6.37665 75.4968 6.37664 75.2987 6.36345 75.0987C6.34907 74.9237 6.39068 74.7486 6.48222 74.5987C6.58356 74.428 6.63271 74.2312 6.62359 74.0328C6.62359 73.0103 6.62359 71.9877 6.62359 70.9652C6.63846 70.817 6.61236 70.6676 6.54816 70.5332C6.34648 70.2389 6.35967 69.9201 6.35967 69.5899C6.35967 69.4918 6.35967 69.3918 6.35967 69.2918C6.36015 69.2609 6.36682 69.2303 6.37928 69.202C6.39174 69.1736 6.40976 69.148 6.43224 69.1268C6.45473 69.1055 6.48122 69.0889 6.5102 69.0781C6.53918 69.0672 6.57003 69.0623 6.60095 69.0635H8.69698C8.75931 69.065 8.81853 69.091 8.86191 69.1358C8.90529 69.1806 8.92933 69.2407 8.92882 69.3031C8.94202 69.7239 8.97595 70.1427 8.79877 70.5539C8.6706 70.8558 8.72711 71.1916 8.76104 71.5142C8.76964 71.5486 8.78674 71.5803 8.81078 71.6063C8.83483 71.6324 8.86504 71.652 8.89863 71.6632C9.04544 71.6831 9.19398 71.6869 9.3416 71.6746C9.36529 71.6686 9.38712 71.6568 9.4052 71.6404C9.42328 71.6239 9.43706 71.6033 9.44528 71.5802C9.50719 71.2121 9.50399 70.836 9.43585 70.469C9.26432 70.2238 9.3058 69.9427 9.30392 69.671C9.30392 69.522 9.30389 69.3729 9.32462 69.2239C9.32462 69.1409 9.40191 69.1069 9.46976 69.0768C9.4934 69.0688 9.51842 69.0656 9.5433 69.0673H11.7128C11.7439 69.0668 11.7747 69.0726 11.8035 69.0844C11.8322 69.0963 11.8583 69.1138 11.88 69.1361C11.9017 69.1584 11.9186 69.1848 11.9298 69.2139C11.9409 69.2429 11.946 69.2739 11.9447 69.305C11.9447 69.4786 11.9447 69.654 11.9541 69.8276C11.9744 70.053 11.9208 70.2788 11.8014 70.4709C11.7116 70.6222 11.6701 70.7973 11.6826 70.9728L11.694 73.963C11.6791 74.2134 11.7381 74.4627 11.8636 74.6799C11.919 74.7906 11.9481 74.9126 11.9484 75.0364C11.9597 75.2251 11.9484 75.4345 11.9484 75.6345C11.952 75.6715 11.9475 75.7088 11.9354 75.744C11.9233 75.7791 11.9039 75.8112 11.8784 75.8382C11.8528 75.8652 11.8218 75.8864 11.7874 75.9004C11.753 75.9144 11.716 75.9209 11.6789 75.9193C11.3302 75.9193 10.9796 75.9193 10.6309 75.9193L10.6366 75.9156Z" fill="#0D623E"/>
<path d="M15.8012 72.433C15.8012 71.933 15.8012 71.435 15.8012 70.935C15.818 70.7351 15.7661 70.5355 15.6541 70.3691C15.6238 70.3295 15.6043 70.2827 15.5976 70.2332C15.5558 69.8864 15.5602 69.5356 15.6108 69.19C15.6195 69.1673 15.6332 69.1469 15.6508 69.1303C15.6684 69.1136 15.6895 69.1011 15.7126 69.0937C15.8094 69.0746 15.908 69.0657 16.0066 69.0673C16.5061 69.0673 17.0056 69.0673 17.5145 69.0673C17.6132 69.0598 17.7105 69.0408 17.8048 69.0107C17.9028 68.9862 17.7954 69.0353 17.8369 68.9447C17.8557 68.907 17.8595 68.8296 17.8369 68.8108C17.7426 68.7353 17.6352 68.673 17.5334 68.6051C17.391 68.5022 17.2873 68.3543 17.2391 68.1852C17.1909 68.0162 17.2009 67.8358 17.2676 67.6732C17.3231 67.5329 17.424 67.4153 17.5541 67.3392C17.6796 67.2688 17.82 67.2292 17.9637 67.2238C18.1075 67.2184 18.2505 67.2473 18.3808 67.3081C18.5112 67.3689 18.6253 67.4599 18.7136 67.5736C18.8018 67.6873 18.8618 67.8203 18.8886 67.9618C18.9388 68.3115 18.8568 68.6674 18.6587 68.9598C18.5055 69.2187 18.3024 69.4444 18.0612 69.6239C17.9901 69.6741 17.9337 69.7423 17.8976 69.8216C17.8615 69.9008 17.847 69.9881 17.8557 70.0748C17.8557 70.7237 17.8557 71.3727 17.8557 72.0217V73.8177C17.8566 74.0926 17.8262 74.3666 17.7652 74.6346C17.5975 75.3439 17.1244 75.7496 16.459 75.9382C15.7311 76.139 14.9618 76.1337 14.2367 75.9231C13.9675 75.8599 13.7173 75.7332 13.5068 75.5538C13.2964 75.3743 13.1317 75.1471 13.0266 74.8912C12.956 74.7307 12.9151 74.5588 12.9059 74.3837C12.9059 74.1611 12.8909 73.9347 12.8909 73.7102C12.8909 72.8625 12.8909 72.0142 12.8909 71.1652C12.8909 70.8898 12.8909 70.6162 12.7024 70.3842C12.6572 70.3238 12.6333 70.2502 12.6345 70.1747C12.6345 69.8521 12.6345 69.5277 12.6553 69.205C12.6553 69.1692 12.7118 69.1239 12.7514 69.1032C12.7968 69.0823 12.8466 69.0726 12.8965 69.0749C13.5958 69.0749 14.2951 69.0749 14.9944 69.0749C15.2187 69.0749 15.2866 69.1541 15.2904 69.4031C15.2904 69.6031 15.2904 69.8031 15.2904 70.0031C15.3034 70.1534 15.2634 70.3037 15.1772 70.4275C15.074 70.5703 15.0222 70.7439 15.0302 70.9199C15.0302 71.9664 15.0302 73.0147 15.0302 74.0649C15.0322 74.1149 15.0379 74.1647 15.0472 74.2139C15.0606 74.268 15.085 74.3189 15.1187 74.3633C15.1524 74.4078 15.1947 74.4449 15.2432 74.4724C15.2917 74.5 15.3453 74.5173 15.4007 74.5235C15.4561 74.5296 15.5122 74.5244 15.5655 74.5082C15.6579 74.4742 15.754 74.4233 15.7672 74.3082C15.7904 74.1355 15.8043 73.9617 15.8087 73.7875C15.8087 73.3385 15.8087 72.8895 15.8087 72.4405L15.8012 72.433Z" fill="#0D623E"/>
<path d="M59.3538 69.073C60.7392 69.0956 60.3508 68.8353 60.8711 70.0918C61.0803 70.5974 61.2707 71.1105 61.4724 71.618C61.4929 71.6578 61.5235 71.6916 61.561 71.7161C61.6043 71.7538 61.6401 71.6878 61.642 71.5538C61.642 71.3048 61.6552 71.0558 61.642 70.7992C61.6352 70.6514 61.6073 70.5052 61.5591 70.3653C61.4253 69.9729 61.4818 69.5786 61.5139 69.1843C61.5139 69.1466 61.5761 69.1107 61.6138 69.0824C61.6356 69.0704 61.6605 69.0652 61.6854 69.0674H63.4779C63.5266 69.0712 63.5724 69.0924 63.6069 69.1269C63.6414 69.1615 63.6625 69.2073 63.6664 69.256C63.6664 69.505 63.6834 69.7541 63.6777 70.0106C63.68 70.1097 63.6552 70.2076 63.6061 70.2936C63.4575 70.5268 63.3912 70.8031 63.4176 71.0784V74.9025C63.4176 75.1761 63.4176 75.4496 63.4025 75.7232C63.4009 75.7736 63.3807 75.8216 63.346 75.8581C63.3112 75.8947 63.2643 75.9171 63.214 75.9213C62.6486 75.9213 62.068 75.9213 61.495 75.9213C61.4593 75.9169 61.4251 75.9047 61.3948 75.8854C61.3644 75.8662 61.3388 75.8404 61.3197 75.81C61.2123 75.6213 61.118 75.4119 61.0275 75.2062C60.7467 74.5705 60.4621 73.9309 60.1869 73.2952C60.1737 73.2669 60.104 73.2612 60.0568 73.2537C60.0474 73.2537 60.0191 73.2801 60.0191 73.2952C60.0191 73.5442 60.0022 73.7932 60.0191 74.0498C60.0258 74.1989 60.0657 74.3445 60.136 74.4761C60.236 74.6472 60.2826 74.8443 60.2698 75.0421C60.2698 75.2666 60.2698 75.4911 60.2604 75.7156C60.2603 75.7468 60.2537 75.7776 60.2409 75.8061C60.2281 75.8345 60.2094 75.8599 60.1861 75.8806C60.1627 75.9013 60.1353 75.9167 60.1055 75.926C60.0758 75.9353 60.0444 75.9382 60.0135 75.9345C59.465 75.9345 58.9165 75.9345 58.368 75.9345C58.3175 75.9324 58.2695 75.9122 58.2328 75.8775C58.196 75.8429 58.1731 75.7961 58.1682 75.7458C58.1682 75.5477 58.1531 75.3496 58.1512 75.1497C58.1246 74.9255 58.1722 74.6988 58.2869 74.5044C58.3714 74.3502 58.4063 74.1736 58.3868 73.9988V70.9237C58.3919 70.7257 58.343 70.5301 58.2454 70.3578C58.1939 70.2733 58.1641 70.1774 58.1587 70.0786C58.1587 69.805 58.1587 69.5314 58.1682 69.2579C58.1734 69.2106 58.1952 69.1666 58.2297 69.1338C58.2642 69.101 58.3092 69.0815 58.3566 69.0787C58.7072 69.0711 59.0296 69.073 59.3538 69.073Z" fill="#0D623E"/>
<path d="M25.8684 69.0636H26.466C27.0013 69.0636 26.9466 69.0277 27.1521 69.5503C27.4235 70.2446 27.6874 70.9445 27.9588 71.6387C27.9739 71.6746 28.0304 71.701 28.0738 71.7161C28.1171 71.7312 28.1511 71.6991 28.1492 71.6293C28.1303 71.1596 28.2246 70.686 28.0021 70.2314C27.9484 69.8873 27.9522 69.5366 28.0135 69.1937C28.0321 69.1491 28.0672 69.1133 28.1115 69.0938C28.157 69.0734 28.2068 69.0644 28.2566 69.0673C28.7806 69.0673 29.3046 69.0673 29.8267 69.0673C30.1038 69.0673 30.1566 69.1277 30.1622 69.4315C30.1622 69.605 30.1622 69.7805 30.1622 69.954C30.177 70.1042 30.1412 70.2549 30.0604 70.3823C29.9537 70.5513 29.9 70.7484 29.9059 70.9483C29.9059 71.1218 29.9059 71.2954 29.9059 71.4708C29.9059 72.7675 29.9059 74.063 29.9059 75.3572C29.9029 75.5058 29.8884 75.6541 29.8626 75.8005C29.8626 75.8382 29.7985 75.8703 29.7608 75.9005C29.7396 75.9127 29.7154 75.9186 29.691 75.9175C29.1425 75.9175 28.594 75.9175 28.0455 75.9175C27.9827 75.9172 27.9217 75.8969 27.8712 75.8596C27.8207 75.8223 27.7834 75.7699 27.7646 75.71C27.4649 75.027 27.169 74.3403 26.8693 73.6574C26.8109 73.5197 26.7449 73.3857 26.6808 73.2518C26.6808 73.2404 26.6318 73.2404 26.6092 73.2518C26.5866 73.2631 26.5696 73.2782 26.5696 73.2914C26.5696 73.5895 26.5564 73.8875 26.5583 74.1856C26.5545 74.2607 26.5721 74.3353 26.6092 74.4007C26.8957 74.8082 26.7751 75.2628 26.7732 75.7043C26.772 75.7351 26.7647 75.7654 26.7516 75.7933C26.7386 75.8213 26.7202 75.8463 26.6973 75.8671C26.6745 75.8878 26.6478 75.9038 26.6187 75.914C26.5897 75.9243 26.5589 75.9287 26.5281 75.9269C25.9796 75.9269 25.4311 75.9269 24.8826 75.9269C24.8516 75.9267 24.821 75.9202 24.7925 75.9078C24.7641 75.8954 24.7384 75.8774 24.7171 75.8549C24.6958 75.8323 24.6793 75.8057 24.6685 75.7766C24.6578 75.7474 24.653 75.7164 24.6546 75.6854C24.6546 75.4364 24.6546 75.1874 24.6546 74.9308C24.6511 74.8052 24.6903 74.6822 24.7658 74.5818C24.8791 74.4159 24.9317 74.216 24.9147 74.0158C24.9147 72.9707 24.9147 71.9242 24.9147 70.8766C24.9353 70.7269 24.9012 70.5748 24.8186 70.4483C24.6839 70.2662 24.6245 70.0392 24.6527 69.8144C24.6527 69.6409 24.6527 69.4654 24.664 69.2918C24.6649 69.2609 24.6721 69.2304 24.6852 69.2023C24.6983 69.1742 24.7169 69.149 24.74 69.1283C24.7631 69.1077 24.7902 69.092 24.8196 69.0821C24.849 69.0723 24.8801 69.0685 24.9109 69.0711H25.8835L25.8684 69.0636Z" fill="#0D623E"/>
<path d="M64.3544 72.4386V71.0161C64.3556 70.7913 64.3854 70.5675 64.443 70.3502C64.5018 70.105 64.6179 69.8773 64.7818 69.6858C64.9456 69.4943 65.1525 69.3444 65.3854 69.2484C65.6331 69.1263 65.9032 69.0563 66.179 69.0428C66.5277 69.0333 66.8764 69.0182 67.227 69.0164C67.9548 69.0363 68.6621 69.2627 69.2664 69.6691C69.3101 69.6937 69.3463 69.7296 69.3712 69.7731C69.3961 69.8167 69.4087 69.8661 69.4078 69.9163C69.4078 70.3407 69.4078 70.7633 69.4078 71.1878C69.4112 71.2187 69.4082 71.2499 69.3989 71.2795C69.3896 71.3091 69.3744 71.3365 69.354 71.3599C69.3336 71.3833 69.3086 71.4022 69.2805 71.4154C69.2525 71.4287 69.222 71.436 69.191 71.4368C68.6425 71.4368 68.0921 71.4368 67.5436 71.4368C67.3985 71.4368 67.3438 71.3708 67.3268 71.1991C67.3136 71.0746 67.3137 70.9501 67.2929 70.8218C67.2787 70.7343 67.2403 70.6526 67.182 70.5859C67.1237 70.5192 67.0478 70.4702 66.9631 70.4445C66.8028 70.42 66.5974 70.6124 66.5691 70.8218C66.5497 70.9467 66.539 71.0728 66.5371 71.1991C66.5371 72.0971 66.5371 72.9958 66.5371 73.895C66.539 73.9947 66.5466 74.0943 66.5597 74.1931C66.566 74.2677 66.5942 74.3387 66.6408 74.3971C66.6875 74.4556 66.7504 74.4988 66.8217 74.5214C66.9083 74.5357 66.9971 74.5218 67.0752 74.4817C67.1533 74.4416 67.2164 74.3775 67.2552 74.2988C67.3452 74.039 67.3538 73.7579 67.2797 73.4932C67.2797 73.4536 67.2138 73.4177 67.1704 73.397C67.124 73.3797 67.0844 73.3481 67.0573 73.3067C67.0301 73.2653 67.0169 73.2163 67.0196 73.1668C67.0196 72.8668 67.0196 72.5688 67.0196 72.2688C67.0239 72.2202 67.0451 72.1746 67.0796 72.1401C67.1141 72.1056 67.1595 72.0844 67.2081 72.0802C67.859 72.0802 68.5081 72.0802 69.1552 72.0802C69.1864 72.0796 69.2173 72.0854 69.2462 72.0972C69.275 72.1091 69.3012 72.1266 69.323 72.1488C69.3449 72.1711 69.362 72.1975 69.3733 72.2266C69.3846 72.2556 69.39 72.2867 69.389 72.3179C69.389 72.9914 69.389 73.6649 69.389 74.3403C69.389 74.6138 69.389 74.8893 69.389 75.1628C69.3878 75.2257 69.3697 75.2872 69.3365 75.3407C69.3033 75.3941 69.2563 75.4376 69.2005 75.4665C69.0294 75.5693 68.8481 75.654 68.6595 75.7193C67.7824 76.0226 66.8434 76.101 65.9283 75.9476C65.7813 75.9216 65.6364 75.8851 65.4947 75.8382C65.2431 75.7589 65.0167 75.6148 64.8381 75.4205C64.6595 75.2262 64.5349 74.9884 64.4769 74.7308C64.3857 74.4188 64.3394 74.0955 64.3393 73.7705C64.3393 73.3215 64.3393 72.8725 64.3393 72.4235L64.3544 72.4386Z" fill="#0D623E"/>
<path d="M30.869 72.45C30.869 72.001 30.869 71.552 30.869 71.103C30.8671 70.9285 30.8747 70.7541 30.8917 70.5804C30.9169 70.3052 31.0134 70.0414 31.1718 69.8151C31.3301 69.5888 31.5448 69.4078 31.7946 69.29C32.0369 69.1591 32.3041 69.0807 32.5787 69.0598C32.9274 69.041 33.2761 69.0278 33.6248 69.0221C34.3779 69.0251 35.113 69.2531 35.7359 69.6767C35.7668 69.6956 35.7934 69.7209 35.8138 69.7508C35.8343 69.7807 35.8482 69.8146 35.8546 69.8503C35.864 70.3238 35.8546 70.7936 35.8546 71.269C35.8486 71.3179 35.825 71.3628 35.7882 71.3955C35.7514 71.4282 35.704 71.4462 35.6548 71.4463H34.0093C33.8755 71.4463 33.8019 71.3577 33.785 71.2011C33.768 71.0445 33.7605 70.9049 33.7397 70.7577C33.7271 70.7092 33.7074 70.6628 33.6813 70.62C33.6598 70.582 33.6301 70.5492 33.5943 70.5243C33.5584 70.4993 33.5174 70.4828 33.4743 70.4759C33.4312 70.469 33.3871 70.472 33.3452 70.4845C33.3034 70.497 33.2649 70.5189 33.2327 70.5483C33.1461 70.6348 33.0781 70.7382 33.0329 70.8521C33.0012 70.9752 32.9891 71.1025 32.9971 71.2294C32.9971 72.1274 32.9971 73.0254 32.9971 73.9234C32.9996 74.047 33.0135 74.1702 33.0386 74.2913C33.0649 74.3614 33.1093 74.4233 33.1672 74.4706C33.2251 74.518 33.2946 74.5492 33.3684 74.5611C33.4551 74.5604 33.5392 74.5309 33.6074 74.4773C33.6756 74.4237 33.7241 74.349 33.7454 74.2649C33.7605 74.0423 33.7605 73.8196 33.7586 73.5951C33.7578 73.5709 33.7516 73.5472 33.7405 73.5257C33.7294 73.5042 33.7137 73.4854 33.6945 73.4706C33.4702 73.3688 33.457 73.1782 33.4646 72.9745C33.4721 72.7707 33.4646 72.5255 33.4815 72.3028C33.4889 72.2535 33.5126 72.2082 33.5489 72.174C33.5851 72.1398 33.6317 72.1187 33.6813 72.1142C34.3052 72.1142 34.9273 72.1029 35.5512 72.101C35.7736 72.101 35.864 72.1915 35.864 72.4179C35.864 73.3159 35.864 74.2139 35.864 75.1101C35.8675 75.2098 35.84 75.3081 35.7853 75.3916C35.7306 75.475 35.6515 75.5395 35.5587 75.576C35.2453 75.7309 34.9124 75.8426 34.5691 75.9081C33.8383 76.0799 33.0802 76.1004 32.3412 75.9684C31.5401 75.8175 31.0519 75.3421 30.9048 74.5479C30.8836 74.4231 30.871 74.297 30.8672 74.1705C30.8577 73.997 30.8539 73.8234 30.8539 73.648C30.8671 73.2405 30.869 72.8405 30.869 72.45Z" fill="#0D623E"/>
<path d="M43.3678 72.45V73.9592C43.3523 74.1599 43.3963 74.3607 43.4941 74.5365C43.6001 74.7053 43.649 74.9037 43.6336 75.1025C43.6336 75.3025 43.6336 75.5024 43.6336 75.7005C43.6337 75.7317 43.6273 75.7626 43.6149 75.7913C43.6025 75.8199 43.5843 75.8457 43.5615 75.8669C43.5386 75.8882 43.5117 75.9045 43.4822 75.9148C43.4528 75.9251 43.4215 75.9293 43.3904 75.9269C42.6641 75.9269 41.9397 75.9269 41.2172 75.9269C41.1861 75.9282 41.1551 75.9231 41.1261 75.912C41.0971 75.9009 41.0706 75.8839 41.0484 75.8622C41.0261 75.8405 41.0086 75.8144 40.9967 75.7856C40.9849 75.7569 40.9791 75.726 40.9797 75.6949C40.9797 75.4685 40.9797 75.244 40.9797 75.0195C40.9755 74.8938 41.0133 74.7704 41.0871 74.6686C41.1909 74.5264 41.2458 74.3542 41.2435 74.1781C41.2435 73.0556 41.2435 71.9312 41.2435 70.8068C41.2435 70.7162 41.1757 70.6596 41.1135 70.6841C41.0513 70.7087 40.9815 70.7539 40.9721 70.837C40.9627 70.92 40.9495 71.0256 40.9457 71.1331C40.9457 71.3331 40.9457 71.5331 40.9457 71.7331C40.9457 71.8085 40.9457 71.8821 40.9325 71.9576C40.9254 72.0051 40.9032 72.049 40.8693 72.083C40.8354 72.1169 40.7915 72.1391 40.7441 72.1462C40.3935 72.1462 40.0447 72.1594 39.696 72.1594C39.4736 72.1594 39.3794 72.0651 39.3794 71.8368C39.3794 71.0143 39.3794 70.1905 39.3794 69.3654C39.3745 69.3284 39.3776 69.2908 39.3886 69.2551C39.3996 69.2195 39.4182 69.1866 39.4431 69.1588C39.468 69.1311 39.4986 69.109 39.5329 69.0942C39.5671 69.0794 39.6041 69.0721 39.6414 69.073C39.7413 69.073 39.8412 69.073 39.9411 69.073H44.7382C44.8626 69.073 44.987 69.0843 45.1151 69.0919C45.1518 69.0969 45.1862 69.1126 45.2141 69.1371C45.2419 69.1616 45.2619 69.1938 45.2716 69.2296C45.2907 69.3022 45.2983 69.3773 45.2942 69.4522C45.2942 70.2257 45.2942 70.9998 45.2942 71.7746C45.2995 71.8487 45.2899 71.9231 45.2659 71.9934C45.2377 72.0538 45.1717 72.1292 45.1151 72.1368C44.6944 72.1902 44.2684 72.1871 43.8485 72.1274C43.8252 72.1191 43.804 72.1057 43.7867 72.088C43.7694 72.0704 43.7564 72.049 43.7486 72.0255C43.7259 71.9548 43.7144 71.8809 43.7147 71.8066C43.7147 71.5803 43.7147 71.3558 43.7147 71.1313C43.7102 71.032 43.7001 70.9331 43.6845 70.8351C43.6845 70.769 43.5733 70.6973 43.5243 70.7275C43.4753 70.7577 43.4394 70.7822 43.4357 70.8162C43.4165 70.9411 43.4071 71.0672 43.4074 71.1935C43.4074 71.618 43.4074 72.0425 43.4074 72.4669L43.3678 72.45Z" fill="#10623E"/>
<path d="M23.5123 67.56C23.3906 67.584 23.2764 67.6364 23.1786 67.7128C23.0933 67.7856 23.0252 67.8766 22.9794 67.9791C22.9336 68.0816 22.9113 68.193 22.914 68.3053C22.9167 68.4175 22.9444 68.5278 22.9951 68.6279C23.0458 68.7281 23.1181 68.8157 23.2069 68.8843C23.3114 68.9526 23.4211 69.0125 23.5349 69.0635C23.6028 69.0994 23.6141 69.1617 23.5745 69.2522C23.4878 69.4409 23.386 69.488 23.2333 69.3899C22.914 69.1954 22.5589 69.0671 22.1891 69.0126C21.5002 68.8952 20.7947 68.9196 20.1157 69.0843C19.9218 69.1316 19.7354 69.2053 19.5615 69.3031C19.3492 69.4105 19.1652 69.5666 19.0247 69.7588C18.8841 69.9509 18.791 70.1736 18.7529 70.4087C18.7073 70.6787 18.6815 70.9517 18.6756 71.2256C18.6643 71.6236 18.6756 72.0236 18.6756 72.4216C18.6756 72.8197 18.6643 73.2197 18.6756 73.6196C18.6799 73.9181 18.707 74.2158 18.7567 74.5101C18.8005 74.7827 18.9122 75.0398 19.0815 75.2578C19.2509 75.4757 19.4724 75.6474 19.7255 75.7571C19.8832 75.8327 20.0488 75.8903 20.2193 75.9288C20.9537 76.0863 21.713 76.0863 22.4473 75.9288C22.6175 75.8893 22.7825 75.8304 22.9392 75.7533C23.1213 75.6702 23.2839 75.5496 23.4164 75.3994C23.5489 75.2493 23.6484 75.0729 23.7083 74.8817C23.7905 74.6461 23.8356 74.3992 23.8421 74.1497C23.8421 73.0518 23.8421 71.9557 23.8421 70.8577C23.824 70.5861 23.79 70.3159 23.7403 70.0483C23.8723 69.7729 24.1494 69.6201 24.3058 69.3673C24.4656 69.1441 24.5679 68.8849 24.6036 68.6127C24.6734 67.9222 24.221 67.443 23.5123 67.56ZM21.6934 73.6555C21.6855 73.8549 21.6634 74.0535 21.6274 74.2497C21.6136 74.3233 21.5758 74.3901 21.5198 74.4397C21.4638 74.4892 21.3929 74.5187 21.3183 74.5233C21.2435 74.5235 21.17 74.503 21.1062 74.464C21.0423 74.4251 20.9905 74.3692 20.9564 74.3026C20.9236 74.2358 20.9008 74.1646 20.8885 74.0913C20.8758 73.9659 20.8707 73.8399 20.8734 73.7139C20.8734 72.8914 20.8734 72.0676 20.8734 71.2425C20.8701 71.0933 20.8821 70.9441 20.9092 70.7973C20.9262 70.7237 20.9623 70.656 21.0139 70.6009C21.0656 70.5459 21.1309 70.5056 21.2033 70.4841C21.2498 70.4664 21.2996 70.459 21.3492 70.4624C21.3989 70.4658 21.4472 70.4799 21.4909 70.5037C21.5346 70.5276 21.5726 70.5606 21.6023 70.6005C21.6321 70.6404 21.6529 70.6863 21.6632 70.7351C21.6824 70.8827 21.6931 71.0314 21.6952 71.1803C21.6952 71.5802 21.6952 71.9802 21.6952 72.3783C21.6952 72.7763 21.7047 73.2329 21.6934 73.6555V73.6555Z" fill="#0D623E"/>
<path d="M51.4032 74.8798C51.3958 74.805 51.3663 74.734 51.3184 74.6761C51.1937 74.4873 51.136 74.2621 51.1544 74.0365C51.1544 73.812 51.1544 73.5875 51.1393 73.363C51.1356 73.2375 51.1039 73.1144 51.0465 73.0028C50.9891 72.8911 50.9075 72.7938 50.8076 72.7178C50.7491 72.6725 50.6813 72.6386 50.6191 72.5933C50.6032 72.5838 50.5898 72.5708 50.58 72.5551C50.5702 72.5395 50.5642 72.5217 50.5625 72.5033C50.5609 72.4849 50.5636 72.4664 50.5705 72.4492C50.5774 72.4321 50.5882 72.4168 50.6021 72.4047C50.9033 72.22 51.1205 71.9248 51.2072 71.5821C51.3044 71.1935 51.3134 70.788 51.2336 70.3955C51.1846 70.1224 51.0604 69.8686 50.8749 69.6625C50.6894 69.4565 50.4499 69.3065 50.1836 69.2296C49.8518 69.1161 49.5033 69.0594 49.1526 69.0617C48.6776 69.0617 48.2101 69.0617 47.7276 69.0617H47.4279C47.0038 69.0617 46.5797 69.0617 46.1537 69.0617C45.9653 69.0617 45.8974 69.1503 45.8936 69.3465C45.8936 69.571 45.8936 69.7974 45.8936 70.0219C45.8761 70.1966 45.9275 70.3713 46.0369 70.5086C46.1272 70.6308 46.1701 70.7817 46.1575 70.9331C46.1575 71.9556 46.1575 72.9794 46.1575 74.0045C46.1691 74.2054 46.1219 74.4053 46.0218 74.5799C45.9283 74.7284 45.884 74.9027 45.8955 75.0779C45.8955 75.2515 45.8955 75.4269 45.8955 75.6024C45.8955 75.6269 45.8955 75.6514 45.8955 75.676C45.8952 75.7069 45.9011 75.7376 45.9127 75.7664C45.9243 75.7951 45.9415 75.8212 45.9632 75.8433C45.9849 75.8653 46.0107 75.8829 46.0392 75.895C46.0677 75.9071 46.0983 75.9134 46.1292 75.9137H48.312C48.3371 75.9165 48.3624 75.9105 48.3836 75.8967C48.4347 75.849 48.4825 75.798 48.5268 75.7439C48.5404 75.7226 48.5471 75.6975 48.5457 75.6722C48.5457 75.2798 48.6456 74.8685 48.3572 74.5252C48.3432 74.5037 48.3348 74.479 48.3327 74.4535C48.2715 74.085 48.2715 73.7089 48.3327 73.3404C48.3444 73.3212 48.3607 73.3053 48.3801 73.2941C48.3995 73.2829 48.4215 73.2768 48.4439 73.2762C48.5703 73.2729 48.6933 73.3178 48.7878 73.4019C48.8824 73.486 48.9413 73.603 48.9528 73.729C48.9754 73.9516 48.9717 74.1761 48.983 74.4006C49.0018 74.7987 49.0169 75.1987 49.0433 75.5967C49.0602 75.8288 49.1526 75.9156 49.3694 75.9193C49.7464 75.9193 50.1234 75.9193 50.5003 75.9193C50.751 75.9193 50.9998 75.9193 51.2543 75.8967C51.3109 75.8967 51.4051 75.8156 51.4069 75.7665C51.4032 75.4684 51.4069 75.1779 51.4032 74.8798ZM49.0659 71.4633C49.0543 71.5361 49.0272 71.6056 48.9865 71.6672C48.9458 71.7287 48.8924 71.7808 48.8299 71.8199C48.7674 71.859 48.6972 71.8843 48.6241 71.8941C48.5511 71.9038 48.4768 71.8978 48.4062 71.8764C48.3844 71.8692 48.3646 71.8569 48.3485 71.8405C48.3325 71.8241 48.3206 71.8041 48.3138 71.7821C48.2893 71.5934 48.278 71.4048 48.278 71.3727C48.278 71.0765 48.278 70.9539 48.278 70.8313C48.278 70.5313 48.4024 70.5219 48.655 70.5615C48.7411 70.572 48.822 70.6082 48.8872 70.6654C48.9525 70.7226 48.999 70.7982 49.0207 70.8822C49.0771 71.0704 49.0925 71.2686 49.0659 71.4633V71.4633Z" fill="#0D623E"/>
<path d="M57.5895 74.8289C57.5861 74.7788 57.5691 74.7305 57.5405 74.6893C57.2634 74.3403 57.2144 73.9177 57.1352 73.5027C56.9065 72.3028 56.6772 71.1036 56.4472 69.905C56.4057 69.6861 56.3624 69.4654 56.3153 69.2466C56.3019 69.1985 56.2738 69.1559 56.2349 69.1248C56.196 69.0936 56.1483 69.0755 56.0985 69.073H53.4012C53.3518 69.0791 53.3056 69.1006 53.2691 69.1345C53.2325 69.1683 53.2075 69.2128 53.1976 69.2617C53.1599 69.4069 53.1241 69.5522 53.0977 69.6993C52.8508 71.0464 52.6039 72.3952 52.3664 73.7441C52.3391 74.0422 52.2485 74.331 52.1007 74.5912C52.0589 74.6533 52.0354 74.7258 52.0328 74.8006C52.0328 75.1232 52.0328 75.4458 52.0441 75.7703C52.0441 75.859 52.1252 75.8854 52.1892 75.9212C52.2135 75.9261 52.2385 75.9261 52.2627 75.9212H54.0572C54.1064 75.9219 54.155 75.9102 54.1985 75.8873C54.2381 75.8665 54.2909 75.825 54.2965 75.7873C54.3173 75.6175 54.3305 75.4439 54.338 75.2704C54.3781 74.9964 54.3164 74.7171 54.1646 74.4856C54.1382 74.4497 54.1438 74.3893 54.1325 74.3403C54.1253 74.2924 54.1367 74.2436 54.1644 74.2039C54.1921 74.1642 54.234 74.1367 54.2815 74.1271C54.5039 74.1271 54.7282 74.1271 54.9525 74.1271C54.9827 74.1291 55.012 74.1384 55.0379 74.1541C55.0638 74.1698 55.0855 74.1915 55.1013 74.2175C55.117 74.2434 55.1262 74.2727 55.1282 74.3029C55.1302 74.3332 55.1249 74.3635 55.1127 74.3912C55.0547 74.5008 55.0043 74.6143 54.9619 74.7308C54.8752 75.0923 54.8752 75.4692 54.9619 75.8307C55.207 76.0194 55.4916 75.9005 55.7573 75.925C55.9308 75.942 56.1061 75.925 56.2795 75.925C56.5792 75.925 56.8789 75.925 57.1786 75.925C57.2769 75.9242 57.3748 75.9128 57.4707 75.8911C57.4936 75.8835 57.5143 75.8707 57.5313 75.8536C57.5484 75.8366 57.5612 75.8158 57.5688 75.793C57.6198 75.4741 57.6267 75.1497 57.5895 74.8289V74.8289ZM54.5906 72.7914H54.5171C54.4863 72.7907 54.4561 72.7834 54.4284 72.7701C54.4007 72.7568 54.3761 72.7377 54.3563 72.7142C54.3365 72.6906 54.322 72.6631 54.3136 72.6335C54.3053 72.6039 54.3033 72.5728 54.3079 72.5424C54.372 72.15 54.436 71.7576 54.5058 71.3671C54.5058 71.3293 54.5661 71.2954 54.6019 71.2652C54.6377 71.235 54.6924 71.2388 54.7037 71.3142C54.7659 71.7048 54.8337 72.0972 54.8922 72.4896C54.9223 72.7065 54.8262 72.7971 54.5906 72.7914Z" fill="#0D623E"/>
<path d="M5.8583 70.8162C5.8541 70.6671 5.82999 70.5193 5.78665 70.3766C5.61135 69.7748 5.17594 69.4239 4.6067 69.222C4.32593 69.1163 4.02832 69.0626 3.72835 69.0636C3.25524 69.0636 2.78589 69.0636 2.30712 69.0636C1.83401 69.0636 1.36467 69.0636 0.8859 69.0636C0.787158 69.0625 0.688621 69.072 0.59189 69.0919C0.568845 69.1 0.547878 69.1132 0.530593 69.1305C0.513309 69.1478 0.500137 69.1688 0.491984 69.1918C0.470357 69.289 0.460832 69.3885 0.463683 69.488C0.463683 69.8786 0.384528 70.2842 0.663494 70.6332C0.709226 70.722 0.726974 70.8227 0.71439 70.9218C0.71439 71.9682 0.71439 73.0153 0.71439 74.063C0.723463 74.2648 0.665124 74.464 0.54854 74.6289C0.494377 74.7127 0.465539 74.8103 0.46557 74.91C0.46557 75.1836 0.46557 75.4571 0.46557 75.7307C0.469816 75.7793 0.49106 75.8249 0.525531 75.8594C0.560002 75.8939 0.605496 75.9151 0.65406 75.9194C1.40802 75.9194 2.14881 75.9194 2.89524 75.9194C2.94341 75.9141 2.98834 75.8925 3.02261 75.8582C3.05688 75.8239 3.07844 75.7789 3.08373 75.7307C3.08373 75.4571 3.1007 75.1836 3.09505 74.91C3.08528 74.8119 3.06046 74.7158 3.02151 74.6252C2.81606 74.0592 2.86697 73.9951 3.47203 73.9875C3.59643 73.9875 3.72083 73.9875 3.84901 73.9875C4.12319 73.9859 4.39561 73.944 4.65759 73.863C4.9148 73.8054 5.15148 73.6787 5.34211 73.4966C5.53275 73.3144 5.67014 73.0836 5.73953 72.8292C5.79139 72.6632 5.82304 72.4915 5.83377 72.3179C5.86958 71.8142 5.86772 71.318 5.8583 70.8162ZM3.62278 72.1745C3.60877 72.2351 3.58219 72.2921 3.54474 72.3417C3.50728 72.3913 3.45979 72.4325 3.40539 72.4626C3.35099 72.4927 3.29092 72.5109 3.22901 72.5162C3.16709 72.5215 3.10475 72.5137 3.04604 72.4933C3.00989 72.4827 2.9782 72.4605 2.95575 72.4302C2.9333 72.3999 2.9213 72.3632 2.9216 72.3254C2.91218 72.0764 2.9216 71.8255 2.9216 71.5708C2.9216 71.2973 2.9216 71.0218 2.9216 70.7483C2.93118 70.7137 2.94909 70.6821 2.97374 70.6561C2.99839 70.6301 3.02902 70.6106 3.06297 70.5992C3.1863 70.577 3.31343 70.6041 3.41704 70.6746C3.52064 70.7452 3.59246 70.8536 3.61712 70.9765C3.66642 71.3742 3.66832 71.7764 3.62278 72.1745V72.1745Z" fill="#0D623E"/>
<path d="M69.0082 6.42938H0.838745V64.3263H69.0082V6.42938Z" fill="white" stroke="#E91E44" stroke-width="0.914986" stroke-miterlimit="10"/>
<path d="M66.5163 8.52167H14.0463V11.4798H66.5163V8.52167Z" fill="#E91E44"/>
<path d="M66.5163 13.206H14.0463V16.1641H66.5163V13.206Z" fill="#E91E44"/>
<path d="M66.5163 17.4205H14.0463V20.3787H66.5163V17.4205Z" fill="#E91E44"/>
<path d="M66.5163 22.0163H14.0463V24.9744H66.5163V22.0163Z" fill="#E91E44"/>
<path d="M66.5163 26.3403H14.0463V29.2985H66.5163V26.3403Z" fill="#E91E44"/>
<path d="M66.5163 30.8511H14.0463V33.8092H66.5163V30.8511Z" fill="#E91E44"/>
<path d="M66.5163 35.3279H14.0463V38.2861H66.5163V35.3279Z" fill="#E91E44"/>
<path d="M66.5163 39.8293H14.0463V42.7874H66.5163V39.8293Z" fill="#E91E44"/>
<path d="M66.5163 44.2684H14.0463V47.2265H66.5163V44.2684Z" fill="#E91E44"/>
<path d="M66.5163 48.8414H14.0463V51.7996H66.5163V48.8414Z" fill="#E91E44"/>
<path d="M11.1492 8.49146H3.23828V11.4496H11.1492V8.49146Z" fill="#E91E44"/>
<path d="M11.1492 13.174H3.23828V16.1321H11.1492V13.174Z" fill="#E91E44"/>
<path d="M11.1492 17.3904H3.23828V20.3486H11.1492V17.3904Z" fill="#E91E44"/>
<path d="M11.1492 21.9843H3.23828V24.9424H11.1492V21.9843Z" fill="#E91E44"/>
<path d="M11.1492 26.3082H3.23828V29.2664H11.1492V26.3082Z" fill="#E91E44"/>
<path d="M11.1492 30.8209H3.23828V33.7791H11.1492V30.8209Z" fill="#E91E44"/>
<path d="M11.1492 35.2977H3.23828V38.2559H11.1492V35.2977Z" fill="#E91E44"/>
<path d="M11.1492 39.7972H3.23828V42.7553H11.1492V39.7972Z" fill="#E91E44"/>
<path d="M11.1492 44.2363H3.23828V47.1945H11.1492V44.2363Z" fill="#E91E44"/>
<path d="M11.1492 48.8094H3.23828V51.7675H11.1492V48.8094Z" fill="#E91E44"/>
<path d="M66.4918 54.2899H3.34003V57.248H66.4918V54.2899Z" fill="#E91E44"/>
<path d="M66.4918 58.9195H3.34003V61.8776H66.4918V58.9195Z" fill="#E91E44"/>
<path d="M36.3146 21.6654C36.2713 22.5011 36.2279 23.2444 36.1939 23.9877C36.1903 24.1037 36.1588 24.2171 36.102 24.3183C36.0453 24.4194 35.9649 24.5054 35.8679 24.5688C35.7285 24.6784 35.5824 24.7792 35.4306 24.8707C34.8355 25.2016 34.2682 25.5801 33.7341 26.0026C33.6719 26.0516 33.5777 26.1177 33.4985 26.0309C33.4467 25.965 33.406 25.8911 33.3779 25.8121C33.3703 25.7843 33.3703 25.7549 33.3779 25.7272C33.3954 25.4088 33.5069 25.1028 33.6983 24.848C33.8058 24.7084 33.9264 24.5801 34.0282 24.4405C34.079 24.3887 34.1122 24.3221 34.123 24.2503C34.1338 24.1785 34.1218 24.1051 34.0885 24.0406C34.0528 23.9593 33.996 23.889 33.9241 23.8369C33.8523 23.7849 33.7678 23.7529 33.6795 23.7444C33.5303 23.7312 33.3801 23.7312 33.2309 23.7444C31.4742 23.9481 29.7174 24.1594 28.0003 24.5858C27.4216 24.7292 26.8561 24.9291 26.2888 25.1103C26.2052 25.1369 26.1284 25.1812 26.0634 25.2401C25.9983 25.299 25.9466 25.3712 25.9118 25.4517C25.8402 25.6102 25.778 25.7705 25.7233 25.9328C25.0297 27.9137 24.419 29.9191 23.7838 31.917C23.7318 32.0811 23.689 32.248 23.6556 32.4169C23.6535 32.5346 23.6979 32.6483 23.7791 32.7334C23.8602 32.8185 23.9716 32.8681 24.0891 32.8716C24.179 32.8677 24.2685 32.8569 24.3567 32.8395C24.532 32.7999 24.7055 32.7565 24.8789 32.7075C26.5753 32.2245 28.3075 31.883 30.0379 31.5321C30.5661 31.4159 31.1094 31.3841 31.6476 31.4378C31.7502 31.4453 31.8466 31.4898 31.919 31.563C31.9915 31.6362 32.0349 31.7331 32.0415 31.8359C32.0735 32.4773 31.7569 32.9357 31.199 33.247C30.8602 33.4368 30.4967 33.5784 30.1189 33.6677C29.6533 33.7753 29.1916 33.9054 28.7222 33.9922C27.8416 34.164 26.9713 34.3851 26.1154 34.6544C24.9488 35.0174 23.8013 35.4393 22.6773 35.9184C22.5678 35.9605 22.4683 36.025 22.3852 36.1078C22.3021 36.1907 22.2372 36.29 22.1948 36.3995C22.0553 36.7485 21.929 37.0994 21.8008 37.4503C21.1059 39.3369 20.4117 41.2266 19.718 43.1194C19.6973 43.1723 19.6671 43.2232 19.6483 43.2779C19.4145 43.908 19.4051 43.9194 19.9762 44.3514C20.3479 44.6354 20.6076 45.0416 20.7095 45.4984C20.8753 46.1387 20.8753 46.8107 20.7095 47.451C20.5132 48.3287 20.1128 49.1476 19.5409 49.8413C19.3141 50.1116 19.0486 50.3469 18.7529 50.5393C17.7238 51.1921 16.6663 51.1732 15.5976 50.645C15.326 50.5321 15.1033 50.3264 14.969 50.0645C14.8348 49.8027 14.7977 49.5016 14.8644 49.215C14.8956 49.0166 14.9403 48.8205 14.9982 48.6282C15.9991 45.3607 16.9736 42.0856 18.0913 38.8539C18.1223 38.7734 18.145 38.69 18.1592 38.6049C18.1739 38.5342 18.1708 38.4609 18.15 38.3917C18.1293 38.3225 18.0916 38.2596 18.0404 38.2087C17.9509 38.1318 17.8571 38.06 17.7596 37.9936C17.6681 37.9223 17.5951 37.8301 17.5466 37.7248C17.498 37.6194 17.4754 37.504 17.4806 37.388C17.4749 37.331 17.4749 37.2735 17.4806 37.2164C17.6319 36.5415 17.8741 35.8903 18.2007 35.2807C18.2894 35.1256 18.4294 35.0062 18.5965 34.9431C18.8133 34.8487 19.0376 34.7544 19.2543 34.6676C19.3768 34.6178 19.4864 34.5411 19.5751 34.4431C19.6639 34.3452 19.7295 34.2284 19.767 34.1016C19.9367 33.5526 20.1139 33.0055 20.2929 32.4603C20.7566 31.0404 21.2209 29.6204 21.6858 28.2005C21.749 28.0097 21.8018 27.8158 21.8442 27.6194C21.8746 27.4475 21.836 27.2705 21.7367 27.127C21.7133 27.091 21.6829 27.0601 21.6472 27.0361C21.6116 27.0121 21.5715 26.9956 21.5294 26.9874C21.384 26.9626 21.2349 26.9723 21.094 27.0157C20.8543 27.133 20.6209 27.2627 20.3947 27.4043C19.7727 27.7502 19.1494 28.0935 18.5249 28.4344C18.44 28.4816 18.3119 28.4231 18.3176 28.3476C18.3176 28.3212 18.2987 28.2929 18.2987 28.2646C18.2852 27.1766 18.3349 26.0887 18.4476 25.0065C18.4942 24.4362 18.5748 23.8692 18.6889 23.3086C18.7454 23.086 18.8057 22.8652 18.8509 22.6407C18.9105 22.3544 19.0287 22.0835 19.198 21.8452C19.3674 21.6069 19.5842 21.4062 19.8349 21.256C20.1274 21.0543 20.4371 20.8788 20.7604 20.7315C21.931 20.2117 23.135 19.7705 24.3643 19.4109C25.1457 19.2051 25.9372 19.0395 26.7355 18.9148C28.0323 18.6865 29.3348 18.4771 30.6373 18.2771C31.1688 18.196 31.7079 18.1431 32.247 18.1016C33.3267 18.0357 34.4103 18.1298 35.4626 18.3809C35.6061 18.4176 35.7442 18.4728 35.8735 18.545C36.0071 18.6095 36.11 18.724 36.16 18.8638C36.2697 19.1603 36.3258 19.474 36.3259 19.7901C36.3089 20.4391 36.3146 21.0975 36.3146 21.6654Z" fill="white" stroke="white" stroke-width="3.66183"/>
<path d="M49.2902 19.1997C48.9 19.2148 48.5118 19.2412 48.1216 19.2393C47.3114 19.2476 46.5068 19.3747 45.7334 19.6166C44.8158 19.8747 43.9338 20.2461 43.1077 20.7221C42.4197 21.1315 41.7223 21.5239 41.0343 21.9295C40.8836 22.0217 40.7406 22.1258 40.6065 22.2408C40.5474 22.304 40.5134 22.3867 40.511 22.4732C40.5086 22.5597 40.5378 22.6441 40.5933 22.7106C40.7233 22.8722 40.9006 22.989 41.1003 23.0445C41.5306 23.1629 41.9373 23.3544 42.3029 23.6105C42.395 23.6822 42.4808 23.7617 42.5592 23.8482C42.5762 23.8652 42.5724 23.8991 42.5781 23.9274C42.5894 23.9897 42.5536 24.0142 42.4744 24.0236C42.2033 24.0324 41.934 23.9768 41.6884 23.8614C41.3803 23.7475 41.0536 23.6925 40.7252 23.6991C40.3351 23.6991 39.9449 23.6878 39.5547 23.6765C39.2845 23.6796 39.0171 23.6216 38.7724 23.5067C38.6714 23.4511 38.5933 23.3616 38.5519 23.2539C38.5012 23.0904 38.4783 22.9194 38.4841 22.7483C38.4992 22.371 38.5369 22.005 38.5727 21.6352C38.6047 21.2938 38.6499 20.9523 38.6839 20.6108C38.7555 19.8694 38.8215 19.128 38.8988 18.3866C38.9293 18.0388 39.0353 17.702 39.2095 17.3996C39.3837 17.0972 39.6218 16.8365 39.9072 16.6358C41.6577 15.3368 43.6824 14.4566 45.8258 14.0625C47.3325 13.8081 48.8574 13.6763 50.3854 13.6682C51.1959 13.665 52.0044 13.7511 52.7962 13.9248C53.7499 14.1135 54.3229 14.6794 54.5397 15.5661C54.7697 16.5094 54.9996 17.4527 55.2163 18.4111C55.3017 18.8345 55.2953 19.2713 55.1975 19.6921C55.0787 20.285 54.8888 20.8614 54.6321 21.4088C53.2712 24.3066 52.0158 27.2459 50.7491 30.1814C49.5164 33.0377 48.2535 35.8826 47.0057 38.7332C46.9021 38.9709 46.7965 39.2086 46.706 39.4501C46.5823 39.8033 46.5416 40.1804 46.5873 40.5519C46.6012 40.6766 46.6417 40.7968 46.7059 40.9046C46.7702 41.0123 46.8567 41.105 46.9598 41.1765C47.0628 41.248 47.1799 41.2966 47.3032 41.319C47.4266 41.3414 47.5533 41.3372 47.6749 41.3065C47.9109 41.2685 48.1348 41.1762 48.3289 41.0367C48.7059 40.7537 49.0829 40.4707 49.4599 40.1972C49.5808 40.1164 49.7067 40.0433 49.8369 39.9783C49.8484 39.9743 49.8607 39.973 49.8729 39.9747C49.885 39.9763 49.8965 39.9808 49.9066 39.9878C49.9178 39.997 49.927 40.0085 49.9335 40.0215C49.94 40.0345 49.9436 40.0487 49.9443 40.0632C49.8192 40.5374 49.6201 40.9888 49.3543 41.4008C49.0106 41.9755 48.6157 42.5179 48.1744 43.0214C47.6617 43.6175 47.1207 44.1948 46.576 44.7665C46.2293 45.1297 45.8326 45.4416 45.3979 45.6928C44.9896 45.9459 44.5151 46.0713 44.0351 46.0531C43.7526 46.0487 43.4757 45.9737 43.2295 45.835C42.9833 45.6963 42.7756 45.4983 42.6252 45.2589C42.4324 44.97 42.3103 44.6397 42.269 44.2948C42.2087 43.8101 42.233 43.3186 42.3406 42.8422C42.4741 42.3123 42.6474 41.7933 42.859 41.2895C44.5152 37.1177 46.2116 32.9603 47.9482 28.8174C49.0892 26.0806 50.2295 23.3432 51.3693 20.6052C51.5012 20.2863 51.6237 19.9618 51.7463 19.6392C51.7589 19.5529 51.7421 19.4649 51.6987 19.3893C51.6553 19.3136 51.5877 19.2548 51.5069 19.2223C51.3096 19.1482 51.0988 19.1174 50.8886 19.1317C50.3495 19.1487 49.8086 19.1733 49.2695 19.194L49.2902 19.1997Z" fill="white" stroke="white" stroke-width="3.66183"/>
<path d="M26.7392 42.7101C26.746 42.1514 26.8821 41.6018 27.1369 41.1046C27.8419 39.7161 28.479 38.2936 29.3517 36.9844C29.7701 36.358 30.1528 35.7071 30.5769 35.0846C30.9746 34.4979 31.6079 34.33 32.3054 34.5771C32.4581 34.6289 32.5898 34.7292 32.6806 34.8626C32.7714 34.996 32.8163 35.1554 32.8086 35.3166C32.8086 35.5481 32.7468 35.7754 32.6296 35.975C32.5353 36.1203 32.4618 36.2769 32.3713 36.4259C31.574 37.7465 30.8634 39.0992 30.166 40.4575C29.9183 40.9126 29.7283 41.3967 29.6005 41.8989C29.4973 42.3175 29.5096 42.7564 29.6363 43.1685C29.8625 43.9062 30.5505 43.9665 31.0726 43.7496C31.4266 43.5959 31.7322 43.3487 31.9566 43.0346C32.3719 42.5116 32.7499 41.96 33.0876 41.3838C34.0501 39.6369 35.0165 37.8918 35.9866 36.1486C36.1751 35.8185 36.3523 35.4902 36.5521 35.1751C36.7167 34.935 36.8941 34.7039 37.0836 34.4828C37.1583 34.3923 37.2468 34.314 37.3456 34.2507C37.4511 34.1681 37.5774 34.1165 37.7106 34.1015C37.8437 34.0865 37.9783 34.1088 38.0996 34.1658C38.2194 34.22 38.3214 34.3071 38.3938 34.4169C38.4662 34.5268 38.506 34.6549 38.5086 34.7865C38.5163 34.9576 38.4972 35.1288 38.452 35.294C38.3801 35.5429 38.292 35.7868 38.1881 36.0241C37.9186 36.6599 37.6415 37.2938 37.3625 37.9258C36.9855 38.7691 36.6086 39.6067 36.2316 40.45C35.9549 41.0514 35.7834 41.6959 35.7246 42.3554C35.68 42.7586 35.7751 43.1649 35.9941 43.5062C36.077 43.6261 36.1767 43.7334 36.29 43.8251C36.3696 43.8945 36.465 43.9436 36.5678 43.9679C36.6706 43.9922 36.7778 43.9911 36.88 43.9647C37.575 43.7971 38.2231 43.4747 38.7762 43.0214C39.5452 42.3818 40.3444 41.7781 41.1342 41.165C41.1592 41.1499 41.1874 41.1409 41.2165 41.1386C41.2457 41.1363 41.2749 41.1408 41.302 41.1518C41.3247 41.1671 41.3436 41.1875 41.357 41.2114C41.3704 41.2354 41.378 41.2621 41.3793 41.2895C41.3866 41.4318 41.3759 41.5744 41.3472 41.714C41.2375 42.1326 41.0324 42.5201 40.7479 42.8459C39.9482 43.7797 39.0974 44.6684 38.1995 45.5079C37.5676 46.0898 36.8482 46.5686 36.0676 46.9266C35.8809 47.0222 35.6796 47.0859 35.472 47.1152C35.3243 47.1354 35.1739 47.116 35.0361 47.059C34.8984 47.002 34.7782 46.9094 34.6879 46.7907C34.5234 46.5877 34.419 46.3426 34.3863 46.0833C34.2996 45.4305 34.1978 44.7759 34.3429 44.1175C34.384 43.9211 34.4092 43.7217 34.4183 43.5213C34.4225 43.4348 34.4089 43.3483 34.3784 43.2672C34.3479 43.1861 34.3012 43.1121 34.2412 43.0497C34.2026 43.0046 34.1547 42.9685 34.1009 42.9437C34.047 42.9189 33.9885 42.9061 33.9292 42.9061C33.8699 42.9061 33.8114 42.9189 33.7575 42.9437C33.7037 42.9685 33.6558 43.0046 33.6172 43.0497C33.4994 43.2136 33.3989 43.3893 33.3175 43.5741C33.114 44.0797 32.9274 44.5948 32.7351 45.106C32.567 45.5691 32.3279 46.0032 32.0264 46.3927C31.5269 47.0266 30.8465 47.2379 30.0491 47.1813C29.8606 47.1681 29.6948 47.119 29.5176 47.0888C28.9324 46.984 28.4005 46.6825 28.0097 46.2342C27.1483 45.2966 26.7279 44.1797 26.7392 42.7101Z" fill="white" stroke="white" stroke-width="3.66183"/>
<path d="M65.5399 36.4296C64.9389 37.1146 64.2402 37.707 63.4665 38.1879C63.0646 38.4449 62.6243 38.6359 62.1622 38.7539C61.9883 38.7968 61.8098 38.8183 61.6306 38.818C61.4374 38.8214 61.2466 38.7751 61.0763 38.6836C60.906 38.5921 60.762 38.4585 60.658 38.2955C60.5489 38.1247 60.4805 37.931 60.4582 37.7295C60.4105 37.3296 60.4432 36.9242 60.5544 36.5372C60.6844 36.0391 60.8277 35.5411 60.9973 35.0543C61.3196 34.1318 61.6683 33.2187 62.0019 32.2999C62.1282 31.949 62.2451 31.5944 62.3639 31.2416C62.5094 30.7746 62.5556 30.2824 62.4996 29.7965C62.466 29.42 62.3187 29.0627 62.0774 28.7721C61.8202 28.4427 61.4526 28.2175 61.0426 28.1382C60.4831 28.018 59.9002 28.0747 59.3744 28.3004C58.5807 28.6323 57.8321 29.0633 57.1465 29.5833C56.0625 30.3919 55.0474 31.2892 54.1118 32.266C53.6504 32.7526 53.2257 33.2728 52.8413 33.8224C52.2227 34.6956 51.7856 35.6842 51.5558 36.7296C51.2858 37.8839 51.4052 39.0952 51.8951 40.1745C52.3475 41.18 53.1335 41.8366 54.157 42.2761C55.2107 42.7289 56.6168 42.3327 57.2068 41.3215C57.3515 41.0728 57.4775 40.8136 57.5837 40.5461C57.7308 40.1688 57.8495 39.7915 57.9777 39.4142C58.0512 39.1954 58.1096 38.9727 58.1869 38.7577C58.2559 38.5657 58.3689 38.3925 58.5168 38.2521C58.5748 38.1949 58.646 38.1529 58.724 38.1298C58.8021 38.1067 58.8847 38.1032 58.9644 38.1196C59.0442 38.136 59.1186 38.1719 59.1813 38.2239C59.2439 38.276 59.2927 38.3427 59.3235 38.4181C59.3643 38.5247 59.3853 38.6379 59.3857 38.752C59.3788 38.9231 59.3548 39.0931 59.3141 39.2595C59.1611 39.9638 59.2107 40.6971 59.4573 41.3743C59.61 41.8252 59.9003 42.0082 60.4111 41.9799C60.8602 41.9609 61.2995 41.8417 61.6966 41.6309C62.4057 41.2667 63.0355 40.7653 63.5495 40.1556C64.2095 39.345 64.8032 38.4826 65.3251 37.5767C65.5176 37.2879 65.6609 36.9691 65.7492 36.6334C65.8019 36.4391 65.719 36.3881 65.5399 36.4296ZM58.8278 33.5715C58.7256 33.915 58.5997 34.251 58.4508 34.577C58.1115 35.2883 57.7647 35.9976 57.3934 36.6938C57.1729 37.0889 56.9313 37.4718 56.6696 37.8408C56.5377 38.0271 56.3874 38.1996 56.221 38.3558C55.9633 38.5924 55.6281 38.7265 55.2785 38.7331C55.1385 38.7413 54.9986 38.715 54.8711 38.6564C54.7436 38.5979 54.6324 38.5089 54.5472 38.3973C54.4093 38.2331 54.3069 38.042 54.2465 37.8361C54.1862 37.6302 54.1692 37.414 54.1966 37.2012C54.2732 36.4615 54.5058 35.7465 54.8789 35.1034C55.2279 34.5448 55.6139 34.0104 56.0344 33.5036C56.3598 33.0916 56.7247 32.7125 57.1238 32.3716C57.343 32.1679 57.5989 32.0079 57.8778 31.9C58.0089 31.854 58.1449 31.8236 58.283 31.8094C58.4451 31.7892 58.6089 31.8313 58.7411 31.9273C58.8734 32.0232 58.9643 32.1659 58.9955 32.3264C59.0089 32.3923 59.0177 32.4591 59.022 32.5263C59.0195 32.8835 58.9538 33.2373 58.8278 33.5715Z" fill="white" stroke="white" stroke-width="3.66183"/>
<path d="M36.3013 21.6654C36.2561 22.5011 36.2127 23.2444 36.1807 23.9877C36.1767 24.1038 36.1448 24.2173 36.0877 24.3184C36.0306 24.4196 35.95 24.5055 35.8527 24.5688C35.7136 24.6779 35.5683 24.7787 35.4173 24.8707C34.822 25.2012 34.2547 25.5798 33.7209 26.0026C33.6606 26.0516 33.5644 26.1177 33.4853 26.0309C33.4335 25.965 33.3927 25.8911 33.3646 25.8121C33.3582 25.7841 33.3582 25.7551 33.3646 25.7272C33.3836 25.4088 33.4957 25.1031 33.6869 24.848C33.7925 24.7084 33.9131 24.5801 34.0149 24.4405C34.0657 24.3887 34.0989 24.3221 34.1097 24.2503C34.1206 24.1785 34.1085 24.1051 34.0752 24.0406C34.0395 23.9593 33.9827 23.889 33.9109 23.8369C33.839 23.7849 33.7545 23.7529 33.6662 23.7444C33.517 23.7312 33.3668 23.7312 33.2176 23.7444C31.4609 23.9481 29.7041 24.1594 27.987 24.5858C27.4083 24.7292 26.8448 24.9291 26.2755 25.1103C26.192 25.1369 26.1151 25.1812 26.0501 25.2401C25.9851 25.299 25.9334 25.3712 25.8985 25.4517C25.8269 25.6102 25.7647 25.7705 25.7101 25.9328C25.0183 27.9137 24.4057 29.9191 23.7705 31.917C23.7185 32.0811 23.6757 32.248 23.6423 32.4169C23.6408 32.5347 23.6855 32.6484 23.767 32.7335C23.8484 32.8185 23.96 32.8681 24.0777 32.8716C24.167 32.8675 24.2558 32.8568 24.3435 32.8395C24.5188 32.7999 24.6922 32.7565 24.8656 32.7075C26.562 32.2245 28.2961 31.883 30.0246 31.5321C30.5535 31.4159 31.0974 31.3841 31.6362 31.4378C31.7386 31.4454 31.8348 31.4899 31.9069 31.5631C31.979 31.6363 32.0221 31.7333 32.0283 31.8359C32.0603 32.4773 31.7436 32.9357 31.1857 33.247C30.8469 33.4368 30.4834 33.5784 30.1056 33.6677C29.64 33.7753 29.1783 33.9054 28.7089 33.9922C27.8283 34.164 26.958 34.3851 26.1021 34.6544C24.9355 35.0174 23.788 35.4393 22.664 35.9184C22.5547 35.9608 22.4553 36.0254 22.3723 36.1082C22.2892 36.191 22.2243 36.2902 22.1815 36.3995C22.0439 36.7485 21.9176 37.0994 21.7876 37.4503C21.0939 39.3369 20.3996 41.2266 19.7047 43.1194C19.684 43.1723 19.6539 43.2232 19.635 43.2779C19.4013 43.908 19.3919 43.9194 19.963 44.3514C20.3347 44.6354 20.5943 45.0416 20.6962 45.4984C20.862 46.1387 20.862 46.8107 20.6962 47.451C20.4999 48.3287 20.0995 49.1476 19.5276 49.8413C19.3013 50.1121 19.0357 50.3474 18.7397 50.5393C17.7105 51.1921 16.6531 51.1732 15.5862 50.645C15.3143 50.5324 15.0912 50.3268 14.9565 50.0649C14.8219 49.8031 14.7845 49.5018 14.8511 49.215C14.8823 49.0166 14.927 48.8205 14.9849 48.6282C15.9858 45.3607 16.9603 42.0856 18.0781 38.8539C18.109 38.7734 18.1317 38.69 18.1459 38.6049C18.1606 38.5342 18.1575 38.4609 18.1368 38.3917C18.116 38.3225 18.0784 38.2596 18.0272 38.2087C17.938 38.1314 17.8442 38.0596 17.7463 37.9936C17.6549 37.9223 17.5818 37.8301 17.5333 37.7248C17.4847 37.6194 17.4622 37.504 17.4674 37.388C17.4616 37.331 17.4616 37.2735 17.4674 37.2164C17.6186 36.5415 17.8608 35.8903 18.1874 35.2807C18.2761 35.1256 18.4161 35.0062 18.5832 34.9431C18.8 34.8487 19.0243 34.7544 19.241 34.6676C19.3635 34.6178 19.4731 34.5411 19.5619 34.4431C19.6506 34.3452 19.7162 34.2284 19.7537 34.1016C19.9234 33.5526 20.1006 33.0055 20.2796 32.4603C20.7433 31.0404 21.2076 29.6204 21.6726 28.2005C21.7365 28.01 21.7894 27.816 21.8309 27.6194C21.8469 27.5343 21.8457 27.4468 21.8272 27.3623C21.8088 27.2777 21.7735 27.1977 21.7235 27.127C21.7 27.091 21.6696 27.0601 21.6339 27.0361C21.5983 27.0121 21.5583 26.9956 21.5161 26.9874C21.3708 26.9626 21.2216 26.9723 21.0807 27.0157C20.8412 27.1334 20.6078 27.2631 20.3814 27.4043C19.7531 27.7502 19.1298 28.0935 18.5116 28.4344C18.4267 28.4816 18.2986 28.4231 18.3043 28.3476C18.3043 28.3212 18.2854 28.2929 18.2854 28.2646C18.2719 27.1766 18.3216 26.0887 18.4343 25.0065C18.4809 24.4362 18.5615 23.8692 18.6756 23.3086C18.734 23.086 18.7924 22.8652 18.8377 22.6407C18.8972 22.3544 19.0154 22.0835 19.1847 21.8452C19.3541 21.6069 19.5709 21.4062 19.8216 21.256C20.1141 21.0543 20.4238 20.8788 20.7471 20.7315C21.9177 20.2117 23.1217 19.7705 24.351 19.4109C25.1324 19.2051 25.9239 19.0395 26.7222 18.9148C28.019 18.6865 29.3215 18.4771 30.624 18.2771C31.1574 18.196 31.6965 18.1431 32.2337 18.1016C33.3134 18.0357 34.397 18.1298 35.4493 18.3809C35.5928 18.4176 35.7309 18.4728 35.8602 18.545C35.9938 18.6095 36.0967 18.724 36.1467 18.8638C36.2564 19.1603 36.3125 19.474 36.3126 19.7901C36.2938 20.4391 36.3013 21.0975 36.3013 21.6654Z" fill="#0D623E" stroke="#0D623E" stroke-width="1.09798" stroke-miterlimit="10"/>
<path d="M49.2751 19.1996C48.8868 19.2147 48.4966 19.2411 48.1065 19.2392C47.2963 19.2476 46.4917 19.3747 45.7183 19.6165C44.8007 19.8747 43.9187 20.2461 43.0926 20.7221C42.4046 21.1315 41.7072 21.5239 41.0192 21.9295C40.8685 22.0216 40.7255 22.1257 40.5914 22.2408C40.5326 22.3042 40.499 22.3867 40.4965 22.4732C40.4941 22.5596 40.5231 22.6439 40.5782 22.7105C40.7085 22.8718 40.8857 22.9885 41.0852 23.0444C41.5154 23.1629 41.9222 23.3543 42.2878 23.6104C42.3799 23.6821 42.4656 23.7617 42.5441 23.8481C42.5611 23.8651 42.5592 23.8991 42.563 23.9274C42.5743 23.9896 42.5385 24.0141 42.4593 24.0236C42.1887 24.0329 41.9199 23.9773 41.6752 23.8613C41.3664 23.7475 41.0391 23.6925 40.7101 23.6991C40.3199 23.6991 39.9298 23.6878 39.5415 23.6764C39.2706 23.6797 39.0026 23.6217 38.7574 23.5066C38.6564 23.4515 38.5787 23.3617 38.5387 23.2538C38.4864 23.0906 38.4628 22.9195 38.469 22.7482C38.484 22.3709 38.5217 22.0049 38.5576 21.6352C38.5896 21.2937 38.6348 20.9522 38.6688 20.6108C38.7404 19.8693 38.8064 19.1279 38.8836 18.3865C38.9142 18.0388 39.0202 17.7019 39.1944 17.3995C39.3686 17.0971 39.6067 16.8364 39.8921 16.6358C41.6427 15.3368 43.6673 14.4565 45.8107 14.0625C47.3224 13.8072 48.8523 13.6754 50.3853 13.6682C51.1959 13.6649 52.0044 13.7509 52.7961 13.9248C53.7499 14.1134 54.3229 14.6794 54.5397 15.5661C54.7696 16.5094 54.9995 17.4526 55.2163 18.411C55.3024 18.8344 55.296 19.2714 55.1975 19.692C55.0778 20.2847 54.888 20.861 54.632 21.4088C53.2692 24.3066 52.0139 27.2458 50.7472 30.1813C49.5145 33.0376 48.2516 35.8825 47.0038 38.7332C46.9001 38.9709 46.7946 39.2086 46.7041 39.4501C46.5803 39.8033 46.5397 40.1803 46.5854 40.5518C46.5993 40.6765 46.6398 40.7968 46.704 40.9045C46.7683 41.0122 46.8548 41.105 46.9578 41.1765C47.0609 41.248 47.178 41.2965 47.3013 41.319C47.4247 41.3414 47.5514 41.3371 47.673 41.3064C47.9089 41.2685 48.1328 41.1761 48.327 41.0367C48.704 40.7537 49.081 40.4707 49.458 40.1971C49.5792 40.1167 49.705 40.0437 49.8349 39.9783C49.8465 39.9741 49.8588 39.9727 49.871 39.9744C49.8831 39.976 49.8947 39.9806 49.9047 39.9877C49.9254 40.0066 49.948 40.0405 49.9423 40.0632C49.8181 40.5376 49.619 40.9892 49.3524 41.4008C49.0087 41.9754 48.6137 42.5178 48.1724 43.0213C47.6598 43.6175 47.1188 44.1948 46.5741 44.7664C46.2277 45.1293 45.8317 45.4412 45.3979 45.6927C44.9888 45.9456 44.5137 46.0711 44.0332 46.053C43.7507 46.0486 43.4738 45.9737 43.2276 45.835C42.9813 45.6963 42.7736 45.4982 42.6233 45.2588C42.4305 44.97 42.3084 44.6397 42.267 44.2948C42.2065 43.81 42.2314 43.3183 42.3406 42.8421C42.4734 42.3123 42.6461 41.7933 42.857 41.2895C44.5132 37.1176 46.2096 32.9602 47.9463 28.8173C49.086 26.0806 50.2264 23.3431 51.3673 20.6051C51.5012 20.2863 51.6218 19.9618 51.7443 19.6392C51.757 19.5529 51.7402 19.4648 51.6968 19.3892C51.6534 19.3136 51.5858 19.2548 51.5049 19.2222C51.3077 19.1482 51.0969 19.1173 50.8867 19.1317C50.3476 19.1487 49.8086 19.1732 49.2676 19.1939L49.2751 19.1996Z" fill="#0D623E" stroke="#0D623E" stroke-width="1.09798" stroke-miterlimit="10"/>
<path d="M26.7242 42.7101C26.7309 42.1514 26.8671 41.6018 27.1219 41.1046C27.8268 39.7161 28.4639 38.2936 29.3367 36.9844C29.7551 36.358 30.1377 35.7071 30.5618 35.0846C30.9596 34.4979 31.5929 34.33 32.2903 34.5771C32.4432 34.6287 32.5751 34.7288 32.6659 34.8623C32.7568 34.9958 32.8016 35.1553 32.7935 35.3166C32.7906 35.549 32.7256 35.7764 32.6051 35.975C32.5108 36.1203 32.4373 36.2769 32.3468 36.4259C31.5495 37.7465 30.8389 39.0992 30.1415 40.4575C29.8938 40.9126 29.7039 41.3967 29.576 41.8989C29.4728 42.3175 29.4852 42.7564 29.6118 43.1685C29.838 43.9062 30.526 43.9665 31.05 43.7496C31.4035 43.5958 31.7084 43.3487 31.9322 43.0346C32.3475 42.5116 32.7254 41.96 33.0631 41.3838C34.0257 39.6369 34.992 37.8918 35.9621 36.1486C36.1506 35.8185 36.3277 35.4902 36.5275 35.1751C36.6922 34.935 36.8697 34.7039 37.0591 34.4828C37.1339 34.3923 37.2223 34.314 37.3211 34.2507C37.4266 34.1681 37.5529 34.1165 37.6861 34.1015C37.8192 34.0865 37.9538 34.1088 38.075 34.1658C38.1949 34.22 38.2969 34.3071 38.3693 34.4169C38.4417 34.5268 38.4815 34.6549 38.4841 34.7865C38.4928 34.9576 38.4737 35.129 38.4275 35.294C38.3557 35.5429 38.2675 35.7868 38.1636 36.0241C37.8947 36.6605 37.6195 37.2944 37.3381 37.9258C36.9611 38.7691 36.5841 39.6067 36.2071 40.45C35.9305 41.0514 35.759 41.6959 35.7001 42.3554C35.6555 42.7586 35.7506 43.1649 35.9696 43.5062C36.0527 43.6266 36.1531 43.734 36.2675 43.8251C36.3466 43.8947 36.4416 43.9438 36.5441 43.9681C36.6466 43.9925 36.7536 43.9913 36.8555 43.9647C37.5505 43.7971 38.1987 43.4747 38.7517 43.0214C39.5208 42.3818 40.32 41.7781 41.1116 41.165C41.1364 41.1502 41.1643 41.1414 41.1931 41.1391C41.2218 41.1368 41.2507 41.1411 41.2775 41.1518C41.3002 41.1671 41.3191 41.1875 41.3325 41.2114C41.3459 41.2354 41.3536 41.2621 41.3548 41.2895C41.3631 41.4318 41.3523 41.5746 41.3227 41.714C41.213 42.1326 41.0079 42.5201 40.7233 42.8459C39.9237 43.7797 39.0729 44.6684 38.1749 45.5079C37.5495 46.0944 36.8358 46.5788 36.0601 46.9436C35.874 47.039 35.6734 47.1027 35.4664 47.1322C35.3184 47.1525 35.1676 47.1332 35.0296 47.0762C34.8915 47.0192 34.771 46.9266 34.6803 46.8077C34.5159 46.6047 34.4114 46.3596 34.3788 46.1003C34.2921 45.4475 34.1903 44.7929 34.3354 44.1345C34.3765 43.9381 34.4017 43.7387 34.4108 43.5383C34.4149 43.4517 34.4014 43.3653 34.3709 43.2842C34.3404 43.2031 34.2937 43.129 34.2336 43.0667C34.1951 43.0216 34.1472 42.9855 34.0934 42.9607C34.0395 42.9359 33.9809 42.9231 33.9217 42.9231C33.8624 42.9231 33.8038 42.9359 33.75 42.9607C33.6961 42.9855 33.6483 43.0216 33.6097 43.0667C33.4917 43.2302 33.3919 43.406 33.3119 43.5911C33.1064 44.0967 32.9199 44.6118 32.7276 45.123C32.5595 45.5861 32.3204 46.0202 32.0189 46.4097C31.5194 47.0435 30.8389 47.2548 30.0416 47.1982C29.8531 47.185 29.6872 47.136 29.5101 47.1058C28.9215 47.003 28.386 46.7013 27.9927 46.2512C27.1332 45.2966 26.7129 44.1797 26.7242 42.7101Z" fill="#0D623E" stroke="#0D623E" stroke-width="1.09798" stroke-miterlimit="10"/>
<path d="M65.5249 36.4296C64.9243 37.115 64.2256 37.7075 63.4515 38.1879C63.0496 38.4449 62.6092 38.6359 62.1471 38.7539C61.9732 38.7968 61.7947 38.8183 61.6156 38.818C61.4224 38.8214 61.2315 38.7751 61.0613 38.6836C60.891 38.5921 60.747 38.4585 60.643 38.2955C60.5338 38.1246 60.4655 37.931 60.4432 37.7295C60.3954 37.3296 60.4281 36.9242 60.5393 36.5372C60.6694 36.0391 60.8126 35.5411 60.9841 35.0543C61.3065 34.1318 61.6533 33.2187 61.9869 32.2999C62.1132 31.949 62.2301 31.5944 62.3507 31.2416C62.4947 30.7743 62.5402 30.2822 62.4845 29.7965C62.4507 29.4204 62.3042 29.0633 62.0642 28.772C61.8063 28.4434 61.4391 28.2185 61.0294 28.1382C60.4693 28.0181 59.8859 28.0747 59.3594 28.3004C58.5662 28.6322 57.8182 29.0633 57.1333 29.5833C56.0483 30.3914 55.0325 31.2887 54.0967 32.266C53.6353 32.7526 53.2106 33.2728 52.8263 33.8224C52.2077 34.6956 51.7705 35.6842 51.5408 36.7296C51.2708 37.8839 51.3901 39.0952 51.88 40.1745C52.3324 41.18 53.1184 41.8365 54.1419 42.2761C55.1956 42.7289 56.5923 42.3327 57.1917 41.3215C57.3365 41.0728 57.4625 40.8136 57.5687 40.5461C57.7157 40.1688 57.8345 39.7915 57.9626 39.4142C58.0361 39.1953 58.0946 38.9727 58.1719 38.7577C58.2413 38.5659 58.3542 38.3928 58.5017 38.2521C58.5597 38.1949 58.6309 38.1529 58.709 38.1298C58.7871 38.1067 58.8696 38.1032 58.9494 38.1196C59.0291 38.136 59.1036 38.1719 59.1662 38.2239C59.2288 38.276 59.2777 38.3426 59.3085 38.4181C59.3492 38.5247 59.3703 38.6378 59.3706 38.752C59.3637 38.9231 59.3398 39.0931 59.299 39.2595C59.1458 39.9639 59.1961 40.6975 59.4442 41.3743C59.595 41.8252 59.8853 42.0082 60.3866 41.9799C60.8358 41.9609 61.275 41.8417 61.6721 41.6309C62.3812 41.2667 63.011 40.7653 63.525 40.1556C64.1856 39.3455 64.7794 38.483 65.3005 37.5767C65.4939 37.2883 65.6372 36.9694 65.7246 36.6334C65.7887 36.4391 65.704 36.3881 65.5249 36.4296ZM58.8127 33.5715C58.7106 33.915 58.5846 34.251 58.4357 34.577C58.0965 35.2883 57.7497 35.9976 57.3783 36.6938C57.1585 37.0893 56.9169 37.4722 56.6545 37.8408C56.5226 38.0271 56.3723 38.1996 56.2059 38.3558C55.9484 38.5927 55.6131 38.7269 55.2634 38.7331C55.1234 38.7413 54.9835 38.7149 54.856 38.6564C54.7285 38.5979 54.6173 38.5089 54.5321 38.3973C54.3942 38.2331 54.2918 38.042 54.2315 37.8361C54.1711 37.6302 54.1541 37.414 54.1815 37.2012C54.2582 36.4615 54.4907 35.7465 54.8639 35.1034C55.2128 34.5448 55.5988 34.0103 56.0193 33.5036C56.3447 33.0916 56.7096 32.7125 57.1088 32.3716C57.3279 32.1679 57.5838 32.0079 57.8627 31.9C57.9944 31.8538 58.1311 31.8234 58.2699 31.8094C58.4318 31.7893 58.5952 31.8314 58.7272 31.9274C58.8591 32.0234 58.9497 32.166 58.9805 32.3263C58.9939 32.3923 59.0026 32.4591 59.0069 32.5263C59.0044 32.8835 58.9387 33.2373 58.8127 33.5715V33.5715Z" fill="#0D623E" stroke="#0D623E" stroke-width="1.09798" stroke-miterlimit="10"/>
<path d="M159.363 20.2749C159.363 20.2749 167.131 20.8409 167.131 13.8323H160.477L154.08 20.2353C154.08 20.2353 159.404 20.2334 159.363 20.2749Z" fill="#EF5222"/>
<path d="M89.0029 46.138V18.2167C89.0029 18.2167 88.707 13.7965 94.0921 13.7965H110.061C110.061 13.7965 117.154 13.2022 117.154 19.7486V35.9014C117.154 35.9014 117.501 42.2328 124.296 42.2328C131.091 42.2328 130.407 35.5185 130.407 35.5185V19.1053C130.407 19.1053 130.322 13.8342 137.371 13.8342H163.492C163.492 13.8342 164.214 18.2111 158.522 20.2486H152.364C152.364 20.2486 151.259 20.3335 151.259 22.1182V41.248C151.259 41.248 150.792 46.3078 145.314 46.3078V20.59H137.888C137.888 20.59 136.568 20.6334 136.568 22.9709V35.3845C136.568 35.3845 138.668 47.0322 123.572 47.0322C123.572 47.0322 111.085 48.8169 111.085 35.5109V20.5051H97.2399C97.2399 20.5051 95.4135 20.1656 95.4135 22.3766V27.2213H107.899C107.899 27.2213 108.325 31.3888 104.506 32.6207H95.502V40.6122C95.502 40.6122 95.1194 46.138 89.0029 46.138Z" fill="#016937"/>
<path d="M172.461 13.7191H168.271C168.723 19.0468 162.948 20.7466 162.948 20.7466L154.277 46.1964C162.148 47.0454 162.262 41.7177 162.262 41.7177C162.262 41.7177 169.398 41.7177 174.947 41.7743C176.419 47.6698 183.617 46.3662 183.617 46.3662L172.461 13.7191ZM164.25 35.3694L167.76 22.3332C167.76 22.3332 168.384 21.1428 169.856 21.7672L173.424 35.3694H164.25Z" fill="#016937"/>
<path d="M200.832 37.1522L198.06 46.2945H191.986L202.316 14.0342H209.823L220.296 46.2945H213.983L211.065 37.1522H200.832ZM210.068 32.7018L207.533 24.7556C206.911 22.7935 206.385 20.5919 205.906 18.7185H205.812C205.333 20.5862 204.855 22.835 204.282 24.7556L201.794 32.7018H210.068Z" fill="#2FADE3"/>
<path d="M245.881 12.3117V39.7368C245.881 42.1308 245.976 44.7154 246.07 46.2945H240.809L240.577 42.6081H240.481C239.094 45.1927 236.272 46.8208 232.878 46.8208C227.33 46.8208 222.931 42.0818 222.931 34.9034C222.882 27.1005 227.76 22.452 233.356 22.452C236.561 22.452 238.855 23.7934 239.906 25.5158H240.002V12.3098L245.881 12.3117ZM239.999 32.7017C239.999 32.1878 239.951 31.6749 239.855 31.1699C239.33 28.872 237.464 27.0062 234.787 27.0062C231.008 27.0062 228.904 30.3567 228.904 34.7109C228.904 38.9708 231.008 42.0818 234.738 42.0818C237.13 42.0818 239.233 40.4556 239.808 37.9181C239.947 37.3548 240.01 36.7756 239.997 36.1957L239.999 32.7017Z" fill="#2FADE3"/>
<path d="M256.411 22.9841L260.18 34.8072C260.85 36.8655 261.328 38.7313 261.758 40.6461H261.901C262.331 38.7313 262.857 36.9126 263.479 34.8072L267.155 22.9841H273.375L264.48 46.2945H258.693L250.042 22.9841H256.411Z" fill="#2FADE3"/>
<path d="M280.982 36.2901C281.125 40.5028 284.426 42.3271 288.156 42.3271C290.882 42.3271 292.842 41.9498 294.612 41.2744L295.473 45.3437C292.882 46.3507 290.123 46.8539 287.344 46.8265C279.787 46.8265 275.341 42.1365 275.341 35.0034C275.341 28.5419 279.261 22.4634 286.722 22.4634C294.325 22.4634 296.764 28.6891 296.764 33.8073C296.774 34.6407 296.711 35.4733 296.576 36.2957L280.982 36.2901ZM291.217 32.1754C291.264 30.021 290.309 26.478 286.386 26.478C282.752 26.478 281.222 29.7814 280.982 32.1754H291.217Z" fill="#2FADE3"/>
<path d="M301.976 30.5001C301.976 27.3401 301.929 25.0913 301.788 22.984H306.905L307.094 27.4364H307.282C308.43 24.133 311.158 22.4577 313.644 22.4577C314.11 22.4536 314.574 22.5017 315.029 22.6011V28.1532C314.464 28.0302 313.887 27.9669 313.308 27.9646C310.481 27.9646 308.573 29.7832 308.048 32.415C307.931 33.0144 307.868 33.623 307.859 34.2337V46.2964H301.976V30.5001Z" fill="#2FADE3"/>
<path d="M327.323 17.0018V22.9841H332.917V27.3873H327.323V37.6786C327.323 40.5084 328.086 41.9875 330.338 41.9875C331.114 42.0152 331.889 41.9177 332.634 41.6989L332.728 46.1983C331.869 46.5341 330.338 46.8209 328.472 46.8209C326.322 46.8209 324.505 46.0549 323.404 44.8589C322.16 43.5175 321.587 41.4121 321.587 38.3483V27.3873H318.235V22.9841H321.583V18.6827L327.323 17.0018Z" fill="#2FADE3"/>
<path d="M344.108 16.4754C344.108 18.2469 342.816 19.6335 340.76 19.6335C338.8 19.6335 337.509 18.2469 337.509 16.4754C337.509 14.6568 338.847 13.2682 340.807 13.2682C342.816 13.2682 344.059 14.6568 344.108 16.4754ZM337.838 46.2945V22.9841H343.768V46.2945H337.838Z" fill="#2FADE3"/>
<path d="M350.279 40.8857C351.617 41.6989 354.152 42.561 356.256 42.561C358.838 42.561 359.986 41.5083 359.986 39.9764C359.986 38.3974 359.03 37.5824 356.16 36.5806C351.617 34.9996 349.704 32.5113 349.751 29.7889C349.751 25.6724 353.144 22.4653 358.55 22.4653C361.132 22.4653 363.379 23.135 364.719 23.8538L363.571 28.0174C362.064 27.1711 360.372 26.7109 358.644 26.678C356.54 26.678 355.393 27.6835 355.393 29.1192C355.393 30.602 356.493 31.3208 359.458 32.3735C363.665 33.9054 365.628 36.0599 365.678 39.5048C365.678 43.7175 362.378 46.8284 356.211 46.8284C353.383 46.8284 350.854 46.1097 349.133 45.1532L350.279 40.8857Z" fill="#2FADE3"/>
<path d="M377.248 16.4754C377.248 18.2469 375.957 19.6335 373.9 19.6335C371.94 19.6335 370.649 18.2469 370.649 16.4754C370.649 14.6568 371.987 13.2682 373.947 13.2682C375.957 13.2682 377.199 14.6568 377.248 16.4754ZM370.983 46.2945V22.9841H376.912V46.2945H370.983Z" fill="#2FADE3"/>
<path d="M383.704 29.9248C383.704 27.244 383.657 24.9952 383.515 22.9841H388.68L388.968 26.478H389.112C390.116 24.6594 392.649 22.4578 396.523 22.4578C400.589 22.4578 404.796 25.099 404.796 32.4566V46.2889H398.909V33.132C398.909 29.7814 397.665 27.244 394.461 27.244C392.118 27.244 390.493 28.9193 389.871 30.6908C389.683 31.2171 389.632 31.9359 389.632 32.6056V46.2946H383.702L383.704 29.9248Z" fill="#2FADE3"/>
<path d="M432.625 42.8969C432.625 47.7774 431.62 51.2732 429.183 53.4749C426.744 55.6274 423.396 56.3047 420.192 56.3047C417.227 56.3047 414.07 55.684 412.062 54.4389L413.353 49.9866C415.429 51.1416 417.764 51.7511 420.139 51.7581C423.965 51.7581 426.834 49.7489 426.834 44.7231V42.7044H426.74C425.4 44.7627 423.01 46.1512 419.954 46.1512C414.168 46.1512 410.055 41.365 410.055 34.7601C410.055 27.1006 415.029 22.4578 420.623 22.4578C424.163 22.4578 426.267 24.1821 427.366 26.0951H427.462L427.701 22.9841H432.819C432.723 24.5651 432.63 26.478 432.63 29.6852L432.625 42.8969ZM426.744 32.3189C426.754 31.7857 426.691 31.2536 426.555 30.7379C425.933 28.5853 424.259 26.9648 421.773 26.9648C418.473 26.9648 416.035 29.8361 416.035 34.5752C416.035 38.5483 418.043 41.7555 421.726 41.7555C422.796 41.7521 423.838 41.4065 424.698 40.7692C425.558 40.1318 426.192 39.2361 426.508 38.2125C426.661 37.521 426.741 36.8153 426.747 36.1071L426.744 32.3189Z" fill="#2FADE3"/>
<path d="M128.763 71.1517H135.278V69.1711H131.131V60.7226H128.763V71.1517ZM142.173 68.4748L142.977 71.1517H145.515L142.281 60.7226H139.186L135.999 71.1517H138.444L139.186 68.4748H142.173ZM139.527 66.7108L140.146 64.4981C140.316 63.8946 140.471 63.1055 140.625 62.4865H140.656C140.811 63.1055 140.997 63.8791 141.182 64.4981L141.832 66.7108H139.527ZM149.078 71.1517V68.0106C149.078 66.3085 149.047 64.8385 148.985 63.4614L149.031 63.4459C149.542 64.6683 150.223 66.0145 150.842 67.1286L153.07 71.1517H155.546V60.7226H153.379V63.7554C153.379 65.3336 153.426 66.7417 153.58 68.1189H153.534C153.07 66.9429 152.451 65.6431 151.832 64.5445L149.666 60.7226H146.911V71.1517H149.078ZM162.13 71.1517H164.497V62.7032H167.344V60.7226H159.329V62.7032H162.13V71.1517ZM172.738 60.5523C169.658 60.5523 167.662 62.8888 167.662 66.0145C167.662 68.9854 169.473 71.3219 172.568 71.3219C175.616 71.3219 177.689 69.2484 177.689 65.8288C177.689 62.9507 175.941 60.5523 172.738 60.5523ZM172.676 62.4246C174.301 62.4246 175.198 64.0339 175.198 65.9062C175.198 67.9332 174.285 69.4496 172.691 69.4496C171.113 69.4496 170.154 68.0106 170.154 65.9681C170.154 63.941 171.082 62.4246 172.676 62.4246ZM173.217 60.2274C173.635 59.4537 174.393 59.2835 174.393 58.3706C174.393 57.6588 173.728 57.0553 172.877 57.0553C171.933 57.0553 171.361 57.566 170.989 58.2777L171.732 58.7265C171.887 58.5098 172.134 58.2004 172.444 58.2004C172.691 58.2004 172.892 58.3861 172.892 58.6646C172.892 59.1752 172.366 59.299 172.134 59.9953L173.217 60.2274ZM184.407 68.4748L185.212 71.1517H187.75L184.516 60.7226H181.421L178.233 71.1517H180.678L181.421 68.4748H184.407ZM181.761 66.7108L182.38 64.4981C182.551 63.8946 182.705 63.1055 182.86 62.4865H182.891C183.046 63.1055 183.231 63.8791 183.417 64.4981L184.067 66.7108H181.761ZM193.681 71.1517H196.049V62.7032H198.896V60.7226H190.88V62.7032H193.681V71.1517ZM200.147 60.7226V71.1517H202.514V66.7882H206.398V71.1517H208.75V60.7226H206.398V64.7302H202.514V60.7226H200.147ZM219.248 59.0824C219.465 59.4383 219.573 59.7941 219.573 60.1191C219.573 60.5214 219.403 60.7226 218.768 60.7226H216.973V66.7263C216.973 68.5676 216.293 69.4341 215.055 69.4341C213.848 69.4341 213.167 68.5212 213.167 66.7263V60.7226H210.8V66.5406C210.8 69.8674 212.347 71.3219 214.977 71.3219C217.701 71.3219 219.325 69.79 219.325 66.5715V61.9759L219.588 61.945C220.718 61.8366 221.244 61.2022 221.244 60.2583C221.244 59.7323 221.105 59.2216 220.904 58.8193L219.248 59.0824ZM226.622 69.4496C225.028 69.4496 224.069 67.9177 224.084 65.9526C224.084 64.0184 224.997 62.4246 226.606 62.4246C228.231 62.4246 229.128 64.0339 229.128 65.9062C229.128 67.9332 228.216 69.4496 226.622 69.4496ZM230.335 59.6549C230.521 59.9798 230.676 60.3667 230.676 60.7844C230.676 61.2022 230.49 61.4034 230.103 61.4034C229.686 61.4034 229.082 61.0475 228.571 60.8618C228.092 60.7071 227.457 60.5523 226.668 60.5523C223.589 60.5523 221.593 62.8888 221.593 66.0145C221.593 68.9854 223.403 71.3219 226.498 71.3219C229.546 71.3219 231.62 69.2484 231.62 65.8288C231.62 64.4826 231.248 63.4304 230.753 62.6413C231.867 62.6103 232.378 61.8831 232.378 60.9392C232.378 60.2893 232.208 59.7632 232.007 59.3609L230.335 59.6549ZM235.33 71.1517V68.0106C235.33 66.3085 235.299 64.8385 235.237 63.4614L235.284 63.4459C235.794 64.6683 236.475 66.0145 237.094 67.1286L239.322 71.1517H241.798V60.7226H239.632V63.7554C239.632 65.3336 239.678 66.7417 239.833 68.1189H239.787C239.322 66.9429 238.703 65.6431 238.084 64.5445L235.918 60.7226H233.164V71.1517H235.33ZM252.559 65.1789H248.675V67.0203H250.284V69.202C250.099 69.2949 249.665 69.3567 249.124 69.3567C247.19 69.3567 245.843 68.0879 245.843 65.9371C245.843 63.678 247.329 62.5639 249.294 62.5639C250.439 62.5639 251.151 62.7651 251.723 63.0126L252.218 61.1249C251.708 60.8773 250.671 60.6142 249.325 60.6142C245.905 60.6142 243.383 62.5948 243.368 66.0609C243.352 67.5928 243.878 68.9544 244.838 69.8519C245.797 70.7803 247.174 71.26 249.077 71.26C250.454 71.26 251.832 70.9196 252.559 70.672V65.1789ZM257.523 60.7226V71.1517H259.89V66.7882H263.774V71.1517H266.126V60.7226H263.774V64.7302H259.89V60.7226H257.523ZM268.191 60.7226V71.1517H270.558V60.7226H268.191ZM278.808 64.823H274.971V62.6567H279.04V60.7226H272.603V71.1517H279.257V69.2175H274.971V66.7417H278.808V64.823ZM274.986 58.2623L273.439 60.1655H275.079L275.853 59.2062H275.884L276.657 60.1655H278.313L276.75 58.2623H274.986ZM275.884 74.5094C276.471 74.5094 276.92 74.0143 276.92 73.4572C276.92 72.8538 276.471 72.3896 275.884 72.3896C275.265 72.3896 274.8 72.8538 274.8 73.4572C274.8 74.0143 275.265 74.5094 275.868 74.5094H275.884ZM280.853 60.7226V66.5406C280.853 69.8674 282.401 71.3219 285.031 71.3219C287.754 71.3219 289.379 69.79 289.379 66.5715V60.7226H287.027V66.7263C287.027 68.5676 286.346 69.4341 285.108 69.4341C283.902 69.4341 283.221 68.5212 283.221 66.7263V60.7226H280.853ZM294.544 71.1517H296.881V67.7475L297.778 66.6489L300.331 71.1517H303.085L299.449 65.1634L302.9 60.7226H300.006L297.639 64.1886C297.407 64.56 297.159 64.9313 296.927 65.3336H296.881V60.7226H294.544V71.1517ZM304.049 60.7226V71.1517H306.416V66.7882H310.3V71.1517H312.652V60.7226H310.3V64.7302H306.416V60.7226H304.049ZM320.133 68.4748L320.937 71.1517H323.475L320.241 60.7226H317.146L313.959 71.1517H316.404L317.146 68.4748H320.133ZM317.487 66.7108L318.106 64.4981C318.276 63.8946 318.431 63.1055 318.585 62.4865H318.616C318.771 63.1055 318.957 63.8791 319.142 64.4981L319.792 66.7108H317.487ZM316.512 58.448C316.636 59.5156 317.317 60.3512 318.694 60.3512C320.086 60.3512 320.814 59.4383 320.937 58.448H319.901C319.777 58.8967 319.436 59.1752 318.74 59.1752C318.044 59.1752 317.688 58.8503 317.58 58.448H316.512ZM319.019 56.8542L317.951 58.6027H319.204L321.123 56.8542H319.019ZM324.871 71.1517H327.208V67.4226C327.425 67.4535 327.703 67.469 328.013 67.469C329.405 67.469 330.597 67.1286 331.401 66.3704C332.02 65.7824 332.361 64.9159 332.361 63.8946C332.361 62.8734 331.912 62.0069 331.246 61.4808C330.55 60.9237 329.513 60.6452 328.059 60.6452C326.62 60.6452 325.599 60.738 324.871 60.8618V71.1517ZM327.208 62.5175C327.378 62.4711 327.703 62.4246 328.183 62.4246C329.359 62.4246 330.024 62.9972 330.024 63.9565C330.024 65.0242 329.25 65.6586 327.997 65.6586C327.657 65.6586 327.409 65.6431 327.208 65.5967V62.5175ZM345.965 71.1517H348.27L347.698 60.7226H344.619L343.505 64.1886C343.164 65.3491 342.808 66.7263 342.514 67.9332H342.468C342.236 66.7108 341.911 65.3955 341.586 64.2041L340.565 60.7226H337.424L336.758 71.1517H338.94L339.126 67.1905C339.203 65.8907 339.249 64.2815 339.311 62.8734H339.342C339.59 64.235 339.946 65.7205 340.286 66.9584L341.4 70.9815H343.242L344.51 66.9119C344.913 65.6895 345.346 64.2041 345.671 62.8734H345.717C345.717 64.3898 345.764 65.9062 345.81 67.1595L345.965 71.1517ZM354.672 60.5523C351.593 60.5523 349.597 62.8888 349.597 66.0145C349.597 68.9854 351.407 71.3219 354.502 71.3219C357.55 71.3219 359.623 69.2484 359.623 65.8288C359.623 62.9507 357.875 60.5523 354.672 60.5523ZM354.61 62.4246C356.235 62.4246 357.132 64.0339 357.132 65.9062C357.132 67.9332 356.219 69.4496 354.625 69.4496C353.047 69.4496 352.088 68.0106 352.088 65.9681C352.088 63.941 353.016 62.4246 354.61 62.4246ZM354.625 74.5094C355.213 74.5094 355.662 74.0143 355.662 73.4572C355.662 72.8538 355.213 72.3896 354.625 72.3896C354.007 72.3896 353.542 72.8538 353.542 73.4572C353.542 74.0143 354.007 74.5094 354.61 74.5094H354.625ZM361.168 60.7226V71.1517H363.535V60.7226H361.168ZM370.874 71.1517V68.0106C370.874 66.3085 370.843 64.8385 370.781 63.4614L370.828 63.4459C371.338 64.6683 372.019 66.0145 372.638 67.1286L374.866 71.1517H377.342V60.7226H375.176V63.7554C375.176 65.3336 375.222 66.7417 375.377 68.1189H375.331C374.866 66.9429 374.247 65.6431 373.628 64.5445L371.462 60.7226H368.708V71.1517H370.874ZM383.94 69.4496C382.347 69.4496 381.387 67.9177 381.403 65.9526C381.403 64.0184 382.316 62.4246 383.925 62.4246C385.55 62.4246 386.447 64.0339 386.447 65.9062C386.447 67.9332 385.534 69.4496 383.94 69.4496ZM387.654 59.6549C387.84 59.9798 387.994 60.3667 387.994 60.7844C387.994 61.2022 387.809 61.4034 387.422 61.4034C387.004 61.4034 386.401 61.0475 385.89 60.8618C385.41 60.7071 384.776 60.5523 383.987 60.5523C380.908 60.5523 378.912 62.8888 378.912 66.0145C378.912 68.9854 380.722 71.3219 383.817 71.3219C386.865 71.3219 388.938 69.2484 388.938 65.8288C388.938 64.4826 388.567 63.4304 388.072 62.6413C389.186 62.6103 389.697 61.8831 389.697 60.9392C389.697 60.2893 389.526 59.7632 389.325 59.3609L387.654 59.6549ZM390.483 60.7226V71.1517H392.85V60.7226H390.483Z" fill="#EF5222"/>
</g>
<defs>
<clipPath id="clip0_944_5105">
<rect width="433" height="80" fill="white"/>
</clipPath>
</defs>
</svg>
