<svg width="98" height="28" viewBox="0 0 98 28" fill="none" xmlns="http://www.w3.org/2000/svg">
<rect width="97.029" height="28" rx="14" fill="#111111"/>
<path fill-rule="evenodd" clip-rule="evenodd" d="M17.7008 6C17.8035 6.93662 17.4256 7.87747 16.8679 8.55456C16.3082 9.23036 15.3924 9.75688 14.4945 9.68729C14.3732 8.76758 14.8259 7.81177 15.3436 7.21143C15.9215 6.53498 16.8959 6.03252 17.7008 6ZM20.5969 11.4623C20.4244 11.5698 18.8628 12.5435 18.8822 14.5021C18.9035 16.8666 20.9101 17.6892 21.0241 17.7359C21.0268 17.737 21.0284 17.7377 21.029 17.738C21.0279 17.7411 21.0259 17.7476 21.0229 17.7572C20.9726 17.9173 20.6486 18.9497 19.9207 20.0138C19.254 20.9888 18.5629 21.9586 17.4728 21.9784C16.9488 21.9885 16.5987 21.837 16.2346 21.6795C15.8537 21.5147 15.4576 21.3433 14.831 21.3433C14.1745 21.3433 13.7599 21.52 13.3606 21.6903C13.0146 21.8378 12.6801 21.9804 12.2095 21.9989C11.1577 22.0389 10.3561 20.9462 9.68387 19.9751C8.30886 17.9884 7.25874 14.3606 8.66985 11.9127C9.36906 10.6964 10.6215 9.9263 11.9802 9.90614C12.5656 9.89582 13.1327 10.121 13.6291 10.3181C14.0086 10.4688 14.3468 10.6031 14.62 10.6031C14.8654 10.6031 15.1945 10.4733 15.5782 10.322C16.1823 10.0837 16.9218 9.79202 17.6835 9.86939C18.2048 9.89085 19.6696 10.0795 20.6098 11.4542C20.6073 11.4558 20.603 11.4585 20.5969 11.4623Z" fill="white"/>
<path d="M33.1069 19H34.6177L31.3105 9.84033H29.7808L26.4736 19H27.9336L28.7778 16.5688H32.269L33.1069 19ZM30.4727 11.5034H30.5806L31.9072 15.3755H29.1396L30.4727 11.5034ZM39.645 11.9731C38.7056 11.9731 37.8931 12.4429 37.4741 13.23H37.3726V12.0874H36.0586V21.2979H37.4233V17.9526H37.5312C37.8931 18.6826 38.6738 19.1143 39.6577 19.1143C41.4033 19.1143 42.5142 17.7368 42.5142 15.5405C42.5142 13.3442 41.4033 11.9731 39.645 11.9731ZM39.2578 17.8892C38.1152 17.8892 37.3979 16.9878 37.3979 15.5469C37.3979 14.0996 38.1152 13.1982 39.2642 13.1982C40.4194 13.1982 41.1113 14.0806 41.1113 15.5405C41.1113 17.0068 40.4194 17.8892 39.2578 17.8892ZM47.7446 11.9731C46.8052 11.9731 45.9927 12.4429 45.5737 13.23H45.4722V12.0874H44.1582V21.2979H45.5229V17.9526H45.6309C45.9927 18.6826 46.7734 19.1143 47.7573 19.1143C49.5029 19.1143 50.6138 17.7368 50.6138 15.5405C50.6138 13.3442 49.5029 11.9731 47.7446 11.9731ZM47.3574 17.8892C46.2148 17.8892 45.4976 16.9878 45.4976 15.5469C45.4976 14.0996 46.2148 13.1982 47.3638 13.1982C48.519 13.1982 49.2109 14.0806 49.2109 15.5405C49.2109 17.0068 48.519 17.8892 47.3574 17.8892ZM55.5396 16.5371C55.6411 18.1748 57.0059 19.2222 59.0371 19.2222C61.208 19.2222 62.5664 18.124 62.5664 16.3721C62.5664 14.9946 61.792 14.2329 59.9131 13.7949L58.9038 13.5474C57.7104 13.2681 57.228 12.8936 57.228 12.2397C57.228 11.4146 57.9771 10.875 59.1006 10.875C60.167 10.875 60.9033 11.4019 61.0366 12.2461H62.4204C62.3379 10.7036 60.9795 9.61816 59.1196 9.61816C57.1201 9.61816 55.7871 10.7036 55.7871 12.335C55.7871 13.6807 56.5425 14.4805 58.1992 14.8677L59.3799 15.1533C60.5923 15.439 61.1255 15.8579 61.1255 16.5562C61.1255 17.3687 60.2876 17.959 59.145 17.959C57.9199 17.959 57.0693 17.4067 56.9487 16.5371H55.5396ZM64.7627 10.3672V12.1191H63.6646V13.2681H64.7627V17.1719C64.7627 18.5049 65.3657 19.0381 66.8828 19.0381C67.1494 19.0381 67.4033 19.0063 67.6255 18.9683V17.832C67.4351 17.8511 67.3145 17.8638 67.105 17.8638C66.4258 17.8638 66.1274 17.5464 66.1274 16.8228V13.2681H67.6255V12.1191H66.1274V10.3672H64.7627ZM72.0752 19.1333C74.0938 19.1333 75.3315 17.7812 75.3315 15.5405C75.3315 13.3125 74.0874 11.9541 72.0752 11.9541C70.0566 11.9541 68.8125 13.3125 68.8125 15.5405C68.8125 17.7812 70.0503 19.1333 72.0752 19.1333ZM72.0752 17.9209C70.8882 17.9209 70.2217 17.0513 70.2217 15.5405C70.2217 14.0425 70.8882 13.1665 72.0752 13.1665C73.2559 13.1665 73.9287 14.0425 73.9287 15.5405C73.9287 17.0449 73.2559 17.9209 72.0752 17.9209ZM76.9756 19H78.3403V14.9185C78.3403 13.9473 79.0703 13.2935 80.105 13.2935C80.3462 13.2935 80.7524 13.3379 80.8667 13.376V12.0303C80.7207 11.9922 80.4604 11.9731 80.2573 11.9731C79.356 11.9731 78.5879 12.4683 78.3911 13.1475H78.2896V12.0874H76.9756V19ZM84.8403 13.1157C85.8496 13.1157 86.5098 13.8203 86.5415 14.9058H83.0503C83.1265 13.8267 83.8311 13.1157 84.8403 13.1157ZM86.5352 17.1338C86.2812 17.6733 85.7163 17.9717 84.8911 17.9717C83.7993 17.9717 83.0947 17.2036 83.0503 15.9912V15.915H87.9316V15.439C87.9316 13.2681 86.77 11.9541 84.8467 11.9541C82.8979 11.9541 81.6602 13.3569 81.6602 15.5659C81.6602 17.7749 82.8726 19.1333 84.853 19.1333C86.4336 19.1333 87.5508 18.3652 87.8491 17.1338H86.5352Z" fill="white"/>
</svg>
