<svg width="87" height="28" viewBox="0 0 87 28" fill="none" xmlns="http://www.w3.org/2000/svg">
<rect width="86.1591" height="28.0001" rx="14" fill="#50B55A"/>
<path fill-rule="evenodd" clip-rule="evenodd" d="M10.4526 6.1996L19.0656 10.8108L16.4375 13.4388L9.09961 6.10089C9.51967 5.94774 10.005 5.95999 10.4526 6.1996ZM19.798 11.2022L22.2789 12.5304C23.4525 13.1587 23.4525 14.8413 22.2789 15.4696L19.798 16.7979L17.0001 14L19.798 11.2022ZM8.42904 6.55127C8.16588 6.84051 8 7.22664 8 7.66906V20.3306C8 20.773 8.16588 21.1592 8.42901 21.4484L15.8776 13.9998L8.42904 6.55127ZM10.4526 21.8005C10.005 22.0401 9.51964 22.0523 9.09961 21.8992L16.4376 14.5613L19.0656 17.1893L10.4526 21.8005Z" fill="white"/>
<path d="M33.0659 19.2222C35.1099 19.2222 36.6143 18.0161 36.8682 16.207H35.4526C35.1987 17.2417 34.2783 17.8955 33.0659 17.8955C31.4155 17.8955 30.3872 16.5562 30.3872 14.4233C30.3872 12.2842 31.4155 10.9448 33.0596 10.9448C34.2656 10.9448 35.186 11.6685 35.4526 12.792H36.8682C36.6396 10.9258 35.0781 9.61816 33.0596 9.61816C30.5142 9.61816 28.9336 11.4526 28.9336 14.4233C28.9336 17.3877 30.5205 19.2222 33.0659 19.2222ZM46.2817 19V9.84033H44.8662V13.687H40.1626V9.84033H38.7407V19H40.1626V14.9819H44.8662V19H46.2817ZM52.1343 9.84033V19H53.5562V15.915H55.6763C57.4727 15.915 58.7422 14.6836 58.7422 12.8936C58.7422 11.0781 57.5107 9.84033 55.7207 9.84033H52.1343ZM53.5562 11.0972H55.3462C56.5967 11.0972 57.2886 11.7319 57.2886 12.8936C57.2886 14.0298 56.5713 14.6646 55.3462 14.6646H53.5562V11.0972ZM60.4814 19H61.8462V9.38965H60.4814V19ZM66.1562 17.9653C65.4136 17.9653 64.874 17.6035 64.874 16.9814C64.874 16.3721 65.3057 16.0483 66.2578 15.9849L67.9463 15.877V16.4546C67.9463 17.3115 67.1846 17.9653 66.1562 17.9653ZM65.8071 19.1143C66.7148 19.1143 67.4702 18.7207 67.8828 18.0288H67.9907V19H69.3047V14.2773C69.3047 12.8174 68.3271 11.9541 66.5942 11.9541C65.0264 11.9541 63.9092 12.7158 63.7695 13.9028H65.0898C65.2422 13.4141 65.769 13.1348 66.5308 13.1348C67.4639 13.1348 67.9463 13.5474 67.9463 14.2773V14.874L66.0737 14.9819C64.4297 15.0835 63.5029 15.8008 63.5029 17.0449C63.5029 18.3081 64.4741 19.1143 65.8071 19.1143ZM71.7041 21.5073C73.1133 21.5073 73.7671 20.9678 74.3574 19.2856L76.9346 12.0874H75.4873L73.7607 17.5781H73.6528L71.9199 12.0874H70.4346L72.9355 19.0254L72.834 19.3618C72.5991 20.0601 72.231 20.3267 71.5835 20.3267C71.4565 20.3267 71.2471 20.3203 71.1392 20.3013V21.4756C71.2661 21.4946 71.5898 21.5073 71.7041 21.5073Z" fill="white"/>
</svg>
