<svg width="28" height="28" viewBox="0 0 28 28" fill="none" xmlns="http://www.w3.org/2000/svg">
<circle cx="14" cy="14" r="14" fill="white"/>
<path d="M13.7273 17.0682C13.6455 17.0682 13.5705 17.0545 13.5023 17.0273C13.4341 17 13.3659 16.9523 13.2977 16.8841L10.9864 14.5727C10.8636 14.45 10.8057 14.3034 10.8125 14.133C10.8193 13.9625 10.8841 13.8159 11.0068 13.6932C11.1295 13.5705 11.2761 13.5091 11.4466 13.5091C11.617 13.5091 11.7636 13.5705 11.8864 13.6932L13.1136 14.9409V11.5864C13.1136 11.4091 13.1716 11.2625 13.2875 11.1466C13.4034 11.0307 13.55 10.9727 13.7273 10.9727C13.9045 10.9727 14.0511 11.0307 14.167 11.1466C14.283 11.2625 14.3409 11.4091 14.3409 11.5864V14.9409L15.5886 13.6932C15.7114 13.5705 15.858 13.5125 16.0284 13.5193C16.1989 13.5261 16.3455 13.5909 16.4682 13.7136C16.5909 13.8364 16.6523 13.983 16.6523 14.1534C16.6523 14.3239 16.5909 14.4705 16.4682 14.5932L14.1568 16.8841C14.0886 16.9523 14.0205 17 13.9523 17.0273C13.8841 17.0545 13.8091 17.0682 13.7273 17.0682ZM9.22727 23C8.88636 23 8.59659 22.8807 8.35795 22.642C8.11932 22.4034 8 22.1136 8 21.7727V6.22727C8 5.88636 8.11932 5.59659 8.35795 5.35795C8.59659 5.11932 8.88636 5 9.22727 5H18.2273C18.5682 5 18.858 5.11932 19.0966 5.35795C19.3352 5.59659 19.4545 5.88636 19.4545 6.22727V21.7727C19.4545 22.1136 19.3352 22.4034 19.0966 22.642C18.858 22.8807 18.5682 23 18.2273 23H9.22727ZM9.22727 19.9318H18.2273V8.06818H9.22727V19.9318ZM9.22727 21.1591V21.7727H18.2273V21.1591H9.22727ZM9.22727 6.84091H18.2273V6.22727H9.22727V6.84091ZM9.22727 6.22727V6.84091V6.22727ZM9.22727 21.7727V21.1591V21.7727Z" fill="#00AA6A"/>
</svg>
