<svg width="374" height="78" viewBox="0 0 374 78" fill="none" xmlns="http://www.w3.org/2000/svg">
<g filter="url(#filter0_d_612_3241)">
<path fill-rule="evenodd" clip-rule="evenodd" d="M36.9932 28.3204C35.818 28.3204 34.6433 28.3252 33.4681 28.3174C33.1668 28.315 32.8805 28.0221 32.8727 27.7161C32.8523 26.9347 32.8367 26.1527 32.8379 25.3713C32.8385 25.1408 32.8481 24.884 32.9453 24.6829C33.7052 23.1147 33.3259 21.4571 33.3361 19.8325C33.3373 19.632 33.1854 19.3776 32.9099 19.3554C32.5222 19.3236 32.132 19.3068 31.7431 19.3122C31.4928 19.3158 31.0913 19.6819 31.0889 19.8931C31.0673 21.4487 30.8698 23.0001 31.4868 24.5263C31.9034 25.5549 31.7251 26.6874 31.5936 27.7737C31.5714 27.9579 31.3361 28.1229 31.1825 28.2802C31.1363 28.3276 31.0342 28.3348 30.958 28.3354C28.7636 28.342 26.5692 28.3486 24.3748 28.3462C23.9499 28.3456 23.6024 28.0305 23.5873 27.6458C23.5627 27.0211 23.5651 26.3951 23.5441 25.7704C23.5249 25.2098 23.6072 24.6745 23.9169 24.1974C24.2734 23.6482 24.364 23.0385 24.364 22.4023C24.3634 19.1934 24.3718 15.9844 24.3526 12.7754C24.3502 12.3157 24.349 11.7641 24.1119 11.4148C23.4835 10.4912 23.5405 9.49016 23.5459 8.47591C23.5477 8.16323 23.5579 7.85055 23.5741 7.53848C23.597 7.12017 23.8959 6.82429 24.3364 6.82309C26.5308 6.81649 28.7258 6.81709 30.9202 6.82309C31.3241 6.82429 31.6405 7.14717 31.6519 7.57208C31.6885 8.896 31.7947 10.2079 31.2431 11.4977C30.8374 12.4465 31.0132 13.5045 31.1219 14.514C31.1411 14.691 31.383 14.9569 31.5534 14.9845C32.0084 15.0577 32.482 15.0439 32.9453 15.0175C33.063 15.0109 33.2508 14.8399 33.27 14.7222C33.4585 13.5592 33.4711 12.3931 33.243 11.2312C32.7058 10.4636 32.8367 9.58318 32.8313 8.72917C32.8283 8.26165 32.8583 7.79233 32.8949 7.32601C32.9159 7.06195 33.1374 6.95453 33.3511 6.86391C33.4207 6.8345 33.5053 6.83149 33.5828 6.83149C35.8552 6.82849 38.1282 6.82429 40.4006 6.82969C40.8214 6.83089 41.1143 7.14237 41.1287 7.57868C41.1467 8.12601 41.1329 8.67396 41.1563 9.22129C41.1863 9.94147 41.0885 10.622 40.6761 11.2378C40.358 11.7131 40.3058 12.261 40.307 12.8138C40.3166 15.9441 40.331 19.0751 40.3406 22.2061C40.343 22.9971 40.4306 23.7491 40.8718 24.453C41.0657 24.7627 41.1143 25.1918 41.1383 25.5723C41.1773 26.1959 41.1515 26.8242 41.1347 27.4496C41.1197 28.0053 40.8034 28.3426 40.2854 28.3474C39.1882 28.3576 38.0904 28.3504 36.9932 28.3504C36.9932 28.3402 36.9932 28.3306 36.9932 28.3204Z" fill="white"/>
<path fill-rule="evenodd" clip-rule="evenodd" d="M36.9932 28.3204C35.818 28.3204 34.6433 28.3252 33.4681 28.3174C33.1668 28.315 32.8805 28.0221 32.8727 27.7161C32.8523 26.9347 32.8367 26.1527 32.8379 25.3713C32.8385 25.1408 32.8481 24.884 32.9453 24.6829C33.7052 23.1147 33.3259 21.4571 33.3361 19.8325C33.3373 19.632 33.1854 19.3776 32.9099 19.3554C32.5222 19.3236 32.132 19.3068 31.7431 19.3122C31.4928 19.3158 31.0913 19.6819 31.0889 19.8931C31.0673 21.4487 30.8698 23.0001 31.4868 24.5263C31.9034 25.5549 31.7251 26.6874 31.5936 27.7737C31.5714 27.9579 31.3361 28.1229 31.1825 28.2802C31.1363 28.3276 31.0342 28.3348 30.958 28.3354C28.7636 28.342 26.5692 28.3486 24.3748 28.3462C23.9499 28.3456 23.6024 28.0305 23.5873 27.6458C23.5627 27.0211 23.5651 26.3951 23.5441 25.7704C23.5249 25.2098 23.6072 24.6745 23.9169 24.1974C24.2734 23.6482 24.364 23.0385 24.364 22.4023C24.3634 19.1934 24.3718 15.9844 24.3526 12.7754C24.3502 12.3157 24.349 11.7641 24.1119 11.4148C23.4835 10.4912 23.5405 9.49016 23.5459 8.47591C23.5477 8.16323 23.5579 7.85055 23.5741 7.53848C23.597 7.12017 23.8959 6.82429 24.3364 6.82309C26.5308 6.81649 28.7258 6.81709 30.9202 6.82309C31.3241 6.82429 31.6405 7.14717 31.6519 7.57208C31.6885 8.896 31.7947 10.2079 31.2431 11.4977C30.8374 12.4465 31.0132 13.5045 31.1219 14.514C31.1411 14.691 31.383 14.9569 31.5534 14.9845C32.0084 15.0577 32.482 15.0439 32.9453 15.0175C33.063 15.0109 33.2508 14.8399 33.27 14.7222C33.4585 13.5592 33.4711 12.3931 33.243 11.2312C32.7058 10.4636 32.8367 9.58318 32.8313 8.72917C32.8283 8.26165 32.8583 7.79233 32.8949 7.32601C32.9159 7.06195 33.1374 6.95453 33.3511 6.86391C33.4207 6.8345 33.5053 6.83149 33.5828 6.83149C35.8552 6.82849 38.1282 6.82429 40.4006 6.82969C40.8214 6.83089 41.1143 7.14237 41.1287 7.57868C41.1467 8.12601 41.1329 8.67396 41.1563 9.22129C41.1863 9.94147 41.0885 10.622 40.6761 11.2378C40.358 11.7131 40.3058 12.261 40.307 12.8138C40.3166 15.9441 40.331 19.0751 40.3406 22.2061C40.343 22.9971 40.4306 23.7491 40.8718 24.453C41.0657 24.7627 41.1143 25.1918 41.1383 25.5723C41.1773 26.1959 41.1515 26.8242 41.1347 27.4496C41.1197 28.0053 40.8034 28.3426 40.2854 28.3474C39.1882 28.3576 38.0904 28.3504 36.9932 28.3504C36.9932 28.3402 36.9932 28.3306 36.9932 28.3204Z" stroke="white" stroke-width="1.84619"/>
<path fill-rule="evenodd" clip-rule="evenodd" d="M53.2223 17.3873C53.2223 15.8197 53.2247 14.2527 53.2211 12.6851C53.2193 12.0532 53.1635 11.4344 52.7583 10.9009C52.6677 10.7815 52.5903 10.6236 52.5776 10.4778C52.484 9.38551 52.4264 8.29025 52.6227 7.20398C52.6443 7.08395 52.8153 6.92911 52.9414 6.9015C53.2421 6.83548 53.5572 6.81508 53.8669 6.81328C55.4365 6.80368 57.006 6.81628 58.5756 6.79708C58.8811 6.79348 59.1884 6.69806 59.4891 6.62184C59.7935 6.54502 59.4555 6.69564 59.5894 6.41358C59.6458 6.29475 59.6602 6.05229 59.5888 5.99407C59.2923 5.75281 58.9538 5.56198 58.6338 5.34893C57.6951 4.72417 57.383 3.44225 57.7965 2.4214C57.9802 1.96648 58.2929 1.61721 58.7017 1.37235C60.3349 0.391705 62.6115 1.45336 62.893 3.32703C63.064 4.46131 62.7777 5.49956 62.1673 6.4598C61.6583 7.26039 61.0761 8.00338 60.294 8.54712C59.7755 8.90721 59.6446 9.37951 59.647 9.95865C59.6548 11.9962 59.6482 14.0337 59.6476 16.0718C59.6464 17.952 59.6482 19.8335 59.6446 21.7144C59.6428 22.5774 59.5612 23.4254 59.3613 24.2752C58.8355 26.5029 57.35 27.78 55.2546 28.37C52.9402 29.0224 50.5747 28.9599 48.2705 28.322C46.5449 27.8437 45.1854 26.8156 44.4669 25.0836C44.2532 24.5674 44.117 24.0435 44.0924 23.4926C44.0618 22.788 44.0432 22.0829 44.0414 21.3783C44.036 18.7136 44.0372 16.049 44.0396 13.3843C44.0408 12.5189 44.0588 11.6595 43.4483 10.9321C43.3097 10.7677 43.2383 10.4982 43.2377 10.2761C43.2341 9.26068 43.2569 8.24403 43.2995 7.22918C43.3043 7.11516 43.4784 6.97652 43.6056 6.9093C43.7365 6.84028 43.9063 6.82168 44.0588 6.82108C46.2562 6.81568 48.4542 6.81028 50.6516 6.81928C51.358 6.82288 51.5717 7.07254 51.5855 7.85333C51.5963 8.48048 51.5879 9.10765 51.5927 9.73421C51.5963 10.2119 51.5423 10.6716 51.2374 11.0671C50.8862 11.5226 50.771 12.055 50.771 12.6131C50.7674 15.9049 50.7692 19.1961 50.7728 22.4874C50.7728 22.6428 50.801 22.7994 50.8232 22.9543C50.9204 23.618 51.786 24.1233 52.4564 23.8791C52.7451 23.7735 53.0488 23.6144 53.0902 23.2537C53.1521 22.7106 53.2145 22.1645 53.2211 21.6189C53.2397 20.2086 53.2271 18.7982 53.2271 17.3873H53.2223Z" fill="white"/>
<path fill-rule="evenodd" clip-rule="evenodd" d="M53.2223 17.3873C53.2223 15.8197 53.2247 14.2527 53.2211 12.6851C53.2193 12.0532 53.1635 11.4344 52.7583 10.9009C52.6677 10.7815 52.5903 10.6236 52.5776 10.4778C52.484 9.38551 52.4264 8.29025 52.6227 7.20398C52.6443 7.08395 52.8153 6.92911 52.9414 6.9015C53.2421 6.83548 53.5572 6.81508 53.8669 6.81328C55.4365 6.80368 57.006 6.81628 58.5756 6.79708C58.8811 6.79348 59.1884 6.69806 59.4891 6.62184C59.7935 6.54502 59.4555 6.69564 59.5894 6.41358C59.6458 6.29475 59.6602 6.05229 59.5888 5.99407C59.2923 5.75281 58.9538 5.56198 58.6338 5.34893C57.6951 4.72417 57.383 3.44225 57.7965 2.4214C57.9802 1.96648 58.2929 1.61721 58.7017 1.37235C60.3349 0.391705 62.6115 1.45336 62.893 3.32703C63.064 4.46131 62.7777 5.49956 62.1673 6.4598C61.6583 7.26039 61.0761 8.00338 60.294 8.54712C59.7755 8.90721 59.6446 9.37951 59.647 9.95865C59.6548 11.9962 59.6482 14.0337 59.6476 16.0718C59.6464 17.952 59.6482 19.8335 59.6446 21.7144C59.6428 22.5774 59.5612 23.4254 59.3613 24.2752C58.8355 26.5029 57.35 27.78 55.2546 28.37C52.9402 29.0224 50.5747 28.9599 48.2705 28.322C46.5449 27.8437 45.1854 26.8156 44.4669 25.0836C44.2532 24.5674 44.117 24.0435 44.0924 23.4926C44.0618 22.788 44.0432 22.0829 44.0414 21.3783C44.036 18.7136 44.0372 16.049 44.0396 13.3843C44.0408 12.5189 44.0588 11.6595 43.4483 10.9321C43.3097 10.7677 43.2383 10.4982 43.2377 10.2761C43.2341 9.26068 43.2569 8.24403 43.2995 7.22918C43.3043 7.11516 43.4784 6.97652 43.6056 6.9093C43.7365 6.84028 43.9063 6.82168 44.0588 6.82108C46.2562 6.81568 48.4542 6.81028 50.6516 6.81928C51.358 6.82288 51.5717 7.07254 51.5855 7.85333C51.5963 8.48048 51.5879 9.10765 51.5927 9.73421C51.5963 10.2119 51.5423 10.6716 51.2374 11.0671C50.8862 11.5226 50.771 12.055 50.771 12.6131C50.7674 15.9049 50.7692 19.1961 50.7728 22.4874C50.7728 22.6428 50.801 22.7994 50.8232 22.9543C50.9204 23.618 51.786 24.1233 52.4564 23.8791C52.7451 23.7735 53.0488 23.6144 53.0902 23.2537C53.1521 22.7106 53.2145 22.1645 53.2211 21.6189C53.2397 20.2086 53.2271 18.7982 53.2271 17.3873H53.2223Z" stroke="white" stroke-width="1.84619"/>
<path fill-rule="evenodd" clip-rule="evenodd" d="M190.104 6.83953C194.458 6.91094 193.233 6.09535 194.87 10.0365C195.529 11.6239 196.126 13.2365 196.763 14.8335C196.811 14.9547 196.934 15.0537 197.04 15.142C197.176 15.2554 197.287 15.0525 197.293 14.6312C197.303 13.8493 197.335 13.0655 197.296 12.2853C197.273 11.8255 197.183 11.355 197.034 10.9193C196.615 9.69262 196.791 8.45211 196.89 7.21281C196.899 7.09698 197.085 6.98537 197.205 6.89235C197.259 6.85094 197.354 6.84913 197.43 6.84913C199.309 6.84793 201.188 6.84672 203.067 6.85333C203.369 6.85453 203.663 7.1498 203.671 7.44747C203.692 8.22886 203.721 9.01086 203.702 9.79106C203.694 10.0929 203.647 10.4488 203.479 10.6811C202.936 11.4336 202.906 12.2745 202.908 13.1423C202.913 17.1327 202.912 21.123 202.908 25.1134C202.906 25.9728 202.887 26.8329 202.866 27.6923C202.858 28.0032 202.576 28.311 202.289 28.3128C200.489 28.3248 198.688 28.3386 196.887 28.3188C196.697 28.3164 196.429 28.1424 196.335 27.9719C195.996 27.358 195.701 26.7176 195.418 26.0755C194.534 24.0758 193.667 22.0689 192.775 20.0734C192.736 19.9846 192.511 19.9696 192.368 19.9432C192.335 19.9372 192.249 20.0266 192.248 20.0728C192.238 20.8542 192.196 21.6386 192.25 22.4164C192.282 22.8731 192.383 23.3712 192.612 23.7565C192.95 24.3278 193.056 24.9046 193.036 25.5413C193.014 26.2441 193.024 26.9487 193.004 27.6521C192.993 28.0746 192.702 28.341 192.229 28.3422C190.506 28.3464 188.783 28.3392 187.059 28.3296C186.747 28.3278 186.444 28.0506 186.432 27.7631C186.406 27.1395 186.382 26.5148 186.379 25.8906C186.375 25.1891 186.35 24.4995 186.803 23.8657C187.126 23.4144 187.114 22.8275 187.114 22.2765C187.115 19.0687 187.114 15.861 187.114 12.6532C187.114 12.0176 187.005 11.4181 186.673 10.8557C186.521 10.5983 186.408 10.2772 186.4 9.9819C186.375 9.12368 186.408 8.26368 186.427 7.40427C186.434 7.1138 186.732 6.84373 187.05 6.84193C188.068 6.83532 189.086 6.83953 190.104 6.83953Z" fill="white"/>
<path fill-rule="evenodd" clip-rule="evenodd" d="M190.104 6.83953C194.458 6.91094 193.233 6.09535 194.87 10.0365C195.529 11.6239 196.126 13.2365 196.763 14.8335C196.811 14.9547 196.934 15.0537 197.04 15.142C197.176 15.2554 197.287 15.0525 197.293 14.6312C197.303 13.8493 197.335 13.0655 197.296 12.2853C197.273 11.8255 197.183 11.355 197.034 10.9193C196.615 9.69262 196.791 8.45211 196.89 7.21281C196.899 7.09698 197.085 6.98537 197.205 6.89235C197.259 6.85094 197.354 6.84913 197.43 6.84913C199.309 6.84793 201.188 6.84672 203.067 6.85333C203.369 6.85453 203.663 7.1498 203.671 7.44747C203.692 8.22886 203.721 9.01086 203.702 9.79106C203.694 10.0929 203.647 10.4488 203.479 10.6811C202.936 11.4336 202.906 12.2745 202.908 13.1423C202.913 17.1327 202.912 21.123 202.908 25.1134C202.906 25.9728 202.887 26.8329 202.866 27.6923C202.858 28.0032 202.576 28.311 202.289 28.3128C200.489 28.3248 198.688 28.3386 196.887 28.3188C196.697 28.3164 196.429 28.1424 196.335 27.9719C195.996 27.358 195.701 26.7176 195.418 26.0755C194.534 24.0758 193.667 22.0689 192.775 20.0734C192.736 19.9846 192.511 19.9696 192.368 19.9432C192.335 19.9372 192.249 20.0266 192.248 20.0728C192.238 20.8542 192.196 21.6386 192.25 22.4164C192.282 22.8731 192.383 23.3712 192.612 23.7565C192.95 24.3278 193.056 24.9046 193.036 25.5413C193.014 26.2441 193.024 26.9487 193.004 27.6521C192.993 28.0746 192.702 28.341 192.229 28.3422C190.506 28.3464 188.783 28.3392 187.059 28.3296C186.747 28.3278 186.444 28.0506 186.432 27.7631C186.406 27.1395 186.382 26.5148 186.379 25.8906C186.375 25.1891 186.35 24.4995 186.803 23.8657C187.126 23.4144 187.114 22.8275 187.114 22.2765C187.115 19.0687 187.114 15.861 187.114 12.6532C187.114 12.0176 187.005 11.4181 186.673 10.8557C186.521 10.5983 186.408 10.2772 186.4 9.9819C186.375 9.12368 186.408 8.26368 186.427 7.40427C186.434 7.1138 186.732 6.84373 187.05 6.84193C188.068 6.83532 189.086 6.83953 190.104 6.83953Z" stroke="white" stroke-width="1.84619"/>
<path fill-rule="evenodd" clip-rule="evenodd" d="M84.8627 6.80834C85.4894 6.80834 86.1166 6.80414 86.7432 6.80894C88.4274 6.82335 88.2509 6.69851 88.8962 8.33872C89.7545 10.5203 90.581 12.7138 91.4363 14.8965C91.4801 15.0082 91.6614 15.091 91.7958 15.136C91.9819 15.1978 92.0389 15.085 92.0299 14.8653C91.9711 13.3926 92.267 11.8838 91.569 10.4776C91.4315 9.38897 91.3829 8.29971 91.6056 7.21825C91.6314 7.09402 91.7874 6.96558 91.9141 6.90136C92.0467 6.83415 92.2172 6.82094 92.3714 6.82034C94.0166 6.81374 95.6624 6.80594 97.3076 6.81554C98.1785 6.82094 98.34 7.007 98.3562 7.95643C98.3658 8.50437 98.3562 9.05169 98.3604 9.59963C98.3646 10.0743 98.3334 10.5371 98.0411 10.9422C97.6576 11.4745 97.5747 12.0944 97.5531 12.724C97.5345 13.2713 97.5399 13.8193 97.5399 14.3666C97.5387 18.435 97.5435 22.5034 97.5333 26.5718C97.5321 27.0363 97.4745 27.5032 97.3983 27.9624C97.3784 28.0812 97.1978 28.182 97.0771 28.2726C97.0213 28.314 96.9325 28.3279 96.8581 28.3279C95.1354 28.3339 93.4122 28.3423 91.6896 28.3357C91.2532 28.3345 90.9711 28.0716 90.8031 27.6857C89.8661 25.536 88.9334 23.3844 87.9947 21.2353C87.8068 20.8062 87.6009 20.3843 87.3884 19.9666C87.3698 19.9294 87.236 19.9306 87.164 19.9474C87.1129 19.9594 87.0379 20.0278 87.0367 20.0722C87.0181 21.0078 86.9971 21.9435 87.0037 22.8791C87.0055 23.1072 87.0385 23.3778 87.1628 23.5555C88.0607 24.8338 87.6813 26.2639 87.6813 27.6473C87.6813 28.044 87.332 28.3471 86.9077 28.3471C85.1844 28.3483 83.4612 28.3447 81.738 28.3309C81.3257 28.3273 81.0261 28.0038 81.0183 27.5681C81.0045 26.7861 81.0069 26.0041 81.0069 25.2215C81.0069 24.8206 81.1072 24.4443 81.3545 24.1244C81.7638 23.5963 81.828 22.9841 81.8274 22.3492C81.8244 19.0628 81.8262 15.7769 81.8226 12.4911C81.822 12.0206 81.8382 11.5171 81.5195 11.1438C81.0147 10.5515 80.9829 9.8673 80.9991 9.15493C81.0111 8.60819 81.0105 8.06084 81.0291 7.51411C81.043 7.10841 81.3527 6.82634 81.807 6.82214C82.8256 6.81254 83.8442 6.81914 84.8627 6.81914C84.8627 6.81554 84.8627 6.81194 84.8627 6.80834Z" fill="white"/>
<path fill-rule="evenodd" clip-rule="evenodd" d="M84.8627 6.80834C85.4894 6.80834 86.1166 6.80414 86.7432 6.80894C88.4274 6.82335 88.2509 6.69851 88.8962 8.33872C89.7545 10.5203 90.581 12.7138 91.4363 14.8965C91.4801 15.0082 91.6614 15.091 91.7958 15.136C91.9819 15.1978 92.0389 15.085 92.0299 14.8653C91.9711 13.3926 92.267 11.8838 91.569 10.4776C91.4315 9.38897 91.3829 8.29971 91.6056 7.21825C91.6314 7.09402 91.7874 6.96558 91.9141 6.90136C92.0467 6.83415 92.2172 6.82094 92.3714 6.82034C94.0166 6.81374 95.6624 6.80594 97.3076 6.81554C98.1785 6.82094 98.34 7.007 98.3562 7.95643C98.3658 8.50437 98.3562 9.05169 98.3604 9.59963C98.3646 10.0743 98.3334 10.5371 98.0411 10.9422C97.6576 11.4745 97.5747 12.0944 97.5531 12.724C97.5345 13.2713 97.5399 13.8193 97.5399 14.3666C97.5387 18.435 97.5435 22.5034 97.5333 26.5718C97.5321 27.0363 97.4745 27.5032 97.3983 27.9624C97.3784 28.0812 97.1978 28.182 97.0771 28.2726C97.0213 28.314 96.9325 28.3279 96.8581 28.3279C95.1354 28.3339 93.4122 28.3423 91.6896 28.3357C91.2532 28.3345 90.9711 28.0716 90.8031 27.6857C89.8661 25.536 88.9334 23.3844 87.9947 21.2353C87.8068 20.8062 87.6009 20.3843 87.3884 19.9666C87.3698 19.9294 87.236 19.9306 87.164 19.9474C87.1129 19.9594 87.0379 20.0278 87.0367 20.0722C87.0181 21.0078 86.9971 21.9435 87.0037 22.8791C87.0055 23.1072 87.0385 23.3778 87.1628 23.5555C88.0607 24.8338 87.6813 26.2639 87.6813 27.6473C87.6813 28.044 87.332 28.3471 86.9077 28.3471C85.1844 28.3483 83.4612 28.3447 81.738 28.3309C81.3257 28.3273 81.0261 28.0038 81.0183 27.5681C81.0045 26.7861 81.0069 26.0041 81.0069 25.2215C81.0069 24.8206 81.1072 24.4443 81.3545 24.1244C81.7638 23.5963 81.828 22.9841 81.8274 22.3492C81.8244 19.0628 81.8262 15.7769 81.8226 12.4911C81.822 12.0206 81.8382 11.5171 81.5195 11.1438C81.0147 10.5515 80.9829 9.8673 80.9991 9.15493C81.0111 8.60819 81.0105 8.06084 81.0291 7.51411C81.043 7.10841 81.3527 6.82634 81.807 6.82214C82.8256 6.81254 83.8442 6.81914 84.8627 6.81914C84.8627 6.81554 84.8627 6.81194 84.8627 6.80834Z" stroke="white" stroke-width="1.84619"/>
<path fill-rule="evenodd" clip-rule="evenodd" d="M205.818 17.4056C205.818 15.9167 205.821 14.4277 205.816 12.9381C205.814 12.2282 205.926 11.541 206.098 10.8502C206.507 9.2046 207.533 8.08593 209.032 7.39216C209.813 7.03087 210.643 6.76862 211.522 6.74581C212.62 6.7164 213.718 6.66839 214.815 6.66412C217.171 6.65578 219.259 7.50619 221.228 8.71069C221.511 8.88353 221.672 9.15059 221.674 9.48608C221.683 10.8178 221.69 12.1495 221.684 13.4813C221.683 13.9422 221.408 14.2603 221.001 14.2633C219.276 14.2759 217.55 14.2795 215.824 14.2753C215.369 14.2735 215.197 14.0694 215.143 13.5287C215.105 13.1392 215.101 12.7455 215.039 12.3602C214.953 11.8147 214.447 11.2757 213.999 11.2025C213.497 11.1209 212.851 11.7276 212.761 12.3884C212.708 12.7749 212.663 13.1668 212.662 13.5563C212.654 16.3776 212.656 19.1995 212.661 22.0208C212.662 22.3329 212.697 22.6455 212.73 22.957C212.781 23.4491 213.117 23.8602 213.558 23.9881C214.018 24.1213 214.726 23.7678 214.917 23.2877C215.248 22.4571 215.181 21.6037 214.997 20.7575C214.971 20.6374 214.788 20.5222 214.652 20.4604C214.329 20.3145 214.175 20.0715 214.176 19.733C214.177 18.7944 214.184 17.8557 214.202 16.9171C214.207 16.6224 214.514 16.3338 214.824 16.3326C216.864 16.3254 218.904 16.3224 220.944 16.3296C221.366 16.3314 221.677 16.65 221.679 17.0756C221.693 19.1911 221.698 21.3072 221.701 23.4227C221.702 24.2845 221.696 25.1469 221.683 26.0088C221.677 26.4373 221.437 26.7715 221.094 26.9642C220.55 27.2697 219.984 27.5632 219.393 27.7528C216.59 28.6518 213.733 29.0131 210.807 28.4742C210.347 28.3895 209.888 28.2773 209.444 28.1309C207.737 27.5661 206.711 26.3448 206.243 24.6542C205.971 23.6736 205.802 22.6683 205.815 21.6379C205.834 20.2269 205.82 18.8166 205.82 17.4056H205.818Z" fill="white"/>
<path fill-rule="evenodd" clip-rule="evenodd" d="M205.818 17.4056C205.818 15.9167 205.821 14.4277 205.816 12.9381C205.814 12.2282 205.926 11.541 206.098 10.8502C206.507 9.2046 207.533 8.08593 209.032 7.39216C209.813 7.03087 210.643 6.76862 211.522 6.74581C212.62 6.7164 213.718 6.66839 214.815 6.66412C217.171 6.65578 219.259 7.50619 221.228 8.71069C221.511 8.88353 221.672 9.15059 221.674 9.48608C221.683 10.8178 221.69 12.1495 221.684 13.4813C221.683 13.9422 221.408 14.2603 221.001 14.2633C219.276 14.2759 217.55 14.2795 215.824 14.2753C215.369 14.2735 215.197 14.0694 215.143 13.5287C215.105 13.1392 215.101 12.7455 215.039 12.3602C214.953 11.8147 214.447 11.2757 213.999 11.2025C213.497 11.1209 212.851 11.7276 212.761 12.3884C212.708 12.7749 212.663 13.1668 212.662 13.5563C212.654 16.3776 212.656 19.1995 212.661 22.0208C212.662 22.3329 212.697 22.6455 212.73 22.957C212.781 23.4491 213.117 23.8602 213.558 23.9881C214.018 24.1213 214.726 23.7678 214.917 23.2877C215.248 22.4571 215.181 21.6037 214.997 20.7575C214.971 20.6374 214.788 20.5222 214.652 20.4604C214.329 20.3145 214.175 20.0715 214.176 19.733C214.177 18.7944 214.184 17.8557 214.202 16.9171C214.207 16.6224 214.514 16.3338 214.824 16.3326C216.864 16.3254 218.904 16.3224 220.944 16.3296C221.366 16.3314 221.677 16.65 221.679 17.0756C221.693 19.1911 221.698 21.3072 221.701 23.4227C221.702 24.2845 221.696 25.1469 221.683 26.0088C221.677 26.4373 221.437 26.7715 221.094 26.9642C220.55 27.2697 219.984 27.5632 219.393 27.7528C216.59 28.6518 213.733 29.0131 210.807 28.4742C210.347 28.3895 209.888 28.2773 209.444 28.1309C207.737 27.5661 206.711 26.3448 206.243 24.6542C205.971 23.6736 205.802 22.6683 205.815 21.6379C205.834 20.2269 205.82 18.8166 205.82 17.4056H205.818Z" stroke="white" stroke-width="1.84619"/>
<path fill-rule="evenodd" clip-rule="evenodd" d="M100.579 17.4162C100.579 16.0071 100.573 14.5979 100.582 13.1882C100.585 12.6408 100.583 12.0893 100.652 11.5474C100.883 9.70613 101.825 8.33419 103.49 7.49938C104.26 7.11289 105.077 6.8158 105.952 6.77199C107.048 6.71738 108.144 6.67298 109.241 6.65737C111.673 6.62196 113.854 7.42676 115.878 8.70927C116.052 8.8203 116.244 9.06877 116.248 9.25722C116.279 10.7414 116.271 12.2267 116.265 13.7115C116.263 13.9984 115.956 14.2678 115.638 14.2684C113.914 14.2726 112.19 14.275 110.467 14.2654C110.049 14.2636 109.816 13.9882 109.766 13.5003C109.717 13.0339 109.683 12.5664 109.618 12.1025C109.598 11.9549 109.508 11.8132 109.437 11.6758C109.179 11.1795 108.419 11.0349 108.026 11.4484C107.767 11.722 107.522 12.0539 107.402 12.4044C107.279 12.7621 107.289 13.175 107.288 13.5639C107.28 16.3822 107.279 19.2011 107.29 22.0194C107.292 22.4053 107.354 22.7948 107.423 23.1765C107.493 23.5527 108.05 23.9849 108.461 24.0245C108.94 24.0701 109.624 23.5689 109.653 23.0948C109.697 22.3957 109.698 21.6929 109.689 20.9919C109.688 20.8557 109.596 20.6456 109.488 20.597C108.784 20.2795 108.742 19.6836 108.766 19.039C108.793 18.3363 108.798 17.6329 108.823 16.9301C108.833 16.6546 109.156 16.3474 109.447 16.3444C111.407 16.3258 113.366 16.3089 115.325 16.3059C116.022 16.3047 116.306 16.591 116.309 17.3004C116.318 20.1187 116.303 22.937 116.324 25.7553C116.33 26.4863 115.98 26.8974 115.369 27.2172C114.385 27.7328 113.325 28.0256 112.258 28.2591C109.943 28.7656 107.607 28.8947 105.254 28.4493C102.735 27.9728 101.204 26.4827 100.741 23.9842C100.67 23.6007 100.64 23.2076 100.621 22.8175C100.592 22.2702 100.583 21.7223 100.58 21.1744C100.575 19.9218 100.579 18.6687 100.579 17.4162Z" fill="white"/>
<path fill-rule="evenodd" clip-rule="evenodd" d="M100.579 17.4162C100.579 16.0071 100.573 14.5979 100.582 13.1882C100.585 12.6408 100.583 12.0893 100.652 11.5474C100.883 9.70613 101.825 8.33419 103.49 7.49938C104.26 7.11289 105.077 6.8158 105.952 6.77199C107.048 6.71738 108.144 6.67298 109.241 6.65737C111.673 6.62196 113.854 7.42676 115.878 8.70927C116.052 8.8203 116.244 9.06877 116.248 9.25722C116.279 10.7414 116.271 12.2267 116.265 13.7115C116.263 13.9984 115.956 14.2678 115.638 14.2684C113.914 14.2726 112.19 14.275 110.467 14.2654C110.049 14.2636 109.816 13.9882 109.766 13.5003C109.717 13.0339 109.683 12.5664 109.618 12.1025C109.598 11.9549 109.508 11.8132 109.437 11.6758C109.179 11.1795 108.419 11.0349 108.026 11.4484C107.767 11.722 107.522 12.0539 107.402 12.4044C107.279 12.7621 107.289 13.175 107.288 13.5639C107.28 16.3822 107.279 19.2011 107.29 22.0194C107.292 22.4053 107.354 22.7948 107.423 23.1765C107.493 23.5527 108.05 23.9849 108.461 24.0245C108.94 24.0701 109.624 23.5689 109.653 23.0948C109.697 22.3957 109.698 21.6929 109.689 20.9919C109.688 20.8557 109.596 20.6456 109.488 20.597C108.784 20.2795 108.742 19.6836 108.766 19.039C108.793 18.3363 108.798 17.6329 108.823 16.9301C108.833 16.6546 109.156 16.3474 109.447 16.3444C111.407 16.3258 113.366 16.3089 115.325 16.3059C116.022 16.3047 116.306 16.591 116.309 17.3004C116.318 20.1187 116.303 22.937 116.324 25.7553C116.33 26.4863 115.98 26.8974 115.369 27.2172C114.385 27.7328 113.325 28.0256 112.258 28.2591C109.943 28.7656 107.607 28.8947 105.254 28.4493C102.735 27.9728 101.204 26.4827 100.741 23.9842C100.67 23.6007 100.64 23.2076 100.621 22.8175C100.592 22.2702 100.583 21.7223 100.58 21.1744C100.575 19.9218 100.579 18.6687 100.579 17.4162Z" stroke="white" stroke-width="1.84619"/>
<path fill-rule="evenodd" clip-rule="evenodd" d="M139.864 17.4463C139.864 19.0145 139.864 20.5827 139.864 22.1509C139.863 22.7859 139.907 23.4346 140.258 23.9657C140.629 24.5287 140.716 25.1138 140.697 25.7518C140.678 26.3783 140.687 27.0055 140.668 27.6321C140.656 28.0564 140.362 28.3378 139.902 28.339C137.625 28.3456 135.349 28.3444 133.073 28.3348C132.636 28.333 132.333 28.0269 132.324 27.6038C132.31 26.8987 132.313 26.1929 132.31 25.4871C132.308 25.0856 132.405 24.7159 132.645 24.3858C132.979 23.9285 133.139 23.4154 133.138 22.8471C133.132 19.3188 133.13 15.7905 133.123 12.2623C133.122 11.9754 132.908 11.7947 132.71 11.8764C132.484 11.9688 132.298 12.0936 132.267 12.3523C132.23 12.6626 132.194 12.9746 132.187 13.2867C132.174 13.9139 132.185 14.5416 132.178 15.1688C132.175 15.4028 132.153 15.6369 132.135 15.8703C132.113 16.1572 131.815 16.4639 131.52 16.4699C130.422 16.4915 129.324 16.5137 128.226 16.5095C127.526 16.5077 127.234 16.2142 127.231 15.5025C127.22 12.9152 127.222 10.3274 127.229 7.74014C127.23 7.1592 127.53 6.83992 128.047 6.82131C128.361 6.80991 128.676 6.80931 128.989 6.80931C134.015 6.80863 139.041 6.80751 144.066 6.81111C144.457 6.81171 144.848 6.84713 145.239 6.86993C145.512 6.88614 145.657 7.09198 145.731 7.30204C145.805 7.51749 145.806 7.76534 145.806 7.9988C145.811 10.4294 145.812 12.86 145.807 15.2906C145.806 15.5241 145.814 15.7821 145.719 15.982C145.631 16.1686 145.425 16.4063 145.249 16.4267C143.923 16.5791 142.591 16.6091 141.267 16.4021C141.144 16.3829 140.996 16.213 140.951 16.0816C140.875 15.8643 140.85 15.6225 140.846 15.3902C140.831 14.6845 140.845 13.9787 140.829 13.2735C140.822 12.9614 140.772 12.6506 140.735 12.3403C140.711 12.1356 140.385 11.91 140.23 12.0018C140.116 12.0696 139.964 12.1764 139.948 12.2839C139.891 12.668 139.864 13.0587 139.861 13.4476C139.852 14.7805 139.858 16.1134 139.858 17.4463H139.864Z" fill="white"/>
<path fill-rule="evenodd" clip-rule="evenodd" d="M139.864 17.4463C139.864 19.0145 139.864 20.5827 139.864 22.1509C139.863 22.7859 139.907 23.4346 140.258 23.9657C140.629 24.5287 140.716 25.1138 140.697 25.7518C140.678 26.3783 140.687 27.0055 140.668 27.6321C140.656 28.0564 140.362 28.3378 139.902 28.339C137.625 28.3456 135.349 28.3444 133.073 28.3348C132.636 28.333 132.333 28.0269 132.324 27.6038C132.31 26.8987 132.313 26.1929 132.31 25.4871C132.308 25.0856 132.405 24.7159 132.645 24.3858C132.979 23.9285 133.139 23.4154 133.138 22.8471C133.132 19.3188 133.13 15.7905 133.123 12.2623C133.122 11.9754 132.908 11.7947 132.71 11.8764C132.484 11.9688 132.298 12.0936 132.267 12.3523C132.23 12.6626 132.194 12.9746 132.187 13.2867C132.174 13.9139 132.185 14.5416 132.178 15.1688C132.175 15.4028 132.153 15.6369 132.135 15.8703C132.113 16.1572 131.815 16.4639 131.52 16.4699C130.422 16.4915 129.324 16.5137 128.226 16.5095C127.526 16.5077 127.234 16.2142 127.231 15.5025C127.22 12.9152 127.222 10.3274 127.229 7.74014C127.23 7.1592 127.53 6.83992 128.047 6.82131C128.361 6.80991 128.676 6.80931 128.989 6.80931C134.015 6.80863 139.041 6.80751 144.066 6.81111C144.457 6.81171 144.848 6.84713 145.239 6.86993C145.512 6.88614 145.657 7.09198 145.731 7.30204C145.805 7.51749 145.806 7.76534 145.806 7.9988C145.811 10.4294 145.812 12.86 145.807 15.2906C145.806 15.5241 145.814 15.7821 145.719 15.982C145.631 16.1686 145.425 16.4063 145.249 16.4267C143.923 16.5791 142.591 16.6091 141.267 16.4021C141.144 16.3829 140.996 16.213 140.951 16.0816C140.875 15.8643 140.85 15.6225 140.846 15.3902C140.831 14.6845 140.845 13.9787 140.829 13.2735C140.822 12.9614 140.772 12.6506 140.735 12.3403C140.711 12.1356 140.385 11.91 140.23 12.0018C140.116 12.0696 139.964 12.1764 139.948 12.2839C139.891 12.668 139.864 13.0587 139.861 13.4476C139.852 14.7805 139.858 16.1134 139.858 17.4463H139.864Z" stroke="white" stroke-width="1.84619"/>
<path fill-rule="evenodd" clip-rule="evenodd" d="M71.7454 21.2296C71.731 21.8513 71.6349 22.4743 71.5359 23.0906C71.4585 23.5755 71.0167 23.9362 70.5641 23.9536C70.1218 23.9698 69.5894 23.653 69.4285 23.2605C69.3403 23.045 69.2377 22.8242 69.2113 22.5973C69.1662 22.2096 69.165 21.8153 69.1644 21.424C69.1608 18.8368 69.1578 16.2495 69.1674 13.6629C69.1692 13.1948 69.1746 12.7147 69.2785 12.2628C69.3865 11.791 69.7142 11.4489 70.2028 11.2845C70.8439 11.069 71.5707 11.4423 71.6505 12.0665C71.71 12.531 71.746 13.0009 71.7508 13.4684C71.764 14.7228 71.7556 15.9771 71.755 17.2314C71.755 18.5643 71.7766 19.8978 71.7454 21.2296ZM77.4588 2.09143C77.0909 2.15205 76.705 2.3363 76.4121 2.56976C75.2711 3.48018 75.3227 5.36763 76.5009 6.24805C76.8106 6.47911 77.1833 6.62555 77.5285 6.8086C77.7409 6.92203 77.7806 7.11948 77.6563 7.38894C77.385 7.97709 77.0603 8.13192 76.5837 7.82165C75.5784 7.16809 74.4758 6.84641 73.3035 6.62616C71.0995 6.21205 68.9292 6.38008 66.7708 6.8494C66.1682 6.98083 65.5787 7.24551 65.0307 7.53779C63.637 8.28197 62.7643 9.45526 62.4876 11.0096C62.3376 11.8528 62.2764 12.7177 62.2493 13.5747C62.2109 14.826 62.2397 16.0797 62.2397 17.3316C62.2391 18.5841 62.2079 19.8378 62.2499 21.0885C62.2812 22.0242 62.337 22.9694 62.5068 23.8876C62.8418 25.6965 63.8759 27.0204 65.5553 27.8006C66.0493 28.0304 66.5733 28.2291 67.1051 28.3389C69.4357 28.8208 71.7772 28.843 74.1072 28.3335C74.6378 28.2177 75.1612 28.0184 75.6528 27.7832C76.837 27.216 77.6617 26.3056 78.0681 25.0453C78.3088 24.2987 78.4906 23.5413 78.4894 22.7461C78.4834 19.3025 78.5086 15.8582 78.4714 12.4146C78.4624 11.5654 78.2643 10.7186 78.1527 9.87055C78.5698 9.00753 79.4372 8.52502 79.9515 7.73643C80.4287 7.00425 80.7996 6.25706 80.8897 5.36824C81.11 3.19871 79.685 1.72354 77.4588 2.09143Z" fill="white"/>
<path fill-rule="evenodd" clip-rule="evenodd" d="M71.7454 21.2296C71.731 21.8513 71.6349 22.4743 71.5359 23.0906C71.4585 23.5755 71.0167 23.9362 70.5641 23.9536C70.1218 23.9698 69.5894 23.653 69.4285 23.2605C69.3403 23.045 69.2377 22.8242 69.2113 22.5973C69.1662 22.2096 69.165 21.8153 69.1644 21.424C69.1608 18.8368 69.1578 16.2495 69.1674 13.6629C69.1692 13.1948 69.1746 12.7147 69.2785 12.2628C69.3865 11.791 69.7142 11.4489 70.2028 11.2845C70.8439 11.069 71.5707 11.4423 71.6505 12.0665C71.71 12.531 71.746 13.0009 71.7508 13.4684C71.764 14.7228 71.7556 15.9771 71.755 17.2314C71.755 18.5643 71.7766 19.8978 71.7454 21.2296ZM77.4588 2.09143C77.0909 2.15205 76.705 2.3363 76.4121 2.56976C75.2711 3.48018 75.3227 5.36763 76.5009 6.24805C76.8106 6.47911 77.1833 6.62555 77.5285 6.8086C77.7409 6.92203 77.7806 7.11948 77.6563 7.38894C77.385 7.97709 77.0603 8.13192 76.5837 7.82165C75.5784 7.16809 74.4758 6.84641 73.3035 6.62616C71.0995 6.21205 68.9292 6.38008 66.7708 6.8494C66.1682 6.98083 65.5787 7.24551 65.0307 7.53779C63.637 8.28197 62.7643 9.45526 62.4876 11.0096C62.3376 11.8528 62.2764 12.7177 62.2493 13.5747C62.2109 14.826 62.2397 16.0797 62.2397 17.3316C62.2391 18.5841 62.2079 19.8378 62.2499 21.0885C62.2812 22.0242 62.337 22.9694 62.5068 23.8876C62.8418 25.6965 63.8759 27.0204 65.5553 27.8006C66.0493 28.0304 66.5733 28.2291 67.1051 28.3389C69.4357 28.8208 71.7772 28.843 74.1072 28.3335C74.6378 28.2177 75.1612 28.0184 75.6528 27.7832C76.837 27.216 77.6617 26.3056 78.0681 25.0453C78.3088 24.2987 78.4906 23.5413 78.4894 22.7461C78.4834 19.3025 78.5086 15.8582 78.4714 12.4146C78.4624 11.5654 78.2643 10.7186 78.1527 9.87055C78.5698 9.00753 79.4372 8.52502 79.9515 7.73643C80.4287 7.00425 80.7996 6.25706 80.8897 5.36824C81.11 3.19871 79.685 1.72354 77.4588 2.09143Z" stroke="white" stroke-width="1.84619"/>
<path fill-rule="evenodd" clip-rule="evenodd" d="M157.772 14.3472C157.656 15.2805 156.697 15.8956 155.699 15.6424C155.58 15.6118 155.418 15.4599 155.405 15.3483C155.33 14.7415 155.297 14.13 155.291 14.058C155.291 13.1325 155.288 12.7473 155.292 12.362C155.301 11.4185 155.683 11.3885 156.498 11.514C157.085 11.6046 157.475 11.9557 157.647 12.5174C157.828 13.1139 157.849 13.7273 157.772 14.3472ZM165.117 25.0689C165.114 24.8534 164.986 24.6128 164.852 24.4315C164.403 23.8266 164.33 23.1406 164.331 22.4228C164.332 21.7183 164.323 21.0119 164.288 20.3079C164.247 19.4833 163.902 18.7985 163.246 18.2854C163.062 18.142 162.85 18.0345 162.662 17.8947C162.454 17.7393 162.419 17.4338 162.608 17.3054C163.55 16.6686 164.242 15.8698 164.51 14.7253C164.801 13.4818 164.859 12.2323 164.597 10.9954C164.209 9.16017 163.073 7.92025 161.294 7.33631C160.251 6.99362 159.168 6.79438 158.053 6.80938C156.561 6.82919 155.07 6.81418 153.578 6.81418V6.80938C153.264 6.80938 152.949 6.80818 152.635 6.80938C151.3 6.81299 149.966 6.81058 148.631 6.82498C148.065 6.83099 147.823 7.10046 147.811 7.71861C147.798 8.42379 147.808 9.13016 147.799 9.83533C147.792 10.3935 147.851 10.909 148.25 11.3663C148.566 11.7294 148.629 12.2155 148.629 12.6962C148.628 15.9106 148.631 19.125 148.625 22.3394C148.625 22.972 148.546 23.6027 148.195 24.1465C147.881 24.6314 147.782 25.1481 147.798 25.7093C147.814 26.2578 147.805 26.8069 147.807 27.3554C147.808 27.4341 147.811 27.5127 147.814 27.5907C147.836 28.0168 148.126 28.3319 148.547 28.3331C150.823 28.3409 153.099 28.3379 155.375 28.3355C155.452 28.3355 155.552 28.3307 155.601 28.2851C155.763 28.135 155.914 27.9712 156.052 27.8001C156.097 27.7449 156.11 27.6501 156.109 27.5745C156.08 26.3454 156.426 25.0515 155.495 23.9736C155.448 23.9184 155.427 23.8296 155.418 23.7534C155.282 22.5861 155.185 21.417 155.437 20.2551C155.457 20.1627 155.674 20.0415 155.786 20.0529C156.729 20.1489 157.296 20.6356 157.383 21.4734C157.456 22.1732 157.447 22.8808 157.48 23.5841C157.539 24.8366 157.584 26.0897 157.67 27.3404C157.72 28.0684 158.013 28.3409 158.693 28.3505C159.87 28.3667 161.048 28.3685 162.226 28.3613C163.01 28.3565 163.796 28.3505 164.576 28.2881C164.754 28.2737 165.048 28.0318 165.058 27.88C165.119 26.9455 165.131 26.0063 165.117 25.0689Z" fill="white"/>
<path fill-rule="evenodd" clip-rule="evenodd" d="M157.772 14.3472C157.656 15.2805 156.697 15.8956 155.699 15.6424C155.58 15.6118 155.418 15.4599 155.405 15.3483C155.33 14.7415 155.297 14.13 155.291 14.058C155.291 13.1325 155.288 12.7473 155.292 12.362C155.301 11.4185 155.683 11.3885 156.498 11.514C157.085 11.6046 157.475 11.9557 157.647 12.5174C157.828 13.1139 157.849 13.7273 157.772 14.3472ZM165.117 25.0689C165.114 24.8534 164.986 24.6128 164.852 24.4315C164.403 23.8266 164.33 23.1406 164.331 22.4228C164.332 21.7183 164.323 21.0119 164.288 20.3079C164.247 19.4833 163.902 18.7985 163.246 18.2854C163.062 18.142 162.85 18.0345 162.662 17.8947C162.454 17.7393 162.419 17.4338 162.608 17.3054C163.55 16.6686 164.242 15.8698 164.51 14.7253C164.801 13.4818 164.859 12.2323 164.597 10.9954C164.209 9.16017 163.073 7.92025 161.294 7.33631C160.251 6.99362 159.168 6.79438 158.053 6.80938C156.561 6.82919 155.07 6.81418 153.578 6.81418V6.80938C153.264 6.80938 152.949 6.80818 152.635 6.80938C151.3 6.81299 149.966 6.81058 148.631 6.82498C148.065 6.83099 147.823 7.10046 147.811 7.71861C147.798 8.42379 147.808 9.13016 147.799 9.83533C147.792 10.3935 147.851 10.909 148.25 11.3663C148.566 11.7294 148.629 12.2155 148.629 12.6962C148.628 15.9106 148.631 19.125 148.625 22.3394C148.625 22.972 148.546 23.6027 148.195 24.1465C147.881 24.6314 147.782 25.1481 147.798 25.7093C147.814 26.2578 147.805 26.8069 147.807 27.3554C147.808 27.4341 147.811 27.5127 147.814 27.5907C147.836 28.0168 148.126 28.3319 148.547 28.3331C150.823 28.3409 153.099 28.3379 155.375 28.3355C155.452 28.3355 155.552 28.3307 155.601 28.2851C155.763 28.135 155.914 27.9712 156.052 27.8001C156.097 27.7449 156.11 27.6501 156.109 27.5745C156.08 26.3454 156.426 25.0515 155.495 23.9736C155.448 23.9184 155.427 23.8296 155.418 23.7534C155.282 22.5861 155.185 21.417 155.437 20.2551C155.457 20.1627 155.674 20.0415 155.786 20.0529C156.729 20.1489 157.296 20.6356 157.383 21.4734C157.456 22.1732 157.447 22.8808 157.48 23.5841C157.539 24.8366 157.584 26.0897 157.67 27.3404C157.72 28.0684 158.013 28.3409 158.693 28.3505C159.87 28.3667 161.048 28.3685 162.226 28.3613C163.01 28.3565 163.796 28.3505 164.576 28.2881C164.754 28.2737 165.048 28.0318 165.058 27.88C165.119 26.9455 165.131 26.0063 165.117 25.0689Z" stroke="white" stroke-width="1.84619"/>
<path fill-rule="evenodd" clip-rule="evenodd" d="M175.133 18.5116C175.055 18.5098 174.978 18.505 174.9 18.4966C174.459 18.448 174.187 18.1245 174.241 17.7128C174.447 16.4831 174.645 15.2522 174.867 14.0261C174.89 13.9042 175.055 13.798 175.171 13.7068C175.357 13.5609 175.453 13.6216 175.489 13.8556C175.681 15.0871 175.896 16.315 176.074 17.5483C176.175 18.2445 175.872 18.5314 175.133 18.5116ZM184.559 24.9085C184.548 24.7591 184.495 24.5887 184.404 24.4734C183.535 23.3794 183.377 22.0476 183.129 20.7441C182.411 16.98 181.691 13.2165 180.97 9.45293C180.837 8.76216 180.703 8.07258 180.555 7.38541C180.494 7.09914 180.173 6.84049 179.873 6.83929C177.051 6.83269 174.23 6.83089 171.408 6.83269C171.136 6.83269 170.84 7.09974 170.764 7.40461C170.651 7.85953 170.534 8.31505 170.45 8.77537C169.679 13.0076 168.902 17.238 168.157 21.4745C167.993 22.4053 167.857 23.3248 167.319 24.1356C167.195 24.3216 167.105 24.5695 167.104 24.7897C167.096 25.8046 167.12 26.82 167.142 27.8349C167.149 28.1145 167.395 28.201 167.595 28.3078C167.659 28.342 167.749 28.3372 167.827 28.3378C169.708 28.342 171.589 28.3474 173.47 28.3438C173.62 28.3438 173.785 28.312 173.914 28.2418C174.039 28.1733 174.202 28.0467 174.218 27.9285C174.288 27.3902 174.325 26.8458 174.351 26.3027C174.39 25.4355 174.369 24.5803 173.806 23.8379C173.72 23.7256 173.738 23.5372 173.702 23.3854C173.633 23.0937 173.88 22.7156 174.171 22.7102C174.875 22.6982 175.578 22.6916 176.282 22.7078C176.716 22.718 176.957 23.1207 176.788 23.5366C176.641 23.8973 176.399 24.2298 176.31 24.6013C176.034 25.7469 176.042 26.9052 176.304 28.0575C177.079 28.6325 177.969 28.276 178.804 28.3534C179.348 28.4038 179.9 28.363 180.449 28.363V28.3618C181.39 28.3618 182.331 28.3696 183.272 28.3576C183.58 28.3534 183.894 28.324 184.192 28.2526C184.315 28.2226 184.476 28.0659 184.5 27.9429C184.7 26.9371 184.634 25.9216 184.559 24.9085Z" fill="white"/>
<path fill-rule="evenodd" clip-rule="evenodd" d="M175.133 18.5116C175.055 18.5098 174.978 18.505 174.9 18.4966C174.459 18.448 174.187 18.1245 174.241 17.7128C174.447 16.4831 174.645 15.2522 174.867 14.0261C174.89 13.9042 175.055 13.798 175.171 13.7068C175.357 13.5609 175.453 13.6216 175.489 13.8556C175.681 15.0871 175.896 16.315 176.074 17.5483C176.175 18.2445 175.872 18.5314 175.133 18.5116ZM184.559 24.9085C184.548 24.7591 184.495 24.5887 184.404 24.4734C183.535 23.3794 183.377 22.0476 183.129 20.7441C182.411 16.98 181.691 13.2165 180.97 9.45293C180.837 8.76216 180.703 8.07258 180.555 7.38541C180.494 7.09914 180.173 6.84049 179.873 6.83929C177.051 6.83269 174.23 6.83089 171.408 6.83269C171.136 6.83269 170.84 7.09974 170.764 7.40461C170.651 7.85953 170.534 8.31505 170.45 8.77537C169.679 13.0076 168.902 17.238 168.157 21.4745C167.993 22.4053 167.857 23.3248 167.319 24.1356C167.195 24.3216 167.105 24.5695 167.104 24.7897C167.096 25.8046 167.12 26.82 167.142 27.8349C167.149 28.1145 167.395 28.201 167.595 28.3078C167.659 28.342 167.749 28.3372 167.827 28.3378C169.708 28.342 171.589 28.3474 173.47 28.3438C173.62 28.3438 173.785 28.312 173.914 28.2418C174.039 28.1733 174.202 28.0467 174.218 27.9285C174.288 27.3902 174.325 26.8458 174.351 26.3027C174.39 25.4355 174.369 24.5803 173.806 23.8379C173.72 23.7256 173.738 23.5372 173.702 23.3854C173.633 23.0937 173.88 22.7156 174.171 22.7102C174.875 22.6982 175.578 22.6916 176.282 22.7078C176.716 22.718 176.957 23.1207 176.788 23.5366C176.641 23.8973 176.399 24.2298 176.31 24.6013C176.034 25.7469 176.042 26.9052 176.304 28.0575C177.079 28.6325 177.969 28.276 178.804 28.3534C179.348 28.4038 179.9 28.363 180.449 28.363V28.3618C181.39 28.3618 182.331 28.3696 183.272 28.3576C183.58 28.3534 183.894 28.324 184.192 28.2526C184.315 28.2226 184.476 28.0659 184.5 27.9429C184.7 26.9371 184.634 25.9216 184.559 24.9085Z" stroke="white" stroke-width="1.84619"/>
<path fill-rule="evenodd" clip-rule="evenodd" d="M14.9478 16.5747C14.844 17.3471 13.9527 17.8206 13.137 17.5793C12.8627 17.4983 12.7558 17.263 12.748 17.05C12.7168 16.268 12.7354 15.4842 12.7354 14.7004H12.7528C12.7528 13.8392 12.7282 12.9774 12.7738 12.1186C12.7828 11.9487 13.0409 11.6823 13.2186 11.6493C14.0313 11.4998 14.8878 12.0916 14.964 12.8249C15.0937 14.0738 15.1153 15.3276 14.9478 16.5747ZM21.9794 12.3148C21.9716 11.8527 21.8815 11.3798 21.7513 10.9351C21.1979 9.04161 19.8294 7.93853 18.0449 7.30778C17.1614 6.9951 16.2413 6.79405 15.2827 6.80725C13.7936 6.82826 12.3045 6.81325 10.8153 6.81325V6.80905C9.32619 6.80905 7.83705 6.80425 6.34791 6.81325C6.0382 6.81505 5.72248 6.83786 5.42238 6.90627C5.29813 6.93448 5.14147 7.09353 5.11266 7.21896C5.04424 7.52023 5.01243 7.83771 5.01963 8.14739C5.04784 9.37349 4.77234 10.6458 5.65046 11.7423C5.82032 11.9541 5.81012 12.343 5.81132 12.6503C5.82272 15.9373 5.82212 19.2243 5.81912 22.5113C5.81792 23.1469 5.68527 23.7368 5.29153 24.274C5.12047 24.508 5.04064 24.8543 5.03224 25.152C5.01003 26.0108 5.04004 26.8714 5.06045 27.7308C5.06765 28.0345 5.35695 28.3214 5.66486 28.322C8.01471 28.3262 10.364 28.325 12.7138 28.3178C13.0157 28.3172 13.3242 28.0195 13.332 27.7314C13.3542 26.8726 13.3855 26.0126 13.3674 25.1538C13.3608 24.8543 13.2408 24.55 13.1358 24.2614C12.4947 22.5029 12.6502 22.2785 14.5547 22.2569C14.946 22.2521 15.3386 22.2419 15.7299 22.2509C16.6032 22.2707 17.4459 22.0924 18.2766 21.859C19.9806 21.3794 21.1781 20.3484 21.6726 18.6134C21.8215 18.0912 21.9547 17.5469 21.9692 17.0092C22.01 15.4452 22.0046 13.8788 21.9794 12.3148Z" fill="white"/>
<path fill-rule="evenodd" clip-rule="evenodd" d="M14.9478 16.5747C14.844 17.3471 13.9527 17.8206 13.137 17.5793C12.8627 17.4983 12.7558 17.263 12.748 17.05C12.7168 16.268 12.7354 15.4842 12.7354 14.7004H12.7528C12.7528 13.8392 12.7282 12.9774 12.7738 12.1186C12.7828 11.9487 13.0409 11.6823 13.2186 11.6493C14.0313 11.4998 14.8878 12.0916 14.964 12.8249C15.0937 14.0738 15.1153 15.3276 14.9478 16.5747ZM21.9794 12.3148C21.9716 11.8527 21.8815 11.3798 21.7513 10.9351C21.1979 9.04161 19.8294 7.93853 18.0449 7.30778C17.1614 6.9951 16.2413 6.79405 15.2827 6.80725C13.7936 6.82826 12.3045 6.81325 10.8153 6.81325V6.80905C9.32619 6.80905 7.83705 6.80425 6.34791 6.81325C6.0382 6.81505 5.72248 6.83786 5.42238 6.90627C5.29813 6.93448 5.14147 7.09353 5.11266 7.21896C5.04424 7.52023 5.01243 7.83771 5.01963 8.14739C5.04784 9.37349 4.77234 10.6458 5.65046 11.7423C5.82032 11.9541 5.81012 12.343 5.81132 12.6503C5.82272 15.9373 5.82212 19.2243 5.81912 22.5113C5.81792 23.1469 5.68527 23.7368 5.29153 24.274C5.12047 24.508 5.04064 24.8543 5.03224 25.152C5.01003 26.0108 5.04004 26.8714 5.06045 27.7308C5.06765 28.0345 5.35695 28.3214 5.66486 28.322C8.01471 28.3262 10.364 28.325 12.7138 28.3178C13.0157 28.3172 13.3242 28.0195 13.332 27.7314C13.3542 26.8726 13.3855 26.0126 13.3674 25.1538C13.3608 24.8543 13.2408 24.55 13.1358 24.2614C12.4947 22.5029 12.6502 22.2785 14.5547 22.2569C14.946 22.2521 15.3386 22.2419 15.7299 22.2509C16.6032 22.2707 17.4459 22.0924 18.2766 21.859C19.9806 21.3794 21.1781 20.3484 21.6726 18.6134C21.8215 18.0912 21.9547 17.5469 21.9692 17.0092C22.01 15.4452 22.0046 13.8788 21.9794 12.3148Z" stroke="white" stroke-width="1.84619"/>
<path fill-rule="evenodd" clip-rule="evenodd" d="M36.9932 28.4903C35.818 28.4903 34.6433 28.4951 33.4681 28.4873C33.1668 28.4849 32.8805 28.1921 32.8727 27.886C32.8523 27.1046 32.8367 26.3226 32.8379 25.5412C32.8385 25.3107 32.8481 25.0539 32.9453 24.8528C33.7052 23.2846 33.3259 21.627 33.3361 20.0024C33.3373 19.802 33.1854 19.5475 32.9099 19.5253C32.5222 19.4935 32.132 19.4767 31.7431 19.4821C31.4928 19.4857 31.0913 19.8518 31.0889 20.063C31.0673 21.6186 30.8698 23.17 31.4868 24.6962C31.9034 25.7248 31.7251 26.8573 31.5936 27.9436C31.5714 28.1278 31.3361 28.2929 31.1825 28.4501C31.1363 28.4975 31.0342 28.5047 30.958 28.5053C28.7636 28.5119 26.5692 28.5185 24.3748 28.5161C23.9499 28.5155 23.6024 28.2005 23.5873 27.8158C23.5627 27.191 23.5651 26.5651 23.5441 25.9403C23.5249 25.3798 23.6072 24.8444 23.9169 24.3673C24.2734 23.8182 24.364 23.2084 24.364 22.5723C24.3634 19.3633 24.3718 16.1543 24.3526 12.9453C24.3502 12.4856 24.349 11.934 24.1119 11.5848C23.4835 10.6611 23.5405 9.66008 23.5459 8.64583C23.5477 8.33315 23.5579 8.02048 23.5741 7.7084C23.597 7.2901 23.8959 6.99421 24.3364 6.99301C26.5308 6.98641 28.7258 6.98701 30.9202 6.99301C31.3241 6.99421 31.6405 7.31709 31.6519 7.742C31.6885 9.06592 31.7947 10.3779 31.2431 11.6676C30.8374 12.6164 31.0132 13.6745 31.1219 14.6839C31.1411 14.861 31.383 15.1268 31.5534 15.1544C32.0084 15.2277 32.482 15.2138 32.9453 15.1874C33.063 15.1808 33.2508 15.0098 33.27 14.8922C33.4585 13.7291 33.4711 12.563 33.243 11.4011C32.7058 10.6335 32.8367 9.7531 32.8313 8.89909C32.8283 8.43157 32.8583 7.96225 32.8949 7.49594C32.9159 7.23187 33.1374 7.12445 33.3511 7.03383C33.4207 7.00442 33.5053 7.00143 33.5828 7.00143C35.8552 6.99843 38.1282 6.99423 40.4006 6.99963C40.8214 7.00083 41.1143 7.31229 41.1287 7.7486C41.1467 8.29593 41.1329 8.84388 41.1563 9.39122C41.1863 10.1114 41.0885 10.792 40.6761 11.4077C40.358 11.883 40.3058 12.431 40.307 12.9837C40.3166 16.1141 40.331 19.2451 40.3406 22.376C40.343 23.167 40.4306 23.919 40.8718 24.623C41.0657 24.9326 41.1143 25.3617 41.1383 25.7422C41.1773 26.3658 41.1515 26.9942 41.1347 27.6195C41.1197 28.1753 40.8034 28.5125 40.2854 28.5173C39.1882 28.5275 38.0904 28.5203 36.9932 28.5203C36.9932 28.5101 36.9932 28.5005 36.9932 28.4903Z" fill="#0D623E"/>
<path fill-rule="evenodd" clip-rule="evenodd" d="M53.2223 17.5572C53.2223 15.9896 53.2247 14.4226 53.2211 12.8551C53.2193 12.2231 53.1635 11.6044 52.7583 11.0708C52.6677 10.9514 52.5903 10.7936 52.5776 10.6477C52.484 9.55545 52.4264 8.46017 52.6227 7.37391C52.6443 7.25388 52.8153 7.09903 52.9414 7.07142C53.2421 7.00541 53.5572 6.985 53.8669 6.9832C55.4365 6.9736 57.006 6.98621 58.5756 6.967C58.8811 6.9634 59.1884 6.86798 59.4891 6.79176C59.7935 6.71494 59.4555 6.86559 59.5894 6.58352C59.6458 6.46469 59.6602 6.22223 59.5888 6.16402C59.2923 5.92276 58.9538 5.7319 58.6338 5.51885C57.6951 4.89409 57.383 3.61217 57.7965 2.59132C57.9802 2.13641 58.2929 1.78713 58.7017 1.54227C60.3349 0.561627 62.6115 1.62329 62.893 3.49695C63.064 4.63123 62.7777 5.66948 62.1673 6.62972C61.6583 7.43032 61.0761 8.17331 60.294 8.71704C59.7755 9.07713 59.6446 9.54945 59.647 10.1286C59.6548 12.1661 59.6482 14.2036 59.6476 16.2411C59.6464 18.122 59.6482 20.0034 59.6446 21.8843C59.6428 22.7473 59.5612 23.5953 59.3613 24.4451C58.8355 26.6729 57.35 27.95 55.2546 28.5399C52.9402 29.1923 50.5747 29.1299 48.2705 28.4919C46.5449 28.0136 45.1854 26.9855 44.4669 25.2535C44.2532 24.7374 44.117 24.2135 44.0924 23.6625C44.0618 22.958 44.0432 22.2528 44.0414 21.5482C44.036 18.8835 44.0372 16.2189 44.0396 13.5542C44.0408 12.6888 44.0588 11.8294 43.4483 11.102C43.3097 10.9376 43.2383 10.6681 43.2377 10.4461C43.2341 9.4306 43.2569 8.41396 43.2995 7.39911C43.3043 7.28508 43.4784 7.14644 43.6056 7.07922C43.7365 7.0102 43.9063 6.9916 44.0588 6.991C46.2562 6.9856 48.4542 6.9802 50.6516 6.9892C51.358 6.9922 51.5717 7.24248 51.5855 8.02327C51.5963 8.65043 51.5879 9.27758 51.5927 9.90413C51.5963 10.3818 51.5423 10.8416 51.2374 11.2371C50.8862 11.6926 50.771 12.2249 50.771 12.783C50.7674 16.0749 50.7692 19.3661 50.7728 22.6573C50.7728 22.8127 50.801 22.9693 50.8232 23.1242C50.9204 23.7879 51.786 24.2933 52.4564 24.049C52.7451 23.9434 53.0488 23.7844 53.0902 23.4237C53.1521 22.8805 53.2145 22.3344 53.2211 21.7889C53.2397 20.3785 53.2271 18.9682 53.2271 17.5572H53.2223Z" fill="#0D623E"/>
<path fill-rule="evenodd" clip-rule="evenodd" d="M190.104 7.0075C194.458 7.07891 193.233 6.26331 194.87 10.2045C195.529 11.7919 196.126 13.4045 196.763 15.0015C196.811 15.1227 196.934 15.2217 197.04 15.3099C197.176 15.4234 197.287 15.2205 197.293 14.7992C197.303 14.0172 197.335 13.2334 197.296 12.4532C197.273 11.9935 197.183 11.523 197.034 11.0873C196.615 9.86059 196.791 8.62008 196.89 7.38078C196.899 7.26495 197.085 7.15334 197.205 7.06032C197.259 7.01891 197.354 7.01709 197.43 7.01709C199.309 7.01589 201.188 7.01469 203.067 7.02129C203.369 7.0225 203.663 7.31777 203.671 7.61544C203.692 8.39683 203.721 9.17883 203.702 9.95902C203.694 10.2609 203.647 10.6168 203.479 10.849C202.936 11.6016 202.906 12.4424 202.908 13.3103C202.913 17.3006 202.912 21.291 202.908 25.2814C202.906 26.1408 202.887 27.0008 202.866 27.8602C202.858 28.1711 202.576 28.479 202.289 28.4808C200.489 28.4928 198.688 28.5066 196.887 28.4868C196.697 28.4844 196.429 28.3103 196.335 28.1399C195.996 27.5253 195.701 26.8856 195.418 26.2434C194.534 24.2438 193.667 22.2369 192.775 20.2414C192.736 20.1525 192.511 20.1375 192.368 20.1111C192.335 20.1051 192.249 20.1946 192.248 20.2408C192.238 21.0222 192.196 21.8065 192.25 22.5843C192.282 23.041 192.383 23.5392 192.612 23.9245C192.95 24.4958 193.056 25.0725 193.036 25.7093C193.014 26.4121 193.024 27.1166 193.004 27.82C192.993 28.2425 192.702 28.509 192.229 28.5102C190.506 28.5144 188.783 28.5072 187.059 28.4976C186.747 28.4958 186.444 28.2185 186.432 27.9311C186.406 27.3075 186.382 26.6827 186.379 26.0586C186.375 25.357 186.35 24.6674 186.803 24.0337C187.126 23.5824 187.114 22.9954 187.114 22.4445C187.115 19.2367 187.114 16.0289 187.114 12.8211C187.114 12.1856 187.005 11.586 186.673 11.0237C186.521 10.7662 186.408 10.4451 186.4 10.1499C186.375 9.29165 186.408 8.43165 186.427 7.57224C186.434 7.28177 186.732 7.0117 187.05 7.0099C188.068 7.00329 189.086 7.0075 190.104 7.0075Z" fill="#0D623E"/>
<path fill-rule="evenodd" clip-rule="evenodd" d="M84.8627 6.97826C85.4894 6.97826 86.1166 6.97406 86.7432 6.97886C88.4274 6.99327 88.2509 6.86843 88.8962 8.50864C89.7545 10.6902 90.581 12.8837 91.4363 15.0665C91.4801 15.1781 91.6614 15.2609 91.7958 15.3059C91.9819 15.3677 92.0389 15.2549 92.0299 15.0352C91.9711 13.5625 92.267 12.0537 91.569 10.6476C91.4315 9.55889 91.3829 8.46964 91.6056 7.38817C91.6314 7.26394 91.7874 7.1355 91.9141 7.07128C92.0467 7.00407 92.2172 6.99086 92.3714 6.99026C94.0166 6.98366 95.6624 6.97586 97.3076 6.98546C98.1785 6.99087 98.34 7.1769 98.3562 8.12633C98.3658 8.67427 98.3562 9.22162 98.3604 9.76955C98.3646 10.2443 98.3334 10.707 98.0411 11.1121C97.6576 11.6444 97.5747 12.2644 97.5531 12.8939C97.5345 13.4413 97.5399 13.9892 97.5399 14.5365C97.5387 18.6049 97.5435 22.6733 97.5333 26.7417C97.5321 27.2063 97.4745 27.6732 97.3983 28.1323C97.3784 28.2511 97.1978 28.3519 97.0771 28.4426C97.0213 28.484 96.9325 28.4978 96.8581 28.4978C95.1354 28.5038 93.4122 28.5122 91.6896 28.5056C91.2532 28.5044 90.9711 28.2415 90.8031 27.8556C89.8661 25.7059 88.9334 23.5544 87.9947 21.4052C87.8068 20.9761 87.6009 20.5542 87.3884 20.1365C87.3698 20.0993 87.236 20.1005 87.164 20.1173C87.1129 20.1293 87.0379 20.1977 87.0367 20.2421C87.0181 21.1778 86.9971 22.1134 87.0037 23.049C87.0055 23.2771 87.0385 23.5477 87.1628 23.7254C88.0607 25.0037 87.6813 26.4339 87.6813 27.8172C87.6813 28.2139 87.332 28.517 86.9077 28.517C85.1844 28.5182 83.4612 28.5146 81.738 28.5008C81.3257 28.4972 81.0261 28.1731 81.0183 27.738C81.0045 26.956 81.0069 26.174 81.0069 25.3914C81.0069 24.9905 81.1072 24.6142 81.3545 24.2943C81.7638 23.7662 81.828 23.1541 81.8274 22.5191C81.8244 19.2327 81.8262 15.9469 81.8226 12.6611C81.822 12.1905 81.8382 11.687 81.5195 11.3137C81.0147 10.7214 80.9829 10.0372 80.9991 9.32485C81.0111 8.77811 81.0105 8.23077 81.0291 7.68403C81.043 7.27833 81.3527 6.99626 81.807 6.99206C82.8256 6.98246 83.8442 6.98906 84.8627 6.98906C84.8627 6.98546 84.8627 6.98186 84.8627 6.97826Z" fill="#0D623E"/>
<path fill-rule="evenodd" clip-rule="evenodd" d="M205.818 17.5736C205.818 16.0846 205.821 14.5957 205.816 13.1061C205.814 12.3961 205.926 11.709 206.098 11.0182C206.507 9.37259 207.533 8.25392 209.032 7.56015C209.813 7.19886 210.643 6.93659 211.522 6.91378C212.62 6.88437 213.718 6.83636 214.815 6.83209C217.171 6.82375 219.259 7.67416 221.228 8.87866C221.511 9.0515 221.672 9.31856 221.674 9.65405C221.683 10.9858 221.69 12.3175 221.684 13.6492C221.683 14.1102 221.408 14.4282 221.001 14.4312C219.276 14.4438 217.55 14.448 215.824 14.4432C215.369 14.4414 215.197 14.2374 215.143 13.6966C215.105 13.3071 215.101 12.9134 215.039 12.5282C214.953 11.9826 214.447 11.4437 213.999 11.3705C213.497 11.2889 212.851 11.8956 212.761 12.5564C212.708 12.9429 212.663 13.3348 212.662 13.7243C212.654 16.5456 212.656 19.3675 212.661 22.1887C212.662 22.5008 212.697 22.8135 212.73 23.125C212.781 23.6171 213.117 24.0282 213.558 24.156C214.018 24.2893 214.726 23.9358 214.917 23.4557C215.248 22.6251 215.181 21.7716 214.997 20.9254C214.971 20.8054 214.788 20.6902 214.652 20.6284C214.329 20.4825 214.175 20.2395 214.176 19.901C214.177 18.9624 214.184 18.0237 214.202 17.0851C214.207 16.7904 214.514 16.5018 214.824 16.5006C216.864 16.4934 218.904 16.4903 220.944 16.4975C221.366 16.4993 221.677 16.818 221.679 17.2435C221.693 19.359 221.698 21.4752 221.701 23.5907C221.702 24.4525 221.696 25.3149 221.683 26.1767C221.677 26.6052 221.437 26.9395 221.094 27.1322C220.55 27.4376 219.984 27.7311 219.393 27.9208C216.59 28.8198 213.733 29.1811 210.807 28.6421C210.347 28.5575 209.888 28.4453 209.444 28.2988C207.737 27.7341 206.711 26.5128 206.243 24.8222C205.971 23.8416 205.802 22.8363 205.815 21.8058C205.834 20.3949 205.82 18.9846 205.82 17.5736H205.818Z" fill="#0D623E"/>
<path fill-rule="evenodd" clip-rule="evenodd" d="M100.579 17.5861C100.579 16.177 100.573 14.7678 100.582 13.3581C100.585 12.8108 100.583 12.2592 100.652 11.7173C100.883 9.87605 101.825 8.50411 103.49 7.6693C104.26 7.28281 105.077 6.98573 105.952 6.94191C107.048 6.8873 108.144 6.8429 109.241 6.82729C111.673 6.79189 113.854 7.59668 115.878 8.87919C116.052 8.99022 116.244 9.23869 116.248 9.42714C116.279 10.9113 116.271 12.3967 116.265 13.8814C116.263 14.1683 115.956 14.4378 115.638 14.4384C113.914 14.4426 112.19 14.445 110.467 14.4354C110.049 14.4336 109.816 14.1581 109.766 13.6702C109.717 13.2039 109.683 12.7363 109.618 12.2724C109.598 12.1248 109.508 11.9832 109.437 11.8457C109.179 11.3494 108.419 11.2048 108.026 11.6183C107.767 11.8919 107.522 12.2238 107.402 12.5743C107.279 12.932 107.289 13.3449 107.288 13.7338C107.28 16.5521 107.279 19.371 107.29 22.1893C107.292 22.5752 107.354 22.9647 107.423 23.3464C107.493 23.7226 108.05 24.1548 108.461 24.1944C108.94 24.24 109.624 23.7388 109.653 23.2647C109.697 22.5656 109.698 21.8628 109.689 21.1618C109.688 21.0256 109.596 20.8155 109.488 20.7669C108.784 20.4495 108.742 19.8535 108.766 19.2089C108.793 18.5062 108.798 17.8028 108.823 17.1C108.833 16.8245 109.156 16.5173 109.447 16.5143C111.407 16.4957 113.366 16.4789 115.325 16.4759C116.022 16.4747 116.306 16.7609 116.309 17.4703C116.318 20.2886 116.303 23.1069 116.324 25.9252C116.33 26.6562 115.98 27.0673 115.369 27.3872C114.385 27.9027 113.325 28.1956 112.258 28.429C109.943 28.9355 107.607 29.0646 105.254 28.6193C102.735 28.1427 101.204 26.6526 100.741 24.1542C100.67 23.7707 100.64 23.3776 100.621 22.9875C100.592 22.4401 100.583 21.8922 100.58 21.3443C100.575 20.0918 100.579 18.8386 100.579 17.5861Z" fill="#0D623E"/>
<path fill-rule="evenodd" clip-rule="evenodd" d="M139.864 17.6143C139.864 19.1825 139.864 20.7507 139.864 22.3189C139.863 22.9538 139.907 23.6026 140.258 24.1337C140.629 24.6966 140.716 25.2818 140.697 25.9197C140.678 26.5463 140.687 27.1735 140.668 27.8C140.656 28.2243 140.362 28.5058 139.902 28.507C137.625 28.5136 135.349 28.5124 133.073 28.5028C132.636 28.501 132.333 28.1949 132.324 27.7718C132.31 27.0666 132.313 26.3609 132.31 25.6551C132.308 25.2536 132.405 24.8839 132.645 24.5538C132.979 24.0965 133.139 23.5834 133.138 23.015C133.132 19.4868 133.13 15.9585 133.123 12.4302C133.122 12.1434 132.908 11.9627 132.71 12.0443C132.484 12.1368 132.298 12.2616 132.267 12.5203C132.23 12.8305 132.194 13.1426 132.187 13.4547C132.174 14.0818 132.185 14.7096 132.178 15.3367C132.175 15.5708 132.153 15.8049 132.135 16.0383C132.113 16.3252 131.815 16.6319 131.52 16.6379C130.422 16.6595 129.324 16.6817 128.226 16.6781C127.526 16.6757 127.234 16.3822 127.231 15.6704C127.22 13.0832 127.222 10.4953 127.229 7.90811C127.23 7.32717 127.53 7.00788 128.047 6.98928C128.361 6.97788 128.676 6.97728 128.989 6.97728C134.015 6.9766 139.041 6.97548 144.066 6.97908C144.457 6.97968 144.848 7.0151 145.239 7.0379C145.512 7.05411 145.657 7.25995 145.731 7.47C145.805 7.68546 145.806 7.93331 145.806 8.16677C145.811 10.5974 145.812 13.028 145.807 15.4586C145.806 15.692 145.814 15.9501 145.719 16.15C145.631 16.3366 145.425 16.5742 145.249 16.5947C143.923 16.7471 142.591 16.7771 141.267 16.5701C141.144 16.5508 140.996 16.381 140.951 16.2496C140.875 16.0329 140.85 15.7905 140.846 15.5582C140.831 14.8524 140.845 14.1466 140.829 13.4415C140.822 13.1294 140.772 12.8185 140.735 12.5082C140.711 12.3036 140.385 12.0779 140.23 12.1697C140.116 12.2376 139.964 12.345 139.948 12.4518C139.891 12.8359 139.864 13.2266 139.861 13.6155C139.852 14.9485 139.858 16.2814 139.858 17.6143H139.864Z" fill="#10623E"/>
<path fill-rule="evenodd" clip-rule="evenodd" d="M71.7454 21.3995C71.731 22.0212 71.6349 22.6442 71.5359 23.2605C71.4585 23.7455 71.0167 24.1061 70.5641 24.1236C70.1218 24.1398 69.5894 23.8229 69.4285 23.4304C69.3403 23.2149 69.2377 22.9941 69.2113 22.7672C69.1662 22.3795 69.165 21.9852 69.1644 21.5939C69.1608 19.0067 69.1578 16.4194 69.1674 13.8328C69.1692 13.3647 69.1746 12.8846 69.2785 12.4327C69.3865 11.961 69.7142 11.6189 70.2028 11.4544C70.8439 11.239 71.5707 11.6123 71.6505 12.2364C71.71 12.7009 71.746 13.1709 71.7508 13.6384C71.764 14.8927 71.7556 16.147 71.755 17.4013C71.755 18.7342 71.7766 20.0678 71.7454 21.3995ZM77.4588 2.26135C77.0909 2.32197 76.705 2.50622 76.4121 2.73968C75.2711 3.6501 75.3227 5.53756 76.5009 6.41797C76.8106 6.64903 77.1833 6.79547 77.5285 6.97852C77.7409 7.09195 77.7806 7.2894 77.6563 7.55887C77.385 8.14701 77.0603 8.30185 76.5837 7.99157C75.5784 7.33801 74.4758 7.01633 73.3035 6.79608C71.0995 6.38198 68.9292 6.55003 66.7708 7.01934C66.1682 7.15077 65.5787 7.41544 65.0307 7.70771C63.637 8.45189 62.7643 9.62518 62.4876 11.1796C62.3376 12.0228 62.2764 12.8876 62.2493 13.7446C62.2109 14.9959 62.2397 16.2496 62.2397 17.5015C62.2391 18.754 62.2079 20.0077 62.2499 21.2584C62.2812 22.1941 62.337 23.1393 62.5068 24.0575C62.8418 25.8664 63.8759 27.1903 65.5553 27.9705C66.0493 28.2004 66.5733 28.399 67.1051 28.5088C69.4357 28.9908 71.7772 29.013 74.1072 28.5034C74.6378 28.3876 75.1612 28.1883 75.6528 27.9531C76.837 27.3859 77.6617 26.4755 78.0681 25.2152C78.3088 24.4686 78.4906 23.7113 78.4894 22.9161C78.4834 19.4724 78.5086 16.0282 78.4714 12.5845C78.4624 11.7353 78.2643 10.8885 78.1527 10.0405C78.5698 9.17746 79.4372 8.69494 79.9515 7.90635C80.4287 7.17417 80.7996 6.42698 80.8897 5.53817C81.11 3.36863 79.685 1.89346 77.4588 2.26135Z" fill="#0D623E"/>
<path fill-rule="evenodd" clip-rule="evenodd" d="M157.772 14.5152C157.656 15.4484 156.697 16.0636 155.699 15.8103C155.58 15.7797 155.418 15.6279 155.405 15.5163C155.33 14.9095 155.297 14.298 155.291 14.2259C155.291 13.3005 155.288 12.9152 155.292 12.5299C155.301 11.5865 155.683 11.5565 156.498 11.6819C157.085 11.7725 157.475 12.1236 157.647 12.6853C157.828 13.2819 157.849 13.8953 157.772 14.5152ZM165.117 25.2369C165.114 25.0214 164.986 24.7808 164.852 24.5995C164.403 23.9946 164.33 23.3086 164.331 22.5908C164.332 21.8862 164.323 21.1799 164.288 20.4759C164.247 19.6513 163.902 18.9665 163.246 18.4534C163.062 18.31 162.85 18.2025 162.662 18.0627C162.454 17.9072 162.419 17.6018 162.608 17.4733C163.55 16.8366 164.242 16.0378 164.51 14.8933C164.801 13.6498 164.859 12.4003 164.597 11.1634C164.209 9.32812 163.073 8.08822 161.294 7.50428C160.251 7.16159 159.168 6.96235 158.053 6.97735C156.561 6.99716 155.07 6.98215 153.578 6.98215V6.97735C153.264 6.97735 152.949 6.97615 152.635 6.97735C151.3 6.98095 149.966 6.97855 148.631 6.99295C148.065 6.99896 147.823 7.26843 147.811 7.88658C147.798 8.59176 147.808 9.29813 147.799 10.0033C147.792 10.5608 147.851 11.077 148.25 11.5343C148.566 11.8974 148.629 12.3835 148.629 12.8642C148.628 16.0786 148.631 19.293 148.625 22.5074C148.625 23.1399 148.546 23.7707 148.195 24.3144C147.881 24.7993 147.782 25.3161 147.798 25.8772C147.814 26.4258 147.805 26.9749 147.807 27.5234C147.808 27.602 147.811 27.6807 147.814 27.7587C147.836 28.1842 148.126 28.4999 148.547 28.5011C150.823 28.5089 153.099 28.5059 155.375 28.5035C155.452 28.5035 155.552 28.4987 155.601 28.453C155.763 28.303 155.914 28.1392 156.052 27.9681C156.097 27.9129 156.11 27.8181 156.109 27.7425C156.08 26.5134 156.426 25.2194 155.495 24.1416C155.448 24.0864 155.427 23.9975 155.418 23.9213C155.282 22.754 155.185 21.585 155.437 20.4231C155.457 20.3306 155.674 20.2094 155.786 20.2208C156.729 20.3168 157.296 20.8035 157.383 21.6414C157.456 22.3411 157.447 23.0487 157.48 23.7521C157.539 25.0046 157.584 26.2577 157.67 27.5084C157.72 28.2364 158.013 28.5089 158.693 28.5185C159.87 28.5347 161.048 28.5365 162.226 28.5293C163.01 28.5245 163.796 28.5185 164.576 28.456C164.754 28.4416 165.048 28.1998 165.058 28.0479C165.119 27.1135 165.131 26.1743 165.117 25.2369Z" fill="#0D623E"/>
<path fill-rule="evenodd" clip-rule="evenodd" d="M175.133 18.6815C175.055 18.6797 174.978 18.6749 174.9 18.6665C174.459 18.6179 174.187 18.2944 174.241 17.8827C174.447 16.653 174.645 15.4221 174.867 14.196C174.89 14.0742 175.055 13.9679 175.171 13.8767C175.357 13.7309 175.453 13.7915 175.489 14.0255C175.681 15.257 175.896 16.485 176.074 17.7183C176.175 18.4144 175.872 18.7013 175.133 18.6815ZM184.559 25.0785C184.548 24.929 184.495 24.7586 184.404 24.6434C183.535 23.5493 183.377 22.2175 183.129 20.914C182.411 17.1499 181.691 13.3864 180.97 9.62286C180.837 8.93209 180.703 8.2425 180.555 7.55534C180.494 7.26906 180.173 7.01041 179.873 7.00921C177.051 7.00261 174.23 7.00081 171.408 7.00261C171.136 7.00261 170.84 7.26966 170.764 7.57453C170.651 8.02945 170.534 8.48498 170.45 8.94529C169.679 13.1775 168.902 17.408 168.157 21.6444C167.993 22.5752 167.857 23.4947 167.319 24.3055C167.195 24.4915 167.105 24.7394 167.104 24.9596C167.096 25.9745 167.12 26.9899 167.142 28.0048C167.149 28.2844 167.395 28.3709 167.595 28.4777C167.659 28.5119 167.749 28.5071 167.827 28.5077C169.708 28.5119 171.589 28.5173 173.47 28.5137C173.62 28.5137 173.785 28.4819 173.914 28.4117C174.039 28.3433 174.202 28.2166 174.218 28.0984C174.288 27.5601 174.325 27.0157 174.351 26.4726C174.39 25.6054 174.369 24.7502 173.806 24.0078C173.72 23.8956 173.738 23.7071 173.702 23.5553C173.633 23.2636 173.88 22.8855 174.171 22.8801C174.875 22.8681 175.578 22.8615 176.282 22.8777C176.716 22.8879 176.957 23.2906 176.788 23.7065C176.641 24.0672 176.399 24.3997 176.31 24.7712C176.034 25.9169 176.042 27.0752 176.304 28.2274C177.079 28.8024 177.969 28.4459 178.804 28.5233C179.348 28.5737 179.9 28.5329 180.449 28.5329V28.5317C181.39 28.5317 182.331 28.5395 183.272 28.5275C183.58 28.5233 183.894 28.4939 184.192 28.4225C184.315 28.3925 184.476 28.2359 184.5 28.1128C184.7 27.1076 184.634 26.0915 184.559 25.0785Z" fill="#0D623E"/>
<path fill-rule="evenodd" clip-rule="evenodd" d="M14.9478 16.7446C14.844 17.517 13.9527 17.9905 13.137 17.7492C12.8627 17.6682 12.7558 17.433 12.748 17.2199C12.7168 16.4379 12.7354 15.6541 12.7354 14.8703H12.7528C12.7528 14.0091 12.7282 13.1473 12.7738 12.2885C12.7828 12.1186 13.0409 11.8522 13.2186 11.8192C14.0313 11.6697 14.8878 12.2615 14.964 12.9949C15.0937 14.2438 15.1153 15.4975 14.9478 16.7446ZM21.9794 12.4848C21.9716 12.0226 21.8815 11.5497 21.7513 11.105C21.1979 9.21153 19.8294 8.10846 18.0449 7.4777C17.1614 7.16502 16.2413 6.96397 15.2827 6.97718C13.7936 6.99818 12.3045 6.98318 10.8153 6.98318V6.97898C9.32619 6.97898 7.83705 6.97417 6.34791 6.98318C6.0382 6.98498 5.72248 7.0078 5.42238 7.07622C5.29813 7.10443 5.14147 7.26345 5.11266 7.38888C5.04424 7.69015 5.01243 8.00763 5.01963 8.31731C5.04784 9.54341 4.77234 10.8157 5.65046 11.9122C5.82032 12.1241 5.81012 12.513 5.81132 12.8202C5.82272 16.1072 5.82212 19.3942 5.81912 22.6813C5.81792 23.3168 5.68527 23.9068 5.29153 24.4439C5.12047 24.6779 5.04064 25.0242 5.03224 25.3219C5.01003 26.1807 5.04004 27.0413 5.06045 27.9007C5.06765 28.2044 5.35695 28.4913 5.66486 28.4919C8.01471 28.4961 10.364 28.4949 12.7138 28.4877C13.0157 28.4871 13.3242 28.1894 13.332 27.9013C13.3542 27.0425 13.3855 26.1825 13.3674 25.3237C13.3608 25.0242 13.2408 24.72 13.1358 24.4313C12.4947 22.6729 12.6502 22.4484 14.5547 22.4268C14.946 22.422 15.3386 22.4118 15.7299 22.4208C16.6032 22.4406 17.4459 22.2624 18.2766 22.0289C19.9806 21.5494 21.1781 20.5183 21.6726 18.7833C21.8215 18.2612 21.9547 17.7168 21.9692 17.1791C22.01 15.6151 22.0046 14.0493 21.9794 12.4848Z" fill="#0D623E"/>
<path d="M20.036 49.188C20.036 49.5427 19.9333 49.8693 19.728 50.168C19.5227 50.448 19.2893 50.6627 19.028 50.812C18.5613 50.476 18.02 50.1773 17.404 49.916C16.8067 49.6547 16.0693 49.524 15.192 49.524C14.1467 49.524 13.232 49.7573 12.448 50.224C11.6827 50.6907 11.076 51.372 10.628 52.268C10.1987 53.1453 9.984 54.228 9.984 55.516C9.984 57.476 10.4693 58.96 11.44 59.968C12.4107 60.9573 13.7173 61.452 15.36 61.452C16.2187 61.452 16.956 61.3307 17.572 61.088C18.2067 60.8453 18.7667 60.5747 19.252 60.276C19.5133 60.444 19.728 60.668 19.896 60.948C20.064 61.228 20.148 61.564 20.148 61.956C20.148 62.2547 20.064 62.544 19.896 62.824C19.728 63.0853 19.448 63.3187 19.056 63.524C18.6827 63.748 18.1507 63.9533 17.46 64.14C16.788 64.3453 15.948 64.448 14.94 64.448C13.316 64.448 11.8413 64.1213 10.516 63.468C9.20933 62.8147 8.164 61.8347 7.38 60.528C6.61467 59.2027 6.232 57.532 6.232 55.516C6.232 53.5747 6.61467 51.9413 7.38 50.616C8.164 49.272 9.2 48.264 10.488 47.592C11.776 46.9013 13.1947 46.556 14.744 46.556C15.8267 46.556 16.76 46.6773 17.544 46.92C18.3467 47.1627 18.9627 47.4893 19.392 47.9C19.8213 48.292 20.036 48.7213 20.036 49.188ZM22.8421 58.932V56.748H26.3981V58.876C26.3981 59.828 26.6501 60.5187 27.1541 60.948C27.6581 61.3773 28.3581 61.592 29.2541 61.592C29.8328 61.592 30.3181 61.536 30.7101 61.424C31.1021 61.2933 31.4101 61.172 31.6341 61.06V56.748H35.1901V61.396C35.1901 61.8253 35.1061 62.1893 34.9381 62.488C34.7888 62.768 34.5181 63.02 34.1261 63.244C33.6035 63.58 32.9221 63.86 32.0821 64.084C31.2421 64.308 30.2901 64.42 29.2261 64.42C27.9381 64.42 26.8088 64.224 25.8381 63.832C24.8861 63.44 24.1488 62.8427 23.6261 62.04C23.1035 61.2373 22.8421 60.2013 22.8421 58.932ZM35.1901 58.064H31.6341V50.784C31.7835 50.728 31.9981 50.672 32.2781 50.616C32.5768 50.56 32.8941 50.532 33.2301 50.532C33.9208 50.532 34.4155 50.6533 34.7141 50.896C35.0315 51.1387 35.1901 51.5773 35.1901 52.212V58.064ZM26.3981 58.064H22.8421V50.784C22.9915 50.728 23.2155 50.672 23.5141 50.616C23.8128 50.56 24.1301 50.532 24.4661 50.532C25.1381 50.532 25.6235 50.6533 25.9221 50.896C26.2395 51.1387 26.3981 51.5773 26.3981 52.212V58.064ZM27.4061 48.74L24.7181 46.08C24.6995 46.0053 24.6808 45.9213 24.6621 45.828C24.6621 45.716 24.6621 45.632 24.6621 45.576C24.6621 45.072 24.8115 44.68 25.1101 44.4C25.4088 44.1013 25.7821 43.952 26.2301 43.952C26.5288 43.952 26.7995 44.008 27.0421 44.12C27.3035 44.232 27.5461 44.428 27.7701 44.708L30.2901 47.844C30.2341 48.3293 30.0568 48.7027 29.7581 48.964C29.4781 49.2067 29.1608 49.328 28.8061 49.328C28.5075 49.328 28.2461 49.2813 28.0221 49.188C27.8168 49.076 27.6115 48.9267 27.4061 48.74ZM51.0768 55.348V58.064H47.5208V55.46C47.5208 54.6573 47.2875 54.0693 46.8208 53.696C46.3542 53.3227 45.7382 53.136 44.9728 53.136C44.4315 53.136 43.9368 53.2107 43.4888 53.36C43.0408 53.4907 42.6395 53.6587 42.2848 53.864V58.064H38.7288V53.556C38.7288 53.108 38.8222 52.744 39.0088 52.464C39.1955 52.184 39.4848 51.9133 39.8768 51.652C40.4368 51.2973 41.1555 50.9893 42.0328 50.728C42.9288 50.448 43.9182 50.308 45.0008 50.308C46.9235 50.308 48.4168 50.7373 49.4808 51.596C50.5448 52.4547 51.0768 53.7053 51.0768 55.348ZM38.7288 56.692H42.2848V63.972C42.1355 64.0093 41.9115 64.056 41.6128 64.112C41.3328 64.168 41.0248 64.196 40.6888 64.196C40.0168 64.196 39.5222 64.0747 39.2048 63.832C38.8875 63.5893 38.7288 63.16 38.7288 62.544V56.692ZM47.5208 56.692H51.0768V63.972C50.9088 64.0093 50.6755 64.056 50.3768 64.112C50.0968 64.168 49.7888 64.196 49.4528 64.196C48.7808 64.196 48.2862 64.0747 47.9688 63.832C47.6702 63.5893 47.5208 63.16 47.5208 62.544V56.692ZM60.1316 63.524C59.0302 63.524 58.0129 63.3093 57.0796 62.88C56.1462 62.4507 55.3902 61.76 54.8116 60.808C54.2516 59.8373 53.9716 58.5587 53.9716 56.972C53.9716 55.516 54.2609 54.2933 54.8396 53.304C55.4182 52.3147 56.2209 51.568 57.2476 51.064C58.2742 50.56 59.4689 50.308 60.8316 50.308C61.8022 50.308 62.6889 50.4387 63.4916 50.7C64.3129 50.9427 64.9662 51.2227 65.4516 51.54C65.7876 51.764 66.0489 52.016 66.2356 52.296C66.4409 52.576 66.5436 52.9307 66.5436 53.36V62.096H63.0996V53.696C62.8382 53.5467 62.5302 53.416 62.1756 53.304C61.8396 53.192 61.4289 53.136 60.9436 53.136C59.9169 53.136 59.0862 53.4533 58.4516 54.088C57.8356 54.704 57.5276 55.6653 57.5276 56.972C57.5276 58.3907 57.8262 59.38 58.4236 59.94C59.0396 60.5 59.8049 60.78 60.7196 60.78C61.3916 60.78 61.9422 60.668 62.3716 60.444C62.8196 60.2013 63.1929 59.9307 63.4916 59.632L63.6316 62.544C63.2582 62.8053 62.7822 63.0387 62.2036 63.244C61.6436 63.4307 60.9529 63.524 60.1316 63.524ZM63.1276 64.028V61.312H66.5436V64.168C66.5436 65.4373 66.2449 66.4733 65.6476 67.276C65.0689 68.0787 64.2756 68.6667 63.2676 69.04C62.2782 69.4133 61.1582 69.6 59.9076 69.6C58.9556 69.6 58.1156 69.5067 57.3876 69.32C56.6596 69.152 56.1182 68.956 55.7636 68.732C55.1476 68.34 54.8396 67.8173 54.8396 67.164C54.8396 66.8093 54.9142 66.492 55.0636 66.212C55.2129 65.9507 55.3902 65.7547 55.5956 65.624C56.0622 65.9227 56.6409 66.184 57.3316 66.408C58.0409 66.6507 58.7876 66.772 59.5716 66.772C60.6916 66.772 61.5596 66.548 62.1756 66.1C62.8102 65.6707 63.1276 64.98 63.1276 64.028ZM82.3623 50.308C83.5569 50.308 84.6396 50.5693 85.6103 51.092C86.5809 51.6147 87.3463 52.3987 87.9062 53.444C88.4663 54.4707 88.7463 55.768 88.7463 57.336C88.7463 58.8853 88.4476 60.192 87.8503 61.256C87.2716 62.3013 86.4503 63.0947 85.3863 63.636C84.3409 64.1587 83.1089 64.42 81.6903 64.42C80.6076 64.42 79.6649 64.28 78.8623 64C78.0596 63.7387 77.3969 63.44 76.8743 63.104C76.4823 62.8427 76.1929 62.5627 76.0063 62.264C75.8196 61.9467 75.7263 61.5733 75.7263 61.144V52.128H79.2543V60.948C79.4969 61.0973 79.8236 61.2373 80.2343 61.368C80.6449 61.4987 81.1209 61.564 81.6623 61.564C82.7076 61.564 83.5476 61.2187 84.1823 60.528C84.8169 59.8187 85.1343 58.7547 85.1343 57.336C85.1343 55.88 84.8169 54.816 84.1823 54.144C83.5663 53.472 82.7543 53.136 81.7463 53.136C81.0929 53.136 80.5143 53.2667 80.0103 53.528C79.5063 53.7707 79.0863 54.0413 78.7503 54.34L78.5543 51.484C78.9649 51.204 79.4876 50.9427 80.1223 50.7C80.7756 50.4387 81.5223 50.308 82.3623 50.308ZM79.2823 52.94H75.7263V45.8C75.8756 45.744 76.0996 45.6973 76.3983 45.66C76.6969 45.604 77.0143 45.576 77.3503 45.576C78.0223 45.576 78.5076 45.6973 78.8063 45.94C79.1236 46.164 79.2823 46.5933 79.2823 47.228V52.94ZM96.9297 64.42C95.0817 64.42 93.6164 64.056 92.5337 63.328C91.451 62.6 90.9097 61.5267 90.9097 60.108C90.9097 58.8573 91.3017 57.896 92.0857 57.224C92.8884 56.552 94.0457 56.1413 95.5577 55.992L99.3937 55.6V55.124C99.3937 54.396 99.1324 53.8733 98.6097 53.556C98.087 53.22 97.3684 53.052 96.4537 53.052C95.7257 53.052 95.0164 53.1453 94.3257 53.332C93.635 53.5187 93.019 53.7333 92.4777 53.976C92.2724 53.8267 92.095 53.6213 91.9457 53.36C91.815 53.0987 91.7497 52.828 91.7497 52.548C91.7497 51.8387 92.123 51.3253 92.8697 51.008C93.3924 50.784 93.999 50.616 94.6897 50.504C95.399 50.3733 96.1084 50.308 96.8177 50.308C98.647 50.308 100.103 50.7 101.186 51.484C102.287 52.268 102.838 53.4907 102.838 55.152V61.62C102.838 62.068 102.726 62.4227 102.502 62.684C102.296 62.9453 102.016 63.1787 101.662 63.384C101.139 63.6827 100.476 63.9253 99.6737 64.112C98.871 64.3173 97.9564 64.42 96.9297 64.42ZM96.9297 61.732C97.471 61.732 97.9657 61.676 98.4137 61.564C98.8617 61.452 99.1884 61.3307 99.3937 61.2V58.092L96.6777 58.344C95.9497 58.4 95.3804 58.568 94.9697 58.848C94.5777 59.1093 94.3817 59.5013 94.3817 60.024C94.3817 60.5467 94.587 60.9667 94.9977 61.284C95.4084 61.5827 96.0524 61.732 96.9297 61.732ZM99.0577 67.808C99.0577 68.368 98.871 68.8253 98.4977 69.18C98.143 69.5533 97.6577 69.74 97.0417 69.74C96.463 69.74 95.987 69.5533 95.6137 69.18C95.259 68.8253 95.0817 68.368 95.0817 67.808C95.0817 67.248 95.259 66.7813 95.6137 66.408C95.987 66.0533 96.463 65.876 97.0417 65.876C97.6577 65.876 98.143 66.0533 98.4977 66.408C98.871 66.7813 99.0577 67.248 99.0577 67.808ZM118.671 55.348V58.064H115.115V55.46C115.115 54.6573 114.881 54.0693 114.415 53.696C113.948 53.3227 113.332 53.136 112.567 53.136C112.025 53.136 111.531 53.2107 111.083 53.36C110.635 53.4907 110.233 53.6587 109.879 53.864V58.064H106.323V53.556C106.323 53.108 106.416 52.744 106.603 52.464C106.789 52.184 107.079 51.9133 107.471 51.652C108.031 51.2973 108.749 50.9893 109.627 50.728C110.523 50.448 111.512 50.308 112.595 50.308C114.517 50.308 116.011 50.7373 117.075 51.596C118.139 52.4547 118.671 53.7053 118.671 55.348ZM106.323 56.692H109.879V63.972C109.729 64.0093 109.505 64.056 109.207 64.112C108.927 64.168 108.619 64.196 108.283 64.196C107.611 64.196 107.116 64.0747 106.799 63.832C106.481 63.5893 106.323 63.16 106.323 62.544V56.692ZM115.115 56.692H118.671V63.972C118.503 64.0093 118.269 64.056 117.971 64.112C117.691 64.168 117.383 64.196 117.047 64.196C116.375 64.196 115.88 64.0747 115.563 63.832C115.264 63.5893 115.115 63.16 115.115 62.544V56.692ZM127.871 56.608H131.371V59.884C131.371 60.4813 131.557 60.9107 131.931 61.172C132.304 61.4333 132.808 61.564 133.443 61.564C133.741 61.564 134.059 61.5267 134.395 61.452C134.749 61.3587 135.048 61.256 135.291 61.144C135.44 61.2933 135.561 61.48 135.655 61.704C135.767 61.928 135.823 62.18 135.823 62.46C135.823 63.02 135.571 63.4867 135.067 63.86C134.563 64.2147 133.751 64.392 132.631 64.392C131.156 64.392 129.989 64.0653 129.131 63.412C128.291 62.74 127.871 61.6387 127.871 60.108V56.608ZM129.999 53.78V51.008H135.487C135.58 51.1387 135.664 51.3253 135.739 51.568C135.813 51.8107 135.851 52.0813 135.851 52.38C135.851 52.8653 135.739 53.22 135.515 53.444C135.309 53.668 135.011 53.78 134.619 53.78H129.999ZM131.371 57.364H127.871V47.256C128.02 47.2187 128.235 47.172 128.515 47.116C128.813 47.06 129.131 47.032 129.467 47.032C130.12 47.032 130.596 47.1533 130.895 47.396C131.212 47.6387 131.371 48.068 131.371 48.684V57.364ZM142.144 53.948V57.728H138.588V53.668C138.588 53.164 138.7 52.7533 138.924 52.436C139.148 52.1 139.475 51.8013 139.904 51.54C140.483 51.1667 141.202 50.8773 142.06 50.672C142.919 50.448 143.834 50.336 144.804 50.336C146.578 50.336 147.464 50.8867 147.464 51.988C147.464 52.2493 147.427 52.5013 147.352 52.744C147.278 52.968 147.184 53.1547 147.072 53.304C146.886 53.2667 146.652 53.2387 146.372 53.22C146.092 53.1827 145.803 53.164 145.504 53.164C144.851 53.164 144.226 53.2387 143.628 53.388C143.05 53.5373 142.555 53.724 142.144 53.948ZM138.588 56.608L142.144 56.776V63.972C141.995 64.0093 141.771 64.056 141.472 64.112C141.192 64.168 140.884 64.196 140.548 64.196C139.876 64.196 139.382 64.0747 139.064 63.832C138.747 63.5893 138.588 63.16 138.588 62.544V56.608ZM150.903 59.156L150.763 56.664L158.183 55.572C158.127 54.8813 157.856 54.284 157.371 53.78C156.886 53.2573 156.195 52.996 155.299 52.996C154.347 52.996 153.563 53.3227 152.947 53.976C152.331 54.6293 152.014 55.5627 151.995 56.776L152.079 58.288C152.228 59.4453 152.676 60.304 153.423 60.864C154.188 61.4053 155.14 61.676 156.279 61.676C157.063 61.676 157.791 61.564 158.463 61.34C159.135 61.0973 159.676 60.8453 160.087 60.584C160.33 60.7333 160.535 60.9387 160.703 61.2C160.871 61.4613 160.955 61.7413 160.955 62.04C160.955 62.5253 160.74 62.9547 160.311 63.328C159.882 63.6827 159.294 63.9533 158.547 64.14C157.819 64.3267 156.988 64.42 156.055 64.42C154.599 64.42 153.311 64.1493 152.191 63.608C151.09 63.0667 150.222 62.264 149.587 61.2C148.971 60.1173 148.663 58.792 148.663 57.224C148.663 56.0667 148.84 55.0587 149.195 54.2C149.55 53.3227 150.035 52.604 150.651 52.044C151.267 51.4653 151.967 51.036 152.751 50.756C153.554 50.4573 154.403 50.308 155.299 50.308C156.531 50.308 157.614 50.56 158.547 51.064C159.48 51.568 160.208 52.2587 160.731 53.136C161.254 54.0133 161.515 55.0213 161.515 56.16C161.515 56.6827 161.375 57.0747 161.095 57.336C160.834 57.5973 160.46 57.7653 159.975 57.84L150.903 59.156ZM156.755 48.32L155.299 46.584C154.851 47.1067 154.44 47.564 154.067 47.956C153.712 48.348 153.339 48.7773 152.947 49.244C152.406 49.2253 151.967 49.0853 151.631 48.824C151.314 48.5627 151.155 48.2453 151.155 47.872C151.155 47.5733 151.23 47.3213 151.379 47.116C151.547 46.892 151.78 46.6213 152.079 46.304L153.395 44.932C153.694 44.652 153.992 44.428 154.291 44.26C154.608 44.092 154.963 44.008 155.355 44.008C155.747 44.008 156.102 44.0827 156.419 44.232C156.736 44.3813 157.072 44.68 157.427 45.128L159.583 47.76C159.583 48.1333 159.471 48.4693 159.247 48.768C159.023 49.048 158.678 49.188 158.211 49.188C157.912 49.188 157.651 49.1133 157.427 48.964C157.222 48.796 156.998 48.5813 156.755 48.32ZM176.639 55.348V58.064H173.083V55.46C173.083 54.6573 172.85 54.0693 172.383 53.696C171.917 53.3227 171.301 53.136 170.535 53.136C169.994 53.136 169.499 53.2107 169.051 53.36C168.603 53.4907 168.202 53.6587 167.847 53.864V58.064H164.291V53.556C164.291 53.108 164.385 52.744 164.571 52.464C164.758 52.184 165.047 51.9133 165.439 51.652C165.999 51.2973 166.718 50.9893 167.595 50.728C168.491 50.448 169.481 50.308 170.563 50.308C172.486 50.308 173.979 50.7373 175.043 51.596C176.107 52.4547 176.639 53.7053 176.639 55.348ZM164.291 56.692H167.847V63.972C167.698 64.0093 167.474 64.056 167.175 64.112C166.895 64.168 166.587 64.196 166.251 64.196C165.579 64.196 165.085 64.0747 164.767 63.832C164.45 63.5893 164.291 63.16 164.291 62.544V56.692ZM173.083 56.692H176.639V63.972C176.471 64.0093 176.238 64.056 175.939 64.112C175.659 64.168 175.351 64.196 175.015 64.196C174.343 64.196 173.849 64.0747 173.531 63.832C173.233 63.5893 173.083 63.16 173.083 62.544V56.692ZM197.432 54.844V58.036H193.876V55.264C193.876 54.5173 193.661 53.976 193.232 53.64C192.821 53.304 192.28 53.136 191.608 53.136C191.16 53.136 190.73 53.2107 190.32 53.36C189.928 53.5093 189.601 53.6587 189.34 53.808V58.036H185.784V53.556C185.784 53.1267 185.877 52.772 186.064 52.492C186.25 52.1933 186.54 51.9133 186.932 51.652C187.492 51.2787 188.201 50.9613 189.06 50.7C189.937 50.4387 190.824 50.308 191.72 50.308C192.634 50.308 193.474 50.448 194.24 50.728C195.005 51.008 195.649 51.428 196.172 51.988C196.302 52.1187 196.424 52.24 196.536 52.352C196.666 52.464 196.769 52.5947 196.844 52.744C197.012 53.0053 197.152 53.3227 197.264 53.696C197.376 54.0507 197.432 54.4333 197.432 54.844ZM205.552 55.124V58.036H201.996V55.264C201.996 54.5173 201.79 53.976 201.38 53.64C200.969 53.304 200.428 53.136 199.756 53.136C199.252 53.136 198.776 53.2387 198.328 53.444C197.88 53.6493 197.478 53.92 197.124 54.256L195.36 52.072C195.92 51.6053 196.592 51.1947 197.376 50.84C198.178 50.4853 199.13 50.308 200.232 50.308C201.202 50.308 202.089 50.476 202.892 50.812C203.694 51.148 204.338 51.6707 204.824 52.38C205.309 53.0707 205.552 53.9853 205.552 55.124ZM185.784 56.692H189.34V63.972C189.19 64.0093 188.966 64.056 188.668 64.112C188.388 64.168 188.08 64.196 187.744 64.196C187.072 64.196 186.577 64.0747 186.26 63.832C185.942 63.5893 185.784 63.16 185.784 62.544V56.692ZM193.876 56.692H197.432V63.972C197.282 64.0093 197.058 64.056 196.76 64.112C196.48 64.168 196.172 64.196 195.836 64.196C195.164 64.196 194.669 64.0747 194.352 63.832C194.034 63.5893 193.876 63.16 193.876 62.544V56.692ZM201.996 56.692H205.552V63.972C205.384 64.0093 205.15 64.056 204.852 64.112C204.572 64.168 204.264 64.196 203.928 64.196C203.256 64.196 202.761 64.0747 202.444 63.832C202.145 63.5893 201.996 63.16 201.996 62.544V56.692ZM222.184 57.364C222.184 58.8013 221.895 60.052 221.316 61.116C220.756 62.1613 219.963 62.9733 218.936 63.552C217.91 64.1307 216.696 64.42 215.296 64.42C213.915 64.42 212.702 64.14 211.656 63.58C210.63 63.0013 209.836 62.18 209.276 61.116C208.716 60.052 208.436 58.8013 208.436 57.364C208.436 55.908 208.716 54.6573 209.276 53.612C209.855 52.5667 210.658 51.7547 211.684 51.176C212.73 50.5973 213.943 50.308 215.324 50.308C216.687 50.308 217.882 50.6067 218.908 51.204C219.935 51.7827 220.738 52.5947 221.316 53.64C221.895 54.6853 222.184 55.9267 222.184 57.364ZM215.296 53.136C214.307 53.136 213.514 53.5093 212.916 54.256C212.338 55.0027 212.048 56.0387 212.048 57.364C212.048 58.708 212.338 59.7533 212.916 60.5C213.495 61.228 214.288 61.592 215.296 61.592C216.323 61.592 217.116 61.2187 217.676 60.472C218.255 59.7253 218.544 58.6893 218.544 57.364C218.544 56.0387 218.255 55.0027 217.676 54.256C217.098 53.5093 216.304 53.136 215.296 53.136ZM217.256 67.808C217.256 68.368 217.07 68.8253 216.696 69.18C216.342 69.5533 215.856 69.74 215.24 69.74C214.662 69.74 214.186 69.5533 213.812 69.18C213.458 68.8253 213.28 68.368 213.28 67.808C213.28 67.248 213.458 66.7813 213.812 66.408C214.186 66.0533 214.662 65.876 215.24 65.876C215.856 65.876 216.342 66.0533 216.696 66.408C217.07 66.7813 217.256 67.248 217.256 67.808ZM224.909 46.78C224.909 46.22 225.096 45.7533 225.469 45.38C225.861 44.988 226.356 44.792 226.953 44.792C227.55 44.792 228.036 44.988 228.409 45.38C228.801 45.7533 228.997 46.22 228.997 46.78C228.997 47.34 228.801 47.816 228.409 48.208C228.036 48.5813 227.55 48.768 226.953 48.768C226.356 48.768 225.861 48.5813 225.469 48.208C225.096 47.816 224.909 47.34 224.909 46.78ZM225.189 56.608H228.717V63.972C228.568 64.0093 228.344 64.056 228.045 64.112C227.765 64.168 227.457 64.196 227.121 64.196C226.449 64.196 225.954 64.0747 225.637 63.832C225.338 63.5893 225.189 63.16 225.189 62.544V56.608ZM228.717 58.428H225.189V50.84C225.338 50.8027 225.553 50.756 225.833 50.7C226.132 50.644 226.449 50.616 226.785 50.616C227.457 50.616 227.942 50.7373 228.241 50.98C228.558 51.204 228.717 51.6333 228.717 52.268V58.428ZM250.331 55.348V58.064H246.775V55.46C246.775 54.6573 246.541 54.0693 246.075 53.696C245.608 53.3227 244.992 53.136 244.227 53.136C243.685 53.136 243.191 53.2107 242.743 53.36C242.295 53.4907 241.893 53.6587 241.539 53.864V58.064H237.983V53.556C237.983 53.108 238.076 52.744 238.263 52.464C238.449 52.184 238.739 51.9133 239.131 51.652C239.691 51.2973 240.409 50.9893 241.287 50.728C242.183 50.448 243.172 50.308 244.255 50.308C246.177 50.308 247.671 50.7373 248.735 51.596C249.799 52.4547 250.331 53.7053 250.331 55.348ZM237.983 56.692H241.539V63.972C241.389 64.0093 241.165 64.056 240.867 64.112C240.587 64.168 240.279 64.196 239.943 64.196C239.271 64.196 238.776 64.0747 238.459 63.832C238.141 63.5893 237.983 63.16 237.983 62.544V56.692ZM246.775 56.692H250.331V63.972C250.163 64.0093 249.929 64.056 249.631 64.112C249.351 64.168 249.043 64.196 248.707 64.196C248.035 64.196 247.54 64.0747 247.223 63.832C246.924 63.5893 246.775 63.16 246.775 62.544V56.692ZM255.465 59.156L255.325 56.664L262.745 55.572C262.689 54.8813 262.419 54.284 261.933 53.78C261.448 53.2573 260.757 52.996 259.861 52.996C258.909 52.996 258.125 53.3227 257.509 53.976C256.893 54.6293 256.576 55.5627 256.557 56.776L256.641 58.288C256.791 59.4453 257.239 60.304 257.985 60.864C258.751 61.4053 259.703 61.676 260.841 61.676C261.625 61.676 262.353 61.564 263.025 61.34C263.697 61.0973 264.239 60.8453 264.649 60.584C264.892 60.7333 265.097 60.9387 265.265 61.2C265.433 61.4613 265.517 61.7413 265.517 62.04C265.517 62.5253 265.303 62.9547 264.873 63.328C264.444 63.6827 263.856 63.9533 263.109 64.14C262.381 64.3267 261.551 64.42 260.617 64.42C259.161 64.42 257.873 64.1493 256.753 63.608C255.652 63.0667 254.784 62.264 254.149 61.2C253.533 60.1173 253.225 58.792 253.225 57.224C253.225 56.0667 253.403 55.0587 253.757 54.2C254.112 53.3227 254.597 52.604 255.213 52.044C255.829 51.4653 256.529 51.036 257.313 50.756C258.116 50.4573 258.965 50.308 259.861 50.308C261.093 50.308 262.176 50.56 263.109 51.064C264.043 51.568 264.771 52.2587 265.293 53.136C265.816 54.0133 266.077 55.0213 266.077 56.16C266.077 56.6827 265.937 57.0747 265.657 57.336C265.396 57.5973 265.023 57.7653 264.537 57.84L255.465 59.156ZM259.581 43.168C260.197 43.168 260.776 43.2707 261.317 43.476C261.859 43.6813 262.297 43.9893 262.633 44.4C262.988 44.8107 263.165 45.3427 263.165 45.996C263.165 46.8173 262.904 47.424 262.381 47.816C261.877 48.1893 261.289 48.404 260.617 48.46V49.104C260.524 49.16 260.375 49.216 260.169 49.272C259.964 49.328 259.721 49.356 259.441 49.356C258.975 49.356 258.639 49.3 258.433 49.188C258.247 49.076 258.153 48.9267 258.153 48.74V47.816C258.153 47.4427 258.247 47.1907 258.433 47.06C258.62 46.9107 258.853 46.836 259.133 46.836H259.469C260.16 46.836 260.505 46.5747 260.505 46.052C260.505 45.828 260.403 45.6413 260.197 45.492C260.011 45.324 259.693 45.24 259.245 45.24C258.891 45.24 258.564 45.2867 258.265 45.38C257.967 45.4733 257.705 45.576 257.481 45.688C257.313 45.576 257.164 45.436 257.033 45.268C256.921 45.0813 256.865 44.8667 256.865 44.624C256.865 44.1387 257.145 43.7747 257.705 43.532C258.265 43.2893 258.891 43.168 259.581 43.168ZM281.958 57.364C281.958 58.8013 281.669 60.052 281.09 61.116C280.53 62.1613 279.737 62.9733 278.71 63.552C277.683 64.1307 276.47 64.42 275.07 64.42C273.689 64.42 272.475 64.14 271.43 63.58C270.403 63.0013 269.61 62.18 269.05 61.116C268.49 60.052 268.21 58.8013 268.21 57.364C268.21 55.908 268.49 54.6573 269.05 53.612C269.629 52.5667 270.431 51.7547 271.458 51.176C272.503 50.5973 273.717 50.308 275.098 50.308C276.461 50.308 277.655 50.6067 278.682 51.204C279.709 51.7827 280.511 52.5947 281.09 53.64C281.669 54.6853 281.958 55.9267 281.958 57.364ZM275.07 53.136C274.081 53.136 273.287 53.5093 272.69 54.256C272.111 55.0027 271.822 56.0387 271.822 57.364C271.822 58.708 272.111 59.7533 272.69 60.5C273.269 61.228 274.062 61.592 275.07 61.592C276.097 61.592 276.89 61.2187 277.45 60.472C278.029 59.7253 278.318 58.6893 278.318 57.364C278.318 56.0387 278.029 55.0027 277.45 54.256C276.871 53.5093 276.078 53.136 275.07 53.136ZM303.644 49.188H296.756C296.7 49.076 296.635 48.9267 296.56 48.74C296.485 48.5533 296.448 48.348 296.448 48.124C296.448 47.396 296.775 47.032 297.428 47.032H304.344C304.4 47.144 304.456 47.2933 304.512 47.48C304.587 47.6667 304.624 47.8627 304.624 48.068C304.624 48.8147 304.297 49.188 303.644 49.188ZM299.192 61.032V52.296L302.72 52.268V61.424C302.72 61.8347 302.627 62.18 302.44 62.46C302.272 62.74 302.001 62.992 301.628 63.216C301.161 63.5147 300.536 63.7853 299.752 64.028C298.987 64.2893 298.1 64.42 297.092 64.42C295.599 64.42 294.301 64.168 293.2 63.664C292.117 63.1413 291.277 62.3667 290.68 61.34C290.083 60.2947 289.784 58.988 289.784 57.42C289.784 55.7773 290.083 54.4427 290.68 53.416C291.277 52.3707 292.089 51.596 293.116 51.092C294.161 50.5693 295.309 50.308 296.56 50.308C297.251 50.308 297.876 50.392 298.436 50.56C299.015 50.728 299.472 50.9333 299.808 51.176V54.172C299.509 53.9107 299.127 53.6773 298.66 53.472C298.193 53.248 297.652 53.136 297.036 53.136C296.327 53.136 295.692 53.2853 295.132 53.584C294.591 53.8827 294.161 54.3493 293.844 54.984C293.527 55.6 293.368 56.4213 293.368 57.448C293.368 58.8667 293.695 59.912 294.348 60.584C295.02 61.2373 295.925 61.564 297.064 61.564C297.549 61.564 297.96 61.508 298.296 61.396C298.651 61.284 298.949 61.1627 299.192 61.032ZM302.72 53.024H299.164V45.352C299.332 45.296 299.556 45.2493 299.836 45.212C300.135 45.156 300.452 45.128 300.788 45.128C301.46 45.128 301.945 45.2493 302.244 45.492C302.561 45.716 302.72 46.1453 302.72 46.78V53.024ZM306.452 58.932V56.748H310.008V58.876C310.008 59.828 310.26 60.5187 310.764 60.948C311.268 61.3773 311.968 61.592 312.864 61.592C313.442 61.592 313.928 61.536 314.32 61.424C314.712 61.2933 315.02 61.172 315.244 61.06V56.748H318.8V61.396C318.8 61.8253 318.716 62.1893 318.548 62.488C318.398 62.768 318.128 63.02 317.736 63.244C317.213 63.58 316.532 63.86 315.692 64.084C314.852 64.308 313.9 64.42 312.836 64.42C311.548 64.42 310.418 64.224 309.448 63.832C308.496 63.44 307.758 62.8427 307.236 62.04C306.713 61.2373 306.452 60.2013 306.452 58.932ZM318.8 58.064H315.244V50.784C315.393 50.728 315.608 50.672 315.888 50.616C316.186 50.56 316.504 50.532 316.84 50.532C317.53 50.532 318.025 50.6533 318.324 50.896C318.641 51.1387 318.8 51.5773 318.8 52.212V58.064ZM310.008 58.064H306.452V50.784C306.601 50.728 306.825 50.672 307.124 50.616C307.422 50.56 307.74 50.532 308.076 50.532C308.748 50.532 309.233 50.6533 309.532 50.896C309.849 51.1387 310.008 51.5773 310.008 52.212V58.064ZM318.744 55.124L318.212 55.096C318.1 54.9467 318.006 54.648 317.932 54.2C317.857 53.7333 317.82 53.2947 317.82 52.884C318.492 52.884 319.052 52.688 319.5 52.296C319.948 51.904 320.172 51.2227 320.172 50.252V49.3C320.377 49.188 320.582 49.104 320.788 49.048C320.993 48.992 321.245 48.964 321.544 48.964C321.973 48.964 322.346 49.076 322.664 49.3C322.981 49.524 323.14 49.8973 323.14 50.42V50.672C323.14 51.6427 322.934 52.464 322.524 53.136C322.113 53.808 321.572 54.312 320.9 54.648C320.246 54.9653 319.528 55.124 318.744 55.124ZM337.712 57.364C337.712 58.8013 337.422 60.052 336.844 61.116C336.284 62.1613 335.49 62.9733 334.464 63.552C333.437 64.1307 332.224 64.42 330.824 64.42C329.442 64.42 328.229 64.14 327.184 63.58C326.157 63.0013 325.364 62.18 324.804 61.116C324.244 60.052 323.964 58.8013 323.964 57.364C323.964 55.908 324.244 54.6573 324.804 53.612C325.382 52.5667 326.185 51.7547 327.212 51.176C328.257 50.5973 329.47 50.308 330.852 50.308C332.214 50.308 333.409 50.6067 334.436 51.204C335.462 51.7827 336.265 52.5947 336.844 53.64C337.422 54.6853 337.712 55.9267 337.712 57.364ZM330.824 53.136C329.834 53.136 329.041 53.5093 328.444 54.256C327.865 55.0027 327.576 56.0387 327.576 57.364C327.576 58.708 327.865 59.7533 328.444 60.5C329.022 61.228 329.816 61.592 330.824 61.592C331.85 61.592 332.644 61.2187 333.204 60.472C333.782 59.7253 334.072 58.6893 334.072 57.364C334.072 56.0387 333.782 55.0027 333.204 54.256C332.625 53.5093 331.832 53.136 330.824 53.136ZM335.444 55.124L334.912 55.096C334.8 54.9467 334.706 54.648 334.632 54.2C334.557 53.7333 334.52 53.2947 334.52 52.884C335.192 52.884 335.752 52.688 336.2 52.296C336.648 51.904 336.872 51.2227 336.872 50.252V49.3C337.077 49.188 337.282 49.104 337.488 49.048C337.693 48.992 337.945 48.964 338.244 48.964C338.673 48.964 339.046 49.076 339.364 49.3C339.681 49.524 339.84 49.8973 339.84 50.42V50.672C339.84 51.6427 339.634 52.464 339.224 53.136C338.813 53.808 338.272 54.312 337.6 54.648C336.946 54.9653 336.228 55.124 335.444 55.124ZM329.872 48.74L327.184 46.08C327.165 46.0053 327.146 45.9213 327.128 45.828C327.128 45.716 327.128 45.632 327.128 45.576C327.128 45.072 327.277 44.68 327.576 44.4C327.874 44.1013 328.248 43.952 328.696 43.952C328.994 43.952 329.265 44.008 329.508 44.12C329.769 44.232 330.012 44.428 330.236 44.708L332.756 47.844C332.7 48.3293 332.522 48.7027 332.224 48.964C331.944 49.2067 331.626 49.328 331.272 49.328C330.973 49.328 330.712 49.2813 330.488 49.188C330.282 49.076 330.077 48.9267 329.872 48.74ZM353.772 55.348V58.064H350.216V55.46C350.216 54.6573 349.983 54.0693 349.516 53.696C349.049 53.3227 348.433 53.136 347.668 53.136C347.127 53.136 346.632 53.2107 346.184 53.36C345.736 53.4907 345.335 53.6587 344.98 53.864V58.064H341.424V53.556C341.424 53.108 341.517 52.744 341.704 52.464C341.891 52.184 342.18 51.9133 342.572 51.652C343.132 51.2973 343.851 50.9893 344.728 50.728C345.624 50.448 346.613 50.308 347.696 50.308C349.619 50.308 351.112 50.7373 352.176 51.596C353.24 52.4547 353.772 53.7053 353.772 55.348ZM341.424 56.692H344.98V63.972C344.831 64.0093 344.607 64.056 344.308 64.112C344.028 64.168 343.72 64.196 343.384 64.196C342.712 64.196 342.217 64.0747 341.9 63.832C341.583 63.5893 341.424 63.16 341.424 62.544V56.692ZM350.216 56.692H353.772V63.972C353.604 64.0093 353.371 64.056 353.072 64.112C352.792 64.168 352.484 64.196 352.148 64.196C351.476 64.196 350.981 64.0747 350.664 63.832C350.365 63.5893 350.216 63.16 350.216 62.544V56.692ZM362.827 63.524C361.726 63.524 360.708 63.3093 359.775 62.88C358.842 62.4507 358.086 61.76 357.507 60.808C356.947 59.8373 356.667 58.5587 356.667 56.972C356.667 55.516 356.956 54.2933 357.535 53.304C358.114 52.3147 358.916 51.568 359.943 51.064C360.97 50.56 362.164 50.308 363.527 50.308C364.498 50.308 365.384 50.4387 366.187 50.7C367.008 50.9427 367.662 51.2227 368.147 51.54C368.483 51.764 368.744 52.016 368.931 52.296C369.136 52.576 369.239 52.9307 369.239 53.36V62.096H365.795V53.696C365.534 53.5467 365.226 53.416 364.871 53.304C364.535 53.192 364.124 53.136 363.639 53.136C362.612 53.136 361.782 53.4533 361.147 54.088C360.531 54.704 360.223 55.6653 360.223 56.972C360.223 58.3907 360.522 59.38 361.119 59.94C361.735 60.5 362.5 60.78 363.415 60.78C364.087 60.78 364.638 60.668 365.067 60.444C365.515 60.2013 365.888 59.9307 366.187 59.632L366.327 62.544C365.954 62.8053 365.478 63.0387 364.899 63.244C364.339 63.4307 363.648 63.524 362.827 63.524ZM365.823 64.028V61.312H369.239V64.168C369.239 65.4373 368.94 66.4733 368.343 67.276C367.764 68.0787 366.971 68.6667 365.963 69.04C364.974 69.4133 363.854 69.6 362.603 69.6C361.651 69.6 360.811 69.5067 360.083 69.32C359.355 69.152 358.814 68.956 358.459 68.732C357.843 68.34 357.535 67.8173 357.535 67.164C357.535 66.8093 357.61 66.492 357.759 66.212C357.908 65.9507 358.086 65.7547 358.291 65.624C358.758 65.9227 359.336 66.184 360.027 66.408C360.736 66.6507 361.483 66.772 362.267 66.772C363.387 66.772 364.255 66.548 364.871 66.1C365.506 65.6707 365.823 64.98 365.823 64.028Z" fill="#EF5222"/>
</g>
<defs>
<filter id="filter0_d_612_3241" x="0.0766602" y="0.0761719" width="373.162" height="77.6641" filterUnits="userSpaceOnUse" color-interpolation-filters="sRGB">
<feFlood flood-opacity="0" result="BackgroundImageFix"/>
<feColorMatrix in="SourceAlpha" type="matrix" values="0 0 0 0 0 0 0 0 0 0 0 0 0 0 0 0 0 0 127 0" result="hardAlpha"/>
<feOffset dy="4"/>
<feGaussianBlur stdDeviation="2"/>
<feComposite in2="hardAlpha" operator="out"/>
<feColorMatrix type="matrix" values="0 0 0 0 0 0 0 0 0 0 0 0 0 0 0 0 0 0 0.25 0"/>
<feBlend mode="normal" in2="BackgroundImageFix" result="effect1_dropShadow_612_3241"/>
<feBlend mode="normal" in="SourceGraphic" in2="effect1_dropShadow_612_3241" result="shape"/>
</filter>
</defs>
</svg>
