<svg id="Layer_1" data-name="Layer 1" xmlns="http://www.w3.org/2000/svg" viewBox="0 0 147.07 41.35"><defs><style>.cls-1{fill:#fff;}.cls-2{fill:#f3f3f3;}.cls-3{fill:#e62b4b;}.cls-4{fill:#e63150;}.cls-5{fill:#0a623e;}.cls-6{fill:#10623e;}.cls-7{fill:#e52346;}.cls-8{fill:#006b39;}.cls-9{fill:#4c52a0;}</style></defs><title>logo_futa_express</title><rect class="cls-1" x="0.42" y="3.38" width="34.32" height="30.09"/><path class="cls-2" d="M67.39-.5A1.24,1.24,0,0,1,68.62.76,1.26,1.26,0,0,1,67.36,2,1.28,1.28,0,0,1,66.15.75,1.25,1.25,0,0,1,67.39-.5Z" transform="translate(-30.99 0.66)"/><path class="cls-3" d="M68,1.53c0-.13,0-.26,0-.39a.52.52,0,0,0-.14-.31s0-.08,0-.12A.44.44,0,0,0,68,.26a.37.37,0,0,0-.2-.28.52.52,0,0,0-.25-.07h-.6a.1.1,0,0,0-.09.1V1.53s0,0,0,0a.08.08,0,0,0,.08.06s.12,0,.12-.07,0-.34,0-.51,0-.17.16-.17h.26a.28.28,0,0,1,.27.28c0,.09,0,.18,0,.27a.83.83,0,0,0,0,.15.17.17,0,0,0,.17,0S68,1.57,68,1.53ZM67.75.43a.29.29,0,0,1-.24.25h-.34a.11.11,0,0,1-.11-.12V.18a.12.12,0,0,1,.13-.11h.22l.15,0A.28.28,0,0,1,67.75.43Z" transform="translate(-30.99 0.66)"/><path class="cls-4" d="M67.39-.66A1.41,1.41,0,0,0,66,.77a1.39,1.39,0,1,0,2.77,0A1.41,1.41,0,0,0,67.39-.66Zm0,2.62A1.17,1.17,0,0,1,66.24.77a1.15,1.15,0,1,1,2.29,0A1.16,1.16,0,0,1,67.39,2Z" transform="translate(-30.99 0.66)"/><path class="cls-1" d="M36.34,39.23h-.56a.11.11,0,0,1-.1-.1v-.39a.37.37,0,0,1,0-.11,2,2,0,0,0,.07-.81.08.08,0,0,0-.07-.07H35.5a.13.13,0,0,0-.1.09,1.82,1.82,0,0,0,.06.77,1.09,1.09,0,0,1,0,.54.18.18,0,0,1-.07.08H34.32a.13.13,0,0,1-.13-.11v-.31a.4.4,0,0,1,.06-.26.6.6,0,0,0,.07-.3V36.66a.43.43,0,0,0,0-.23.83.83,0,0,1-.09-.49v-.15a.12.12,0,0,1,.12-.12h1.06a.13.13,0,0,1,.12.13,1.56,1.56,0,0,1-.07.64,1.06,1.06,0,0,0,0,.5s0,.08.07.08h.22s.05,0,.06-.05a1.62,1.62,0,0,0,0-.58.73.73,0,0,1-.07-.41,1.94,1.94,0,0,1,0-.24s0-.06.07-.07h1.13a.12.12,0,0,1,.11.13c0,.09,0,.18,0,.27a.54.54,0,0,1-.08.33.48.48,0,0,0-.06.26c0,.52,0,1,0,1.56a.69.69,0,0,0,.08.37.53.53,0,0,1,0,.18c0,.11,0,.21,0,.32a.12.12,0,0,1-.13.14c-.18,0-.35,0-.53,0Z" transform="translate(-30.99 0.66)"/><path class="cls-1" d="M36.65,39.47h-.87a.32.32,0,0,1-.21-.08.26.26,0,0,1-.19.08H34.32a.36.36,0,0,1-.36-.34v-.31a.64.64,0,0,1,.09-.4.27.27,0,0,0,0-.17V36.66a.31.31,0,0,0,0-.1A1,1,0,0,1,34,36v-.2a.35.35,0,0,1,.35-.35h1.06a.32.32,0,0,1,.21.08.26.26,0,0,1,.09,0l.12,0h1.1a.35.35,0,0,1,.34.36.57.57,0,0,1,0,.13v.14a.72.72,0,0,1-.12.47.35.35,0,0,0,0,.13c0,.26,0,.52,0,.78v.78a.39.39,0,0,0,0,.24.71.71,0,0,1,.08.3v.33a.37.37,0,0,1-.37.38Zm-1.4-.36ZM36.57,39h.21v-.21a.37.37,0,0,1,0-.08.86.86,0,0,1-.12-.49c0-.26,0-.52,0-.78v-.78a.67.67,0,0,1,.1-.39.34.34,0,0,0,0-.19v-.16h-.87V36s0,0,0,.07a.35.35,0,0,0,0,.2l0,.05v0A1.83,1.83,0,0,1,36,37a.31.31,0,0,1-.26.25h-.28a.34.34,0,0,1-.26-.29v0a1.14,1.14,0,0,1,0-.57,1.24,1.24,0,0,0,0-.44h-.84V36a.58.58,0,0,0,0,.32.58.58,0,0,1,.08.35v1.6a.78.78,0,0,1-.11.43.25.25,0,0,0,0,.12V39h.84a.74.74,0,0,0,0-.3,1.71,1.71,0,0,1-.09-.73s0-.08,0-.13a.35.35,0,0,1,.33-.33h.21a.32.32,0,0,1,.28.32V38a1.46,1.46,0,0,1-.08.7V39h.66Zm.2-.28Zm-1.14-1.8Zm-.37-1.12Z" transform="translate(-30.99 0.66)"/><path class="cls-1" d="M38.94,37.42v-.78a.48.48,0,0,0-.07-.29.11.11,0,0,1,0-.07,2,2,0,0,1,0-.55.15.15,0,0,1,.06,0h.9a.58.58,0,0,0,.14,0c.05,0,0,0,0,0a.08.08,0,0,0,0-.07l-.15-.1a.44.44,0,0,1-.14-.49.35.35,0,0,1,.15-.17.45.45,0,0,1,.67.32.74.74,0,0,1-.12.52,1.12,1.12,0,0,1-.3.35.25.25,0,0,0-.1.23v2a1.51,1.51,0,0,1,0,.42.87.87,0,0,1-.65.68,1.94,1.94,0,0,1-1.12,0,.87.87,0,0,1-.61-.54.58.58,0,0,1-.06-.26c0-.12,0-.23,0-.35V36.76a.64.64,0,0,0-.09-.41.15.15,0,0,1,0-.11c0-.17,0-.33,0-.5s0,0,0-.05a.1.1,0,0,1,.07,0h1.06c.11,0,.15,0,.15.17v.31a.33.33,0,0,1-.06.22.48.48,0,0,0-.07.26v1.63a.19.19,0,0,0,0,.08.2.2,0,0,0,.26.15.13.13,0,0,0,.1-.1,2.45,2.45,0,0,0,0-.27v-.7Z" transform="translate(-30.99 0.66)"/><path class="cls-1" d="M38.73,39.55a2.35,2.35,0,0,1-.64-.09,1.09,1.09,0,0,1-.76-.68.84.84,0,0,1-.08-.34c0-.13,0-.24,0-.36V36.76h0c0-.13,0-.2,0-.25a.4.4,0,0,1-.09-.26c0-.16,0-.33,0-.51a.35.35,0,0,1,.17-.26.48.48,0,0,1,.18,0h1.06a.39.39,0,0,1,.22.06l.1,0,.19,0h.46a.73.73,0,0,1,0-.58.62.62,0,0,1,.24-.29.69.69,0,0,1,.64,0,.71.71,0,0,1,.38.52,1,1,0,0,1-.15.68,1.25,1.25,0,0,1-.37.41h0v2a2.34,2.34,0,0,1-.05.47,1.12,1.12,0,0,1-.82.86A2.47,2.47,0,0,1,38.73,39.55Zm-1.16-3.33a.85.85,0,0,1,.13.53h0v1.32c0,.11,0,.22,0,.34a.39.39,0,0,0,0,.18.62.62,0,0,0,.46.4,1.76,1.76,0,0,0,1,0,.64.64,0,0,0,.5-.5,1.5,1.5,0,0,0,0-.37v-2a.56.56,0,0,1,.07-.29h-.75c0,.1,0,.21,0,.31a.68.68,0,0,1,.11.42v.54h0v.94c0,.1,0,.2,0,.3a.34.34,0,0,1-.25.3.43.43,0,0,1-.57-.34h0a.37.37,0,0,1,0-.11V36.63a.65.65,0,0,1,.12-.4.28.28,0,0,0,0-.08v-.24h-.87C37.57,36,37.57,36.12,37.57,36.22Zm1.21,2.09ZM37.55,36.2Zm2.65,0Zm-1.75-.34M40,34.94a.17.17,0,0,0-.1,0,.13.13,0,0,0,0,.06.17.17,0,0,0,0,.2l0,0,.13.09a.32.32,0,0,1,.08.12.53.53,0,0,0,.07-.34.2.2,0,0,0-.12-.16A.19.19,0,0,0,40,34.94ZM40,35.4h0Z" transform="translate(-30.99 0.66)"/><path class="cls-1" d="M60.87,35.67c.69,0,.5-.12.76.53l.3.8s0,0,0,0,0,0,0-.09v-.39a.87.87,0,0,0-.05-.22,1.79,1.79,0,0,1,0-.61s0,0,0-.06h.94a.1.1,0,0,1,.1.09c0,.13,0,.26,0,.39a.37.37,0,0,1,0,.15.64.64,0,0,0-.09.41v2c0,.14,0,.28,0,.43a.11.11,0,0,1-.09.1H62a.13.13,0,0,1-.09-.06c0-.1-.1-.21-.14-.31-.15-.33-.28-.67-.43-1l-.06,0,0,0c0,.13,0,.26,0,.39a.4.4,0,0,0,.06.22.52.52,0,0,1,.06.3v.35a.11.11,0,0,1-.12.11h-.83a.11.11,0,0,1-.1-.09c0-.11,0-.21,0-.31a.51.51,0,0,1,.07-.34.45.45,0,0,0,0-.26V36.64a.6.6,0,0,0-.07-.3.27.27,0,0,1,0-.15c0-.14,0-.28,0-.42a.1.1,0,0,1,.1-.1Z" transform="translate(-30.99 0.66)"/><path class="cls-1" d="M61,39.47h-.66a.33.33,0,0,1-.33-.32c0-.12,0-.22,0-.32v0a.79.79,0,0,1,.11-.46.31.31,0,0,0,0-.11v-1.6a.44.44,0,0,0,0-.18A.5.5,0,0,1,60,36.2v-.44a.33.33,0,0,1,.32-.32h.78c.35,0,.45,0,.57.35v-.06a.27.27,0,0,1,.14-.22h0a.3.3,0,0,1,.18-.05h.9a.35.35,0,0,1,.33.33v.06c0,.11,0,.22,0,.34a.49.49,0,0,1-.08.28.47.47,0,0,0,0,.27v2c0,.14,0,.29,0,.43a.35.35,0,0,1-.32.34H62a.37.37,0,0,1-.29-.18,2,2,0,0,1-.1-.21v.05a.34.34,0,0,1-.35.34ZM60.5,39h.6v-.24a.2.2,0,0,0,0-.16.8.8,0,0,1-.09-.33A1.71,1.71,0,0,1,61,38v-.09a.27.27,0,0,1,.09-.2.29.29,0,0,1,.2,0h0a.28.28,0,0,1,.22.16l.26.6.17.39c0,.07.06.15.1.23h.65c0-.1,0-.19,0-.29v-2a.91.91,0,0,1,.12-.54v-.27h-.64a1,1,0,0,0,0,.36,1.5,1.5,0,0,1,.06.29V37a.33.33,0,0,1-.16.3.25.25,0,0,1-.26,0,.32.32,0,0,1-.11-.15l-.12-.3-.18-.49c-.05-.12-.09-.21-.11-.28a1,1,0,0,0,0-.1H60.5v.28a0,0,0,0,1,0,0,.79.79,0,0,1,.11.42v1.6a.6.6,0,0,1-.1.39.37.37,0,0,0,0,.18V39Zm.58-1Zm.36-.09Zm.71-1Zm.66-1.13Zm-2.3,0Z" transform="translate(-30.99 0.66)"/><path class="cls-1" d="M44,35.67h.3c.27,0,.24,0,.34.25s.27.73.41,1.09c0,0,0,0,.06,0s0,0,0,0a1.76,1.76,0,0,0-.08-.72,1.63,1.63,0,0,1,0-.54s0-.05,0-.06H46c.14,0,.17,0,.17.19v.27a.33.33,0,0,1-.05.22.52.52,0,0,0-.08.3v2.29a1.79,1.79,0,0,1,0,.23l-.05,0H45.1c-.07,0-.11,0-.14-.11l-.45-1.06a2,2,0,0,0-.1-.21h0l0,0c0,.16,0,.31,0,.47a.2.2,0,0,0,0,.11,1.13,1.13,0,0,1,.08.68.12.12,0,0,1-.12.11h-.83a.12.12,0,0,1-.12-.12v-.39a.28.28,0,0,1,.06-.18.51.51,0,0,0,.07-.3V36.61a.33.33,0,0,0-.05-.22.48.48,0,0,1-.08-.33v-.27a.13.13,0,0,1,.13-.12Z" transform="translate(-30.99 0.66)"/><path class="cls-1" d="M44.24,39.47h-.73a.36.36,0,0,1-.35-.36v-.39a.59.59,0,0,1,.1-.33.26.26,0,0,0,0-.15V36.61h0v-.07a.7.7,0,0,1-.13-.48v-.27a.36.36,0,0,1,.36-.35h.84c.29,0,.38.06.49.35,0,0,0-.06,0-.09a.34.34,0,0,1,.17-.22.49.49,0,0,1,.18,0H46c.35,0,.4.24.4.42v.28a.62.62,0,0,1-.09.36s0,.08,0,.17v2.28a1.85,1.85,0,0,1,0,.27.32.32,0,0,1-.13.2h0a.24.24,0,0,1-.17.06H45.1a.38.38,0,0,1-.35-.25l-.06-.14v0a.35.35,0,0,1-.35.35ZM43.62,39h.61v0a.58.58,0,0,0-.05-.37.41.41,0,0,1-.07-.25c0-.15,0-.3,0-.45v0a.27.27,0,0,1,.19-.25.25.25,0,0,1,.3.13l.1.22.28.66.16.37h.65V36.64a.85.85,0,0,1,.12-.43s0,0,0-.08v-.22H45.3a1,1,0,0,0,0,.3,1.44,1.44,0,0,1,.08.6,1.07,1.07,0,0,0,0,.18.33.33,0,0,1-.11.25.23.23,0,0,1-.23,0,.28.28,0,0,1-.2-.18c-.07-.17-.13-.34-.2-.52L44.44,36l0-.06,0,0h-.78v.15c0,.1,0,.14,0,.17a.56.56,0,0,1,.1.37h0v1.63a.69.69,0,0,1-.12.44s0,0,0,0V39Zm1-1.12Z" transform="translate(-30.99 0.66)"/><path class="cls-1" d="M63.38,37.42v-.74a1.33,1.33,0,0,1,0-.34.8.8,0,0,1,.47-.57.88.88,0,0,1,.4-.11l.52,0a1.92,1.92,0,0,1,1,.34.15.15,0,0,1,.07.13v.66c0,.08,0,.13-.11.13H65c-.07,0-.1,0-.1-.12s0-.13,0-.19a.25.25,0,0,0-.17-.19c-.08,0-.18.08-.2.19s0,.13,0,.2v1.4a.76.76,0,0,0,0,.15.2.2,0,0,0,.13.17.2.2,0,0,0,.22-.11.75.75,0,0,0,0-.42s0,0,0,0a.12.12,0,0,1-.08-.12v-.47a.11.11,0,0,1,.1-.09h1a.12.12,0,0,1,.12.13c0,.35,0,.7,0,1.05,0,.14,0,.28,0,.43a.2.2,0,0,1-.09.16l-.27.13a2.94,2.94,0,0,1-1.38.12L64,39.2a.79.79,0,0,1-.51-.58,2.08,2.08,0,0,1-.07-.5v-.7Z" transform="translate(-30.99 0.66)"/><path class="cls-1" d="M64.63,39.54a2.63,2.63,0,0,1-.49,0l-.25-.07a1,1,0,0,1-.66-.73,2,2,0,0,1-.08-.57v-.46h0v-1a2.08,2.08,0,0,1,.05-.4,1,1,0,0,1,.6-.73,1.16,1.16,0,0,1,.49-.13h.54a2.13,2.13,0,0,1,1.14.37.39.39,0,0,1,.18.33v.66a.38.38,0,0,1-.14.31.34.34,0,0,1,.14.29c0,.35,0,.7,0,1.05,0,.14,0,.29,0,.43a.41.41,0,0,1-.21.36,2.23,2.23,0,0,1-.31.15A3.07,3.07,0,0,1,64.63,39.54Zm-1-2.36h0v1a1.77,1.77,0,0,0,.06.43A.54.54,0,0,0,64,39l.19.05a2.46,2.46,0,0,0,1.27-.11.75.75,0,0,0,.2-.1c0-.13,0-.26,0-.39,0-.31,0-.63,0-.94H65v.27a.27.27,0,0,1,.13.18,1,1,0,0,1,0,.55.41.41,0,0,1-.49.26.44.44,0,0,1-.3-.37h0a.91.91,0,0,1,0-.17V36.78a1.64,1.64,0,0,1,0-.22.46.46,0,0,1,.18-.32.38.38,0,0,1,.28-.08.48.48,0,0,1,.36.39s0,.08,0,.12h.59v-.51a1.64,1.64,0,0,0-.86-.28H64.3A.83.83,0,0,0,64,36a.61.61,0,0,0-.34.41,1.11,1.11,0,0,0,0,.29Zm1.1-.18v0h0Z" transform="translate(-30.99 0.66)"/><path class="cls-1" d="M46.53,37.42c0-.23,0-.46,0-.7a2.44,2.44,0,0,1,0-.27.83.83,0,0,1,.45-.67,1.15,1.15,0,0,1,.4-.12l.52,0A2,2,0,0,1,49,36a.28.28,0,0,1,.06.09v.74a.1.1,0,0,1-.1.09h-.83c-.07,0-.1,0-.11-.12l0-.24a.13.13,0,0,0,0-.07.14.14,0,0,0-.22,0,.49.49,0,0,0-.1.15.65.65,0,0,0,0,.2v1.4a1.23,1.23,0,0,0,0,.19.22.22,0,0,0,.17.14.21.21,0,0,0,.19-.16c0-.11,0-.23,0-.34S48,38,48,38s-.12-.15-.11-.26,0-.23,0-.35a.11.11,0,0,1,.1-.09h.94c.11,0,.15,0,.16.17,0,.46,0,.93,0,1.4a.26.26,0,0,1-.16.24,2,2,0,0,1-.49.17,2.86,2.86,0,0,1-1.13,0,.85.85,0,0,1-.72-.74c0-.06,0-.13,0-.19v-.9Z" transform="translate(-30.99 0.66)"/><path class="cls-1" d="M47.75,39.53a2.24,2.24,0,0,1-.52-.05,1.05,1.05,0,0,1-.9-.92c0-.09,0-.16,0-.23V36.7a2.72,2.72,0,0,1,0-.28,1.07,1.07,0,0,1,.58-.85,1.2,1.2,0,0,1,.49-.15h.56a2.12,2.12,0,0,1,1.16.37.41.41,0,0,1,.17.29v.74a.35.35,0,0,1-.14.27.41.41,0,0,1,.15.32v1.4a.49.49,0,0,1-.28.46,2.41,2.41,0,0,1-.55.19A3,3,0,0,1,47.75,39.53Zm-1-2.11v.89a.88.88,0,0,0,0,.16.62.62,0,0,0,.54.55,2.58,2.58,0,0,0,1,0,1.91,1.91,0,0,0,.44-.15l0,0h0V37.48h-.75v.26a.36.36,0,0,1,.15.27c0,.12,0,.24,0,.37a.45.45,0,0,1-.14.27.4.4,0,0,1-.3.11.45.45,0,0,1-.37-.34.85.85,0,0,1,0-.23V36.77a.77.77,0,0,1,0-.25.73.73,0,0,1,.15-.25.41.41,0,0,1,.32-.11.41.41,0,0,1,.28.2h0a.38.38,0,0,1,.05.14c0,.05,0,.11,0,.16h.59v-.52a1.73,1.73,0,0,0-.89-.27l-.52,0a.66.66,0,0,0-.3.1.55.55,0,0,0-.33.48,1.69,1.69,0,0,0,0,.23v.71Zm1.1.75Zm0-1.18v0h0Zm-.09-.41h0Z" transform="translate(-30.99 0.66)"/><path class="cls-1" d="M52.82,37.43v.78a.62.62,0,0,0,.06.3.5.5,0,0,1,.07.29v.32a.12.12,0,0,1-.13.11H51.73a.12.12,0,0,1-.12-.12v-.35a.27.27,0,0,1,0-.18.4.4,0,0,0,.08-.26V36.57s0-.08-.07-.06a.1.1,0,0,0-.07.08s0,.1,0,.15v.31s0,.08,0,.12a.11.11,0,0,1-.1.1H51c-.11,0-.15,0-.16-.16V35.82a.13.13,0,0,1,.14-.15h2.75a.1.1,0,0,1,.08.07.49.49,0,0,1,0,.12v1.2a.49.49,0,0,1,0,.12s0,.07-.08.07a2.29,2.29,0,0,1-.64,0,.1.1,0,0,1,0-.06.37.37,0,0,1,0-.11c0-.12,0-.23,0-.35s0-.1,0-.16-.06-.07-.08,0l-.05,0a1.34,1.34,0,0,0,0,.2v.66Z" transform="translate(-30.99 0.66)"/><path class="cls-1" d="M52.38,39.47h-.65a.34.34,0,0,1-.35-.35v-.36a.51.51,0,0,1,.1-.32.24.24,0,0,0,0-.12V37.5H51a.37.37,0,0,1-.39-.4V35.82a.37.37,0,0,1,.36-.39h2.77a.34.34,0,0,1,.29.23.72.72,0,0,1,0,.19v1.21h0a.45.45,0,0,1,0,.21.36.36,0,0,1-.25.21,2.43,2.43,0,0,1-.66,0v.71a.44.44,0,0,0,0,.17.7.7,0,0,1,.11.43v.31a.36.36,0,0,1-.36.35ZM51.84,39h.88v-.2a.28.28,0,0,0,0-.16.77.77,0,0,1-.1-.43v-.54h0v-.9a1.69,1.69,0,0,1,0-.23.35.35,0,0,1,.16-.22.27.27,0,0,1,.26,0,.32.32,0,0,1,.17.24v0a.61.61,0,0,1,0,.14V37h.34V35.91H51V37h.34v-.29c0-.06,0-.12,0-.18a.34.34,0,0,1,.21-.27.27.27,0,0,1,.26,0,.33.33,0,0,1,.13.26v1.75a.7.7,0,0,1-.12.4s0,0,0,0V39Zm-.49-1.84ZM50.94,37Zm1.79-.43Zm.33,0Zm.6-.69h0Z" transform="translate(-30.99 0.66)"/><path class="cls-1" d="M42.82,34.89a.3.3,0,0,0-.16.08.4.4,0,0,0,0,.61l.16.09s0,0,0,.09-.09.13-.17.08a1.23,1.23,0,0,0-.52-.2,2.48,2.48,0,0,0-1,0,1,1,0,0,0-.28.11.81.81,0,0,0-.41.57,3.11,3.11,0,0,0,0,.43c0,.21,0,.41,0,.62s0,.42,0,.62a2.49,2.49,0,0,0,0,.47.83.83,0,0,0,.49.64,1.17,1.17,0,0,0,.24.09,2.54,2.54,0,0,0,1.13,0,1.17,1.17,0,0,0,.24-.09.7.7,0,0,0,.39-.45,1.27,1.27,0,0,0,.07-.38V36.6c0-.14,0-.28-.06-.42s.21-.23.29-.36a.78.78,0,0,0,.15-.39A.45.45,0,0,0,42.82,34.89Zm-.91,3.17a1.54,1.54,0,0,1,0,.3.18.18,0,0,1-.15.15.2.2,0,0,1-.18-.12.36.36,0,0,1,0-.11,1.21,1.21,0,0,1,0-.19V36.8c0-.07,0-.15,0-.23a.22.22,0,0,1,.15-.16.17.17,0,0,1,.23.13,1.79,1.79,0,0,1,0,.23v1.29Z" transform="translate(-30.99 0.66)"/><path class="cls-1" d="M41.73,39.53a3.15,3.15,0,0,1-.61-.06,1.38,1.38,0,0,1-.3-.11,1.09,1.09,0,0,1-.62-.82,2.89,2.89,0,0,1,0-.5c0-.15,0-.3,0-.44v-.38c0-.14,0-.29,0-.44a3,3,0,0,1,0-.46,1,1,0,0,1,.52-.74,1.75,1.75,0,0,1,.34-.14,3,3,0,0,1,1.14,0l.11,0a.78.78,0,0,1,0-.16.64.64,0,0,1,.22-.49.72.72,0,0,1,.28-.13h0a.7.7,0,0,1,.61.17.76.76,0,0,1,.2.63,1,1,0,0,1-.19.5,1.75,1.75,0,0,1-.16.2l-.08.08v0a3.11,3.11,0,0,1,0,.32v1.72a1.45,1.45,0,0,1-.08.45,1,1,0,0,1-.51.6,1.25,1.25,0,0,1-.29.1A2.54,2.54,0,0,1,41.73,39.53Zm0-3.69a2.47,2.47,0,0,0-.58.07.73.73,0,0,0-.22.09.54.54,0,0,0-.29.41,2.13,2.13,0,0,0,0,.39c0,.14,0,.28,0,.42a1.21,1.21,0,0,1,0,.19c0,.06,0,.13,0,.19s0,.28,0,.42a3.11,3.11,0,0,0,0,.43.62.62,0,0,0,.36.48,1.21,1.21,0,0,0,.2.07,2.55,2.55,0,0,0,1,0,.89.89,0,0,0,.19-.07.48.48,0,0,0,.27-.32,1,1,0,0,0,.06-.3v-.57c0-.38,0-.76,0-1.14a2.29,2.29,0,0,0,0-.25.78.78,0,0,1,0-.14V36.1L42.56,36a1.18,1.18,0,0,0-.45-.17A2.13,2.13,0,0,0,41.74,35.84Zm1.12-.72-.06,0a.17.17,0,0,0,0,.12.16.16,0,0,0,.06.12l.07,0,.06,0a.29.29,0,0,1,.14.15.41.41,0,0,0,.06-.2.29.29,0,0,0-.06-.24.25.25,0,0,0-.22-.05Zm-1.15,3.62a.44.44,0,0,1-.39-.26h0a.5.5,0,0,1,0-.16,1.77,1.77,0,0,1,0-.22V36.8a1.27,1.27,0,0,1,0-.28.45.45,0,0,1,.3-.34.39.39,0,0,1,.35,0,.36.36,0,0,1,.18.28,2.46,2.46,0,0,1,0,.26v1.29h0a2,2,0,0,1,0,.34.39.39,0,0,1-.37.34Zm0-.44Z" transform="translate(-30.99 0.66)"/><path class="cls-1" d="M56.86,38.69a.21.21,0,0,0,0-.1.57.57,0,0,1-.08-.34c0-.11,0-.23,0-.35a.43.43,0,0,0-.17-.33l-.09-.07s0-.07,0-.09a.76.76,0,0,0,.31-.43,1.62,1.62,0,0,0,0-.62.74.74,0,0,0-.53-.6,1.54,1.54,0,0,0-.52-.09H54.22c-.09,0-.13,0-.13.15v.35a.37.37,0,0,0,.07.25.33.33,0,0,1,.06.22v1.6a.53.53,0,0,1-.07.3.46.46,0,0,0-.06.26v.31a.12.12,0,0,0,.12.12h1.13l.07-.08a0,0,0,0,0,0,0c0-.21,0-.42-.1-.6,0,0,0,0,0,0a1.88,1.88,0,0,1,0-.58l.06,0a.25.25,0,0,1,.25.24c0,.11,0,.23,0,.35l0,.62c0,.12,0,.16.16.16h.57l.38,0s.07,0,.07-.06S56.86,38.85,56.86,38.69Zm-1.17-1.77a.27.27,0,0,1-.34.21.07.07,0,0,1,0-.05c0-.1,0-.2,0-.21v-.28c0-.16.06-.16.19-.14a.21.21,0,0,1,.19.16A.8.8,0,0,1,55.69,36.92Z" transform="translate(-30.99 0.66)"/><path class="cls-1" d="M56.19,39.48h-.36a.37.37,0,0,1-.29-.12l0,0a.27.27,0,0,1-.2.07H54.21a.35.35,0,0,1-.35-.35V38.8a.63.63,0,0,1,.1-.39.37.37,0,0,0,0-.17V36.58a.58.58,0,0,1-.13-.41v-.36a.36.36,0,0,1,.36-.38h1.51a1.78,1.78,0,0,1,.59.1,1,1,0,0,1,.68.78A1.6,1.6,0,0,1,57,37a.86.86,0,0,1-.22.41.68.68,0,0,1,.19.45c0,.11,0,.22,0,.36s0,.16,0,.19a.57.57,0,0,1,.08.25h0a3.68,3.68,0,0,1,0,.48.33.33,0,0,1-.29.29h-.6Zm.43-.34Zm-1.43,0ZM55.9,39h.73v-.27a.75.75,0,0,1-.12-.47c0-.13,0-.24,0-.33a.19.19,0,0,0-.08-.16l0,0-.06-.05a.3.3,0,0,1-.12-.25.29.29,0,0,1,.12-.23.43.43,0,0,0,.21-.29,1.1,1.1,0,0,0,0-.51.52.52,0,0,0-.37-.43,1.21,1.21,0,0,0-.45-.07H54.32v.26a.36.36,0,0,0,0,.1.53.53,0,0,1,.12.37v1.6a.83.83,0,0,1-.1.43s0,0,0,.12V39h.87v0c0-.16,0-.23,0-.29a.33.33,0,0,1-.07-.17,2.1,2.1,0,0,1,0-.66.3.3,0,0,1,.3-.22.49.49,0,0,1,.46.45c0,.09,0,.17,0,.25v.27C55.88,38.73,55.89,38.86,55.9,39Zm-.47-1.62-.13,0a.29.29,0,0,1-.22-.25c0-.09,0-.19,0-.22v-.3a.38.38,0,0,1,.12-.31.41.41,0,0,1,.34-.07.46.46,0,0,1,.37.33,1.11,1.11,0,0,1,0,.41.49.49,0,0,1-.2.34A.47.47,0,0,1,55.43,37.38Z" transform="translate(-30.99 0.66)"/><path class="cls-1" d="M60,38.67a.11.11,0,0,0,0-.08,1.34,1.34,0,0,1-.2-.61c-.12-.63-.23-1.25-.35-1.87l-.06-.35a.14.14,0,0,0-.11-.09H57.87a.13.13,0,0,0-.1.1,1.74,1.74,0,0,0-.05.22c-.13.7-.25,1.41-.37,2.11a1.39,1.39,0,0,1-.13.44.21.21,0,0,0,0,.11c0,.16,0,.33,0,.5s0,.06.07.08h1s0,0,0-.06a2.11,2.11,0,0,0,0-.26.58.58,0,0,0-.09-.41.19.19,0,0,1,0-.08s0-.11.07-.11h.34a.09.09,0,0,1,.08.14,1.22,1.22,0,0,0-.07.17,1.26,1.26,0,0,0,0,.58c.13.09.27,0,.41.05h.71l.15,0,0,0A2.1,2.1,0,0,0,60,38.67Zm-1.51-1.06h0a.12.12,0,0,1-.11-.13c0-.2.07-.4.1-.61l0,0s.05,0,.05,0c0,.2.07.4.1.61S58.59,37.61,58.47,37.61Z" transform="translate(-30.99 0.66)"/><path class="cls-1" d="M58.84,39.48a.52.52,0,0,1-.32-.1l0,0-.1.08a.45.45,0,0,1-.18,0h-.9a.33.33,0,0,1-.15,0h0a.29.29,0,0,1-.18-.28v0c0-.16,0-.32,0-.49a.48.48,0,0,1,.07-.23.8.8,0,0,0,.1-.33v0c.1-.6.21-1.21.32-1.8l.05-.31a1.42,1.42,0,0,1,0-.22v0a.36.36,0,0,1,.33-.28h1.36a.35.35,0,0,1,.33.27c0,.12,0,.24.07.35.11.62.23,1.25.34,1.87L60,38a1,1,0,0,0,.14.44.4.4,0,0,1,.08.2h0a2.16,2.16,0,0,1,0,.56.32.32,0,0,1-.22.24l-.2,0h-.93Zm.9-.36Zm-1.23-1.06h.15a.35.35,0,0,1,.26.15.36.36,0,0,1,0,.32l-.05.09a.17.17,0,0,0,0,.05.92.92,0,0,0,0,.33h.9a2.71,2.71,0,0,0,0-.29,1.55,1.55,0,0,1-.22-.62V38c-.11-.62-.23-1.25-.34-1.87,0-.08,0-.16,0-.24H58l0,.13,0,.31c-.1.58-.21,1.19-.31,1.79v0a1.09,1.09,0,0,1-.16.5V39h.7v-.12a.37.37,0,0,0,0-.25.35.35,0,0,1-.06-.16h0a.34.34,0,0,1,.07-.27.28.28,0,0,1,.23-.13Zm-.07.28Zm0-.5H58.4a.38.38,0,0,1-.24-.13.36.36,0,0,1-.06-.27h0l0-.12c0-.16.05-.33.08-.49a.27.27,0,0,1,.13-.19h0a.24.24,0,0,1,.26,0,.25.25,0,0,1,.16.22c0,.08,0,.16,0,.23l.06.38a.35.35,0,0,1-.37.43Zm.17-.93Z" transform="translate(-30.99 0.66)"/><path class="cls-1" d="M33.94,36.58a.93.93,0,0,0,0-.23.91.91,0,0,0-.59-.6,1.33,1.33,0,0,0-.45-.08H31.28a.08.08,0,0,0,0,.06.39.39,0,0,0,0,.15.91.91,0,0,0,.1.6.22.22,0,0,1,0,.15v1.63a.45.45,0,0,1-.09.29.37.37,0,0,0,0,.15c0,.14,0,.28,0,.42a.1.1,0,0,0,.09.1h1.13a.11.11,0,0,0,.1-.1c0-.14,0-.28,0-.42a.42.42,0,0,0,0-.15c-.1-.29-.08-.33.23-.33h.19a1.34,1.34,0,0,0,.4-.07.74.74,0,0,0,.55-.54,2,2,0,0,0,0-.26Zm-1.13.71a.23.23,0,0,1-.29.16.09.09,0,0,1-.06-.09c0-.13,0-.26,0-.38h0v-.43s0-.07.07-.08a.24.24,0,0,1,.28.19A2.66,2.66,0,0,1,32.81,37.29Z" transform="translate(-30.99 0.66)"/><path class="cls-1" d="M31.76,39.47h-.44a.33.33,0,0,1-.32-.33v-.07c0-.12,0-.24,0-.37a.53.53,0,0,1,.09-.28.24.24,0,0,0,0-.15V36.64h0v0A.89.89,0,0,1,31,36V35.9a1.5,1.5,0,0,1,0-.22.34.34,0,0,1,.22-.23l.2,0h1.43a1.41,1.41,0,0,1,.52.1,1.09,1.09,0,0,1,.74.75,1.11,1.11,0,0,1,.05.3h0v.78a1.61,1.61,0,0,1-.06.33,1,1,0,0,1-.7.7,1.39,1.39,0,0,1-.48.07h-.2v0h0a.54.54,0,0,1,0,.21c0,.13,0,.25,0,.37v.07a.33.33,0,0,1-.33.33Zm-.3-.34Zm.86,0ZM31.45,39h.88v-.28l0-.06h0a.56.56,0,0,1,0-.49.49.49,0,0,1,.45-.16h.2a1.22,1.22,0,0,0,.34-.06.52.52,0,0,0,.39-.37,1.52,1.52,0,0,0,0-.21c0-.23,0-.47,0-.77h0a.55.55,0,0,0,0-.16.64.64,0,0,0-.45-.44,1,1,0,0,0-.36-.07H31.45V36a.49.49,0,0,0,.05.32.42.42,0,0,1,.08.29h0v1.64a.74.74,0,0,1-.12.42V39Zm0-.29Zm0,0Zm0-2.9Zm1.13,1.91-.13,0a.31.31,0,0,1-.23-.31,1.41,1.41,0,0,1,0-.29v-.54a.34.34,0,0,1,.26-.3.48.48,0,0,1,.38.09.44.44,0,0,1,.17.31,2.58,2.58,0,0,1,0,.68h0a.46.46,0,0,1-.19.3A.5.5,0,0,1,32.59,37.7Z" transform="translate(-30.99 0.66)"/><path class="cls-5" d="M36.34,39.26h-.56a.11.11,0,0,1-.1-.1v-.39a.37.37,0,0,1,0-.11,2,2,0,0,0,.07-.81.09.09,0,0,0-.07-.08H35.5a.13.13,0,0,0-.1.09,1.82,1.82,0,0,0,.06.77,1.09,1.09,0,0,1,0,.54.18.18,0,0,1-.07.08H34.32a.13.13,0,0,1-.13-.11v-.31a.38.38,0,0,1,.06-.26.66.66,0,0,0,.07-.3v-1.6a.41.41,0,0,0,0-.22.83.83,0,0,1-.09-.49v-.15a.12.12,0,0,1,.12-.12h1.06a.13.13,0,0,1,.12.12,1.59,1.59,0,0,1-.07.65,1.06,1.06,0,0,0,0,.5s0,.08.07.08h.22a.15.15,0,0,0,.06-.05,1.61,1.61,0,0,0,0-.58.75.75,0,0,1-.07-.42,2,2,0,0,1,0-.23s0-.06.07-.07h1.13a.11.11,0,0,1,.11.12c0,.09,0,.19,0,.28a.54.54,0,0,1-.08.33.48.48,0,0,0-.06.26c0,.52,0,1,0,1.56a.69.69,0,0,0,.08.37.53.53,0,0,1,0,.18c0,.11,0,.21,0,.31s0,.15-.13.15Z" transform="translate(-30.99 0.66)"/><path class="cls-5" d="M38.94,37.45v-.78a.51.51,0,0,0-.07-.3.09.09,0,0,1,0-.07,2,2,0,0,1,0-.54.15.15,0,0,1,.06,0h.9l.14,0c.05,0,0,0,0,0a.08.08,0,0,0,0-.07l-.15-.11a.42.42,0,0,1-.14-.48.35.35,0,0,1,.15-.17.45.45,0,0,1,.67.32.74.74,0,0,1-.12.52,1.08,1.08,0,0,1-.3.34.27.27,0,0,0-.1.24v1.94a1.54,1.54,0,0,1,0,.43.87.87,0,0,1-.65.68,2.13,2.13,0,0,1-1.12,0,.87.87,0,0,1-.61-.54.58.58,0,0,1-.06-.26c0-.12,0-.23,0-.35V36.79a.64.64,0,0,0-.09-.41.15.15,0,0,1,0-.11c0-.17,0-.34,0-.5s0-.05,0-.06h1.13c.11,0,.15,0,.15.17v.31a.33.33,0,0,1-.06.22.48.48,0,0,0-.07.26v1.63a.22.22,0,0,0,0,.08.2.2,0,0,0,.26.15.13.13,0,0,0,.1-.1,2.45,2.45,0,0,0,0-.27v-.7Z" transform="translate(-30.99 0.66)"/><path class="cls-5" d="M60.87,35.7c.69,0,.5-.12.76.53l.3.79,0,.06s0,0,0-.09V36.6a.87.87,0,0,0-.05-.22,1.85,1.85,0,0,1,0-.62s0,0,0,0h.94a.11.11,0,0,1,.1.1c0,.13,0,.26,0,.39a.37.37,0,0,1,0,.15.63.63,0,0,0-.09.4v2c0,.14,0,.28,0,.42s0,.11-.09.11H62a.13.13,0,0,1-.09-.06c0-.1-.1-.21-.14-.31-.15-.34-.28-.67-.43-1l-.06,0,0,0c0,.13,0,.26,0,.39a.4.4,0,0,0,.06.22.52.52,0,0,1,.06.3v.35a.11.11,0,0,1-.12.11h-.83a.11.11,0,0,1-.1-.09c0-.11,0-.21,0-.31a.5.5,0,0,1,.07-.34.45.45,0,0,0,0-.26v-1.6a.59.59,0,0,0-.07-.29.3.3,0,0,1,0-.15c0-.14,0-.28,0-.42a.1.1,0,0,1,.1-.1Z" transform="translate(-30.99 0.66)"/><path class="cls-5" d="M44,35.7h.3c.27,0,.24,0,.34.25s.27.72.41,1.09l.06,0s0,0,0,0a1.83,1.83,0,0,0-.08-.73,1.63,1.63,0,0,1,0-.54s0,0,0,0H46c.14,0,.17,0,.17.19v.27a.34.34,0,0,1-.05.22.52.52,0,0,0-.08.3V39a1.79,1.79,0,0,1,0,.23s0,0-.05,0H45.1c-.07,0-.11,0-.14-.11l-.45-1.07a2,2,0,0,0-.1-.21h0s0,0,0,0c0,.16,0,.31,0,.47a.23.23,0,0,0,0,.11,1.13,1.13,0,0,1,.08.68.12.12,0,0,1-.12.11h-.83a.12.12,0,0,1-.12-.13v-.39a.32.32,0,0,1,.06-.18.48.48,0,0,0,.07-.29V36.64a.37.37,0,0,0-.05-.23.46.46,0,0,1-.08-.32v-.28a.13.13,0,0,1,.13-.11Z" transform="translate(-30.99 0.66)"/><path class="cls-5" d="M63.38,37.45v-.74a1.27,1.27,0,0,1,0-.34.82.82,0,0,1,.47-.58.88.88,0,0,1,.4-.1l.52,0a1.92,1.92,0,0,1,1,.34.14.14,0,0,1,.07.13v.66c0,.08,0,.13-.11.13H65c-.07,0-.1,0-.1-.12s0-.13,0-.19a.29.29,0,0,0-.17-.2c-.08,0-.18.09-.2.2s0,.13,0,.19v1.4a.81.81,0,0,0,0,.16.2.2,0,0,0,.13.17.21.21,0,0,0,.22-.12.71.71,0,0,0,0-.41s0,0,0,0a.12.12,0,0,1-.08-.12v-.47a.12.12,0,0,1,.1-.1h1a.12.12,0,0,1,.12.13c0,.35,0,.7,0,1.05,0,.14,0,.28,0,.42a.18.18,0,0,1-.09.16,1.66,1.66,0,0,1-.27.13,2.7,2.7,0,0,1-1.38.12L64,39.23a.79.79,0,0,1-.51-.58,2.08,2.08,0,0,1-.07-.5v-.7Z" transform="translate(-30.99 0.66)"/><path class="cls-5" d="M46.53,37.45c0-.23,0-.46,0-.7a2.44,2.44,0,0,1,0-.27.83.83,0,0,1,.45-.67,1.15,1.15,0,0,1,.4-.12l.52,0A2,2,0,0,1,49,36a.28.28,0,0,1,.06.09v.74a.1.1,0,0,1-.1.09h-.83c-.07,0-.1,0-.11-.13l0-.23a.13.13,0,0,0,0-.07.14.14,0,0,0-.22,0,.54.54,0,0,0-.1.16.62.62,0,0,0,0,.19v1.4a1.36,1.36,0,0,0,0,.2.18.18,0,0,0,.36,0c0-.11,0-.23,0-.35s0,0,0-.06-.12-.15-.11-.26,0-.23,0-.35a.11.11,0,0,1,.1-.09h.94c.11,0,.15,0,.16.16,0,.47,0,.94,0,1.4a.27.27,0,0,1-.16.25,2,2,0,0,1-.49.17,2.86,2.86,0,0,1-1.13,0,.86.86,0,0,1-.72-.74c0-.06,0-.13,0-.19v-.9Z" transform="translate(-30.99 0.66)"/><path class="cls-6" d="M52.82,37.46v.78a.62.62,0,0,0,.06.3.5.5,0,0,1,.07.29v.31a.12.12,0,0,1-.13.12H51.73a.12.12,0,0,1-.12-.12v-.35a.27.27,0,0,1,0-.18.4.4,0,0,0,.08-.26V36.6c0-.05,0-.08-.07-.06a.1.1,0,0,0-.07.07c0,.06,0,.11,0,.16v.31s0,.08,0,.12a.13.13,0,0,1-.1.1H51c-.11,0-.15,0-.16-.16V35.85c0-.1.05-.15.14-.15h2.75a.08.08,0,0,1,.08.07.37.37,0,0,1,0,.11V37.1a.49.49,0,0,1,0,.12s0,.07-.08.07a2.29,2.29,0,0,1-.64,0s0,0,0-.05a.37.37,0,0,1,0-.11c0-.12,0-.24,0-.35s0-.11,0-.16-.06-.07-.08,0l-.05,0a1.34,1.34,0,0,0,0,.2v.66Z" transform="translate(-30.99 0.66)"/><path class="cls-5" d="M42.82,34.92a.39.39,0,0,0-.16.07.4.4,0,0,0,0,.61l.16.1s0,0,0,.09-.09.13-.17.07a1.36,1.36,0,0,0-.52-.19,2.65,2.65,0,0,0-1,0,1.39,1.39,0,0,0-.28.12.79.79,0,0,0-.41.57,3,3,0,0,0,0,.43c0,.2,0,.41,0,.62s0,.41,0,.62a2.32,2.32,0,0,0,0,.46.85.85,0,0,0,.49.65,1.17,1.17,0,0,0,.24.09,2.69,2.69,0,0,0,1.13,0,1.17,1.17,0,0,0,.24-.09.75.75,0,0,0,.39-.45,1.27,1.27,0,0,0,.07-.38V36.62c0-.14,0-.28-.06-.42s.21-.22.29-.35a.78.78,0,0,0,.15-.39A.45.45,0,0,0,42.82,34.92Zm-.91,3.16a1.55,1.55,0,0,1,0,.31.16.16,0,0,1-.15.14.17.17,0,0,1-.18-.11.49.49,0,0,1,0-.11,1.21,1.21,0,0,1,0-.19V36.83c0-.08,0-.16,0-.23a.2.2,0,0,1,.15-.16.17.17,0,0,1,.23.13,1.64,1.64,0,0,1,0,.23v1.28Z" transform="translate(-30.99 0.66)"/><path class="cls-5" d="M56.86,38.72a.21.21,0,0,0,0-.11.54.54,0,0,1-.08-.33c0-.12,0-.23,0-.35a.42.42,0,0,0-.17-.33l-.09-.07a.07.07,0,0,1,0-.1.7.7,0,0,0,.31-.42,1.62,1.62,0,0,0,0-.62.77.77,0,0,0-.53-.61,1.53,1.53,0,0,0-.52-.08H54.22c-.09,0-.13,0-.13.15v.35a.37.37,0,0,0,.07.25.33.33,0,0,1,.06.22v1.6a.53.53,0,0,1-.07.3.46.46,0,0,0-.06.26v.31a.12.12,0,0,0,.12.12h1.13l.07-.08s0,0,0,0c0-.2,0-.41-.1-.59a.06.06,0,0,1,0,0,1.88,1.88,0,0,1,0-.58l.06,0a.24.24,0,0,1,.25.23c0,.12,0,.24,0,.35l0,.63c0,.12,0,.16.16.16a5.42,5.42,0,0,0,.57,0h.38s.07,0,.07-.07S56.86,38.87,56.86,38.72Zm-1.17-1.78a.27.27,0,0,1-.34.22s0,0,0,0l0-.21v-.28c0-.16.06-.17.19-.14a.21.21,0,0,1,.19.16A.76.76,0,0,1,55.69,36.94Z" transform="translate(-30.99 0.66)"/><path class="cls-5" d="M60,38.69a.11.11,0,0,0,0-.07,1.34,1.34,0,0,1-.2-.62c-.12-.62-.23-1.24-.35-1.87l-.06-.34a.13.13,0,0,0-.11-.09H57.87a.12.12,0,0,0-.1.1,1.74,1.74,0,0,0-.05.22c-.13.7-.25,1.4-.37,2.1a1.37,1.37,0,0,1-.13.45.21.21,0,0,0,0,.1c0,.17,0,.34,0,.51s0,.06.07.08h.94a.1.1,0,0,0,.07,0s0,0,0-.05a2.45,2.45,0,0,0,0-.27.57.57,0,0,0-.09-.4.19.19,0,0,1,0-.08s0-.11.07-.11h.34a.09.09,0,0,1,.08.14,1,1,0,0,0-.08.74c.13.1.27,0,.41,0a2.25,2.25,0,0,0,.26,0h0c.15,0,.3,0,.45,0h.15l0,0A2.18,2.18,0,0,0,60,38.69Zm-1.51-1.06h0a.12.12,0,0,1-.11-.13c0-.2.07-.41.1-.61a.12.12,0,0,1,0,0s.05,0,.05,0c0,.21.07.41.1.61S58.59,37.64,58.47,37.63Z" transform="translate(-30.99 0.66)"/><path class="cls-5" d="M33.94,36.61a.85.85,0,0,0,0-.23.89.89,0,0,0-.59-.6,1.12,1.12,0,0,0-.45-.08H31.28a.07.07,0,0,0,0,0,.44.44,0,0,0,0,.16.87.87,0,0,0,.1.59.25.25,0,0,1,0,.15V38.3a.45.45,0,0,1-.09.29.33.33,0,0,0,0,.14c0,.15,0,.29,0,.43a.1.1,0,0,0,.09.1h1.13a.11.11,0,0,0,.1-.1c0-.14,0-.28,0-.43a.33.33,0,0,0,0-.14c-.1-.3-.08-.33.23-.34h.19a1.08,1.08,0,0,0,.4-.06.74.74,0,0,0,.55-.54c0-.09,0-.18,0-.26Zm-1.13.7a.22.22,0,0,1-.29.17.09.09,0,0,1-.06-.09c0-.13,0-.26,0-.39h0v-.42a.11.11,0,0,1,.07-.08.24.24,0,0,1,.28.19A2.57,2.57,0,0,1,32.81,37.31Z" transform="translate(-30.99 0.66)"/><path class="cls-7" d="M66,33H31.18V2.44H66Zm-34.31-.47H65.49V2.92H31.64Z" transform="translate(-30.99 0.66)"/><rect class="cls-7" x="7.07" y="4.43" width="26.41" height="1.54"/><rect class="cls-7" x="7.07" y="6.86" width="26.41" height="1.54"/><rect class="cls-7" x="7.07" y="9.05" width="26.41" height="1.54"/><rect class="cls-7" x="7.07" y="11.44" width="26.41" height="1.54"/><rect class="cls-7" x="7.07" y="13.69" width="26.41" height="1.54"/><rect class="cls-7" x="7.07" y="16.04" width="26.41" height="1.54"/><rect class="cls-7" x="7.07" y="18.36" width="26.41" height="1.54"/><rect class="cls-7" x="7.07" y="20.7" width="26.41" height="1.54"/><rect class="cls-7" x="7.07" y="23.01" width="26.41" height="1.54"/><rect class="cls-7" x="7.07" y="25.39" width="26.41" height="1.54"/><rect class="cls-7" x="1.63" y="4.41" width="3.98" height="1.54"/><rect class="cls-7" x="1.63" y="6.85" width="3.98" height="1.54"/><rect class="cls-7" x="1.63" y="9.04" width="3.98" height="1.54"/><rect class="cls-7" x="1.63" y="11.43" width="3.98" height="1.54"/><rect class="cls-7" x="1.63" y="13.67" width="3.98" height="1.54"/><rect class="cls-7" x="1.63" y="16.02" width="3.98" height="1.54"/><rect class="cls-7" x="1.63" y="18.35" width="3.98" height="1.54"/><rect class="cls-7" x="1.63" y="20.69" width="3.98" height="1.54"/><rect class="cls-7" x="1.63" y="22.99" width="3.98" height="1.54"/><rect class="cls-7" x="1.63" y="25.37" width="3.98" height="1.54"/><rect class="cls-7" x="1.68" y="28.22" width="31.79" height="1.54"/><rect class="cls-7" x="1.68" y="30.62" width="31.79" height="1.54"/><path class="cls-1" d="M49.27,10.6c0,.43-.05.82-.06,1.21a.4.4,0,0,1-.17.3l-.22.16a5.54,5.54,0,0,0-.85.58s-.08.06-.12,0a.45.45,0,0,1-.06-.12s0,0,0,0a.85.85,0,0,1,.16-.46l.16-.21a.17.17,0,0,0,0-.21.24.24,0,0,0-.2-.15h-.23a21.22,21.22,0,0,0-2.63.44c-.29.07-.58.18-.86.27a.29.29,0,0,0-.19.18,1.86,1.86,0,0,0-.1.25c-.35,1-.66,2.07-1,3.11l-.06.26a.22.22,0,0,0,.22.23h.13l.26-.07c.86-.25,1.73-.43,2.6-.61a2.46,2.46,0,0,1,.81-.05.21.21,0,0,1,.2.21.75.75,0,0,1-.42.73,2,2,0,0,1-.55.22l-.7.17a11.44,11.44,0,0,0-1.31.34A17.13,17.13,0,0,0,42.4,18a.44.44,0,0,0-.25.25c-.07.18-.13.36-.19.54l-1.05,2.95a.59.59,0,0,1,0,.08c-.12.33-.12.34.17.56a1.06,1.06,0,0,1,.37.6,2,2,0,0,1,0,1,2.85,2.85,0,0,1-.59,1.24,1.71,1.71,0,0,1-.39.37,1.48,1.48,0,0,1-1.59.05.65.65,0,0,1-.37-.74c0-.1,0-.21.07-.31.5-1.69,1-3.4,1.56-5.08l0-.13a.21.21,0,0,0-.06-.2l-.14-.11a.4.4,0,0,1-.14-.32v-.09a4,4,0,0,1,.37-1,.37.37,0,0,1,.19-.18l.34-.14a.44.44,0,0,0,.25-.3l.27-.85c.23-.74.47-1.47.7-2.21,0-.1.06-.2.08-.3a.4.4,0,0,0,0-.26s-.07-.07-.11-.07a.41.41,0,0,0-.22,0l-.35.2-.94.54s-.11,0-.11,0,0,0,0,0a15.93,15.93,0,0,1,.08-1.69,8.66,8.66,0,0,1,.12-.89c0-.11.06-.23.08-.34a1.07,1.07,0,0,1,.5-.72,4.34,4.34,0,0,1,.46-.28,15.87,15.87,0,0,1,1.82-.69,12,12,0,0,1,1.19-.25l2-.34c.26,0,.53-.06.81-.09a5.47,5.47,0,0,1,1.61.15A1,1,0,0,1,49,9a.35.35,0,0,1,.15.17,1.56,1.56,0,0,1,.08.48C49.26,10,49.27,10.31,49.27,10.6Z" transform="translate(-30.99 0.66)"/><path class="cls-1" d="M39.6,26.82a2.65,2.65,0,0,1-1.18-.3,1.61,1.61,0,0,1-.87-1.75c0-.15.06-.3.1-.44l.24-.82c.38-1.3.78-2.63,1.21-3.94a1.37,1.37,0,0,1-.24-.8h0a1.59,1.59,0,0,1,0-.27,5,5,0,0,1,.45-1.25,1.35,1.35,0,0,1,.64-.61l.15-.06c.07-.22.14-.44.2-.65s.19-.6.29-.9a1,1,0,0,1-.89-.11,1,1,0,0,1-.42-.65,1,1,0,0,1,0-.24c0-.08,0-.15,0-.22a12.45,12.45,0,0,1,.08-1.59c0-.07,0-.15,0-.24a6.07,6.07,0,0,1,.12-.75v-.06c0-.08,0-.17.06-.24a2.05,2.05,0,0,1,.89-1.33,3.91,3.91,0,0,1,.61-.35A15.18,15.18,0,0,1,43,8.51a12.29,12.29,0,0,1,1.22-.27h.06l2-.34c.31,0,.62-.07.87-.1A6.41,6.41,0,0,1,49,8a1.75,1.75,0,0,1,.43.17,1.19,1.19,0,0,1,.59.69,2.38,2.38,0,0,1,.14.81v1c0,.13,0,.25,0,.36,0,.29,0,.57,0,.84a1.34,1.34,0,0,1-.55,1l0,0c-.08.05-.16.12-.28.19a6.14,6.14,0,0,0-.73.49,1,1,0,0,1-1.37-.08,1.31,1.31,0,0,1-.21-.35h0a1.3,1.3,0,0,1-.09-.4A13.81,13.81,0,0,0,45.3,13c-.17,0-.34.1-.52.16-.22.66-.43,1.33-.63,2,.53-.12,1.06-.24,1.57-.34l.2,0a3.2,3.2,0,0,1,1.1-.07,1.17,1.17,0,0,1,1,1.11,1.7,1.7,0,0,1-.9,1.61,2.92,2.92,0,0,1-.78.32l-.23.05a4.21,4.21,0,0,1-.51.12,11.76,11.76,0,0,0-1.21.32,14.46,14.46,0,0,0-1.46.55,1.43,1.43,0,0,0-.08.22l-1,2.84a2.16,2.16,0,0,1,.45.88,3.09,3.09,0,0,1,0,1.48,3.88,3.88,0,0,1-.79,1.63,2.38,2.38,0,0,1-.6.55A2.35,2.35,0,0,1,39.6,26.82Zm-.19-1.94a.55.55,0,0,0,.52-.08.77.77,0,0,0,.19-.18,2,2,0,0,0,.39-.85,1,1,0,0,0,0-.55s0-.06,0-.07a1.94,1.94,0,0,1-.43-.43c-.13.45-.26.9-.4,1.34Zm1.35-6.3a1.17,1.17,0,0,1,.19.3l.18-.51c0-.07,0-.15.08-.23l-.16.09-.18.07Zm-.08.29ZM42,16.62l-.19.61.19-.1L42.3,17,42.24,17A1.32,1.32,0,0,1,42,16.62Zm4.22-.85Zm-4.53-3.36h.18a1.07,1.07,0,0,1,.79.5,1.43,1.43,0,0,1,.13.28c.08-.23.15-.47.23-.7a2.52,2.52,0,0,1,.13-.33,1.22,1.22,0,0,1,.75-.69l.21-.07.71-.22a22.86,22.86,0,0,1,2.75-.46H48a1.14,1.14,0,0,1,.33.07l0-.22V9.76a4.45,4.45,0,0,0-1.06-.07,6.77,6.77,0,0,0-.74.09c-.75.11-1.37.22-1.95.32h-.06a10,10,0,0,0-1,.23,13.23,13.23,0,0,0-1.7.65,2.3,2.3,0,0,0-.33.19c-.09.06-.09.09-.09.11s-.06.25-.08.35l0,0a3,3,0,0,0-.06.48c0,.09,0,.19,0,.29v.08l.07,0A1.22,1.22,0,0,1,41.73,12.41Z" transform="translate(-30.99 0.66)"/><path class="cls-1" d="M55.8,9.32l-.59,0a4.08,4.08,0,0,0-1.2.2,5.73,5.73,0,0,0-1.32.57l-1,.63-.21.16c-.07,0-.06.17,0,.25a.59.59,0,0,0,.26.17,2,2,0,0,1,.6.3.74.74,0,0,1,.13.12.06.06,0,0,1,0,0s0,.05-.05.05a.92.92,0,0,1-.4-.08,1.14,1.14,0,0,0-.48-.09H50.9a.81.81,0,0,1-.4-.09.28.28,0,0,1-.11-.13,1.09,1.09,0,0,1,0-.26c0-.2,0-.39,0-.58l.06-.53c0-.39.07-.77.11-1.16A1.25,1.25,0,0,1,51.08,8a7,7,0,0,1,3-1.34,14.55,14.55,0,0,1,2.29-.21,5.57,5.57,0,0,1,1.22.14,1,1,0,0,1,.87.85c.12.49.24,1,.34,1.48a1.63,1.63,0,0,1,0,.66,4.72,4.72,0,0,1-.29.9c-.68,1.5-1.31,3-2,4.56s-1.26,3-1.89,4.44l-.15.37a1.62,1.62,0,0,0-.06.58.45.45,0,0,0,.55.39.81.81,0,0,0,.33-.14l.58-.44a1.6,1.6,0,0,1,.19-.11s0,0,0,0a.08.08,0,0,1,0,0,2.28,2.28,0,0,1-.3.7,5.51,5.51,0,0,1-.59.84c-.26.31-.53.61-.8.91a2.75,2.75,0,0,1-.6.48,1.17,1.17,0,0,1-.68.19.84.84,0,0,1-.71-.42,1.12,1.12,0,0,1-.18-.5,2.36,2.36,0,0,1,0-.75,7.63,7.63,0,0,1,.26-.81q1.26-3.26,2.57-6.48l1.72-4.27c.07-.17.13-.33.19-.5a.22.22,0,0,0-.13-.22.81.81,0,0,0-.31-.05l-.81,0Z" transform="translate(-30.99 0.66)"/><path class="cls-1" d="M53.23,24.23h-.11a1.78,1.78,0,0,1-1.43-.84,2.18,2.18,0,0,1-.33-.91,3.31,3.31,0,0,1,.06-1.09,6.13,6.13,0,0,1,.3-.94c.75-2,1.59-4.09,2.57-6.5l.46-1.14,1-2.54H55.2a3.08,3.08,0,0,0-.93.16,4.62,4.62,0,0,0-1.11.48L53,11l0,0v0a1,1,0,0,1,.27.6,1,1,0,0,1-.18.71,1,1,0,0,1-.69.4,1.7,1.7,0,0,1-.81-.14.3.3,0,0,0-.16,0h-.62a1.8,1.8,0,0,1-.79-.19,1.2,1.2,0,0,1-.56-.69,1.68,1.68,0,0,1-.08-.59c0-.2,0-.39,0-.57V10.5l0-.3a1.94,1.94,0,0,0,0-.24c0-.15,0-.3.05-.46s0-.46.06-.7a2.25,2.25,0,0,1,.88-1.58,8,8,0,0,1,3.36-1.5,13.77,13.77,0,0,1,2.44-.23,6.3,6.3,0,0,1,1.42.15,2,2,0,0,1,1.59,1.57c.11.47.23,1,.34,1.49a2.52,2.52,0,0,1,0,1.06,5.34,5.34,0,0,1-.35,1.11c-.61,1.35-1.2,2.74-1.76,4.09l-.19.44c-.42,1-.86,2-1.28,3-.11.27-.22.53-.34.8a.93.93,0,0,1,1,.18,1,1,0,0,1,.31,1,3.29,3.29,0,0,1-.4,1,6.81,6.81,0,0,1-.69,1c-.26.31-.52.6-.84.94a3.13,3.13,0,0,1-.8.65A2.08,2.08,0,0,1,53.23,24.23Zm0-1.9a.31.31,0,0,0,.17-.06,1.76,1.76,0,0,0,.39-.32l.36-.4-.08-.06a1.38,1.38,0,0,1-.48-.72l-.15.38a5.82,5.82,0,0,0-.22.67,1.23,1.23,0,0,0,0,.43A.26.26,0,0,0,53.22,22.33ZM56.53,21h0Zm-4.78-8.55h0Zm1.58-.8v0Zm3.1-4.22h-.06a11.58,11.58,0,0,0-2.15.19,6.06,6.06,0,0,0-2.6,1.17.33.33,0,0,0-.14.24l-.06.68v.1l.24-.15.57-.34a7,7,0,0,1,1.53-.67,6.68,6.68,0,0,1,1.08-.22h.37l.8,0,.58,0a1.55,1.55,0,0,1,.69.12,1.17,1.17,0,0,1,.6.58c-.11-.46-.22-.93-.32-1.37,0-.1,0-.12-.17-.15A4.63,4.63,0,0,0,56.43,7.39Z" transform="translate(-30.99 0.66)"/><path class="cls-1" d="M44.45,21.54a2,2,0,0,1,.2-.84,19.72,19.72,0,0,1,1.11-2.14c.21-.32.41-.66.62-1a.68.68,0,0,1,.87-.27.38.38,0,0,1,.25.39.6.6,0,0,1-.09.34c0,.07-.08.16-.13.23-.4.69-.75,1.39-1.11,2.1a3.24,3.24,0,0,0-.29.75,1.34,1.34,0,0,0,0,.66.5.5,0,0,0,.73.3,1.12,1.12,0,0,0,.44-.37,8,8,0,0,0,.57-.86c.49-.91,1-1.82,1.46-2.72.09-.17.18-.34.29-.51l.26-.36a.81.81,0,0,1,.14-.12.35.35,0,0,1,.38,0,.38.38,0,0,1,.21.32,1.09,1.09,0,0,1,0,.26,2.46,2.46,0,0,1-.14.38c-.13.33-.27.66-.41,1l-.57,1.31a3.15,3.15,0,0,0-.26,1,1,1,0,0,0,.14.6.8.8,0,0,0,.15.17.32.32,0,0,0,.3.07,2.22,2.22,0,0,0,.95-.49c.39-.33.79-.64,1.19-1a.08.08,0,0,1,.08,0,.1.1,0,0,1,0,.07.78.78,0,0,1,0,.22,1.36,1.36,0,0,1-.3.6A18.5,18.5,0,0,1,50.22,23a3.94,3.94,0,0,1-1.07.74,1.14,1.14,0,0,1-.3.09.43.43,0,0,1-.4-.16.85.85,0,0,1-.15-.37,3.18,3.18,0,0,1,0-1c0-.11,0-.21,0-.31a.38.38,0,0,0-.09-.25.22.22,0,0,0-.32,0,2.49,2.49,0,0,0-.15.28c-.1.26-.19.53-.29.79a2.41,2.41,0,0,1-.36.67,1.05,1.05,0,0,1-1,.41l-.27-.05a1.26,1.26,0,0,1-.76-.44A2.57,2.57,0,0,1,44.45,21.54Z" transform="translate(-30.99 0.66)"/><path class="cls-1" d="M46.24,24.83h-.19l-.3-.05h-.06A2.18,2.18,0,0,1,44.4,24a3.6,3.6,0,0,1-.87-2.48,2.85,2.85,0,0,1,.3-1.27l.23-.48A15.06,15.06,0,0,1,45,18c.09-.14.18-.28.27-.44s.22-.36.35-.55a1.58,1.58,0,0,1,1.94-.62,1.33,1.33,0,0,1,.85,1,3.35,3.35,0,0,1,.21-.36,3.64,3.64,0,0,1,.3-.41l0,0a1.78,1.78,0,0,1,.35-.32,1.25,1.25,0,0,1,1.3-.09,1.34,1.34,0,0,1,.71,1.14,2,2,0,0,1-.07.55,3.7,3.7,0,0,1-.17.5c-.13.32-.27.65-.42,1l-.25.57-.32.74-.06.14.85-.69.27-.21a1,1,0,0,1,1.06-.11,1,1,0,0,1,.55.92v0a1.75,1.75,0,0,1-.05.46,2.36,2.36,0,0,1-.5,1l-.09.11a17.71,17.71,0,0,1-1.27,1.35,5,5,0,0,1-1.31.9,1.8,1.8,0,0,1-.58.17,1.34,1.34,0,0,1-1.21-.52l0-.05A1.92,1.92,0,0,1,46.24,24.83Zm4.66-4Z" transform="translate(-30.99 0.66)"/><path class="cls-1" d="M64,18.27a4.6,4.6,0,0,1-1,.92,2.23,2.23,0,0,1-.65.29,1.24,1.24,0,0,1-.27,0,.55.55,0,0,1-.49-.27.63.63,0,0,1-.1-.29,1.62,1.62,0,0,1,0-.62,6.77,6.77,0,0,1,.22-.77c.16-.48.34-1,.51-1.43l.18-.55a1.92,1.92,0,0,0,.07-.75,1,1,0,0,0-.22-.54.87.87,0,0,0-.52-.33,1.35,1.35,0,0,0-.84.09,5.49,5.49,0,0,0-1.12.66,12.61,12.61,0,0,0-1.52,1.4,5.56,5.56,0,0,0-.64.81,4.05,4.05,0,0,0-.65,1.51,2.9,2.9,0,0,0,.17,1.79,2.1,2.1,0,0,0,1.14,1.09,1.23,1.23,0,0,0,1.53-.49,2.17,2.17,0,0,0,.19-.41,5.84,5.84,0,0,0,.2-.59c0-.11.07-.23.11-.34a.63.63,0,0,1,.16-.26.25.25,0,0,1,.41.08.57.57,0,0,1,0,.18,1.22,1.22,0,0,1,0,.26,2,2,0,0,0,.07,1.1.41.41,0,0,0,.48.31A1.31,1.31,0,0,0,62,21a3.15,3.15,0,0,0,.94-.76,10.74,10.74,0,0,0,.89-1.34,1.8,1.8,0,0,0,.22-.49C64.11,18.28,64.07,18.25,64,18.27ZM60.6,16.79a4.6,4.6,0,0,1-.19.52c-.17.37-.35.74-.54,1.1a5.29,5.29,0,0,1-.36.6,2.61,2.61,0,0,1-.22.27.71.71,0,0,1-.48.19.41.41,0,0,1-.37-.17.85.85,0,0,1-.18-.63,3,3,0,0,1,.34-1.09,9.6,9.6,0,0,1,.59-.83,4.29,4.29,0,0,1,.54-.59,1.21,1.21,0,0,1,.39-.24.65.65,0,0,1,.2-.05.33.33,0,0,1,.36.27.46.46,0,0,1,0,.1A1.59,1.59,0,0,1,60.6,16.79Z" transform="translate(-30.99 0.66)"/><path class="cls-1" d="M58.71,22.36a2.2,2.2,0,0,1-.83-.17,3,3,0,0,1-1.61-1.58A3.8,3.8,0,0,1,56,18.23a5.28,5.28,0,0,1,.79-1.86,9,9,0,0,1,.73-.92A14.35,14.35,0,0,1,59.2,14a6.26,6.26,0,0,1,1.32-.78A2.3,2.3,0,0,1,61.91,13,1.88,1.88,0,0,1,63,13.7a2,2,0,0,1,.4,1.05,2.63,2.63,0,0,1-.11,1.13c0,.06,0,.11,0,.16l-.14.41-.19.54-.31.88c-.05.16-.11.33-.16.54l.05,0a3.88,3.88,0,0,0,.84-.74l.2-.23.28-.06a1,1,0,0,1,1,.28,1,1,0,0,1,.23.95,2.43,2.43,0,0,1-.28.71l0,.05a11,11,0,0,1-1,1.47,3.9,3.9,0,0,1-1.21,1,2.42,2.42,0,0,1-1,.3,1.34,1.34,0,0,1-1.13-.46A2.2,2.2,0,0,1,58.71,22.36Zm-.18-2,.08,0a.39.39,0,0,0,.28,0h0A1.13,1.13,0,0,1,58.53,20.4Zm4.65-2.22Zm-2.75-1.37Zm0,0Zm.51-1.75a1.27,1.27,0,0,1,.48.47l0-.09.06-.17a1.23,1.23,0,0,0,0-.36v0a.46.46,0,0,0-.3,0Zm.59-.16Z" transform="translate(-30.99 0.66)"/><path class="cls-5" d="M49.26,10.6c0,.43,0,.82-.06,1.21a.39.39,0,0,1-.16.3l-.22.16a6.17,6.17,0,0,0-.86.58s-.08.06-.12,0a.45.45,0,0,1-.06-.12s0,0,0,0a.85.85,0,0,1,.16-.46l.17-.21a.2.2,0,0,0,0-.21.27.27,0,0,0-.21-.15h-.22a21.38,21.38,0,0,0-2.64.44c-.29.07-.57.18-.86.27a.31.31,0,0,0-.19.18,1.86,1.86,0,0,0-.1.25c-.35,1-.65,2.07-1,3.11a2,2,0,0,0-.07.26.22.22,0,0,0,.22.23h.13l.27-.07c.85-.25,1.72-.43,2.59-.61a2.5,2.5,0,0,1,.82-.05.21.21,0,0,1,.19.21.75.75,0,0,1-.42.73,2.11,2.11,0,0,1-.54.22l-.71.17a12,12,0,0,0-1.31.34,18.1,18.1,0,0,0-1.73.66.4.4,0,0,0-.24.25c-.07.18-.14.36-.2.54L40.9,21.75a.59.59,0,0,1,0,.08c-.11.33-.12.34.17.56a1.06,1.06,0,0,1,.37.6,2.16,2.16,0,0,1,0,1,3,3,0,0,1-.59,1.24,2,2,0,0,1-.4.37,1.48,1.48,0,0,1-1.59.05.65.65,0,0,1-.37-.74c0-.1,0-.21.07-.31.51-1.69,1-3.4,1.56-5.08a.5.5,0,0,0,0-.13.21.21,0,0,0-.06-.2l-.14-.11a.4.4,0,0,1-.14-.32.28.28,0,0,1,0-.09,3.63,3.63,0,0,1,.36-1,.35.35,0,0,1,.2-.18l.33-.14a.49.49,0,0,0,.26-.3c.08-.28.17-.56.26-.85.23-.74.47-1.47.7-2.21,0-.1.06-.2.08-.3a.34.34,0,0,0,0-.26.16.16,0,0,0-.11-.07.41.41,0,0,0-.22,0l-.35.2-.94.54s-.11,0-.1,0,0,0,0,0a13.65,13.65,0,0,1,.07-1.69,8.66,8.66,0,0,1,.12-.89c0-.11.06-.23.08-.34a1.07,1.07,0,0,1,.5-.72,3.64,3.64,0,0,1,.47-.28,16.45,16.45,0,0,1,1.81-.69,12,12,0,0,1,1.19-.25l2-.34c.27,0,.54-.06.81-.09a5.54,5.54,0,0,1,1.62.15L49,9a.35.35,0,0,1,.15.17,1.56,1.56,0,0,1,.08.48Z" transform="translate(-30.99 0.66)"/><path class="cls-5" d="M39.6,26.15a2,2,0,0,1-.9-.23.94.94,0,0,1-.52-1.05,3.38,3.38,0,0,1,.08-.34l.24-.83c.42-1.4.84-2.85,1.32-4.26a.14.14,0,0,1,0-.06l0,0-.06-.05a.68.68,0,0,1-.25-.54h0a.62.62,0,0,1,0-.13,4.31,4.31,0,0,1,.39-1.08.65.65,0,0,1,.34-.31l.16-.07.17-.07a.17.17,0,0,0,.1-.12l.27-.85h0l.3-.94.4-1.27c0-.1,0-.19.07-.26h0l-.2.11-.12.07-1,.54a.34.34,0,0,1-.36,0,.36.36,0,0,1-.15-.23s0,0,0-.09V13.8A12.79,12.79,0,0,1,40,12.3L40,12a4.07,4.07,0,0,1,.1-.66v-.05c0-.1,0-.19.06-.28a1.38,1.38,0,0,1,.62-.9,3.43,3.43,0,0,1,.51-.3,14,14,0,0,1,1.85-.7,9.61,9.61,0,0,1,1.16-.25h.06c.59-.11,1.21-.22,2-.34l.83-.09a5.49,5.49,0,0,1,1.7.15,1.09,1.09,0,0,1,.27.11.59.59,0,0,1,.28.32,1.81,1.81,0,0,1,.1.58c0,.25,0,.49,0,.72v.28c0,.12,0,.24,0,.36,0,.29,0,.57,0,.84a.68.68,0,0,1-.28.52l-.05,0a1.73,1.73,0,0,1-.2.15,6.47,6.47,0,0,0-.82.55.33.33,0,0,1-.49,0,.44.44,0,0,1-.1-.17v0a.35.35,0,0,1,0-.18,1.18,1.18,0,0,1,.22-.61A.76.76,0,0,0,47.8,12h-.06a21.33,21.33,0,0,0-2.6.43l-.63.2-.22.07,0,0a1.65,1.65,0,0,0-.09.22c-.27.8-.52,1.62-.76,2.41l-.21.69,0,.12.24-.07c.8-.23,1.63-.4,2.43-.57l.19,0a2.53,2.53,0,0,1,.9,0,.49.49,0,0,1,.44.47,1.06,1.06,0,0,1-.57,1,2.45,2.45,0,0,1-.61.25l-.25.06-.47.11a11.08,11.08,0,0,0-1.28.33c-.52.17-1.08.38-1.7.65a.22.22,0,0,0-.1.09c0,.15-.1.3-.16.44l-1.08,3.05,0,.06v0h0l0,.13a.54.54,0,0,0,.12.09,1.39,1.39,0,0,1,.47.76,2.36,2.36,0,0,1,0,1.15A3.24,3.24,0,0,1,41,25.43a2.54,2.54,0,0,1-.46.42A1.75,1.75,0,0,1,39.6,26.15Zm.45-7.42v0c0,.06,0,.08,0,.09l0,0,.13.1a.57.57,0,0,1,.14.46,1.21,1.21,0,0,1,0,.18c-.47,1.4-.9,2.84-1.31,4.24l-.24.83a1.1,1.1,0,0,0-.06.26.37.37,0,0,0,.22.45,1.21,1.21,0,0,0,1.31,0,1.62,1.62,0,0,0,.34-.31,2.76,2.76,0,0,0,.53-1.13,1.83,1.83,0,0,0,0-.87.74.74,0,0,0-.27-.44c-.37-.3-.42-.44-.26-.88h0a.14.14,0,0,1,0-.06v0l1.09-3c.05-.14.1-.3.16-.45a.73.73,0,0,1,.39-.4A16.15,16.15,0,0,1,44,17.08a10,10,0,0,1,1.34-.35l.44-.11.25-.06a1.72,1.72,0,0,0,.47-.19.49.49,0,0,0,.29-.41,2.32,2.32,0,0,0-.68.05l-.19,0c-.79.16-1.61.33-2.39.56l-.27.08-.18,0a.48.48,0,0,1-.4-.19.44.44,0,0,1-.11-.39c0-.11,0-.2.07-.29l.21-.69c.25-.8.5-1.62.77-2.43,0-.1.07-.19.11-.27a.59.59,0,0,1,.36-.33l.21-.07c.22-.08.44-.15.67-.21a21,21,0,0,1,2.66-.44,1.4,1.4,0,0,1,.28,0,.53.53,0,0,1,.43.3.48.48,0,0,1-.05.52l0,0,.38-.24.15-.1,0,0a.08.08,0,0,0,.05-.08c0-.28,0-.56,0-.85,0-.12,0-.23,0-.36v-.25c0-.23,0-.48,0-.72a1.46,1.46,0,0,0-.07-.39h0l-.14-.06A5.06,5.06,0,0,0,47.23,9c-.24,0-.51,0-.79.09-.75.12-1.37.22-2,.33h-.06a8.66,8.66,0,0,0-1.1.24,11.44,11.44,0,0,0-1.78.68,2.3,2.3,0,0,0-.43.25.79.79,0,0,0-.37.53c0,.11-.05.21-.08.32v0a5.4,5.4,0,0,0-.08.58l0,.27a9.88,9.88,0,0,0-.07,1.33l.64-.37.11-.06a2.2,2.2,0,0,1,.26-.15.76.76,0,0,1,.36,0,.45.45,0,0,1,.31.2.67.67,0,0,1,.09.47c0,.1-.05.21-.09.34-.13.42-.26.84-.4,1.27l-.3.94h0c-.09.27-.18.56-.26.84a.74.74,0,0,1-.41.47l-.18.08-.15.06-.07,0A3.56,3.56,0,0,0,40.05,18.73Zm.42-4.63Zm0-.07h0Zm1.23-.38Zm6.2-1.79Z" transform="translate(-30.99 0.66)"/><path class="cls-5" d="M55.79,9.32l-.59,0a4.08,4.08,0,0,0-1.2.2,5.73,5.73,0,0,0-1.32.57l-1,.63-.22.16a.21.21,0,0,0,0,.25.59.59,0,0,0,.26.17,1.88,1.88,0,0,1,.6.3.74.74,0,0,1,.13.12.06.06,0,0,1,0,0s0,.05,0,.05a.85.85,0,0,1-.39-.08,1.18,1.18,0,0,0-.49-.09h-.59a.75.75,0,0,1-.39-.09.2.2,0,0,1-.11-.13.75.75,0,0,1,0-.26c0-.2,0-.39,0-.58s0-.36.05-.53c0-.39.07-.77.11-1.16A1.25,1.25,0,0,1,51.07,8a7.13,7.13,0,0,1,3-1.34,14.79,14.79,0,0,1,2.3-.21,5.55,5.55,0,0,1,1.21.14,1.05,1.05,0,0,1,.88.85c.11.49.23,1,.34,1.48a1.63,1.63,0,0,1,0,.66,4.08,4.08,0,0,1-.28.9c-.69,1.5-1.32,3-2,4.56s-1.25,3-1.88,4.44a3.59,3.59,0,0,0-.15.37,1.27,1.27,0,0,0-.06.58.44.44,0,0,0,.54.39.75.75,0,0,0,.33-.14l.58-.44.19-.11s0,0,0,0,0,0,0,0a2.53,2.53,0,0,1-.29.7,5.57,5.57,0,0,1-.6.84c-.26.31-.53.61-.8.91a2.48,2.48,0,0,1-.59.48,1.2,1.2,0,0,1-.69.19.85.85,0,0,1-.71-.42,1.12,1.12,0,0,1-.18-.5,2.11,2.11,0,0,1,0-.75,5.87,5.87,0,0,1,.26-.81c.83-2.17,1.69-4.33,2.56-6.48l1.72-4.27c.07-.17.13-.33.19-.5a.21.21,0,0,0-.12-.22.84.84,0,0,0-.31-.05l-.82,0Z" transform="translate(-30.99 0.66)"/><path class="cls-5" d="M53.22,23.56h-.08a1.09,1.09,0,0,1-.92-.54A1.4,1.4,0,0,1,52,22.4a2.48,2.48,0,0,1,0-.86,5.92,5.92,0,0,1,.27-.84c.75-2,1.59-4.09,2.56-6.49l.46-1.14L56.6,9.94c0-.12.09-.25.13-.37h-.11l-.54,0h-.46l-.42,0h0a3.94,3.94,0,0,0-1.11.18,5.29,5.29,0,0,0-1.26.55l-.58.34-.46.28-.07,0,0,0a1.94,1.94,0,0,1,.69.34.89.89,0,0,1,.14.13l0,0a.45.45,0,0,1,.09.2.34.34,0,0,1-.06.24.3.3,0,0,1-.24.13.93.93,0,0,1-.52-.1,1.16,1.16,0,0,0-.38-.06h-.61a1.28,1.28,0,0,1-.51-.12.61.61,0,0,1-.25-.3,1.11,1.11,0,0,1,0-.36,4.73,4.73,0,0,1,0-.54v-.06l0-.28,0-.25c0-.15,0-.31,0-.46s0-.46.07-.7a1.53,1.53,0,0,1,.61-1.11A7.49,7.49,0,0,1,54,6.37a13.69,13.69,0,0,1,2.34-.21,5.64,5.64,0,0,1,1.27.14,1.35,1.35,0,0,1,1.1,1.06c.11.47.22,1,.34,1.49a1.87,1.87,0,0,1,0,.78,4.68,4.68,0,0,1-.3,1c-.62,1.35-1.2,2.75-1.77,4.1l-.18.45-1.28,3c-.21.48-.41.95-.61,1.43,0,.12-.1.24-.14.35a1.08,1.08,0,0,0,0,.45.15.15,0,0,0,.06.11.21.21,0,0,0,.16,0,.56.56,0,0,0,.22-.09l.58-.44.18-.11,0,0a.3.3,0,0,1,.35,0,.32.32,0,0,1,.1.31,2.84,2.84,0,0,1-.32.78,6.4,6.4,0,0,1-.63.89c-.25.29-.5.58-.81.91a2.89,2.89,0,0,1-.66.54A1.45,1.45,0,0,1,53.22,23.56ZM56.65,9a.87.87,0,0,1,.37.07.49.49,0,0,1,.28.58l-.19.51-1.27,3.13-.46,1.14c-1,2.4-1.8,4.52-2.56,6.48a6.12,6.12,0,0,0-.24.76,2.06,2.06,0,0,0,0,.66,1.09,1.09,0,0,0,.14.38.58.58,0,0,0,.49.28,1,1,0,0,0,.54-.15,2.38,2.38,0,0,0,.53-.43c.3-.33.55-.61.79-.9a5.69,5.69,0,0,0,.47-.63l0,0a1,1,0,0,1-.44.19.74.74,0,0,1-.6-.14.71.71,0,0,1-.28-.51,1.59,1.59,0,0,1,.08-.7l.15-.38c.21-.48.41-.95.61-1.43.42-1,.86-2,1.28-3l.19-.45c.56-1.35,1.15-2.75,1.77-4.11a4.24,4.24,0,0,0,.26-.83,1.47,1.47,0,0,0,0-.55c-.11-.5-.23-1-.34-1.47a.77.77,0,0,0-.67-.64,4.64,4.64,0,0,0-1.15-.13,13.69,13.69,0,0,0-2.25.2,6.84,6.84,0,0,0-2.87,1.29,1,1,0,0,0-.39.71c0,.23-.05.47-.07.7s0,.3,0,.45l0,.26,0,.28v.06a4.21,4.21,0,0,0,0,.5.71.71,0,0,0,0,.14.65.65,0,0,0,.26,0h.34l0,0a.47.47,0,0,1,0-.64,1.64,1.64,0,0,1,.25-.19l.47-.28.57-.34a6.09,6.09,0,0,1,1.38-.61,4.37,4.37,0,0,1,1.27-.21h.31L56,9l.58,0Zm-.44,11.37Zm-4-8.43Zm-.62-.82Z" transform="translate(-30.99 0.66)"/><path class="cls-5" d="M44.44,21.54a2,2,0,0,1,.2-.84,24.06,24.06,0,0,1,1.11-2.14c.22-.32.41-.66.62-1a.68.68,0,0,1,.87-.27.4.4,0,0,1,.26.39.7.7,0,0,1-.1.34c0,.07-.08.16-.13.23-.4.69-.75,1.39-1.11,2.1a3.22,3.22,0,0,0-.28.75,1.23,1.23,0,0,0,0,.66.49.49,0,0,0,.72.3,1.06,1.06,0,0,0,.44-.37,8,8,0,0,0,.57-.86c.49-.91,1-1.82,1.46-2.72.09-.17.19-.34.29-.51a4.22,4.22,0,0,1,.27-.36.5.5,0,0,1,.13-.12.35.35,0,0,1,.38,0,.38.38,0,0,1,.21.32,1.09,1.09,0,0,1,0,.26c0,.13-.08.26-.13.38l-.42,1-.57,1.31a3.14,3.14,0,0,0-.25,1,.89.89,0,0,0,.13.6,1.22,1.22,0,0,0,.15.17.33.33,0,0,0,.3.07,2.22,2.22,0,0,0,1-.49c.39-.33.79-.64,1.19-1a.08.08,0,0,1,.08,0,.1.1,0,0,1,0,.07.79.79,0,0,1,0,.22,1.48,1.48,0,0,1-.3.6A18.64,18.64,0,0,1,50.21,23a3.94,3.94,0,0,1-1.07.74,1,1,0,0,1-.3.09.41.41,0,0,1-.39-.16.76.76,0,0,1-.16-.37,3.18,3.18,0,0,1,0-1c0-.11,0-.21,0-.31a.38.38,0,0,0-.09-.25.2.2,0,0,0-.31,0,1.08,1.08,0,0,0-.15.28c-.11.26-.2.53-.3.79a2.67,2.67,0,0,1-.35.67,1.08,1.08,0,0,1-1,.41l-.27-.05a1.26,1.26,0,0,1-.76-.44A2.62,2.62,0,0,1,44.44,21.54Z" transform="translate(-30.99 0.66)"/><path class="cls-5" d="M46.23,24.16h-.14l-.22,0-.08,0a1.53,1.53,0,0,1-.92-.53,2.91,2.91,0,0,1-.71-2,2.19,2.19,0,0,1,.23-1l.24-.5a15.16,15.16,0,0,1,.9-1.68l.28-.45.33-.54A1,1,0,0,1,47.33,17a.68.68,0,0,1,.44.67,1,1,0,0,1-.13.48l-.07.12-.06.11c-.38.66-.73,1.35-1.07,2l0,.06a2.84,2.84,0,0,0-.26.68,1,1,0,0,0,0,.51c0,.11.08.13.1.14a.31.31,0,0,0,.25,0,.87.87,0,0,0,.33-.28l0-.06a7.21,7.21,0,0,0,.5-.77c.45-.85.93-1.74,1.46-2.72.09-.17.19-.35.3-.52a3.32,3.32,0,0,1,.26-.36l0,0a1.12,1.12,0,0,1,.2-.18.65.65,0,0,1,.66-.06.63.63,0,0,1,.35.57,1,1,0,0,1,0,.35,3.64,3.64,0,0,1-.15.42c-.13.31-.27.65-.42,1l-.24.57-.33.74a2.91,2.91,0,0,0-.23.9.66.66,0,0,0,.09.41.5.5,0,0,0,.1.11s0,0,0,0a2,2,0,0,0,.85-.43l.92-.75.27-.22a.36.36,0,0,1,.57.29v0a1,1,0,0,1,0,.28,1.65,1.65,0,0,1-.36.71l-.09.11a14.67,14.67,0,0,1-1.21,1.29,4.47,4.47,0,0,1-1.15.79,1.31,1.31,0,0,1-.38.12.7.7,0,0,1-.64-.28.93.93,0,0,1-.21-.51v0a3.14,3.14,0,0,1,0-1.06.68.68,0,0,0,0-.14v0c-.08.2-.15.4-.22.6l-.07.19a3.14,3.14,0,0,1-.4.75A1.31,1.31,0,0,1,46.23,24.16Zm.71-6.62a.38.38,0,0,0-.34.2c-.11.16-.22.34-.32.51l-.3.47a16.49,16.49,0,0,0-.85,1.61l-.24.5a1.65,1.65,0,0,0-.17.71h0a2.33,2.33,0,0,0,.56,1.65,1,1,0,0,0,.61.35l.09,0,.15,0a.82.82,0,0,0,.76-.31,1.94,1.94,0,0,0,.31-.59,1.46,1.46,0,0,0,.07-.19c.08-.2.15-.41.23-.61a1.74,1.74,0,0,1,.18-.33.45.45,0,0,1,.34-.2.48.48,0,0,1,.4.17.6.6,0,0,1,.16.45,1.88,1.88,0,0,1,0,.36,2.5,2.5,0,0,0,0,.86v.06a.5.5,0,0,0,.09.23.14.14,0,0,0,.15.06.79.79,0,0,0,.22-.07,4,4,0,0,0,1-.69c.41-.39.8-.83,1.17-1.25l.09-.11,0,0-.63.52a2.62,2.62,0,0,1-1.06.55.59.59,0,0,1-.54-.13.9.9,0,0,1-.21-.23,1.26,1.26,0,0,1-.18-.78A3.6,3.6,0,0,1,49,20.25c.1-.25.22-.5.32-.75s.17-.37.25-.56L50,18a1.56,1.56,0,0,0,.12-.34.52.52,0,0,0,0-.18s0-.05-.05-.08,0,0-.11,0l-.07.06,0,0a2,2,0,0,0-.23.3c-.1.16-.19.32-.28.49-.52,1-1,1.87-1.46,2.72a7,7,0,0,1-.54.83l0,.06a1.23,1.23,0,0,1-.56.46.82.82,0,0,1-.7,0,.79.79,0,0,1-.39-.49,1.58,1.58,0,0,1,0-.81,3.27,3.27,0,0,1,.31-.81l0-.06c.34-.68.69-1.38,1.09-2.06l.05-.09a1.09,1.09,0,0,1,.08-.15.41.41,0,0,0,0-.2.12.12,0,0,0-.07-.1A.59.59,0,0,0,46.94,17.54Z" transform="translate(-30.99 0.66)"/><path class="cls-5" d="M64,18.27a4.55,4.55,0,0,1-1,.92,2.29,2.29,0,0,1-.66.29,1.24,1.24,0,0,1-.27,0,.56.56,0,0,1-.49-.27.77.77,0,0,1-.1-.29,1.62,1.62,0,0,1,.05-.62c.07-.26.14-.52.22-.77l.51-1.43.18-.55a1.92,1.92,0,0,0,.07-.75,1.06,1.06,0,0,0-.21-.54.94.94,0,0,0-.52-.33,1.34,1.34,0,0,0-.84.09,5.31,5.31,0,0,0-1.13.66,13.42,13.42,0,0,0-1.52,1.4,5.56,5.56,0,0,0-.64.81,4.22,4.22,0,0,0-.65,1.51,2.9,2.9,0,0,0,.17,1.79,2.13,2.13,0,0,0,1.14,1.09,1.25,1.25,0,0,0,1.54-.49c.07-.13.13-.27.19-.41s.13-.39.2-.59.06-.23.1-.34a.65.65,0,0,1,.17-.26.24.24,0,0,1,.4.08.38.38,0,0,1,0,.18,1.22,1.22,0,0,1,0,.26,2,2,0,0,0,.07,1.1.41.41,0,0,0,.48.31A1.35,1.35,0,0,0,62,21a3,3,0,0,0,.93-.76,10.74,10.74,0,0,0,.89-1.34,1.8,1.8,0,0,0,.22-.49C64.1,18.28,64.06,18.25,64,18.27Zm-3.38-1.48a3.24,3.24,0,0,1-.19.52c-.17.37-.35.74-.53,1.1s-.24.4-.37.6a2.61,2.61,0,0,1-.22.27.71.71,0,0,1-.48.19.41.41,0,0,1-.37-.17.9.9,0,0,1-.18-.63,2.85,2.85,0,0,1,.35-1.09,7.73,7.73,0,0,1,.58-.83,4.37,4.37,0,0,1,.55-.59,1.07,1.07,0,0,1,.38-.24.84.84,0,0,1,.2-.05.33.33,0,0,1,.36.27l0,.1A1.86,1.86,0,0,1,60.59,16.79Z" transform="translate(-30.99 0.66)"/><path class="cls-5" d="M58.71,21.7a1.36,1.36,0,0,1-.58-.13,2.31,2.31,0,0,1-1.28-1.23,3.23,3.23,0,0,1-.19-2,4.64,4.64,0,0,1,.69-1.62,8.51,8.51,0,0,1,.67-.84,13,13,0,0,1,1.56-1.42,5.07,5.07,0,0,1,1.18-.71,1.65,1.65,0,0,1,1-.1,1.16,1.16,0,0,1,.68.44,1.21,1.21,0,0,1,.27.68,2.13,2.13,0,0,1-.08.87c0,.05,0,.11-.05.16l-.13.39c-.06.18-.13.36-.19.53l-.32.9c-.07.22-.14.46-.21.75a1.35,1.35,0,0,0,0,.51.56.56,0,0,0,.06.17.3.3,0,0,0,.26.15l.21,0a1.78,1.78,0,0,0,.57-.26,4.15,4.15,0,0,0,1-.86l.06-.06.09,0a.33.33,0,0,1,.36.09.36.36,0,0,1,.08.35,1.89,1.89,0,0,1-.22.52l0,.05a9.74,9.74,0,0,1-.92,1.38,3.26,3.26,0,0,1-1,.83,1.81,1.81,0,0,1-.77.22.68.68,0,0,1-.75-.51,2.25,2.25,0,0,1-.08-1.25.88.88,0,0,0,0-.21h0a.35.35,0,0,0-.07.12,1.89,1.89,0,0,0-.06.18s0,.1,0,.15l0,.14c-.05.15-.1.31-.16.47A2.49,2.49,0,0,1,60,21,1.5,1.5,0,0,1,58.71,21.7Zm2.71-7.48a1.2,1.2,0,0,0-.45.09,4.7,4.7,0,0,0-1.06.63,12.73,12.73,0,0,0-1.49,1.37,6.08,6.08,0,0,0-.61.77,3.93,3.93,0,0,0-.61,1.41,2.6,2.6,0,0,0,.15,1.61,1.87,1.87,0,0,0,1,.95,1,1,0,0,0,1.19-.38,2.92,2.92,0,0,0,.17-.36l.15-.44c0-.05,0-.09,0-.14l.05-.14.06-.21a1.1,1.1,0,0,1,.23-.37.54.54,0,0,1,.5-.14.5.5,0,0,1,.36.34.72.72,0,0,1,0,.28,1.87,1.87,0,0,1,0,.32,1.71,1.71,0,0,0,.06.94c0,.09,0,.13.21.12a1.2,1.2,0,0,0,.53-.15,2.85,2.85,0,0,0,.85-.69c.19-.25.36-.49.53-.74l-.22.14a2.52,2.52,0,0,1-.74.33,1.24,1.24,0,0,1-.33,0,.83.83,0,0,1-.72-.4,1,1,0,0,1-.14-.41,1.84,1.84,0,0,1,0-.73c.08-.31.15-.56.23-.8l.32-.9c.06-.18.13-.35.19-.53s.09-.26.13-.38a1.09,1.09,0,0,1,0-.17,1.53,1.53,0,0,0,0-.63.73.73,0,0,0-.15-.38.63.63,0,0,0-.36-.23Zm-2.65,5.54a.7.7,0,0,1-.56-.29,1.08,1.08,0,0,1-.23-.83,3,3,0,0,1,.38-1.2,8.12,8.12,0,0,1,.6-.87,5.48,5.48,0,0,1,.59-.63,1.29,1.29,0,0,1,.48-.29.62.62,0,0,1,.26-.06.59.59,0,0,1,.65.49,1,1,0,0,1,0,.12v0h0a2,2,0,0,1-.1.63h0a5.64,5.64,0,0,1-.21.56c-.2.44-.37.8-.54,1.12a6.41,6.41,0,0,1-.38.62,2.12,2.12,0,0,1-.26.31,1,1,0,0,1-.66.28Zm1.58-3.61h0l-.13,0a.93.93,0,0,0-.3.19,5,5,0,0,0-.51.55,9.4,9.4,0,0,0-.56.8,2.46,2.46,0,0,0-.3,1,.53.53,0,0,0,.12.41.15.15,0,0,0,.13.07.42.42,0,0,0,.3-.12,2.19,2.19,0,0,0,.2-.22c.12-.19.24-.38.34-.57s.33-.66.53-1.09c.06-.14.12-.3.18-.49a1.41,1.41,0,0,0,.08-.44h0a.13.13,0,0,0,0-.06A0,0,0,0,0,60.35,16.15Z" transform="translate(-30.99 0.66)"/><path class="cls-1" d="M91,23.65a7.62,7.62,0,0,1-2.55-.43l-.11-.06a6.43,6.43,0,0,1-3.37-6v-.47a.79.79,0,0,1-.65.33H79.65v5.75a.79.79,0,0,1-.79.78H75.39a.78.78,0,0,1-.79-.78V7.16a.8.8,0,0,1,.8-.78H89a.79.79,0,0,1,.56.23.76.76,0,0,1,.23.55s0,8.65,0,9.8a2.66,2.66,0,0,0,.47,1.74,2.56,2.56,0,0,0,1.82.82,2,2,0,0,0,2-1.35c.07-2.27,0-9.34,0-9.41A.77.77,0,0,1,94.58,8,.7.7,0,0,1,94.89,8a.82.82,0,0,1,.55.22l3,2.83a1.12,1.12,0,0,1,.16.22c.19.37,0,7.39,0,7.46a5.27,5.27,0,0,1-4.57,4.88,10.23,10.23,0,0,1-1.3.06H91ZM84.39,12.57a.83.83,0,0,1,.56.23l.06.07V10.81H79.57V12.6Z" transform="translate(-30.99 0.66)"/><path class="cls-1" d="M100.57,23.59a.79.79,0,0,1-.79-.78v-12H98.52a.83.83,0,0,1-.54-.21l-3-2.84a.78.78,0,0,1,.54-1.34h12.81a.78.78,0,0,1,.79.78V10a.78.78,0,0,1-.79.78h-3.51l0,12a.78.78,0,0,1-.79.78Z" transform="translate(-30.99 0.66)"/><path class="cls-1" d="M104.66,23.58a.79.79,0,0,1-.64-.33.76.76,0,0,1-.11-.7L109.27,7a.79.79,0,0,1,.75-.53h3.47a.79.79,0,0,1,.75.53l5.35,15.58a.78.78,0,0,1-.75,1h-3.17a.81.81,0,0,1-.75-.52l-1.09-3h-4.42l-1,3a.8.8,0,0,1-.75.53Zm8-7.43-1-2.92-1.08,2.91Z" transform="translate(-30.99 0.66)"/><path class="cls-8" d="M94.89,8.75s0,7.13,0,9.52c-.22,1.67-3.18,3.1-5.25.9A3.45,3.45,0,0,1,89,17c0-1.15,0-9.8,0-9.8H75.39v15.6h3.46V16.24h5.5l0-2.9-5.61,0V10h7v7.22a5.7,5.7,0,0,0,3,5.24,6.89,6.89,0,0,0,2.38.38c1.36,0,2.11,0,2.81-.06a4.5,4.5,0,0,0,3.89-4.15c.06-1.15.07-7.07.07-7.07Z" transform="translate(-30.99 0.66)"/><polygon class="cls-8" points="77.3 7.84 64.49 7.84 67.53 10.68 69.59 10.69 69.59 23.47 72.97 23.47 72.99 10.69 77.3 10.69 77.3 7.84"/><path class="cls-8" d="M113.49,7.21H110L104.66,22.8h3l1.19-3.54h5.54l1.29,3.53h3.17Zm-4,9.71,2.26-6.05,2,6.06Z" transform="translate(-30.99 0.66)"/><path class="cls-1" d="M139.75,26.55a.78.78,0,0,1-.79-.78v-2.2h-2.22a.83.83,0,0,1-.64-.31l-1.3-1.7-1.27,1.69a.79.79,0,0,1-.63.32H122.8a.77.77,0,0,1-.79-.77V9.15a.77.77,0,0,1,.79-.77h7.83a.78.78,0,0,1,.79.77v2.37a.79.79,0,0,1-.79.78h-4.48v1.43h6.9a.8.8,0,0,1,.63.3l1.22,1.57L136.11,14a.78.78,0,0,1,.63-.31h5.32a.8.8,0,0,1,.56.22,5.47,5.47,0,0,1,2.11-.39,4.79,4.79,0,0,1,4.92,5,5,5,0,0,1-5.19,5.19,5.2,5.2,0,0,1-1.37-.17v2.21a.78.78,0,0,1-.79.78ZM139,20.48v-3.1c0-.24,0-.47,0-.69l-1.54,1.85Zm5.29-3.31a1.15,1.15,0,0,0-1.11.73c0,.05,0,.13,0,.2v1.23a1.37,1.37,0,0,0,0,.28,1.1,1.1,0,0,0,1.06.53c.86,0,1.29-.52,1.29-1.54A1.25,1.25,0,0,0,144.25,17.17Zm-13.74,2.47a.79.79,0,0,1,.65.33l1.14-1.4-1-1.25a.79.79,0,0,1-.64.32h-4.49v2Z" transform="translate(-30.99 0.66)"/><path class="cls-1" d="M149.8,23.57a.79.79,0,0,1-.79-.78V17.28c0-.92,0-1.59-.07-2.17l0-.54a.76.76,0,0,1,.21-.59.79.79,0,0,1,.58-.25h2.4a.75.75,0,0,1,.46.15,3.86,3.86,0,0,1,1.54-.32,3.4,3.4,0,0,1,.73.08l.39.09a.78.78,0,0,1,.62.76v2.25a.76.76,0,0,1-.29.6.77.77,0,0,1-.5.18h-.15l-.61-.12a1.23,1.23,0,0,0-.28,0,.78.78,0,0,0-.81.68,1.79,1.79,0,0,0,0,.36v4.38a.79.79,0,0,1-.8.78Z" transform="translate(-30.99 0.66)"/><path class="cls-1" d="M159.5,23.72c-3.3,0-5.51-2-5.51-4.95a5.09,5.09,0,0,1,5.31-5.21,4.57,4.57,0,0,1,4.83,4.71,6.09,6.09,0,0,1,0,.73l-.06.43a.77.77,0,0,1-.68.67l-.17,0s.54,2,.54,2a.77.77,0,0,1-.47.93l-.43.16A9.17,9.17,0,0,1,159.5,23.72Z" transform="translate(-30.99 0.66)"/><path class="cls-1" d="M166.56,23.72a6.85,6.85,0,0,1-3-.64l-.4-.2a.77.77,0,0,1-.38-1l.75-2a.76.76,0,0,1,.74-.5,1,1,0,0,1,.33.06,3,3,0,0,1-1.5-2.52c0-2,1.79-3.42,4.25-3.42a6.09,6.09,0,0,1,2.69.6l.41.2a.77.77,0,0,1,.38,1l-.77,1.91a.82.82,0,0,1-.4.42,3.07,3.07,0,0,1,1.39,2.59C171.06,22.33,169.25,23.72,166.56,23.72Z" transform="translate(-30.99 0.66)"/><path class="cls-1" d="M173.56,23.72a6.79,6.79,0,0,1-3-.64l-.41-.2a.78.78,0,0,1-.38-1l.76-2a.82.82,0,0,1,.47-.46.84.84,0,0,1,.27,0,.81.81,0,0,1,.31.06A3,3,0,0,1,170.11,17c0-2,1.78-3.42,4.24-3.42a6.16,6.16,0,0,1,2.7.6l.41.2a.78.78,0,0,1,.37,1l-.77,1.91a.76.76,0,0,1-.39.42,3.07,3.07,0,0,1,1.39,2.59C178.06,22.33,176.25,23.72,173.56,23.72Z" transform="translate(-30.99 0.66)"/><path class="cls-9" d="M144.73,14.34a4.32,4.32,0,0,0-2.63.79l0-.62h-5.32l-1.36,1.76-.13.17-.34.47c-.16-.21-.31-.42-.49-.64l-1.37-1.76h-7.69v-3h5.26V9.15H122.8V22.78h10.1l1.63-2.17.27-.37c.17.23.34.46.53.7l1.41,1.84h3v3h2.55V22.4a4.42,4.42,0,0,0,6.56-3.86A4,4,0,0,0,144.73,14.34Zm-.48,2.05a2,2,0,0,1,2,2.21,2,2,0,0,1-2.09,2.32,1.86,1.86,0,0,1-1.84-1.15,2.12,2.12,0,0,1-.06-.44V18.08a1.47,1.47,0,0,1,.09-.4A1.9,1.9,0,0,1,144.25,16.39Zm-18.89,4V16.86h5.28V15.28l2.68,3.29L130.51,22v-1.6Zm11-1.88,3.26-3.93,0,.43c0,.63.07,1.4.07,2.35v5.35Z" transform="translate(-30.99 0.66)"/><path class="cls-9" d="M155,14.49l-.4-.09a2.38,2.38,0,0,0-.55-.06,3.08,3.08,0,0,0-2,.72l0-.55h-2.4l0,.53c.05.61.07,1.3.07,2.24v5.51h2.55V18.41a2.66,2.66,0,0,1,.06-.52,1.56,1.56,0,0,1,1.59-1.3,1.8,1.8,0,0,1,.43,0l.61.11Z" transform="translate(-30.99 0.66)"/><path class="cls-9" d="M159.3,14.34a4.28,4.28,0,0,0-4.52,4.43c0,2.53,1.85,4.17,4.72,4.17a8.52,8.52,0,0,0,3-.48l.43-.17-.53-1.9-.52.18a5.94,5.94,0,0,1-2.19.35,2.17,2.17,0,0,1-2.37-1.53h5.44l.46-.06,0-.44a4.41,4.41,0,0,0,.05-.62A3.78,3.78,0,0,0,159.3,14.34Zm-.12,1.95a1.63,1.63,0,0,1,1.21.42,1.54,1.54,0,0,1,.39.73h-3.33A1.78,1.78,0,0,1,159.18,16.29Z" transform="translate(-30.99 0.66)"/><path class="cls-9" d="M167.68,17.59c-1.19-.39-1.28-.57-1.28-.76s.38-.5.92-.5a3.23,3.23,0,0,1,1.51.36l.5.27.77-1.9-.41-.21a5.33,5.33,0,0,0-2.33-.51c-2,0-3.46,1.11-3.46,2.64,0,.79.45,1.88,2.62,2.54,1.23.38,1.23.65,1.23.86,0,.54-.88.58-1.15.58a4,4,0,0,1-1.8-.46l-.52-.28-.75,2,.4.2a6.11,6.11,0,0,0,2.63.55c2.25,0,3.71-1.05,3.71-2.68S168.88,18,167.68,17.59Z" transform="translate(-30.99 0.66)"/><path class="cls-9" d="M174.67,17.59c-1.18-.39-1.27-.57-1.27-.76s.37-.5.92-.5a3.21,3.21,0,0,1,1.5.36l.51.27.77-1.9-.41-.21a5.41,5.41,0,0,0-2.34-.51c-2,0-3.45,1.11-3.45,2.64,0,.79.45,1.88,2.61,2.54,1.24.38,1.24.65,1.24.86,0,.54-.88.58-1.16.58a4,4,0,0,1-1.79-.46l-.52-.28-.76,2,.41.2a6.11,6.11,0,0,0,2.63.55c2.25,0,3.7-1.05,3.7-2.68S175.88,18,174.67,17.59Z" transform="translate(-30.99 0.66)"/><path class="cls-1" d="M150.8,40.69a1,1,0,0,1-.94-1,1.11,1.11,0,0,1,0-.19h-1a.6.6,0,0,1-.47-.23.55.55,0,0,1-.07-.51l1.35-3.72a1.71,1.71,0,0,1-.35-.36.57.57,0,0,1,.09-.74l.3-.27a.58.58,0,0,1,.39-.15h.07a.56.56,0,0,1,.4.25c.08.11.15.11.18.11s.1,0,.18-.12a.58.58,0,0,1,.4-.24h.07a.58.58,0,0,1,.39.15l.3.27a.55.55,0,0,1,.09.73,1.72,1.72,0,0,1-.34.37l1.34,3.72a.55.55,0,0,1-.07.51.57.57,0,0,1-.47.23h-1a.58.58,0,0,1,0,.19A1,1,0,0,1,150.8,40.69Z" transform="translate(-30.99 0.66)"/><path class="cls-1" d="M153.51,39.54A.56.56,0,0,1,153,39v-2.6h-.5a.56.56,0,0,1-.57-.56v-.73a.56.56,0,0,1,.57-.56h2.91a.57.57,0,0,1,.57.56v.73a.57.57,0,0,1-.57.56h-.5V39a.56.56,0,0,1-.56.56Z" transform="translate(-30.99 0.66)"/><path class="cls-1" d="M77.33,39.62a2.58,2.58,0,0,1,0-5.15,2.26,2.26,0,0,1,2,1.15.55.55,0,0,1-.16.73.56.56,0,0,1,.28.48v1.49a.59.59,0,0,1-.13.36A2.56,2.56,0,0,1,77.33,39.62Z" transform="translate(-30.99 0.66)"/><path class="cls-1" d="M79.49,39.54a.56.56,0,0,1-.56-.56V35.09a.56.56,0,0,1,.56-.56h.78a.57.57,0,0,1,.57.56V39a.57.57,0,0,1-.57.56Z" transform="translate(-30.99 0.66)"/><path class="cls-1" d="M83.51,39.54a.56.56,0,0,1-.54-.38l-.1-.28h-.74l-.1.29a.58.58,0,0,1-.54.37H80.6a.58.58,0,0,1-.46-.23.55.55,0,0,1-.07-.51l1.41-3.9a.56.56,0,0,1,.53-.37h1a.56.56,0,0,1,.53.37l1.41,3.9a.58.58,0,0,1-.07.51.57.57,0,0,1-.47.23Z" transform="translate(-30.99 0.66)"/><path class="cls-1" d="M86.27,39.61A2.57,2.57,0,1,1,88.75,37,2.46,2.46,0,0,1,86.27,39.61Zm0-3.29c-.51,0-.53.6-.53.72,0,.33.14.72.53.72s.54-.39.54-.72S86.67,36.32,86.27,36.32Z" transform="translate(-30.99 0.66)"/><path class="cls-1" d="M92.62,39.54a.57.57,0,0,1-.57-.56V37.91h-.58V39a.57.57,0,0,1-.57.56h-.78a.57.57,0,0,1-.57-.56V35.09a.57.57,0,0,1,.57-.56h.78a.57.57,0,0,1,.57.56v1h.58v-1a.57.57,0,0,1,.57-.56h.78a.56.56,0,0,1,.57.56V39a.56.56,0,0,1-.57.56Z" transform="translate(-30.99 0.66)"/><path class="cls-1" d="M96.63,39.54a.57.57,0,0,1-.54-.38L96,38.88h-.75l-.1.29a.56.56,0,0,1-.53.37h-.89a.6.6,0,0,1-.47-.23.58.58,0,0,1-.07-.51l1.41-3.9a.57.57,0,0,1,.08-.13l-.47-.44a.56.56,0,0,1,.39-1h.64a.59.59,0,0,1,.43.19l.74.84a.51.51,0,0,1,.13.33.45.45,0,0,1,.11.17l1.4,3.9a.52.52,0,0,1-.07.51.55.55,0,0,1-.46.23Z" transform="translate(-30.99 0.66)"/><path class="cls-1" d="M100.37,39.54a.58.58,0,0,1-.47-.24l-.7-1V39a.56.56,0,0,1-.57.56h-.77a.56.56,0,0,1-.57-.56V35.09a.56.56,0,0,1,.57-.56h.79a.55.55,0,0,1,.47.25l.66.94v-.63a.56.56,0,0,1,.56-.56h.78a.57.57,0,0,1,.57.56V39a.57.57,0,0,1-.57.56Z" transform="translate(-30.99 0.66)"/><path class="cls-1" d="M103.61,39.62a2.58,2.58,0,0,1,0-5.15,2.26,2.26,0,0,1,2,1.15.55.55,0,0,1-.16.73.56.56,0,0,1,.28.48v1.49a.59.59,0,0,1-.13.36A2.56,2.56,0,0,1,103.61,39.62Z" transform="translate(-30.99 0.66)"/><path class="cls-1" d="M108,39.54a.56.56,0,0,1-.57-.56v-2.6H107a.57.57,0,0,1-.57-.56v-.73a.57.57,0,0,1,.57-.56h2.91a.57.57,0,0,1,.57.56v.73a.57.57,0,0,1-.57.56h-.49V39a.57.57,0,0,1-.57.56Z" transform="translate(-30.99 0.66)"/><path class="cls-1" d="M111.52,40.69a1,1,0,0,1-.94-1,1.11,1.11,0,0,1,0-.19h-1a.6.6,0,0,1-.47-.23.55.55,0,0,1-.07-.51l1.29-3.57a.52.52,0,0,1-.17-.19.56.56,0,0,1,0-.56l.51-.84a.55.55,0,0,1,.49-.27h.62a.58.58,0,0,1,.49.27l.51.84a.54.54,0,0,1,0,.56.66.66,0,0,1-.18.19l1.29,3.57a.55.55,0,0,1-.07.51.56.56,0,0,1-.46.23h-1a.58.58,0,0,1,0,.19A1,1,0,0,1,111.52,40.69Z" transform="translate(-30.99 0.66)"/><path class="cls-1" d="M116.26,39.54a.56.56,0,0,1-.47-.24l-.7-1V39a.57.57,0,0,1-.57.56h-.78a.57.57,0,0,1-.57-.56V35.09a.57.57,0,0,1,.57-.56h.8a.56.56,0,0,1,.47.25l.65.94v-.63a.57.57,0,0,1,.57-.56H117a.56.56,0,0,1,.56.56V39a.56.56,0,0,1-.56.56Z" transform="translate(-30.99 0.66)"/><path class="cls-1" d="M121.64,39.54a.56.56,0,0,1-.47-.24l-.7-1V39a.56.56,0,0,1-.57.56h-.78a.56.56,0,0,1-.56-.56V35.09a.56.56,0,0,1,.56-.56h.8a.55.55,0,0,1,.47.25l.65.94v-.63a.57.57,0,0,1,.57-.56h.78a.57.57,0,0,1,.57.56V39a.57.57,0,0,1-.57.56Z" transform="translate(-30.99 0.66)"/><path class="cls-1" d="M125.61,39.54A.56.56,0,0,1,125,39V37.91h-.59V39a.56.56,0,0,1-.57.56h-.77a.56.56,0,0,1-.57-.56V35.09a.56.56,0,0,1,.57-.56h.77a.56.56,0,0,1,.57.56v1H125v-1a.56.56,0,0,1,.57-.56h.78a.57.57,0,0,1,.57.56V39a.57.57,0,0,1-.57.56Z" transform="translate(-30.99 0.66)"/><path class="cls-1" d="M129.62,39.54a.56.56,0,0,1-.54-.38l-.1-.28h-.74l-.1.29a.58.58,0,0,1-.54.37h-.89a.59.59,0,0,1-.46-.23.55.55,0,0,1-.07-.51l1.41-3.9a.54.54,0,0,1,.07-.13l-.47-.44a.57.57,0,0,1-.13-.61.56.56,0,0,1,.53-.35h.63a.56.56,0,0,1,.43.19l.74.84a.58.58,0,0,1,.14.33.59.59,0,0,1,.1.17L131,38.8a.55.55,0,0,1-.07.51.57.57,0,0,1-.47.23Z" transform="translate(-30.99 0.66)"/><path class="cls-1" d="M132,38.45a.57.57,0,0,1-.57-.56v-.63a.57.57,0,0,1,.57-.56h1.31a.56.56,0,0,1,.57.56v.63a.56.56,0,0,1-.57.56Z" transform="translate(-30.99 0.66)"/><path class="cls-1" d="M137,39.61a2.57,2.57,0,0,1,0-5.14,2.21,2.21,0,0,1,2,1.25.55.55,0,0,1-.23.75l-.67.35a.52.52,0,0,1-.27.07.47.47,0,0,1-.17,0,.58.58,0,0,1-.34-.29.44.44,0,0,0-.35-.25c-.33,0-.57.3-.57.72s.24.72.57.72a.41.41,0,0,0,.35-.25.56.56,0,0,1,.33-.29l.18,0a.54.54,0,0,1,.27.07l.66.34a.56.56,0,0,1,.24.76A2.24,2.24,0,0,1,137,39.61Z" transform="translate(-30.99 0.66)"/><path class="cls-1" d="M140.76,39.61A2.46,2.46,0,0,1,138.29,37a2.51,2.51,0,0,1,1.57-2.41.72.72,0,0,1,.12-.23l.74-.84a.56.56,0,0,1,.43-.19h.64a.56.56,0,0,1,.39,1l-.38.36A2.52,2.52,0,0,1,143.24,37,2.47,2.47,0,0,1,140.76,39.61Zm0-3.29c-.51,0-.54.6-.54.72,0,.33.14.72.54.72s.54-.39.54-.72S141.16,36.32,140.76,36.32Z" transform="translate(-30.99 0.66)"/><path class="cls-1" d="M147.78,39.54a.57.57,0,0,1-.51-.32.56.56,0,0,1-.52.32h-.33a.58.58,0,0,1-.52-.32.56.56,0,0,1-.51.32h-.78A.57.57,0,0,1,144,39V35.09a.57.57,0,0,1,.57-.56h1.09a.56.56,0,0,1,.53.37l.36.93.35-.93a.56.56,0,0,1,.53-.37h1.1a.56.56,0,0,1,.56.56V39a.56.56,0,0,1-.56.56Z" transform="translate(-30.99 0.66)"/><path class="cls-1" d="M159.77,39.54a.56.56,0,0,1-.47-.24l-.7-1V39a.57.57,0,0,1-.57.56h-.78a.57.57,0,0,1-.57-.56V35.09a.57.57,0,0,1,.57-.56h.8a.56.56,0,0,1,.47.25l.65.94v-.63a.57.57,0,0,1,.57-.56h.78a.56.56,0,0,1,.56.56V39a.56.56,0,0,1-.56.56Z" transform="translate(-30.99 0.66)"/><path class="cls-1" d="M163,39.61a2.57,2.57,0,0,1,0-5.14,2.66,2.66,0,0,1,.85.14.85.85,0,0,1,.78-.5.93.93,0,0,1,.91,1,1.56,1.56,0,0,1-.27.86,2.74,2.74,0,0,1,.21,1.08A2.46,2.46,0,0,1,163,39.61Zm0-3.29c-.51,0-.53.6-.53.72,0,.33.14.72.53.72s.54-.39.54-.72S163.36,36.32,163,36.32Z" transform="translate(-30.99 0.66)"/><path class="cls-1" d="M165.42,39.54a.56.56,0,0,1-.57-.56V35.09a.56.56,0,0,1,.57-.56h.77a.56.56,0,0,1,.57.56V39a.56.56,0,0,1-.57.56Z" transform="translate(-30.99 0.66)"/><path class="cls-1" d="M170.83,39.54a.56.56,0,0,1-.47-.24l-.7-1V39a.57.57,0,0,1-.57.56h-.78a.57.57,0,0,1-.57-.56V35.09a.57.57,0,0,1,.57-.56h.8a.56.56,0,0,1,.47.25l.65.94v-.63a.57.57,0,0,1,.57-.56h.78a.56.56,0,0,1,.56.56V39a.56.56,0,0,1-.56.56Z" transform="translate(-30.99 0.66)"/><path class="cls-1" d="M174,39.61a2.57,2.57,0,0,1,0-5.14,2.66,2.66,0,0,1,.85.14.86.86,0,0,1,.78-.5.93.93,0,0,1,.91,1,1.49,1.49,0,0,1-.27.86A2.74,2.74,0,0,1,176.5,37,2.46,2.46,0,0,1,174,39.61Zm0-3.29c-.51,0-.53.6-.53.72,0,.33.14.72.53.72s.54-.39.54-.72S174.42,36.32,174,36.32Z" transform="translate(-30.99 0.66)"/><path class="cls-1" d="M176.48,39.54a.56.56,0,0,1-.57-.56V35.09a.56.56,0,0,1,.57-.56h.77a.56.56,0,0,1,.57.56V39a.56.56,0,0,1-.57.56Z" transform="translate(-30.99 0.66)"/><path class="cls-9" d="M75.39,37a1.9,1.9,0,0,1,1.94-2,1.7,1.7,0,0,1,1.51.87l-.65.37a1,1,0,0,0-.86-.51,1.29,1.29,0,0,0,0,2.56,1.14,1.14,0,0,0,.77-.3v-.47h-1v-.72h1.74v1.49a2,2,0,0,1-1.55.74A1.91,1.91,0,0,1,75.39,37Z" transform="translate(-30.99 0.66)"/><path class="cls-9" d="M79.49,39V35.09h.78V39Z" transform="translate(-30.99 0.66)"/><path class="cls-9" d="M83.51,39l-.23-.66H81.72l-.23.66H80.6L82,35.09h1L84.39,39Zm-1-3.06-.57,1.68h1.14Z" transform="translate(-30.99 0.66)"/><path class="cls-9" d="M84.37,37a1.91,1.91,0,1,1,1.9,2A1.89,1.89,0,0,1,84.37,37Zm3,0a1.12,1.12,0,1,0-1.11,1.28A1.15,1.15,0,0,0,87.38,37Z" transform="translate(-30.99 0.66)"/><path class="cls-9" d="M92.62,39V37.35H90.9V39h-.78V35.09h.78v1.53h1.72V35.09h.78V39Z" transform="translate(-30.99 0.66)"/><path class="cls-9" d="M96.63,39l-.22-.66H94.84l-.22.66h-.89l1.41-3.89h1L97.52,39Zm-1.14-4.22-.89-.84h.64l.74.84Zm.14,1.16-.57,1.68H96.2Z" transform="translate(-30.99 0.66)"/><path class="cls-9" d="M100.37,39l-1.74-2.53V39h-.77V35.09h.79l1.69,2.45V35.09h.78V39Z" transform="translate(-30.99 0.66)"/><path class="cls-9" d="M101.66,37a1.91,1.91,0,0,1,2-2,1.7,1.7,0,0,1,1.51.87l-.65.37a1,1,0,0,0-.86-.51,1.29,1.29,0,0,0,0,2.56,1.16,1.16,0,0,0,.77-.3v-.47h-1v-.72h1.74v1.49a2,2,0,0,1-1.55.74A1.92,1.92,0,0,1,101.66,37Z" transform="translate(-30.99 0.66)"/><path class="cls-9" d="M108,39V35.82H107v-.73h2.91v.73H108.8V39Z" transform="translate(-30.99 0.66)"/><path class="cls-9" d="M112.52,39l-.23-.66h-1.56l-.23.66h-.88L111,35.09h1L113.41,39Zm-.61-4.22-.4-.51-.39.51h-.43l.51-.84h.62l.51.84Zm-.4,1.16-.57,1.68h1.14Zm-.36,3.81a.39.39,0,0,1,.37-.4.4.4,0,0,1,.37.4.39.39,0,0,1-.37.4A.38.38,0,0,1,111.15,39.73Z" transform="translate(-30.99 0.66)"/><path class="cls-9" d="M116.26,39l-1.74-2.53V39h-.78V35.09h.8l1.69,2.45V35.09H117V39Z" transform="translate(-30.99 0.66)"/><path class="cls-9" d="M121.64,39l-1.74-2.53V39h-.78V35.09h.8l1.69,2.45V35.09h.78V39Z" transform="translate(-30.99 0.66)"/><path class="cls-9" d="M125.61,39V37.35h-1.73V39h-.77V35.09h.77v1.53h1.73V35.09h.78V39Z" transform="translate(-30.99 0.66)"/><path class="cls-9" d="M129.62,39l-.23-.66h-1.56l-.23.66h-.89l1.42-3.89h1L130.5,39Zm-1.14-4.22-.89-.84h.63l.74.84Zm.13,1.16L128,37.6h1.14Z" transform="translate(-30.99 0.66)"/><path class="cls-9" d="M132,37.89v-.63h1.31v.63Z" transform="translate(-30.99 0.66)"/><path class="cls-9" d="M135.1,37A1.91,1.91,0,0,1,137,35a1.65,1.65,0,0,1,1.53.95l-.67.35a1,1,0,0,0-.86-.57,1.29,1.29,0,0,0,0,2.56,1,1,0,0,0,.86-.57l.67.35a1.67,1.67,0,0,1-1.53.95A1.91,1.91,0,0,1,135.1,37Z" transform="translate(-30.99 0.66)"/><path class="cls-9" d="M138.86,37a1.91,1.91,0,1,1,1.9,2A1.89,1.89,0,0,1,138.86,37Zm3,0a1.12,1.12,0,1,0-1.11,1.28A1.15,1.15,0,0,0,141.87,37Zm-1-2.28h-.48l.73-.84h.64Z" transform="translate(-30.99 0.66)"/><path class="cls-9" d="M147.78,39V36.26l-1,2.72h-.34l-1-2.72V39h-.78V35.09h1.09l.89,2.35.88-2.35h1.1V39Z" transform="translate(-30.99 0.66)"/><path class="cls-9" d="M151.8,39l-.23-.66H150l-.23.66h-.88l1.41-3.89h1L152.69,39Zm-1-4.07a1.18,1.18,0,0,1-1-.51l.31-.28a.76.76,0,0,0,.65.37.76.76,0,0,0,.65-.37l.31.28A1.17,1.17,0,0,1,150.79,34.91Zm0,1-.57,1.68h1.14Zm-.36,3.81a.39.39,0,0,1,.37-.4.4.4,0,0,1,.36.4.39.39,0,0,1-.36.4A.38.38,0,0,1,150.43,39.73Z" transform="translate(-30.99 0.66)"/><path class="cls-9" d="M153.51,39V35.82h-1.06v-.73h2.91v.73H154.3V39Z" transform="translate(-30.99 0.66)"/><path class="cls-9" d="M159.77,39,158,36.45V39h-.78V35.09h.8l1.69,2.45V35.09h.78V39Z" transform="translate(-30.99 0.66)"/><path class="cls-9" d="M161.06,37a1.89,1.89,0,0,1,1.9-2,1.82,1.82,0,0,1,1.42.63.75.75,0,0,0,.24-.38l-.07,0a.28.28,0,0,1-.26-.3.31.31,0,0,1,.3-.33c.18,0,.34.15.34.43a1,1,0,0,1-.38.77,2.14,2.14,0,0,1,.32,1.17,1.91,1.91,0,1,1-3.81,0Zm3,0A1.12,1.12,0,1,0,163,38.32,1.15,1.15,0,0,0,164.07,37Z" transform="translate(-30.99 0.66)"/><path class="cls-9" d="M165.42,39V35.09h.77V39Z" transform="translate(-30.99 0.66)"/><path class="cls-9" d="M170.83,39l-1.74-2.53V39h-.78V35.09h.8l1.69,2.45V35.09h.78V39Z" transform="translate(-30.99 0.66)"/><path class="cls-9" d="M172.12,37a1.89,1.89,0,0,1,1.9-2,1.86,1.86,0,0,1,1.43.63.91.91,0,0,0,.24-.38l-.08,0a.28.28,0,0,1-.26-.3.31.31,0,0,1,.3-.33c.18,0,.34.15.34.43a1,1,0,0,1-.38.77,2.14,2.14,0,0,1,.32,1.17,1.91,1.91,0,1,1-3.81,0Zm3,0A1.12,1.12,0,1,0,174,38.32,1.15,1.15,0,0,0,175.13,37Z" transform="translate(-30.99 0.66)"/><path class="cls-9" d="M176.48,39V35.09h.77V39Z" transform="translate(-30.99 0.66)"/></svg>