<svg width="28" height="28" viewBox="0 0 28 28" fill="none" xmlns="http://www.w3.org/2000/svg">
<circle cx="14.0004" cy="14.0006" r="12.4994" fill="white" stroke="white" stroke-width="3"/>
<path d="M27.2001 9.33217C27.1986 9.32773 27.1972 9.32401 27.1957 9.31999C25.4039 4.26797 20.7951 0.550975 15.2578 0.0575714C17.4005 1.23224 18.0262 4.9539 18.5745 9.33223C18.949 12.3229 18.9514 15.6181 18.5816 18.6124C18.038 23.0145 17.4096 26.7624 15.2579 27.9419C20.8054 27.4477 25.4207 23.7178 27.2055 18.6522C27.2102 18.6387 27.2141 18.6255 27.219 18.6124C27.723 17.1679 28.0004 15.6165 28.0004 14.0002C28.0001 12.3626 27.7165 10.7923 27.2001 9.33217Z" fill="#E12A28"/>
<path d="M19.2947 9.33217C18.7467 4.95378 17.4001 1.23218 15.2572 0.0575155C14.8427 0.0208073 14.4236 0 13.9997 0C7.90948 0 2.73024 3.88972 0.804389 9.31999C0.802853 9.32396 0.801493 9.32774 0.799956 9.33217C0.283617 10.7923 0 12.3626 0 14.0001C0 15.6167 0.27741 17.1678 0.781395 18.6123C0.786065 18.6254 0.790262 18.6386 0.794873 18.6521C2.71316 24.0964 7.89949 27.9997 13.9996 27.9997C14.4236 27.9997 14.8427 27.9789 15.2572 27.9418C17.4089 26.7623 18.7582 23.0143 19.3017 18.6123C19.6716 15.6178 19.6692 12.3228 19.2947 9.33217Z" fill="#ED3432"/>
<path d="M13.8745 6.82466L15.5375 11.9433H20.9199L16.5654 15.1062L18.2285 20.2254L13.8745 17.0617L9.52021 20.2254L11.1834 15.1062L6.8291 11.9433H12.2113L13.8745 6.82466Z" fill="#FDCE0C"/>
</svg>
